<svg width="32" height="32" viewBox="0 0 32 32" fill="none" xmlns="http://www.w3.org/2000/svg">
<path d="M7.5 15H29C29.2652 15 29.5196 15.1054 29.7071 15.2929C29.8946 15.4804 30 15.7348 30 16C30 16.2652 29.8946 16.5196 29.7071 16.7071C29.5196 16.8946 29.2652 17 29 17H7.5C6.57174 17 5.6815 17.3687 5.02513 18.0251C4.36875 18.6815 4 19.5717 4 20.5C4 21.4283 4.36875 22.3185 5.02513 22.9749C5.6815 23.6313 6.57174 24 7.5 24C7.76522 24 8.01957 24.1054 8.20711 24.2929C8.39464 24.4804 8.5 24.7348 8.5 25C8.5 25.2652 8.39464 25.5196 8.20711 25.7071C8.01957 25.8946 7.76522 26 7.5 26C6.04131 26 4.64236 25.4205 3.61091 24.3891C2.57946 23.3576 2 21.9587 2 20.5C2 19.0413 2.57946 17.6424 3.61091 16.6109C4.64236 15.5795 6.04131 15 7.5 15Z" fill="#228CFD"/>
<path d="M17 24C17.2652 24 17.5196 24.1054 17.7071 24.2929C17.8946 24.4804 18 24.7348 18 25C18 25.2652 17.8946 25.5196 17.7071 25.7071C17.5196 25.8946 17.2652 26 17 26C15.9391 26 14.9217 25.5786 14.1716 24.8284C13.4214 24.0783 13 23.0609 13 22C13 20.9391 13.4214 19.9217 14.1716 19.1716C14.9217 18.4214 15.9391 18 17 18H27C27.2652 18 27.5196 18.1054 27.7071 18.2929C27.8946 18.4804 28 18.7348 28 19C28 19.2652 27.8946 19.5196 27.7071 19.7071C27.5196 19.8946 27.2652 20 27 20H17C16.4696 20 15.9609 20.2107 15.5858 20.5858C15.2107 20.9609 15 21.4696 15 22C15 22.5304 15.2107 23.0391 15.5858 23.4142C15.9609 23.7893 16.4696 24 17 24Z" fill="#228CFD"/>
<path d="M25 14H10C8.93913 14 7.92172 13.5786 7.17157 12.8284C6.42143 12.0783 6 11.0609 6 10C6 8.93913 6.42143 7.92172 7.17157 7.17157C7.92172 6.42143 8.93913 6 10 6C10.2652 6 10.5196 6.10536 10.7071 6.29289C10.8946 6.48043 11 6.73478 11 7C11 7.26522 10.8946 7.51957 10.7071 7.70711C10.5196 7.89464 10.2652 8 10 8C9.46957 8 8.96086 8.21071 8.58579 8.58579C8.21071 8.96086 8 9.46957 8 10C8 10.5304 8.21071 11.0391 8.58579 11.4142C8.96086 11.7893 9.46957 12 10 12H25C25.2652 12 25.5196 12.1054 25.7071 12.2929C25.8946 12.4804 26 12.7348 26 13C26 13.2652 25.8946 13.5196 25.7071 13.7071C25.5196 13.8946 25.2652 14 25 14Z" fill="#228CFD"/>
<path d="M13 7.99996C12.8014 8.00111 12.6069 7.94309 12.4414 7.83329C12.2759 7.72349 12.1468 7.56688 12.0706 7.38344C11.9944 7.19999 11.9746 6.99802 12.0137 6.80328C12.0528 6.60853 12.149 6.42983 12.29 6.28996C12.4299 6.14893 12.6086 6.05275 12.8033 6.01368C12.9981 5.97461 13.2 5.99442 13.3835 6.07059C13.5669 6.14675 13.7235 6.27582 13.8333 6.44134C13.9431 6.60686 14.0011 6.80133 14 6.99996C14 7.26517 13.8946 7.51953 13.7071 7.70706C13.5196 7.8946 13.2652 7.99996 13 7.99996Z" fill="#228CFD"/>
<path d="M10.29 25.71C10.1258 25.5471 10.0231 25.3324 9.99945 25.1023C9.97579 24.8722 10.0326 24.6411 10.1602 24.4482C10.2879 24.2553 10.4784 24.1126 10.6994 24.0444C10.9204 23.9763 11.1582 23.9868 11.3723 24.0742C11.5864 24.1617 11.7636 24.3207 11.8737 24.5241C11.9838 24.7275 12.0199 24.9628 11.976 25.1898C11.9321 25.4169 11.8109 25.6217 11.6329 25.7695C11.4549 25.9172 11.2313 25.9986 11 26C10.7352 25.9963 10.4816 25.8927 10.29 25.71Z" fill="#228CFD"/>
<path d="M20.71 24.2764C20.849 24.4166 20.9435 24.5948 20.9814 24.7886C21.0193 24.9823 20.999 25.183 20.9231 25.3652C20.8472 25.5475 20.719 25.7032 20.5547 25.8127C20.3904 25.9222 20.1974 25.9806 20 25.9806C19.8026 25.9806 19.6096 25.9222 19.4453 25.8127C19.281 25.7032 19.1528 25.5475 19.0769 25.3652C19.001 25.183 18.9807 24.9823 19.0186 24.7886C19.0565 24.5948 19.151 24.4166 19.29 24.2764C19.4837 24.0986 19.7371 24 20 24C20.2629 24 20.5163 24.0986 20.71 24.2764Z" fill="#228CFD"/>
</svg>
