<svg width="32" height="32" viewBox="0 0 32 32" fill="none" xmlns="http://www.w3.org/2000/svg">
<g clip-path="url(#clip0_280_131)">
<path d="M16.8577 31.7062L10.7874 29.6852C10.5539 29.6074 10.3965 29.3889 10.3965 29.1428V19.9885C10.3962 19.6825 10.637 19.4305 10.9428 19.4171C13.4456 19.2528 15.7779 18.0912 17.4177 16.1931C18.661 14.8323 19.2799 13.0139 19.125 11.1772L18.0689 4.57143H14.9679C14.6524 4.57143 14.3965 4.31557 14.3965 4C14.3965 3.68443 14.6524 3.42857 14.9679 3.42857H17.8862L17.3376 0H2.31253L1.76398 3.42857H12.6822C12.9978 3.42857 13.2536 3.68443 13.2536 4C13.2536 4.31557 12.9978 4.57143 12.6822 4.57143H1.58151L0.520959 11.2045C0.375033 13.0335 0.995847 14.841 2.23524 16.1936C3.87503 18.0918 6.20734 19.2533 8.71013 19.4177C9.01593 19.4311 9.25672 19.683 9.25644 19.9891V29.1428C9.25644 29.3889 9.09908 29.6074 8.86554 29.6852L2.78909 31.7081C2.64289 31.7567 2.52207 31.8619 2.45371 32H17.1964C17.1267 31.8613 17.0048 31.7556 16.8577 31.7062Z" fill="#C51A1A"/>
<path d="M28.168 17.1428H26.9107L25.5017 30.1194C25.4545 30.6007 25.6133 31.0795 25.9381 31.4377C26.2631 31.7957 26.7243 32 27.2079 32H27.8708C28.3552 32 28.817 31.7949 29.142 31.4358C29.4671 31.0764 29.625 30.5962 29.5765 30.1144L28.168 17.1428Z" fill="#C51A1A"/>
<path d="M31.5279 8.14734L30.5472 0.474353C30.5022 0.198963 30.2629 -0.00248794 29.9838 2.32182e-05H29.2302L29.8251 8.5321C29.836 8.68361 29.7857 8.83344 29.6858 8.94812C29.5862 9.0628 29.4448 9.13283 29.293 9.14287H29.2536C28.9529 9.14371 28.7029 8.91101 28.6822 8.61079L28.084 2.32182e-05H26.9331L26.3965 8.60688C26.3778 8.9085 26.1273 9.14343 25.8251 9.14287H25.7885C25.637 9.13339 25.4956 9.06419 25.3951 8.95035C25.2949 8.83651 25.2439 8.68752 25.2536 8.53601L25.7885 2.32182e-05H25.0946C24.8117 2.32182e-05 24.5714 0.207054 24.5296 0.486909L23.5519 8.13534C23.4244 8.96012 23.6641 9.7994 24.2079 10.4328C24.7514 11.0659 25.5447 11.4297 26.3792 11.4286C26.6984 11.4272 26.9598 11.6811 26.9679 12V13.7143H28.1108V12C28.1108 11.6844 28.3666 11.4286 28.6822 11.4286H28.6992C29.5315 11.4294 30.3228 11.0675 30.8664 10.437C31.4099 9.80666 31.6515 8.97044 31.5279 8.14734Z" fill="#C51A1A"/>
<path d="M26.9679 14.8572H28.1108V16H26.9679V14.8572Z" fill="#C51A1A"/>
</g>
<defs>
<clipPath id="clip0_280_131">
<rect width="32" height="32" fill="white"/>
</clipPath>
</defs>
</svg>
