<svg width="30" height="30" viewBox="0 0 30 30" fill="none" xmlns="http://www.w3.org/2000/svg">
<path d="M1.15001 12.8H1.25001C1.50001 12.8 1.70001 12.65 1.75001 12.4C2.75001 7.05002 7.05001 2.75002 12.4 1.75002C12.65 1.70002 12.85 1.45002 12.8 1.15002C12.75 0.900023 12.5 0.700023 12.2 0.750023C6.45001 1.85002 1.85001 6.45002 0.750015 12.2C0.700015 12.5 0.850015 12.75 1.15001 12.8Z" fill="#01B34E"/>
<path d="M17.6 1.74995C22.95 2.79995 27.25 7.09995 28.3 12.4C28.35 12.65 28.55 12.8 28.8 12.8H28.9C29.15 12.75 29.35 12.5 29.3 12.2C28.2 6.44995 23.55 1.84995 17.8 0.749954C17.55 0.699954 17.25 0.849954 17.2 1.14995C17.15 1.44995 17.35 1.69995 17.6 1.74995Z" fill="#01B34E"/>
<path d="M12.4 28.25C7.04997 27.25 2.74997 22.95 1.69997 17.6C1.64997 17.35 1.39997 17.15 1.09997 17.2C0.849974 17.25 0.649974 17.5 0.699974 17.8C1.79997 23.55 6.44997 28.15 12.15 29.25H12.25C12.5 29.25 12.7 29.1 12.75 28.85C12.85 28.6 12.65 28.3 12.4 28.25Z" fill="#01B34E"/>
<path d="M28.85 17.2C28.6 17.15 28.3 17.3 28.25 17.6C27.2 22.95 22.9 27.25 17.55 28.25C17.3 28.3 17.1 28.55 17.15 28.85C17.2 29.1 17.4 29.25 17.65 29.25H17.75C23.5 28.15 28.1 23.55 29.25 17.8C29.3 17.5 29.15 17.25 28.85 17.2Z" fill="#01B34E"/>
<path d="M15 1.95C15.3 1.95 15.5 1.75 15.5 1.45V0.5C15.5 0.2 15.3 0 15 0C14.7 0 14.5 0.2 14.5 0.5V1.45C14.5 1.75 14.7 1.95 15 1.95Z" fill="#01B34E"/>
<path d="M1.95 15C1.95 14.7 1.75 14.5 1.45 14.5H0.5C0.2 14.5 0 14.7 0 15C0 15.3 0.2 15.5 0.5 15.5H1.45C1.75 15.5 1.95 15.3 1.95 15Z" fill="#01B34E"/>
<path d="M15 28.05C14.7 28.05 14.5 28.25 14.5 28.55V29.5C14.5 29.8 14.7 30 15 30C15.3 30 15.5 29.8 15.5 29.5V28.55C15.5 28.25 15.3 28.05 15 28.05Z" fill="#01B34E"/>
<path d="M29.5 14.5H28.55C28.25 14.5 28.05 14.7 28.05 15C28.05 15.3 28.25 15.5 28.55 15.5H29.5C29.8 15.5 30 15.3 30 15C30 14.7 29.75 14.5 29.5 14.5Z" fill="#01B34E"/>
<path d="M21.4 21.8C21.55 21.8 21.65 21.75 21.75 21.65C21.9 21.5 21.95 21.2001 21.8 21L19.1 17L26.5 15.5C26.75 15.45 26.9 15.25 26.9 15C26.9 14.75 26.75 14.55 26.5 14.5L19.15 13L21.85 9.00005C22 8.80005 21.95 8.55005 21.8 8.35005C21.65 8.20005 21.35 8.15005 21.2 8.30005L17.05 10.95L15.5 3.70005C15.45 3.45005 15.25 3.30005 15 3.30005C14.75 3.30005 14.55 3.45005 14.5 3.70005L13 10.95L8.89998 8.30005C8.69998 8.15005 8.44998 8.20005 8.24998 8.35005C8.09998 8.50005 8.04998 8.80005 8.19998 8.95005L10.9 13L3.49998 14.5C3.24998 14.55 3.09998 14.75 3.09998 15C3.09998 15.25 3.24998 15.45 3.49998 15.5L10.85 17L8.14998 21C7.99998 21.2001 8.04998 21.45 8.19998 21.65C8.29998 21.75 8.44998 21.8 8.54998 21.8C8.64998 21.8 8.74998 21.8001 8.79998 21.7001L12.95 19.05L14.5 26.3C14.55 26.55 14.75 26.7001 15 26.7001C15.25 26.7001 15.45 26.55 15.5 26.3L17 19.05L21.15 21.7001C21.25 21.75 21.35 21.8 21.4 21.8Z" fill="#01B34E"/>
</svg>
