<svg width="32" height="32" viewBox="0 0 32 32" fill="none" xmlns="http://www.w3.org/2000/svg">
<path d="M16.057 25.106C14.96 25.51 13.567 26.022 11.805 26.675C8.79603 26.255 5.63403 25.276 4.26703 23.029C4.76503 21.688 5.19903 20.513 5.58303 19.476C8.15903 22.452 12.66 24.342 16.057 25.106Z" fill="#FF0E93"/>
<path d="M16.931 15.069C14.003 12.142 10.233 9.98 8.69599 11.52C8.36799 11.848 8.46699 11.652 6.18799 17.837C8.61799 21.344 14.758 23.793 19.035 24.008C20.314 23.527 20.284 23.503 20.481 23.305C22.366 21.42 18.815 16.952 16.931 15.069ZM19.419 22.243C19.276 22.388 18.611 22.395 17.43 21.812C16.146 21.177 14.681 20.07 13.305 18.694C10.117 15.506 9.37199 12.964 9.75599 12.58C9.81599 12.52 9.92799 12.488 10.087 12.488C10.948 12.488 13.179 13.439 15.871 16.13C17.247 17.506 18.355 18.971 18.99 20.255C19.573 21.434 19.563 22.1 19.419 22.243Z" fill="#FF0E93"/>
<path d="M9.05901 27.6939C7.32701 28.3379 5.33001 29.0839 3.01101 29.9529C2.40801 30.1749 1.82401 29.5889 2.04701 28.9889C2.63101 27.4249 3.15801 26.0109 3.63801 24.7209C4.95601 26.2349 6.93801 27.1529 9.05901 27.6939Z" fill="#FF0E93"/>
<path d="M19.669 3.89503C19.202 3.97703 18.751 4.05103 18.445 4.20503C18.905 4.91103 19.866 5.81003 19.279 6.98403C18.754 8.03403 17.663 7.97203 16.716 8.00503C17.297 8.79903 17.969 9.60403 17.451 10.641C16.914 11.716 15.506 11.939 14.675 12.074C14.406 12.118 14.156 11.938 14.106 11.671L13.924 10.689C13.873 10.416 14.057 10.153 14.33 10.105C14.803 10.022 15.246 9.95003 15.554 9.79503C15.092 9.09403 14.135 8.18603 14.719 7.01703C15.243 5.97003 16.333 6.02903 17.282 5.99603C16.7 5.20203 16.029 4.39703 16.547 3.36003C17.084 2.28603 18.493 2.06203 19.322 1.92703C19.591 1.88303 19.841 2.06303 19.89 2.33003L20.072 3.31203C20.125 3.58503 19.943 3.84703 19.669 3.89503Z" fill="#FF0E93"/>
<path d="M28.689 11.925L29.671 12.107C29.939 12.157 30.118 12.407 30.074 12.675C29.939 13.504 29.715 14.913 28.641 15.45C27.604 15.968 26.799 15.297 26.005 14.715C25.972 15.664 26.031 16.755 24.984 17.278C23.815 17.862 22.907 16.905 22.206 16.443C22.051 16.751 21.979 17.194 21.896 17.667C21.848 17.941 21.585 18.124 21.312 18.073L20.33 17.891C20.062 17.841 19.883 17.591 19.927 17.322C20.062 16.492 20.286 15.084 21.36 14.546C22.396 14.028 23.202 14.7 23.996 15.281C24.029 14.334 23.967 13.242 25.017 12.718C26.191 12.131 27.09 13.092 27.796 13.552C27.95 13.246 28.024 12.795 28.106 12.328C28.153 12.057 28.415 11.875 28.689 11.925Z" fill="#FF0E93"/>
<path d="M25.7 21H23.8C23.634 21 23.5 20.866 23.5 20.7V19.8C23.5 19.634 23.634 19.5 23.8 19.5H25.7C25.866 19.5 26 19.634 26 19.8V20.7C26 20.866 25.866 21 25.7 21Z" fill="#FF0E93"/>
<path d="M27.788 3.27302L26.444 4.61702C26.327 4.73402 26.137 4.73402 26.02 4.61702L25.384 3.98002C25.267 3.86302 25.267 3.67302 25.384 3.55602L26.728 2.21202C26.845 2.09502 27.035 2.09502 27.152 2.21202L27.788 2.84802C27.905 2.96502 27.905 3.15502 27.788 3.27302Z" fill="#FF0E93"/>
<path d="M12.2 6.5H11.3C11.134 6.5 11 6.366 11 6.2V4.3C11 4.134 11.134 4 11.3 4H12.2C12.366 4 12.5 4.134 12.5 4.3V6.2C12.5 6.366 12.366 6.5 12.2 6.5Z" fill="#FF0E93"/>
<path d="M19.383 13.255L18.633 12.755C18.492 12.661 18.451 12.471 18.548 12.332C20.589 9.42801 24.524 6.40101 28.687 6.25501C28.858 6.25001 29 6.39201 29 6.56201V7.46301C29 7.62301 28.874 7.74801 28.714 7.75501C25.231 7.89301 21.663 10.516 19.786 13.179C19.693 13.312 19.517 13.345 19.383 13.255Z" fill="#FF0E93"/>
</svg>
