<svg width="32" height="32" viewBox="0 0 32 32" fill="none" xmlns="http://www.w3.org/2000/svg">
<path d="M29.5897 11.1644C28.601 7.58698 24.9244 5.4463 21.3117 6.33907L21.2509 6.37102C20.579 6.53101 20.035 6.91502 19.555 7.42698C18.8191 8.22695 17.4783 8.7677 15.9776 8.7677C14.4737 8.7677 13.1009 8.22695 12.397 7.42698C11.949 6.91502 11.373 6.53101 10.701 6.37102L10.6402 6.33907C7.02763 5.4463 3.35099 7.58698 2.36225 11.1644C1.2423 15.257 0.666333 18.2265 0.826326 21.9351C0.858316 22.959 1.27429 23.8518 1.94627 24.5558C2.58624 25.2597 3.51098 25.7077 4.50295 25.8357C5.87567 25.9957 7.21961 25.4517 8.11236 24.4278L9.04033 23.375C10.3843 21.6791 13.0049 20.5303 16.0064 20.5303C19.011 20.5303 21.5997 21.6791 22.9757 23.375L23.9036 24.4278C24.7964 25.4517 26.1403 25.9957 27.513 25.8357C28.505 25.7397 29.4297 25.2597 30.0697 24.5558C30.7417 23.8518 31.1577 22.959 31.1897 21.9351C31.2857 18.2265 30.7097 15.257 29.5897 11.1644ZM11.629 15.545H10.0323V17.1418C10.0323 17.7177 9.55229 18.1977 8.97633 18.1977C8.40036 18.1977 7.92358 17.7177 7.92358 17.1418V15.545H6.32366C5.74769 15.545 5.2709 15.065 5.2709 14.4891C5.2709 14.2011 5.3957 13.9131 5.5877 13.7243C5.77968 13.5323 6.03567 13.4043 6.35565 13.4043H7.95557V11.7724C7.95557 11.1964 8.43235 10.7196 9.00834 10.7196C9.29631 10.7196 9.5843 10.8476 9.77629 11.0396C9.96829 11.2284 10.0963 11.4844 10.0963 11.8044V13.4363H11.693C12.269 13.4363 12.749 13.9131 12.749 14.4891C12.7169 15.065 12.237 15.545 11.629 15.545ZM23.4236 10.6557C24.1244 10.6557 24.7004 11.2284 24.7004 11.9644C24.7004 12.6683 24.1244 13.2443 23.4236 13.2443C22.7197 13.2443 22.1117 12.6683 22.1117 11.9644C22.1117 11.2284 22.6877 10.6557 23.4236 10.6557ZM20.867 15.801C20.163 15.801 19.587 15.225 19.587 14.4891C19.587 13.7851 20.163 13.2123 20.867 13.2123C21.5677 13.2123 22.1437 13.7851 22.1437 14.4891C22.1757 15.193 21.5997 15.801 20.867 15.801ZM23.4236 18.3257C22.7197 18.3257 22.1117 17.7497 22.1117 17.0137C22.1117 16.313 22.6877 15.737 23.4236 15.737C24.1244 15.737 24.7004 16.313 24.7004 17.0137C24.7004 17.7497 24.1244 18.3257 23.4236 18.3257ZM25.9483 15.801C25.2444 15.801 24.6364 15.225 24.6364 14.4891C24.6364 13.7851 25.2123 13.2123 25.9483 13.2123C26.6491 13.2123 27.2251 13.7851 27.2251 14.4891C27.2251 15.193 26.6491 15.801 25.9483 15.801Z" fill="#103CBF"/>
</svg>
