<svg width="32" height="32" viewBox="0 0 32 32" fill="none" xmlns="http://www.w3.org/2000/svg">
<path d="M8.07003 26.925C8.06795 26.915 8.0621 26.925 8.06003 26.915L7.49503 26.59L6.59003 28.165L7.72003 28.815L8.63003 27.245L8.08503 26.93C8.08231 26.9303 8.07956 26.93 8.07696 26.9292C8.07436 26.9283 8.07199 26.9269 8.07003 26.925Z" fill="#F2A809"/>
<path d="M21.89 3.97005L22.495 2.91505C22.5585 2.80052 22.5744 2.66566 22.5394 2.53949C22.5044 2.41333 22.4213 2.30593 22.308 2.24041C22.1946 2.17489 22.0601 2.15648 21.9333 2.18914C21.8065 2.2218 21.6976 2.30292 21.63 2.41505L21.02 3.47005C21.318 3.62036 21.608 3.79292 21.89 3.97005Z" fill="#F2A809"/>
<path d="M21.765 5.08506C21.1103 4.6328 20.4118 4.24753 19.68 3.93506C16.448 4.10406 12.2106 7.53019 10.8901 10.5551C12.3284 10.3926 14.7901 11.7675 15.47 13.0801C15.0491 13.8158 11.7761 19.4875 11.2707 20.3639L10.3054 19.8067C10.2485 19.7739 10.1858 19.7525 10.1206 19.7439C10.0555 19.7353 9.98931 19.7397 9.92585 19.7567C9.86239 19.7736 9.80291 19.803 9.75079 19.843C9.69867 19.8829 9.65494 19.9328 9.6221 19.9897C9.58926 20.0466 9.56795 20.1094 9.55939 20.1745C9.55083 20.2397 9.55518 20.3059 9.57221 20.3693C9.58923 20.4328 9.61859 20.4922 9.65861 20.5443C9.69862 20.5964 9.74851 20.6401 9.80542 20.6729L10.77 21.2301L8.13 25.8001L8.995 26.3051C10.619 23.4856 14.0065 17.6277 15.645 14.7751L16.33 13.5851C17.8938 13.5579 20.1051 14.8804 20.77 16.2001C22.4843 13.4599 23.1807 7.78434 21.765 5.08506Z" fill="#F2A809"/>
<path d="M23.23 6.28003C23.976 9.32303 23.2751 13.9677 21.6799 16.625C22.5214 16.6998 23.3365 16.9568 24.0686 17.3782C24.8008 17.7995 25.4325 18.3751 25.92 19.0651C26.8106 16.9109 27.0302 14.538 26.5503 12.2569C26.0703 9.97585 24.9131 7.89272 23.23 6.28003Z" fill="#F2A809"/>
<path d="M10.11 9.87996C11.0014 8.16978 12.2557 6.67494 13.785 5.49996C14.9757 4.53674 16.3285 3.79345 17.78 3.30496C15.6084 2.79562 13.336 2.92329 11.2351 3.67267C9.13425 4.42204 7.29403 5.76133 5.935 7.53002C7.30097 7.51074 9.39203 8.70438 10.11 9.87996Z" fill="#F2A809"/>
</svg>
