<svg width="32" height="32" viewBox="0 0 32 32" fill="none" xmlns="http://www.w3.org/2000/svg">
<path fill-rule="evenodd" clip-rule="evenodd" d="M21.6666 9.33329C21.6666 9.88529 21.2186 10.3333 20.6666 10.3333C20.1146 10.3333 19.6666 9.88529 19.6666 9.33329V7.33329C19.6666 5.30796 18.0253 3.66663 16 3.66663C13.9746 3.66663 12.3333 5.30796 12.3333 7.33329V9.33329C12.3333 9.88529 11.8853 10.3333 11.3333 10.3333C10.7813 10.3333 10.3333 9.88529 10.3333 9.33329V7.33329C10.3333 4.20396 12.8706 1.66663 16 1.66663C19.1293 1.66663 21.6666 4.20396 21.6666 7.33329V9.33329Z" fill="#6632B9"/>
<path fill-rule="evenodd" clip-rule="evenodd" d="M25.7893 11.1333L26.856 27.1333C26.9106 27.9626 26.62 28.7759 26.0533 29.3826C25.4853 29.9893 24.692 30.3333 23.8626 30.3333H8.13731C7.30798 30.3333 6.51464 29.9893 5.94664 29.3826C5.37998 28.7759 5.08931 27.9626 5.14398 27.1333L6.21064 11.1333C6.31598 9.55725 7.62531 8.33325 9.20398 8.33325H22.796C24.3746 8.33325 25.684 9.55725 25.7893 11.1333ZM19.3146 14.2373C18.7253 15.4759 17.4626 16.3333 16 16.3333C14.5373 16.3333 13.2746 15.4759 12.6853 14.2373C12.4493 13.7386 11.852 13.5266 11.3533 13.7639C10.8546 13.9999 10.6426 14.5973 10.8786 15.0959C11.788 17.0106 13.74 18.3333 16 18.3333C18.26 18.3333 20.212 17.0106 21.1213 15.0959C21.3573 14.5973 21.1453 13.9999 20.6466 13.7639C20.148 13.5266 19.5506 13.7386 19.3146 14.2373Z" fill="#6632B9"/>
</svg>
