<svg width="32" height="32" viewBox="0 0 32 32" fill="none" xmlns="http://www.w3.org/2000/svg">
<g clip-path="url(#clip0_283_362)">
<path d="M16.2113 5.86481C15.9273 6.14879 15.8646 6.56927 16.0212 6.91469L14.6814 8.2545C14.5609 8.19975 14.4294 8.16982 14.2945 8.16982C14.0458 8.16982 13.8074 8.26856 13.6316 8.44443L1.16293 20.913C-0.387737 22.4638 -0.387737 24.9873 1.163 26.5385L5.46247 30.8377C6.2113 31.5865 7.21019 31.9989 8.27507 31.999C8.2752 31.999 8.2752 31.999 8.27538 31.999C9.34002 31.999 10.3388 31.5866 11.0877 30.8377L23.5564 18.3692C23.7322 18.1934 23.831 17.9549 23.831 17.7063C23.831 17.5714 23.801 17.4398 23.7464 17.3194L25.0862 15.9795C25.2089 16.0352 25.3408 16.0641 25.4731 16.0641C25.713 16.0641 25.9529 15.9725 26.136 15.7895L28.9128 13.0128L18.988 3.08801L16.2113 5.86481Z" fill="#B05301"/>
<path d="M29.8085 6.09772L31.7254 4.18081C32.0915 3.81477 32.0915 3.22118 31.7254 2.85507L29.1457 0.275387C28.7797 -0.0906565 28.1861 -0.0906565 27.82 0.275387L25.9032 2.19216L24.4161 0.705053C24.0104 0.299449 23.4696 0.076085 22.8936 0.076085C22.3174 0.076085 21.7765 0.299574 21.3707 0.705428L20.3138 1.76225L30.2385 11.6871L31.2953 10.6302C31.7011 10.2244 31.9246 9.68366 31.9246 9.10738C31.9246 8.53109 31.7011 7.99031 31.2953 7.58464L29.8085 6.09772Z" fill="#B05301"/>
</g>
<defs>
<clipPath id="clip0_283_362">
<rect width="32" height="32" fill="white"/>
</clipPath>
</defs>
</svg>
