<svg width="32" height="32" viewBox="0 0 32 32" fill="none" xmlns="http://www.w3.org/2000/svg">
<path d="M24.4375 0H26.3125V1.875H24.4375V0Z" fill="#04B6B0"/>
<path d="M5.6875 0H7.5625V1.875H5.6875V0Z" fill="#04B6B0"/>
<path d="M20.6875 23.5C20.6875 22.9827 20.2673 22.5625 19.75 22.5625H12.25C11.7327 22.5625 11.3125 22.9827 11.3125 23.5V32H20.6875V23.5Z" fill="#04B6B0"/>
<path d="M5.6875 32H9.4375V23.5C9.4375 21.9491 10.6991 20.6875 12.25 20.6875H19.75C21.3009 20.6875 22.5625 21.9491 22.5625 23.5V32H26.3125V13.1875H5.6875V32Z" fill="#04B6B0"/>
<path d="M4.75 11.3125H5.6875V1.875H4.75C3.19369 1.875 1.9375 3.13119 1.9375 4.6875V8.5C1.9375 10.0563 3.19369 11.3125 4.75 11.3125Z" fill="#04B6B0"/>
<path d="M7.5625 1.875H24.4375V11.3125H7.5625V1.875Z" fill="#04B6B0"/>
<path d="M27.25 11.3125C28.8063 11.3125 30.0625 10.0563 30.0625 8.5V4.6875C30.0625 3.13119 28.8063 1.875 27.25 1.875H26.3125V11.3125H27.25Z" fill="#04B6B0"/>
<path d="M3.8125 29.9524V20.8602C2.72362 21.2485 1.9375 22.2794 1.9375 23.5V27.3125C1.9375 28.5332 2.72362 29.564 3.8125 29.9524Z" fill="#04B6B0"/>
<path d="M30.0625 27.3125V23.5C30.0625 22.2794 29.2764 21.2485 28.1875 20.8602V29.9524C29.2764 29.564 30.0625 28.5332 30.0625 27.3125Z" fill="#04B6B0"/>
</svg>
