<svg width="32" height="32" viewBox="0 0 32 32" fill="none" xmlns="http://www.w3.org/2000/svg">
<g clip-path="url(#clip0_283_377)">
<path fill-rule="evenodd" clip-rule="evenodd" d="M29.6875 2.49756H2.3125C1.69942 2.4983 1.11165 2.74218 0.678138 3.1757C0.244621 3.60921 0.000744287 4.19697 0 4.81006L0 20.9105H32V4.81012C31.9993 4.19704 31.7554 3.60928 31.3219 3.17576C30.8883 2.74224 30.3006 2.49837 29.6875 2.49762V2.49756ZM0 22.4106V23.2867C0.000744287 23.8998 0.244621 24.4876 0.678138 24.9211C1.11165 25.3546 1.69942 25.5985 2.3125 25.5992H13.2294V28.0023H11.8119C11.613 28.0023 11.4222 28.0813 11.2815 28.222C11.1409 28.3626 11.0619 28.5534 11.0619 28.7523C11.0619 28.9512 11.1409 29.142 11.2815 29.2826C11.4222 29.4233 11.613 29.5023 11.8119 29.5023H20.1881C20.387 29.5023 20.5777 29.4233 20.7184 29.2826C20.859 29.142 20.9381 28.9512 20.9381 28.7523C20.9381 28.5534 20.859 28.3626 20.7184 28.222C20.5777 28.0813 20.387 28.0023 20.1881 28.0023H18.7706V25.5993H29.6875C30.3006 25.5986 30.8883 25.3547 31.3219 24.9212C31.7554 24.4877 31.9993 23.8999 32 23.2868V22.4106H0Z" fill="#1368A8"/>
</g>
<defs>
<clipPath id="clip0_283_377">
<rect width="32" height="32" fill="white"/>
</clipPath>
</defs>
</svg>
