<svg width="48" height="48" viewBox="0 0 48 48" fill="none" xmlns="http://www.w3.org/2000/svg">
<path d="M22.9917 42.7738C22.1908 42.7738 21.4263 42.6461 20.6983 42.3907C19.9702 42.1475 19.3392 41.7462 18.8053 41.1868C18.2714 40.6274 17.883 39.8856 17.6404 38.9614L17.6222 38.7607C17.6222 38.5297 17.701 38.3412 17.8588 38.1953C18.0165 38.0493 18.1985 37.9764 18.4048 37.9764C18.7689 37.9764 19.0237 38.177 19.1693 38.5783C19.3392 39.2472 19.6365 39.7214 20.0612 40.0011C20.4859 40.293 20.9652 40.4389 21.4991 40.4389C22.4942 40.4389 23.3618 40.1714 24.102 39.6363C26.5168 37.9095 28.07 33.8296 28.7617 27.3966C28.2035 28.5884 27.5482 29.695 26.7959 30.7165C26.0435 31.7258 25.182 32.5527 24.2112 33.1973C23.2404 33.8296 22.1362 34.1458 20.8985 34.1458C19.2967 34.1458 17.9862 33.7506 16.9669 32.9601C15.9476 32.1575 15.1953 31.0874 14.7099 29.7497C14.2366 28.3999 14 26.898 14 25.2442C14 23.6025 14.2245 21.8879 14.6735 20.1003C15.1224 18.3126 15.7656 16.5858 16.6029 14.9198C17.4401 13.2417 18.4473 11.7337 19.6244 10.3961C20.8135 9.0584 22.1483 7.99434 23.6287 7.2039C25.1213 6.4013 26.7352 6 28.4704 6C29.5261 6 30.3573 6.21889 30.9641 6.65667C31.5829 7.09446 32.0258 7.67817 32.2928 8.40781C32.5598 9.12528 32.6932 9.90356 32.6932 10.7426C32.6932 11.7885 32.5355 12.8464 32.22 13.9166C31.9166 14.9745 31.5344 15.8927 31.0733 16.671C30.8913 16.9263 30.6668 17.054 30.3998 17.054C30.1935 17.054 30.0115 16.975 29.8538 16.8169C29.696 16.6588 29.6171 16.4764 29.6171 16.2697C29.6171 16.1237 29.6535 15.99 29.7263 15.8684C30.0418 15.3454 30.3573 14.5854 30.6728 13.5882C30.9883 12.5789 31.1461 11.6061 31.1461 10.6697C31.1461 9.028 30.5212 8.20716 29.2713 8.20716C28.1671 8.20716 27.0992 8.62062 26.0678 9.44754C25.0485 10.2745 24.102 11.3628 23.2283 12.7127C22.3546 14.0625 21.5901 15.5522 20.9349 17.1817C20.2918 18.8112 19.7821 20.459 19.4059 22.125C19.0419 23.791 18.8599 25.3232 18.8599 26.7217C18.8599 27.7432 18.9691 28.6492 19.1875 29.4396C19.4059 30.2301 19.7457 30.8503 20.2068 31.3002C20.6801 31.7501 21.2807 31.9751 22.0088 31.9751C23.2829 31.89 24.3932 31.2516 25.3397 30.0598C26.2983 28.8681 27.0992 27.4939 27.7424 25.9374C28.3855 24.3808 28.8769 23.0188 29.2167 21.8514C29.3623 21.4258 29.6535 21.1157 30.0904 20.9211C30.5394 20.7144 31.0247 20.611 31.5465 20.611C32.0076 20.611 32.4566 20.684 32.8935 20.8299C33.3303 20.9637 33.6883 21.1643 33.9674 21.4318C34.2586 21.6994 34.4042 22.0156 34.4042 22.3804V22.4533C34.2343 25.4449 33.846 28.2844 33.2393 30.9719C32.4748 34.3647 31.3402 37.0826 29.8356 39.1256C28.0518 41.5577 25.7705 42.7738 22.9917 42.7738Z" fill="black"/>
</svg>
