<svg width="33" height="32" viewBox="0 0 33 32" fill="none" xmlns="http://www.w3.org/2000/svg">
<g clip-path="url(#clip0_406_981)">
<path d="M22.5 0H8.5C4.08172 0 0.5 3.58172 0.5 8V22C0.5 26.4183 4.08172 30 8.5 30H22.5C26.9183 30 30.5 26.4183 30.5 22V8C30.5 3.58172 26.9183 0 22.5 0Z" fill="#FF875B"/>
<path d="M17.6713 7.5H13.3288C13.1836 7.5 13.0674 7.61925 13.0642 7.76748C12.9764 11.934 10.8428 15.8885 7.17043 18.6895C7.05385 18.7784 7.02728 18.9455 7.11252 19.0658L9.65327 22.6551C9.73971 22.7772 9.90809 22.8048 10.0267 22.7151C12.3229 20.9751 14.1699 18.8761 15.5 16.5496C16.83 18.8761 18.6772 20.9751 20.9734 22.7151C21.0918 22.8048 21.2603 22.7772 21.3468 22.6551L23.8875 19.0658C23.9727 18.9455 23.9461 18.7784 23.8297 18.6895C20.1571 15.8885 18.0236 11.934 17.9359 7.76748C17.9327 7.61925 17.8164 7.5 17.6713 7.5Z" fill="white"/>
</g>
<defs>
<clipPath id="clip0_406_981">
<rect width="32" height="32" fill="white" transform="translate(0.5)"/>
</clipPath>
</defs>
</svg>
