<svg width="150" height="132" viewBox="0 0 150 132" fill="none" xmlns="http://www.w3.org/2000/svg">
<path d="M126.972 111.476C121.947 116.346 116.159 120.361 109.837 123.361C103.662 126.247 97.1523 128.351 90.4572 129.626C85.69 130.638 80.8457 131.245 75.9762 131.441C58.8475 131.835 41.9834 127.164 27.4983 118.014C21.0799 113.942 15.3433 108.883 10.4997 103.025C7.35674 99.2538 4.7314 95.0795 2.6933 90.6131C0.904059 86.0496 -0.00960879 81.1899 7.61958e-05 76.2883C7.61958e-05 73.2633 2.0883 73.556 4.68394 75.4881C7.97957 78.034 10.8175 81.1227 13.0759 84.6216C16.3891 91.8762 21.2915 98.2927 27.4202 103.396C33.8277 108.794 41.0807 113.1 48.8879 116.14C58.5093 120.043 69.7311 120.512 80.2698 119.575C91.9294 118.809 103.146 114.816 112.666 108.041C118.442 103.773 123.311 98.3993 126.991 92.2329C132.691 82.6206 136.153 71.8479 137.12 60.7144C137.715 52.1216 137.138 43.4877 135.403 35.0508C135.051 33.1967 134.564 31.4012 134.212 29.5472C133.354 22.5995 133.568 20.2966 136.457 17.9937C136.985 17.4715 137.546 16.9827 138.135 16.53C139.774 15.359 143.229 17.6424 145.219 22.9898C146.81 26.9662 147.943 31.1108 148.596 35.3435C149.343 39.6597 149.793 44.022 149.942 48.3998C150.252 57.4434 149.313 66.4865 147.151 75.2734C143.964 89.0087 137.057 101.601 127.186 111.671L126.972 111.476Z" fill="#003049"/>
<path d="M37.7439 22.6386C38.466 28.9618 42.3887 36.9439 48.4582 39.7347C51.0734 40.9447 54.9571 40.1836 55.6206 36.8268C56.519 30.9102 55.3102 24.8661 52.2053 19.7502C50.96 17.2994 49.1134 15.2044 46.8384 13.6612C45.1749 12.7904 43.2007 12.7442 41.4983 13.5361C39.7959 14.3281 38.5594 15.8678 38.1537 17.701C36.3973 23.7315 45.804 26.3076 47.5605 20.2771L47.7752 19.4965L45.5308 22.4239L44.3794 22.7557L40.9836 21.331C44.2818 23.9657 47.0921 29.9376 46.2529 34.2312L53.4153 31.3037C50.3121 29.3878 48.1802 26.2325 47.5605 22.6386C47.4792 19.9784 45.3417 17.8409 42.6815 17.7596C39.9957 17.7808 37.8237 19.9528 37.8024 22.6386H37.7439Z" fill="#003049"/>
<path d="M67.2915 9.58239C68.0331 16.0422 72.0925 24.6683 78.2986 27.5762C80.9137 28.7862 84.817 28.0056 85.461 24.6488C86.3303 18.4852 85.0409 12.2106 81.8115 6.88917C80.5634 4.39583 78.6951 2.26538 76.386 0.70257C74.7416 -0.169318 72.7867 -0.233006 71.089 0.530001C69.3913 1.29301 68.1411 2.7972 67.7013 4.60579C65.9449 10.6558 75.3712 13.2319 77.1081 7.20143L77.3423 6.42079L75.0979 9.3482L73.927 9.67997L70.4726 8.2553C73.9075 11.0071 76.9129 17.584 76.0542 22.0337L83.2166 19.1258C80.2502 17.7401 77.3618 12.7635 77.0495 9.56288C76.347 3.39579 66.5694 3.31773 67.2915 9.56288V9.58239Z" fill="#003049"/>
</svg>
