<svg width="28" height="28" viewBox="0 0 28 28" fill="none" xmlns="http://www.w3.org/2000/svg">
<path d="M18.1126 2.31776C18.155 2.38968 18.0988 2.47858 18.0153 2.47858C16.3245 2.47858 14.95 3.81727 14.9177 5.48078C14.3387 5.37268 13.7388 5.36455 13.1461 5.46441C13.1052 3.8085 11.7342 2.47858 10.0488 2.47858C9.96529 2.47858 9.90907 2.38961 9.95152 2.31764C10.77 0.931448 12.291 0 14.032 0C15.7731 0 17.2941 0.931498 18.1126 2.31776Z" fill="url(#paint0_linear_406_985)"/>
<path d="M23.4501 12.706C23.8764 12.8351 24.2803 12.4609 24.1377 12.0388C22.6521 7.6384 17.7257 5.84399 14.0086 5.84399C10.2855 5.84399 5.24911 7.69535 3.8808 12.0585C3.74933 12.4778 4.15192 12.8393 4.572 12.7107L13.6777 9.9204C13.8636 9.86345 14.0622 9.86311 14.2483 9.91951L23.4501 12.706Z" fill="url(#paint1_linear_406_985)"/>
<path d="M3.90406 13.4079L13.6847 10.4415C13.8694 10.3855 14.0666 10.3854 14.2515 10.4411L24.0929 13.4093C24.9065 13.6546 25.4632 14.4041 25.4632 15.2538V24.1069C25.4255 26.2679 23.4842 28 21.324 28H17.7358C17.3812 28 17.0939 27.7131 17.0939 27.3584V24.2544C17.0939 23.0322 17.8173 21.926 18.9366 21.4363C20.4371 20.78 22.2121 19.8922 22.546 18.1107C22.6537 17.5357 22.2788 16.9811 21.7053 16.8671C20.2551 16.5789 18.6473 16.6902 17.2878 17.2983C15.7443 17.9886 15.3406 19.1369 15.1911 20.6791L15.01 22.3405C14.9546 22.8483 14.4785 23.2373 13.968 23.2373C13.4398 23.2373 13.0438 22.8351 12.9865 22.3097L12.8087 20.6791C12.6807 19.3581 12.4486 18.0749 11.083 17.4642C9.52526 16.7675 7.95983 16.5361 6.29456 16.8671C5.72101 16.9811 5.34609 17.5357 5.45385 18.1107C5.79062 19.9077 7.55176 20.7752 9.0632 21.4363C10.1826 21.926 10.9059 23.0322 10.9059 24.2544V27.3578C10.9059 27.7125 10.6188 28 10.2641 28H6.67592C4.51563 28 2.57435 26.2679 2.53662 24.1069V15.2515C2.53662 14.4029 3.09193 13.6541 3.90406 13.4079Z" fill="url(#paint2_linear_406_985)"/>
<defs>
<linearGradient id="paint0_linear_406_985" x1="13.7751" y1="-1.512" x2="23.8277" y2="28.1331" gradientUnits="userSpaceOnUse">
<stop stop-color="#F5D45E"/>
<stop offset="1" stop-color="#FF9600"/>
</linearGradient>
<linearGradient id="paint1_linear_406_985" x1="13.7749" y1="-1.51205" x2="23.8275" y2="28.133" gradientUnits="userSpaceOnUse">
<stop stop-color="#F5D45E"/>
<stop offset="1" stop-color="#FF9600"/>
</linearGradient>
<linearGradient id="paint2_linear_406_985" x1="13.7752" y1="-1.512" x2="23.8277" y2="28.1331" gradientUnits="userSpaceOnUse">
<stop stop-color="#F5D45E"/>
<stop offset="1" stop-color="#FF9600"/>
</linearGradient>
</defs>
</svg>
