<svg width="408" height="408" viewBox="0 0 408 408" fill="none" xmlns="http://www.w3.org/2000/svg">
<path fill-rule="evenodd" clip-rule="evenodd" d="M81.6418 198.308C81.6418 198.308 69.5491 187.978 86.5143 152.311C103.48 116.644 137.837 124.461 159.799 110.432C192.248 89.7034 178.948 73.4815 219.409 70.8667C270.352 67.5745 273.237 120.777 298.725 120.777C300.401 120.777 340.091 104.83 345.9 148.487C348.826 170.473 298.725 204.001 298.725 204.001C298.725 204.001 277.874 222.901 276.729 232.234C271.926 271.376 281.941 316.205 169.712 336.843C155.198 339.512 131.097 329.858 117.8 312.023C107.383 298.051 65.5967 307.964 61.6961 262.028C59.73 238.875 81.6418 198.308 81.6418 198.308Z" fill="#669BBC"/>
<path d="M156.501 167.275C156.88 167.052 157.368 167.178 157.591 167.556L158.492 169.076C162.069 175.077 163.499 177.026 165.02 177.907C166.27 178.631 167.562 178.406 169.927 177.019L170.243 176.829C171.731 175.902 178.539 171.225 181.171 169.546C181.541 169.31 182.033 169.419 182.269 169.789C182.506 170.16 182.397 170.652 182.026 170.888L181.621 171.149C178.688 173.05 172.099 177.575 170.933 178.273C168.069 179.985 166.212 180.37 164.352 179.357L164.222 179.284C162.223 178.125 160.668 175.904 156.22 168.365C155.997 167.986 156.123 167.498 156.501 167.275Z" fill="white"/>
<path d="M169.387 176.473C169.823 176.414 170.223 176.72 170.282 177.156C170.553 179.18 171.202 181.209 172.232 183.247C172.431 183.639 172.274 184.118 171.881 184.316C171.489 184.514 171.011 184.357 170.812 183.965C169.703 181.773 169 179.573 168.704 177.367C168.646 176.931 168.952 176.531 169.387 176.473Z" fill="white"/>
<path fill-rule="evenodd" clip-rule="evenodd" d="M262.087 225.073C261.959 225.398 261.678 225.848 261.351 226.273L261.632 226.565L261.959 226.913L262.031 226.983C262.063 227.011 262.088 227.028 262.106 227.032C262.212 227.048 262.285 227.145 262.271 227.251C262.256 227.355 262.159 227.43 262.053 227.415C261.958 227.413 261.61 227.277 261.197 226.941C261.122 226.88 261.047 226.81 260.971 226.733C260.732 226.999 260.491 227.228 260.283 227.37C259.976 227.582 259.711 227.599 259.584 227.513C259.459 227.43 259.34 227.149 259.542 226.583C259.574 226.48 259.683 226.426 259.785 226.458C259.886 226.49 259.942 226.598 259.91 226.701C259.879 226.806 259.875 226.902 259.874 226.979L259.992 226.898C260.034 226.869 260.076 226.835 260.115 226.796C260.257 226.656 260.416 226.486 260.575 226.302C260.323 226.008 260.066 225.664 259.857 225.266C259.756 225.072 259.675 224.866 259.598 224.65C259.545 224.529 259.6 224.387 259.721 224.333C259.842 224.28 259.984 224.335 260.037 224.456C260.269 224.942 260.565 225.36 260.858 225.719L260.955 225.836C261.221 225.487 261.45 225.135 261.554 224.866C261.612 224.72 261.778 224.647 261.924 224.703C262.072 224.761 262.145 224.927 262.087 225.073Z" fill="white"/>
<path fill-rule="evenodd" clip-rule="evenodd" d="M143.69 124.69L143.205 124.603C140.497 124.099 138.42 123.481 134.541 122.136C134.096 121.982 133.861 121.496 134.015 121.051C134.169 120.606 134.655 120.371 135.1 120.525L136.066 120.858C139.469 122.019 141.379 122.551 143.986 123.011C152.761 124.558 159.33 120.054 159.868 111.462C159.897 110.992 160.302 110.635 160.772 110.665C161.242 110.694 161.599 111.099 161.57 111.569C160.965 121.231 153.418 126.406 143.69 124.69Z" fill="#003049"/>
<path fill-rule="evenodd" clip-rule="evenodd" d="M165.615 133.891L166.104 134.979L167.22 135.299C167.281 135.317 167.316 135.38 167.298 135.44C167.293 135.458 167.283 135.475 167.269 135.489L166.421 136.333L166.469 137.548C166.471 137.611 166.422 137.664 166.36 137.666C166.339 137.667 166.317 137.662 166.299 137.651L165.339 137.105C165.309 137.087 165.273 137.085 165.241 137.098L164.214 137.505C164.156 137.529 164.09 137.5 164.067 137.442C164.059 137.422 164.057 137.4 164.06 137.38L164.276 136.183L163.554 135.229C163.516 135.179 163.526 135.108 163.576 135.07C163.592 135.058 163.61 135.051 163.629 135.048L164.779 134.886L165.415 133.877C165.449 133.824 165.519 133.808 165.572 133.842C165.591 133.853 165.606 133.871 165.615 133.891Z" fill="#003049"/>
<path d="M277.76 106.547C278.199 106.516 278.579 106.846 278.611 107.284C278.642 107.722 278.312 108.103 277.874 108.134C274.734 108.358 272.268 109.575 271.172 112.585C271.106 112.766 271.052 112.941 271.007 113.107L270.978 113.221L271.026 113.121C272.405 110.305 275.065 108.348 278.148 107.851L278.35 107.821C278.785 107.76 279.187 108.064 279.248 108.499C279.309 108.934 279.005 109.336 278.57 109.397C275.706 109.797 273.256 111.7 272.187 114.43L272.118 114.613C271.61 116.009 270.391 116.678 269.607 115.484C269.128 114.755 269.16 113.462 269.677 112.041C270.989 108.436 274 106.815 277.76 106.547Z" fill="white"/>
<path d="M274.136 100.619C274.574 100.588 274.955 100.918 274.986 101.356C275.017 101.794 274.687 102.175 274.249 102.206C269.254 102.563 264.875 105.806 263.132 110.594C262.615 112.013 262.519 113.227 262.704 113.841L262.727 113.91L262.762 113.859C262.851 113.725 262.951 113.531 263.049 113.28L263.091 113.169C264.932 108.112 269.395 104.57 274.629 103.839C275.064 103.778 275.467 104.082 275.527 104.517C275.588 104.952 275.284 105.355 274.849 105.415C270.27 106.054 266.356 109.111 264.67 113.489L264.586 113.713C263.904 115.589 262.428 116.399 261.484 114.963C260.838 113.979 260.883 112.121 261.637 110.05C263.596 104.667 268.521 101.019 274.136 100.619Z" fill="white"/>
<path d="M269.252 92.7148C269.69 92.6835 270.071 93.0135 270.102 93.4518C270.133 93.8902 269.803 94.2709 269.365 94.3022C262.241 94.8104 255.994 99.4369 253.509 106.266C252.663 108.59 252.592 110.56 253.054 111.378L253.096 111.448C253.165 111.552 253.142 111.555 253.16 111.54L253.17 111.533C253.404 111.405 253.713 110.967 253.995 110.241L254.052 110.092C256.59 103.117 262.745 98.233 269.964 97.2253C270.4 97.1645 270.802 97.4681 270.863 97.9033C270.923 98.3386 270.62 98.7406 270.184 98.8014C263.629 99.7164 258.029 104.105 255.64 110.388L255.547 110.637C254.664 113.063 252.893 114.035 251.766 112.321C250.927 111.044 250.988 108.539 252.013 105.721C254.716 98.2974 261.507 93.2673 269.252 92.7148Z" fill="white"/>
<path d="M260.532 85.2865C260.963 85.2021 261.382 85.4832 261.466 85.9145C261.55 86.3457 261.269 86.7638 260.838 86.8483C254.389 88.1113 249.203 93.0371 247.698 99.5526C247.189 101.758 247.343 103.551 247.843 104.235L247.909 104.321L247.914 104.332L247.924 104.325C248.103 104.164 248.312 103.751 248.474 103.112L248.508 102.972C250.055 96.2705 255.164 91.0835 261.689 89.3416C262.114 89.2282 262.55 89.4805 262.663 89.9051C262.777 90.3297 262.524 90.7658 262.1 90.8791C256.221 92.4485 251.602 97.0771 250.119 103.075L250.058 103.33C249.513 105.693 247.946 106.821 246.677 105.325C245.749 104.231 245.521 101.909 246.148 99.1947C247.794 92.062 253.472 86.6691 260.532 85.2865Z" fill="white"/>
<path d="M172.327 183.422L172.786 183.255C177.128 181.697 180.791 181.01 181.721 181.957C182.537 182.787 183.264 184.29 183.954 186.496C184.085 186.915 183.851 187.361 183.432 187.492C183.012 187.623 182.566 187.39 182.435 186.97C181.839 185.063 181.23 183.78 180.655 183.145L180.631 183.12L180.611 183.121C180.502 183.099 180.339 183.088 180.13 183.092C179.672 183.101 179.045 183.182 178.297 183.33C176.757 183.635 174.81 184.202 172.878 184.915C169.646 186.108 166.954 187.508 165.467 188.773C164.92 189.238 163.924 187.944 164.883 187.203C166.609 185.869 169.227 184.566 172.327 183.422Z" fill="white"/>
<path d="M170.142 168.39C170.142 171.044 172.949 173.918 173.546 174.082C173.97 174.198 166.667 178.956 166.667 178.956C164.029 179.303 162.479 177.073 162.479 173.75C162.479 173.311 170.142 167.951 170.142 168.39Z" fill="white"/>
<path fill-rule="evenodd" clip-rule="evenodd" d="M161.531 169.785C162.456 169.605 163.084 168.835 162.934 168.065C162.784 167.295 161.914 166.816 160.989 166.996C160.065 167.175 159.437 167.945 159.587 168.716C159.736 169.486 160.607 169.965 161.531 169.785Z" fill="#FFB703"/>
<path d="M255.719 80.8741C256.152 80.7987 256.564 81.0885 256.639 81.5215C256.715 81.9544 256.425 82.3665 255.992 82.4419C253.933 82.8006 251.857 84.0469 249.716 86.0293C246.936 88.6034 245.1 92.1603 244.087 96.9027C243.272 100.724 244.025 105.498 246.157 109.695C248.582 114.47 252.873 115.65 257.877 116.564C263.013 117.502 264.432 116.923 269.286 115.197L269.732 115.035C270.396 114.784 273.497 113.57 274.243 113.345C275.812 112.87 276.882 112.91 277.658 113.737C277.959 114.057 277.943 114.561 277.622 114.862C277.322 115.144 276.861 115.147 276.556 114.883L276.498 114.826C276.269 114.582 275.795 114.554 274.843 114.827L274.703 114.868C273.986 115.085 270.623 116.405 270.187 116.564C264.945 118.477 263.167 119.148 257.591 118.129C252.064 117.12 247.376 115.609 244.738 110.416C242.445 105.902 241.637 100.758 242.531 96.5705C243.612 91.509 245.613 87.6598 248.635 84.8616C251 82.6712 253.357 81.2856 255.719 80.8741Z" fill="white"/>
<path d="M293.152 144.188C288.616 143.956 285.044 147.46 285.006 152.163C284.975 156.125 287.206 159.388 290.272 160.02C291.512 160.276 293.893 159.968 295.658 158.978C298.339 157.54 300.388 154.584 300.647 152.066C301.068 147.963 297.746 144.423 293.152 144.188Z" fill="white"/>
<path d="M210.954 143.36C212.403 146.286 214.653 153.046 213.68 153.013C210.976 152.923 207.36 148.768 204.83 143.151L204.631 142.699C202.422 137.6 201.099 134.395 202.635 133.782C204.224 133.147 207.963 137.32 210.954 143.36Z" fill="white"/>
<path fill-rule="evenodd" clip-rule="evenodd" d="M202.635 133.718C204.224 133.083 208.018 137.066 211.009 143.105C212.458 146.032 213.441 148.839 213.697 150.852C213.697 150.852 208.804 140.542 205.819 136.765C204.673 135.315 202.635 133.718 202.635 133.718Z" fill="#E7EAEE"/>
<path d="M201.802 159.684C201.918 159.26 202.356 159.011 202.78 159.128C203.204 159.244 203.453 159.682 203.336 160.106C203.186 160.651 201.079 162.081 196.48 164.916L193.577 166.692C187.847 170.181 184.023 172.413 183.545 172.413C180.381 172.413 177.53 169.428 175.448 164.719C173.631 160.607 172.687 155.712 173.113 152.504C173.246 151.503 176.582 148.911 181.732 145.439L182.47 144.945C187.026 141.909 190.921 139.658 192.33 139.374C192.761 139.287 193.18 139.566 193.267 139.996C193.321 140.266 180.762 150.852 179.535 157.879C178.705 162.636 181.845 170.745 183.404 170.818L183.545 170.822C183.418 170.822 183.459 170.792 183.474 170.784L183.617 170.71C183.723 170.654 183.848 170.587 183.993 170.507L184.655 170.137C184.908 169.993 185.19 169.832 185.499 169.653L186.289 169.195C187.797 168.314 189.678 167.194 191.596 166.033L193.421 164.923C195.641 163.567 197.646 162.317 199.153 161.346L199.929 160.842C200.41 160.526 200.816 160.254 201.141 160.027L201.258 159.945C201.438 159.818 201.586 159.71 201.703 159.621C201.703 159.621 201.833 159.569 201.802 159.684Z" fill="white"/>
<path fill-rule="evenodd" clip-rule="evenodd" d="M203.379 143.805C201.457 139.535 200.607 135.623 201.251 133.254C200.087 133.624 198.633 134.288 197.189 135.116C195.27 136.217 193.747 137.448 193.712 137.715C193.341 140.508 194.764 145.94 197.13 150.784C199.661 155.965 202.672 159.292 205.002 159.292C205.225 159.292 205.864 159.16 206.504 158.937C207.415 158.619 208.268 158.155 208.966 157.548C209.314 157.247 209.673 156.905 210.049 156.525L210.502 156.057C210.769 155.775 211.044 155.471 211.474 154.989L212.073 154.32L212.099 154.292C209.1 153.196 205.965 149.335 203.619 144.327L203.379 143.805ZM192.134 137.506C192.382 135.643 199.356 131.616 202.539 131.356C202.672 131.272 202.814 131.2 202.966 131.139C205.723 130.038 209.923 134.756 213.292 141.394L213.523 141.855C215.044 144.927 216.081 147.89 216.364 150.107C216.702 152.756 215.935 154.512 213.924 154.602C213.87 154.811 213.734 154.985 213.553 155.091L213.522 155.106L213.443 155.185C213.364 155.266 213.272 155.366 213.128 155.526L212.14 156.629C211.781 157.025 211.527 157.293 211.182 157.642C210.779 158.05 210.391 158.419 210.01 158.75C208.47 160.088 206.192 160.884 205.002 160.884C204.371 160.884 203.733 160.737 203.094 160.457C202.411 161.169 200.309 162.555 196.48 164.916L193.577 166.692C187.847 170.181 184.023 172.413 183.545 172.413C182.461 172.413 181.414 172.063 180.422 171.413C180.413 171.42 180.404 171.426 180.394 171.432L179.989 171.693C178.58 172.607 176.325 174.127 174.234 175.536L174.104 175.625C174.374 177.557 174.99 179.494 175.952 181.439C179.37 180.382 182.077 180.025 182.858 180.82C183.674 181.65 184.401 183.154 185.091 185.359C185.222 185.778 184.988 186.225 184.568 186.356C184.149 186.487 183.703 186.253 183.572 185.834C182.975 183.926 182.367 182.643 181.792 182.008L181.768 181.984L181.748 181.985C181.639 181.962 181.475 181.951 181.267 181.955C180.809 181.964 180.182 182.045 179.433 182.193C177.894 182.498 175.947 183.066 174.015 183.779C169.596 185.409 166.186 187.428 165.486 188.959C165.281 189.406 165.307 190.062 165.552 191.066L165.598 191.247C165.634 191.389 165.673 191.53 165.723 191.708L166.01 192.725C166.022 192.77 166.034 192.815 166.049 192.872C166.159 193.298 165.904 193.732 165.479 193.842C165.053 193.953 164.619 193.698 164.509 193.272L164.367 192.758L164.132 191.927C164.105 191.829 164.081 191.738 164.057 191.646C163.684 190.208 163.624 189.201 164.039 188.296C164.741 186.762 166.939 185.172 169.999 183.727L169.334 182.008L169.169 181.573C168.917 180.895 168.624 179.976 168.444 179.305C166.053 180.594 164.388 180.809 162.72 179.901L162.59 179.828C162.26 179.636 161.942 179.416 161.622 179.148L152.296 184.812C152.383 184.999 152.47 185.187 152.559 185.377C152.977 186.275 152.239 186.91 151.107 187.404L150.985 187.456C150.012 187.859 149.134 187.952 148.611 187.378C146.443 184.998 144.147 179.304 145.382 178.002C145.619 177.752 146.245 177.379 147.429 176.758L147.523 176.709C147.548 176.693 147.573 176.677 147.599 176.663L156.317 171.94C156.337 171.929 156.357 171.919 156.378 171.91C155.839 171.02 155.249 170.028 154.597 168.923C154.498 168.763 154.461 168.576 154.485 168.396C154.501 168.281 154.542 168.169 154.608 168.068C154.644 168.013 154.687 167.962 154.737 167.916C156.53 166.217 158.972 164.444 162.035 162.536L162.407 162.306C163.733 161.488 166.422 159.955 168.706 158.652C170.478 157.641 172.007 156.769 172.467 156.478L172.579 156.404C172.745 156.282 172.943 156.235 173.133 156.255C172.982 154.875 172.969 153.592 173.113 152.504C173.246 151.503 176.582 148.911 181.732 145.439L182.47 144.945C186.786 142.069 190.509 139.897 192.087 139.435C192.045 138.722 192.059 138.073 192.134 137.506ZM192.261 141.048C190.716 141.613 186.845 143.911 182.622 146.759L181.945 147.217C180.045 148.514 178.289 149.779 176.963 150.809L176.594 151.098C176.002 151.567 175.523 151.971 175.176 152.296C175.002 152.458 174.865 152.597 174.768 152.708L174.7 152.788C174.685 152.803 174.681 152.797 174.687 152.747L174.691 152.714C174.689 152.726 174.688 152.738 174.687 152.747L174.666 152.918C173.901 159.633 178.756 170.6 183.404 170.818L183.513 170.821C183.522 170.821 183.533 170.822 183.545 170.822L183.513 170.821C183.426 170.816 183.46 170.791 183.474 170.784L183.617 170.71C183.723 170.654 183.848 170.587 183.993 170.507L184.655 170.137C184.908 169.993 185.19 169.832 185.499 169.653L186.289 169.195C187.797 168.314 189.678 167.194 191.597 166.033L193.421 164.923C195.641 163.567 197.646 162.317 199.153 161.346L199.929 160.842C200.41 160.527 200.816 160.254 201.141 160.027L201.259 159.945C201.431 159.824 201.575 159.719 201.689 159.631C199.639 158.127 197.621 155.35 195.829 151.744L195.7 151.482C193.974 147.948 192.725 144.12 192.261 141.048ZM173.353 157.798C172.779 158.159 171.085 159.126 169.2 160.202L169.2 160.202C166.967 161.478 164.466 162.906 163.242 163.66C160.35 165.443 158.018 167.096 156.286 168.652L156.86 169.62C159.369 173.83 160.822 176.046 161.991 177.297C161.603 176.376 161.402 175.207 161.402 173.741C161.402 173.674 161.41 173.608 161.426 173.546C161.349 173.241 161.457 172.906 161.726 172.709L162.268 172.306C162.593 172.06 163.128 171.651 163.737 171.187C165.067 170.169 166.749 168.885 167.349 168.455C169.236 167.103 170.627 166.345 171.893 166.081C172.498 165.956 172.968 166.314 173.104 166.868L173.127 166.969C173.158 167.134 173.164 167.296 173.163 167.65L173.163 167.762C173.156 169.086 173.288 169.851 173.848 170.733C174.232 171.337 174.796 171.888 175.582 172.382C175.664 172.434 175.733 172.498 175.789 172.57C177.057 171.719 178.244 170.928 179.12 170.36C177.74 169.024 176.496 167.09 175.448 164.719C174.472 162.51 173.748 160.075 173.353 157.798ZM214.785 150.308C214.529 148.295 213.546 145.488 212.097 142.561C209.106 136.522 205.146 131.982 203.557 132.617C202.021 133.231 202.422 137.6 204.631 142.699L204.83 143.151C207.36 148.768 210.976 152.923 213.68 153.013C214.653 153.046 215.033 152.251 214.785 150.308ZM157.2 173.255C158.58 175.487 159.589 176.962 160.467 177.987L151.626 183.357C150.721 181.372 149.911 179.524 149.125 177.646L157.075 173.339C157.12 173.315 157.162 173.286 157.2 173.255ZM174.426 181.941C173.568 180.166 172.976 178.387 172.65 176.604C171.508 177.373 170.513 178.038 169.874 178.454C169.984 179.003 170.391 180.306 170.741 181.232L171.394 182.913L171.456 183.077C172.098 182.806 172.769 182.542 173.464 182.286L173.923 182.118C174.092 182.058 174.26 181.999 174.426 181.941ZM174.398 173.507C173.583 172.942 172.958 172.299 172.505 171.587C171.772 170.433 171.58 169.449 171.572 167.961L171.571 167.827L171.459 167.87C170.652 168.183 169.689 168.749 168.479 169.604L168.275 169.749C167.699 170.161 166.06 171.414 164.738 172.424C164.003 172.986 163.366 173.473 163.064 173.699L162.993 173.751C162.995 176.398 163.655 177.613 164.884 178.202L164.983 178.248C165.276 178.377 165.485 178.442 166.082 178.606C166.094 178.609 166.105 178.613 166.117 178.617C166.737 178.408 167.447 178.06 168.295 177.563L168.611 177.373C169.312 176.936 171.192 175.668 173.261 174.273L173.29 174.254L173.318 174.235C173.674 173.995 174.036 173.751 174.398 173.507ZM147.718 178.407L147.84 178.698C148.685 180.702 149.564 182.686 150.56 184.85L150.948 185.69C150.821 185.775 150.654 185.866 150.47 185.946C150.206 186.061 149.938 186.142 149.737 186.169L149.673 186.176L149.576 186.06C148.823 185.132 147.949 183.557 147.317 181.99C146.98 181.155 146.741 180.39 146.633 179.802C146.589 179.562 146.568 179.361 146.57 179.208L146.575 179.107C146.576 179.083 146.576 179.07 146.57 179.068L146.594 179.052C146.729 178.96 147.072 178.758 147.583 178.481L147.718 178.407ZM158.695 176.654C158.387 176.341 157.883 176.336 157.569 176.644C157.018 177.185 156.244 177.689 154.894 178.439L153.519 179.202C153.156 179.408 152.859 179.587 152.589 179.761C152.364 179.907 152.163 180.048 151.983 180.188C151.635 180.457 151.571 180.956 151.839 181.304C152.108 181.652 152.608 181.716 152.956 181.447C153.099 181.336 153.265 181.22 153.455 181.097C153.631 180.983 153.824 180.864 154.048 180.734L154.486 180.483L155.882 179.709C157.224 178.956 158.032 178.419 158.684 177.78C158.998 177.472 159.002 176.968 158.695 176.654Z" fill="#003049"/>
<path d="M140.896 257.459C144.875 279.644 159.789 296.322 178.819 300.254C182.313 300.975 188.361 301.07 194.625 300.26C202.695 299.215 210.55 296.819 217.457 292.936C236.432 282.738 250.83 261.925 252.697 243.705C254.336 227.7 248.222 212.915 237.153 202.368C237.153 202.368 202.383 219.446 185.315 229.153C170.463 237.6 140.896 257.459 140.896 257.459Z" fill="white"/>
<path d="M221.871 191.302C214.738 187.783 205.803 185.003 197.041 184.556C164.905 182.912 139.631 208.584 139.368 241.697C139.368 241.697 175.234 218.851 193.868 207.829C203.138 202.345 221.871 191.302 221.871 191.302Z" fill="white"/>
<path fill-rule="evenodd" clip-rule="evenodd" d="M287.969 174.426C287.861 179.959 282.007 189.167 272.596 199.587C265.78 207.135 257.847 214.431 251.196 219.347L250.782 219.65L251.057 220.872C252.675 227.961 254.786 235.666 253.988 243.437C252.052 262.298 237.299 283.577 217.804 294.032C210.694 298.02 202.612 300.481 194.321 301.551L193.531 301.649C187.349 302.377 181.434 302.256 177.819 301.511C163.788 298.618 151.908 288.81 144.726 274.614C144.702 274.567 144.683 274.518 144.67 274.468C143.724 275.007 142.452 275.61 141.871 275.807L140.279 276.345C123.126 282.114 106.12 286.942 99.1726 283.929C96.528 282.782 95.624 280.576 96.73 277.613C97.8049 274.733 100.785 271.022 105.785 266.404L106.06 266.152C110.798 261.808 121.32 253.872 137.626 242.342L137.63 242.13C138.426 207.966 164.963 181.922 198.32 184.048C208.523 184.698 216.648 188.324 220.706 190.55L222.491 189.592C239.23 180.642 252.661 174.351 262.908 170.585C279.761 164.392 288.095 167.287 287.969 174.426ZM263.457 174.255C244.613 181.179 214.832 196.753 173.368 221.805L172.108 222.567C139.82 242.113 118.441 256.962 107.136 267.325L106.578 267.839L106.05 268.335C97.5637 276.352 96.0594 280.844 99.8058 282.469C106.219 285.25 123.441 280.561 140.307 275.029L141.871 274.514C143.375 274.016 144.373 273.73 144.99 273.597C145.017 273.578 145.046 273.561 145.077 273.545C145.288 273.438 145.524 273.434 145.728 273.515C145.772 273.523 145.801 273.537 145.816 273.556C145.954 273.63 146.071 273.746 146.146 273.896C153.119 287.676 164.607 296.074 178.14 298.864C181.653 299.589 187.58 299.695 193.747 298.932L194.118 298.885C202.217 297.839 210.106 296.526 217.039 292.637C236.09 282.42 250.524 261.6 252.405 243.275C253.209 235.443 252.183 227.755 249.455 220.599C249.23 220.757 249.007 220.911 248.785 221.062C248.367 221.348 248.523 220.886 249.254 219.675C249.293 219.517 249.38 219.373 249.505 219.265L249.731 218.908C249.81 218.784 249.892 218.655 249.979 218.52L250.923 217.725C259.811 210.207 266.642 203.805 271.415 198.52L271.96 197.913C280.792 188.03 286.281 179.301 286.372 174.397C286.471 169.018 279.375 168.405 263.457 174.255ZM183.555 274.884C185.69 281.409 182.46 285.606 176.775 285.823C171.522 286.023 166.738 282.713 166.982 278.009C167.192 273.944 169.976 269.597 173.403 268.002C177.548 266.071 181.438 268.413 183.555 274.884ZM174.243 269.805C171.5 271.082 169.142 274.765 168.968 278.112C168.795 281.446 172.481 283.996 176.699 283.835C181.109 283.667 183.373 280.725 181.665 275.503C179.885 270.065 177.18 268.437 174.243 269.805ZM226.963 261.587C229.687 266.735 228.974 271.792 224.785 274.058L224.668 274.12L224.607 274.181C218.99 279.743 211.973 280.418 207.396 276.386L207.24 276.245C201.968 271.417 203.224 263.121 211.612 256.617C217.01 252.432 223.603 255.239 226.963 261.587ZM212.657 257.965C205.042 263.869 203.972 270.939 208.391 274.988C211.561 277.892 216.245 278.052 220.619 275.234L220.705 275.177L220.673 275.171C220.37 275.09 220.127 274.846 220.058 274.528L220.044 274.447C219.989 273.979 220.323 273.555 220.791 273.5C221.86 273.373 222.788 273.115 223.575 272.745L223.683 272.693L223.813 272.558C224.326 272.018 224.828 271.43 225.313 270.794L225.475 270.58C225.657 270.336 225.945 270.217 226.228 270.24L226.25 270.243L226.261 270.221C227.282 268.203 227.04 265.467 225.545 262.556L225.456 262.385C222.534 256.864 217.074 254.54 212.657 257.965ZM263.363 196.778C262.925 198.335 261.591 200.471 259.547 203.001C255.983 207.412 250.63 212.545 245.95 216.055L246.988 214.914C246.978 214.904 246.969 214.892 246.962 214.878L246.603 214.22C244.262 209.946 241.653 205.73 237.437 202.293C226.524 206.793 214.01 212.943 202.61 219.374L198.873 221.487C171.355 237.075 156.877 246.407 141.395 257.88C141.979 260.511 142.715 263.08 143.597 265.568C143.735 265.958 141.927 267.42 141.596 267.239C138.508 269.309 133.671 270.812 130.918 270.89C128.235 270.966 126.684 269.88 127.483 267.714C128.151 265.902 130.668 263.318 135.197 259.854L135.714 259.462L136.757 258.678C153.804 245.916 170.679 235.56 201.828 217.988L203.132 217.257C224.496 205.331 249.235 194.588 260.567 193.596C262.896 193.393 263.953 194.682 263.363 196.778ZM139.322 259.424L135.75 262.119C132.564 264.535 130.267 266.321 129.026 267.468L128.935 267.552C127.421 268.973 129.135 269.348 130.873 269.299C133.506 269.224 137.539 267.228 140.952 265.411C140.321 263.457 139.777 261.458 139.322 259.424ZM195.187 250.784C195.613 250.892 195.87 251.325 195.762 251.751C195.654 252.177 195.221 252.434 194.795 252.326C192.656 251.783 191.392 251.992 190.982 252.568C190.709 252.95 190.86 253.602 191.369 254.018C191.766 254.343 192.296 254.499 192.66 254.419C192.977 254.351 193.154 254.106 193.154 253.495C193.154 253.056 193.51 252.7 193.95 252.7C194.389 252.7 194.745 253.056 194.745 253.495C194.745 254.824 194.081 255.739 192.998 255.974C192.128 256.164 191.115 255.866 190.361 255.25C189.249 254.34 188.886 252.769 189.685 251.645C190.561 250.414 192.481 250.097 195.187 250.784ZM160.234 247.863C161.461 248.23 161.99 249.173 162.156 250.586L162.173 250.74L162.193 250.972C162.196 251.011 162.199 251.051 162.201 251.093L162.243 251.901L162.256 252.083C162.262 252.163 162.269 252.228 162.277 252.286L162.299 252.408L162.312 252.462L162.334 252.481C162.579 252.722 162.645 253.099 162.486 253.41L162.445 253.481C162.207 253.85 161.714 253.956 161.345 253.718C160.837 253.39 160.721 253.053 160.66 252.085L160.609 251.138C160.603 251.052 160.597 250.978 160.589 250.894C160.498 249.968 160.273 249.536 159.777 249.387C158.387 248.971 157.59 249.396 157.337 250.325C157.112 251.153 157.438 252.023 158.008 252.264L158.152 252.318C158.525 252.477 158.723 252.897 158.597 253.291C158.463 253.71 158.016 253.941 157.597 253.808C156.082 253.324 155.362 251.524 155.801 249.907C156.292 248.103 157.999 247.193 160.234 247.863ZM217.641 235.679C219.845 238.776 219.435 242.718 215.9 244.502C215.508 244.7 215.029 244.542 214.831 244.15C214.633 243.757 214.791 243.279 215.183 243.081C217.743 241.789 218.035 238.977 216.345 236.601C214.703 234.292 212.417 234.038 210.846 236.533C209.181 239.178 209.302 240.73 210.501 241.429C211.452 241.984 212.985 241.868 213.406 241.414L213.447 241.364C213.702 241.006 214.199 240.922 214.557 241.177C214.915 241.432 214.999 241.929 214.744 242.287C213.859 243.53 211.335 243.758 209.699 242.804C207.605 241.583 207.404 239.012 209.499 235.685C211.742 232.123 215.401 232.529 217.641 235.679ZM184.651 231.116C185.065 231.116 185.405 231.432 185.443 231.835L185.447 231.912C185.447 232.052 185.577 232.208 186.044 232.551L186.486 232.868C186.968 233.219 187.2 233.437 187.419 233.784C187.921 234.577 188.205 235.385 188.205 236.335C188.205 238.767 184.552 242.074 180.564 243.546C175.784 245.31 171.868 244.002 170.802 239.097C170.709 238.667 170.981 238.243 171.41 238.15C171.84 238.057 172.264 238.329 172.357 238.759C173.184 242.566 176.04 243.52 180.013 242.053C183.445 240.787 186.614 237.917 186.614 236.335C186.614 235.723 186.428 235.193 186.074 234.635L186.026 234.567C185.945 234.465 185.819 234.354 185.591 234.185L185.066 233.807C184.193 233.164 183.855 232.73 183.855 231.912C183.855 231.472 184.212 231.116 184.651 231.116ZM188.386 187.013L187.884 187.069C160.732 190.335 140.362 212.052 139.251 241.194L142.165 239.145C150.527 233.275 160.233 226.57 171.283 219.03L173.437 217.729C179.865 213.85 186.011 210.201 191.879 206.777C191.772 206.589 191.742 206.358 191.814 206.137C192.224 204.884 192.604 204.043 193.298 203.2C195.472 200.563 198.451 199.275 200.561 200.931C200.769 201.094 200.874 201.34 200.865 201.585L202.74 200.515C208.643 197.155 214.228 194.052 219.5 191.201L217.441 190.615C214.387 189.755 210.588 188.736 206.804 187.951C206.839 190.469 204.954 192.48 201.823 193.863C199.161 195.039 195.692 195.671 193.225 195.524C188.611 195.249 186.014 191.202 188.386 187.013ZM236.016 221.569C237.964 226.889 236.357 231.726 231.495 231.695C224.568 231.649 217.803 225.601 218.897 220.182C219.385 217.765 221.202 215.626 224.362 214.559C229.408 212.855 234.034 216.153 236.016 221.569ZM224.871 216.067C222.259 216.949 220.834 218.626 220.457 220.497C219.589 224.798 225.478 230.064 231.505 230.103C234.958 230.126 236.145 226.551 234.522 222.116C232.804 217.423 228.964 214.685 224.871 216.067ZM166.361 197.23L166.418 197.312L166.801 197.921C166.988 198.23 167.156 198.534 167.316 198.861C169.079 202.464 169.033 207.187 166.051 213.744C164.7 216.715 161.258 220.707 158.252 223.089C154.414 226.13 151.549 226.821 148.128 226.446L147.114 226.327L146.99 226.315C146.922 226.31 146.879 226.31 146.831 226.311L146.761 226.314C146.708 226.317 146.69 226.314 146.687 226.307L146.687 226.302L146.661 226.343C146.431 226.674 145.982 226.783 145.622 226.583C145.238 226.369 145.1 225.884 145.314 225.5C145.6 224.986 146.078 224.754 146.686 224.725C146.847 224.717 147.018 224.722 147.22 224.739L147.458 224.763L148.114 224.842C151.23 225.22 153.708 224.659 157.264 221.841C160.087 219.604 163.368 215.798 164.602 213.085C167.393 206.949 167.434 202.723 165.887 199.56C165.784 199.349 165.676 199.149 165.56 198.948L165.393 198.67L165.059 198.142C164.826 197.77 164.939 197.279 165.311 197.045C165.66 196.827 166.113 196.912 166.361 197.23ZM260.706 195.182C255.619 195.627 247.644 198.14 238.452 201.877L238.72 202.115C241.279 204.41 246.441 209.853 248.056 213.736L249.666 211.951C253.637 207.534 256.518 204.218 258.309 202.001L258.672 201.547C260.383 199.374 261.49 197.558 261.831 196.347L261.879 196.163C262.092 195.289 261.846 195.082 260.706 195.182ZM184.515 197.767C186.495 198.724 187.299 200.856 185.996 202.788C185.751 203.153 185.256 203.249 184.892 203.003C184.527 202.758 184.431 202.263 184.677 201.899C185.393 200.836 184.989 199.763 183.822 199.199C182.593 198.605 181.247 198.947 180.552 200.244C179.912 201.439 179.868 203.056 180.379 204.116C180.828 205.046 181.481 205.224 182.478 204.474C182.829 204.21 183.328 204.28 183.592 204.631C183.856 204.983 183.786 205.481 183.435 205.746C181.619 207.113 179.821 206.622 178.946 204.808C178.212 203.286 178.271 201.133 179.15 199.492C180.271 197.4 182.556 196.82 184.515 197.767ZM194.526 204.213C194.155 204.663 193.89 205.138 193.644 205.747C195.695 204.556 197.71 203.392 199.692 202.256L199.634 202.222L199.579 202.183C198.364 201.229 196.222 202.155 194.526 204.213ZM191.133 186.769L190.437 186.818L190.39 186.877C187.64 190.353 188.699 193.175 192.456 193.575C195.154 193.863 202.315 191.861 203.155 191.159C203.974 190.475 205.009 188.901 205.168 187.626C202.737 187.169 200.36 186.833 198.239 186.725C196.071 186.614 193.934 186.617 191.832 186.728L191.133 186.769Z" fill="#003049"/>
<path d="M262.974 174.452C279.827 168.259 279.441 170.096 263.523 175.946C244.679 182.87 173.547 226.26 173.547 226.26C141.26 245.805 138.845 242.788 170.14 223.769L172.069 222.599C172.432 222.379 208.062 199.892 233.521 187.861C236.386 186.507 261.056 175.157 262.974 174.452Z" fill="white"/>
<path fill-rule="evenodd" clip-rule="evenodd" d="M292.073 143.621C286.851 143.354 282.775 147.413 282.733 152.722C282.697 157.171 285.249 160.948 288.906 161.702C289.87 161.9 292.648 161.9 295.059 160.548L295.258 160.438C298.297 158.717 300.365 155.443 300.641 152.75C301.131 147.976 297.295 143.888 292.073 143.621ZM283.869 152.731C283.87 152.697 283.87 152.663 283.871 152.628C283.903 152.618 283.935 152.604 283.966 152.588C288.061 150.382 290.588 148.701 291.597 147.488C292.264 146.687 292.589 145.783 292.562 144.801C293.25 144.877 293.905 145.028 294.519 145.244C294.516 145.273 294.514 145.303 294.515 145.334C294.565 146.747 294.188 147.877 293.388 148.756C292.467 149.767 291.352 150.729 290.084 151.636C288.729 152.606 287.274 153.463 285.818 154.196C285.479 154.367 285.156 154.523 284.852 154.663L284.413 154.863C284.35 154.891 284.292 154.916 284.238 154.939L284.107 154.994C283.946 154.278 283.863 153.518 283.869 152.731ZM284.427 156.093C284.787 157.091 285.308 157.976 285.954 158.696L286.293 158.501C291.636 155.408 294.953 152.978 296.208 151.264C297.477 149.53 297.93 148.2 297.646 147.295C297.639 147.273 297.634 147.252 297.63 147.231C297.071 146.643 296.405 146.139 295.655 145.74C295.623 147.243 295.148 148.511 294.228 149.522C293.25 150.596 292.075 151.61 290.746 152.561C289.339 153.568 287.834 154.453 286.33 155.211C285.891 155.432 285.478 155.629 285.098 155.801L284.655 155.998L284.427 156.093ZM288.682 160.474C288.011 160.273 287.385 159.944 286.822 159.508C292.323 156.327 295.745 153.82 297.125 151.935C297.982 150.766 298.529 149.714 298.752 148.776C299.028 149.293 299.238 149.843 299.372 150.419C299.343 150.478 299.324 150.542 299.317 150.611C299.178 151.94 298.494 153.259 297.241 154.572C296.039 155.833 293.446 157.651 289.482 160.003L288.682 160.474ZM290.603 160.658C291.823 160.58 293.316 160.223 294.521 159.546C296.764 158.344 298.565 156.079 299.245 153.896C298.916 154.389 298.522 154.876 298.064 155.356C296.83 156.651 294.349 158.411 290.603 160.658ZM284.2 151.167L283.998 151.276C284.643 147.521 287.644 144.826 291.422 144.748C291.463 145.485 291.233 146.148 290.723 146.761C289.899 147.753 287.711 149.237 284.2 151.167Z" fill="#003049"/>
<path fill-rule="evenodd" clip-rule="evenodd" d="M333.105 132.73C333.211 132.742 333.285 132.838 333.273 132.944C333.273 133.099 333.173 133.183 333.039 133.237C332.917 133.286 332.724 133.267 332.612 133.282C331.381 133.377 330.414 132.472 329.988 131.304C329.579 130.183 329.688 128.842 330.43 128.015C330.516 127.918 330.664 127.908 330.761 127.993C330.858 128.079 331.412 128.227 331.327 128.325C330.715 129.039 330.301 129.472 330.878 131.168C331.455 132.864 333.026 132.721 333.105 132.73Z" fill="#E7EAEE"/>
<path fill-rule="evenodd" clip-rule="evenodd" d="M137.126 144.871C136.803 144.648 136.36 144.731 136.138 145.054C135.916 145.378 135.998 145.82 136.322 146.042C136.677 146.286 136.991 146.511 137.268 146.72C136.97 146.958 136.672 147.23 136.362 147.54L135.733 148.178C135.457 148.457 135.459 148.906 135.738 149.183C136.017 149.459 136.466 149.457 136.743 149.178L137.496 148.416C137.803 148.118 138.091 147.868 138.38 147.66C139.022 148.297 139.218 148.764 139.228 149.228L139.228 149.347L139.232 149.42C139.269 149.778 139.571 150.057 139.939 150.057C140.331 150.057 140.649 149.739 140.649 149.347L140.649 149.207C140.636 148.484 140.381 147.795 139.693 147.009C140.147 146.873 140.659 146.798 141.28 146.765C141.671 146.745 141.972 146.41 141.952 146.019C141.932 145.627 141.597 145.326 141.205 145.346C140.128 145.402 139.291 145.582 138.545 145.923C138.233 145.669 137.88 145.402 137.482 145.119L137.126 144.871Z" fill="#003049"/>
<path fill-rule="evenodd" clip-rule="evenodd" d="M243.58 300.547L244.073 300.549C246.827 300.574 248.98 300.823 253.033 301.473C253.498 301.548 253.815 301.986 253.74 302.45C253.665 302.915 253.228 303.232 252.763 303.157L251.435 302.948C248.08 302.433 246.147 302.252 243.58 302.252C234.67 302.252 228.982 307.829 229.945 316.383C229.998 316.851 229.661 317.273 229.193 317.326C228.725 317.378 228.303 317.042 228.251 316.574C227.168 306.953 233.702 300.547 243.58 300.547ZM250.48 303.989L250.397 303.916C250.317 303.847 250.193 303.856 250.126 303.937C250.055 304.018 250.066 304.14 250.146 304.209L250.232 304.281C250.312 304.35 250.433 304.341 250.503 304.26C250.571 304.18 250.563 304.058 250.48 303.989ZM235.031 305.772C234.725 305.526 234.278 305.575 234.032 305.881C233.04 307.116 232.316 308.319 231.865 309.494C231.426 310.636 231.277 312.556 231.391 315.3L231.418 315.88C231.439 316.272 231.773 316.573 232.165 316.552C232.557 316.532 232.858 316.197 232.837 315.805C232.686 312.938 232.815 310.985 233.192 310.003C233.586 308.976 234.235 307.897 235.14 306.771C235.386 306.465 235.337 306.018 235.031 305.772ZM242.785 303.422C243.133 303.241 243.562 303.377 243.742 303.726C243.923 304.074 243.787 304.503 243.438 304.683C241.995 305.431 240.893 306.684 240.125 308.47C239.301 310.388 238.626 312.099 238.102 313.602C237.972 313.973 237.567 314.168 237.197 314.039C236.826 313.91 236.631 313.505 236.76 313.134C237.296 311.597 237.983 309.855 238.82 307.909C239.713 305.832 241.037 304.327 242.785 303.422ZM246.915 303.384C246.656 303.089 246.207 303.059 245.912 303.318C244.726 304.357 243.815 305.302 243.178 306.159C242.545 307.01 241.803 308.282 240.945 309.985C240.768 310.335 240.909 310.762 241.26 310.939C241.61 311.115 242.037 310.975 242.214 310.624C243.038 308.989 243.742 307.78 244.318 307.007C244.888 306.24 245.732 305.365 246.849 304.387C247.144 304.128 247.173 303.679 246.915 303.384ZM244.321 311.407C244.026 311.666 243.577 311.636 243.318 311.341C243.06 311.046 243.09 310.597 243.385 310.339C244.501 309.361 245.345 308.485 245.916 307.718C246.491 306.945 247.195 305.737 248.019 304.101C248.196 303.751 248.623 303.61 248.974 303.786C249.324 303.963 249.465 304.39 249.288 304.741C248.43 306.443 247.689 307.715 247.056 308.566C246.418 309.423 245.507 310.368 244.321 311.407ZM238.942 304.001C238.619 303.778 238.177 303.859 237.954 304.182C236.365 306.482 235.351 308.2 234.903 309.368C234.453 310.539 234.142 312.119 233.961 314.115C233.926 314.506 234.214 314.851 234.605 314.886C234.996 314.922 235.341 314.633 235.376 314.243C235.546 312.366 235.833 310.908 236.229 309.877C236.598 308.916 237.459 307.434 238.804 305.455L239.123 304.989C239.346 304.666 239.265 304.224 238.942 304.001Z" fill="#003049"/>
<path fill-rule="evenodd" clip-rule="evenodd" d="M225.455 299.811L225.945 300.899L227.061 301.219C227.121 301.237 227.156 301.3 227.138 301.36C227.133 301.378 227.123 301.395 227.109 301.409L226.261 302.253L226.309 303.468C226.311 303.531 226.263 303.584 226.2 303.586C226.179 303.587 226.158 303.582 226.139 303.571L225.179 303.024C225.149 303.007 225.113 303.005 225.081 303.018L224.054 303.425C223.996 303.449 223.93 303.42 223.907 303.362C223.899 303.342 223.897 303.32 223.9 303.3L224.117 302.103L223.394 301.149C223.356 301.099 223.366 301.028 223.416 300.99C223.432 300.978 223.45 300.971 223.469 300.968L224.619 300.806L225.255 299.797C225.289 299.744 225.359 299.728 225.412 299.761C225.431 299.773 225.446 299.791 225.455 299.811Z" fill="#003049"/>
<path fill-rule="evenodd" clip-rule="evenodd" d="M264.988 147.499C265.249 147.731 265.576 148.149 265.864 148.601L266.234 148.437L266.673 148.249C266.761 148.208 266.818 148.177 266.835 148.151C266.886 148.057 267.002 148.021 267.098 148.071C267.19 148.121 267.227 148.238 267.177 148.332C267.142 148.421 266.896 148.701 266.439 148.975C266.356 149.024 266.264 149.07 266.166 149.115C266.335 149.431 266.467 149.736 266.529 149.98C266.623 150.341 266.548 150.596 266.425 150.686C266.303 150.774 265.999 150.791 265.536 150.407C265.451 150.342 265.438 150.22 265.502 150.136C265.567 150.052 265.687 150.037 265.773 150.102C265.861 150.167 265.95 150.203 266.022 150.23L265.987 150.092C265.973 150.043 265.956 149.991 265.932 149.941C265.849 149.76 265.744 149.552 265.625 149.34C265.263 149.476 264.851 149.6 264.406 149.66C264.19 149.689 263.968 149.695 263.739 149.693C263.607 149.702 263.492 149.602 263.483 149.469C263.475 149.337 263.575 149.223 263.707 149.214C264.243 149.162 264.737 149.027 265.174 148.875L265.318 148.824C265.081 148.454 264.828 148.118 264.611 147.929C264.493 147.825 264.481 147.644 264.584 147.525C264.69 147.406 264.87 147.394 264.988 147.499Z" fill="#003049"/>
<path fill-rule="evenodd" clip-rule="evenodd" d="M108.558 243.68C107.815 243.729 106.636 243.918 105.673 244.3C104.849 244.628 104.849 253.522 107.666 254.231C110.467 255.165 113.529 253.929 113.163 249.169C113.157 249.069 113.076 248.799 112.984 248.488C112.848 248.034 112.688 247.495 112.697 247.284C112.735 246.536 112.539 245.906 112.021 245.51C111.462 244.327 110.368 243.564 108.558 243.68ZM108.154 252.066C106.776 251.036 106.824 246.229 108.398 245.907C109.377 246.66 110.27 247.747 110.572 249.841C110.235 250.994 109.522 251.661 108.9 252.245C108.833 252.307 108.767 252.368 108.703 252.429C108.526 252.328 108.342 252.205 108.154 252.066Z" fill="white"/>
<path fill-rule="evenodd" clip-rule="evenodd" d="M106.48 249.264C106.355 248.516 106.441 247.679 106.817 246.785C106.987 246.38 107.435 246.051 107.996 245.829C108.652 245.57 109.454 245.442 109.959 245.409C111.191 245.329 111.936 245.845 112.316 246.646C112.668 246.913 112.802 247.339 112.776 247.845C112.764 248.085 113.081 248.954 113.092 249.12C113.34 252.339 111.255 253.176 109.35 252.545C108.626 252.913 107.927 252.974 107.402 252.583C106.93 252.235 106.568 251.499 106.485 250.202C106.463 249.867 106.462 249.554 106.48 249.264ZM109.86 247.144C108.767 247.358 108.721 250.515 109.676 251.188C109.806 251.278 109.933 251.359 110.056 251.425C110.518 251.009 110.862 250.672 111.057 249.984C111.253 249.296 110.539 247.635 109.86 247.144Z" fill="#FFB703"/>
<path fill-rule="evenodd" clip-rule="evenodd" d="M181.096 328.094C180.773 327.872 180.33 327.954 180.108 328.278C179.886 328.601 179.968 329.044 180.292 329.266C180.647 329.51 180.961 329.735 181.238 329.944C180.94 330.182 180.642 330.454 180.332 330.764L179.704 331.402C179.427 331.68 179.429 332.13 179.708 332.406C179.987 332.683 180.437 332.681 180.713 332.402L181.467 331.64C181.773 331.341 182.061 331.091 182.35 330.884C182.993 331.521 183.188 331.988 183.199 332.452L183.199 332.571L183.202 332.643C183.239 333.002 183.541 333.281 183.909 333.281C184.301 333.281 184.62 332.963 184.62 332.571L184.619 332.431C184.606 331.707 184.351 331.019 183.663 330.232C184.117 330.097 184.629 330.021 185.25 329.989C185.642 329.968 185.943 329.634 185.922 329.242C185.902 328.851 185.568 328.549 185.176 328.57C184.098 328.626 183.261 328.806 182.515 329.147C182.203 328.892 181.851 328.625 181.452 328.342L181.096 328.094Z" fill="#003049"/>
<path fill-rule="evenodd" clip-rule="evenodd" d="M181.096 328.094C180.773 327.872 180.33 327.954 180.108 328.278C179.886 328.601 179.968 329.044 180.292 329.266C180.647 329.51 180.961 329.735 181.238 329.944C180.94 330.182 180.642 330.454 180.332 330.764L179.704 331.402C179.427 331.68 179.429 332.13 179.708 332.406C179.987 332.683 180.437 332.681 180.713 332.402L181.467 331.64C181.773 331.341 182.061 331.091 182.35 330.884C182.993 331.521 183.188 331.988 183.199 332.452L183.199 332.571L183.202 332.643C183.239 333.002 183.541 333.281 183.909 333.281C184.301 333.281 184.62 332.963 184.62 332.571L184.619 332.431C184.606 331.707 184.351 331.019 183.663 330.232C184.117 330.097 184.629 330.021 185.25 329.989C185.642 329.968 185.943 329.634 185.922 329.242C185.902 328.851 185.568 328.549 185.176 328.57C184.098 328.626 183.261 328.806 182.515 329.147C182.203 328.892 181.851 328.625 181.452 328.342L181.096 328.094Z" fill="#003049"/>
<path fill-rule="evenodd" clip-rule="evenodd" d="M205.377 308.631L205.867 309.719L206.983 310.039C207.043 310.056 207.078 310.119 207.061 310.18C207.055 310.198 207.045 310.215 207.032 310.229L206.184 311.073L206.231 312.288C206.234 312.351 206.185 312.403 206.122 312.406C206.101 312.407 206.08 312.402 206.061 312.391L205.101 311.844C205.071 311.827 205.035 311.825 205.003 311.838L203.976 312.245C203.918 312.268 203.852 312.24 203.829 312.182C203.821 312.162 203.819 312.14 203.823 312.119L204.039 310.923L203.317 309.969C203.279 309.919 203.288 309.848 203.339 309.81C203.354 309.798 203.372 309.791 203.391 309.788L204.541 309.626L205.177 308.617C205.211 308.564 205.281 308.548 205.334 308.581C205.353 308.593 205.368 308.611 205.377 308.631Z" fill="#003049"/>
<path fill-rule="evenodd" clip-rule="evenodd" d="M143.785 301.155L144.617 302.01L145.776 301.93C145.838 301.925 145.893 301.973 145.897 302.035C145.898 302.054 145.895 302.074 145.887 302.091L145.378 303.175L145.839 304.3C145.862 304.358 145.835 304.424 145.776 304.448C145.757 304.456 145.735 304.458 145.714 304.455L144.625 304.269C144.591 304.264 144.556 304.274 144.531 304.297L143.705 305.031C143.658 305.073 143.587 305.069 143.545 305.022C143.531 305.006 143.521 304.986 143.518 304.965L143.312 303.767L142.307 303.118C142.254 303.084 142.239 303.013 142.273 302.961C142.283 302.944 142.298 302.931 142.315 302.922L143.34 302.377L143.593 301.211C143.606 301.149 143.667 301.11 143.728 301.124C143.75 301.128 143.77 301.139 143.785 301.155Z" fill="#003049"/>
<path fill-rule="evenodd" clip-rule="evenodd" d="M130.791 223.246L131.28 224.334L132.396 224.654C132.457 224.672 132.492 224.735 132.474 224.795C132.469 224.814 132.459 224.831 132.445 224.844L131.597 225.688L131.645 226.903C131.647 226.966 131.598 227.019 131.536 227.021C131.515 227.022 131.494 227.017 131.475 227.006L130.515 226.46C130.485 226.443 130.449 226.44 130.417 226.453L129.39 226.861C129.332 226.884 129.266 226.855 129.243 226.797C129.235 226.777 129.233 226.756 129.236 226.735L129.453 225.538L128.73 224.585C128.692 224.534 128.702 224.463 128.752 224.425C128.768 224.414 128.786 224.406 128.805 224.403L129.955 224.241L130.591 223.232C130.625 223.179 130.695 223.163 130.748 223.197C130.767 223.209 130.782 223.226 130.791 223.246Z" fill="#003049"/>
<path fill-rule="evenodd" clip-rule="evenodd" d="M130.677 224.33L130.885 224.792L131.359 224.928C131.385 224.935 131.399 224.962 131.392 224.988C131.39 224.996 131.386 225.003 131.38 225.009L131.02 225.367L131.04 225.883C131.041 225.91 131.02 225.932 130.993 225.933C130.984 225.934 130.975 225.931 130.968 225.927L130.56 225.695C130.547 225.688 130.532 225.686 130.518 225.692L130.082 225.865C130.057 225.875 130.029 225.863 130.019 225.838C130.016 225.83 130.015 225.82 130.017 225.812L130.109 225.303L129.802 224.898C129.786 224.877 129.79 224.847 129.811 224.831C129.818 224.826 129.825 224.822 129.834 224.821L130.322 224.753L130.592 224.324C130.606 224.301 130.636 224.295 130.659 224.309C130.667 224.314 130.673 224.321 130.677 224.33Z" fill="#E7EAEE"/>
<path fill-rule="evenodd" clip-rule="evenodd" d="M72.5909 270.979L73.0805 272.067L74.1965 272.387C74.2569 272.405 74.2918 272.468 74.2744 272.528C74.2691 272.547 74.2591 272.563 74.2454 272.577L73.3974 273.421L73.4449 274.636C73.4474 274.699 73.3985 274.752 73.3358 274.754C73.3146 274.755 73.2936 274.75 73.2751 274.739L72.3152 274.193C72.2852 274.175 72.249 274.173 72.217 274.186L71.1903 274.593C71.1319 274.617 71.0659 274.588 71.0427 274.53C71.0348 274.51 71.0327 274.488 71.0365 274.468L71.2526 273.271L70.5304 272.317C70.4925 272.267 70.5023 272.196 70.5524 272.158C70.5678 272.146 70.586 272.139 70.6052 272.136L71.7549 271.974L72.3911 270.965C72.4246 270.912 72.4948 270.896 72.5479 270.93C72.5668 270.941 72.5818 270.959 72.5909 270.979Z" fill="#003049"/>
<path fill-rule="evenodd" clip-rule="evenodd" d="M121.78 173.289L122.136 173.537C122.535 173.82 124.025 175.224 124.337 175.479C125.081 175.137 125.919 174.957 126.997 174.901C127.388 174.88 127.723 175.181 127.743 175.573C127.764 175.965 127.463 176.299 127.071 176.32C126.45 176.352 125.938 176.428 125.484 176.563C126.172 177.35 126.427 178.039 126.44 178.762L126.44 178.902C126.44 179.294 126.122 179.612 125.73 179.612C125.362 179.612 125.06 179.333 125.023 178.974L125.02 178.902L125.02 178.783C125.009 178.319 124.813 177.852 124.171 177.215C123.882 177.422 123.594 177.672 123.288 177.971L122.534 178.733C122.257 179.012 121.808 179.014 121.529 178.737C121.25 178.461 121.248 178.011 121.525 177.733L122.153 177.095C122.463 176.785 122.761 176.513 123.059 176.275C122.535 175.079 120.57 173.796 120.793 173.472C121.015 173.149 121.457 173.066 121.78 173.289Z" fill="#003049"/>
<path fill-rule="evenodd" clip-rule="evenodd" d="M258.855 255.224L259.822 255.921L260.949 255.641C261.01 255.625 261.072 255.662 261.087 255.723C261.092 255.742 261.091 255.762 261.086 255.781L260.774 256.936L261.423 257.964C261.456 258.017 261.44 258.087 261.387 258.121C261.369 258.132 261.348 258.138 261.327 258.138L260.222 258.145C260.188 258.145 260.155 258.161 260.134 258.188L259.449 259.054C259.41 259.104 259.338 259.112 259.289 259.073C259.272 259.06 259.26 259.042 259.253 259.022L258.842 257.878L257.739 257.413C257.681 257.389 257.654 257.322 257.679 257.264C257.686 257.246 257.698 257.231 257.713 257.219L258.628 256.504L258.675 255.312C258.677 255.249 258.73 255.2 258.793 255.202C258.815 255.203 258.836 255.211 258.855 255.224Z" fill="#003049"/>
<path fill-rule="evenodd" clip-rule="evenodd" d="M269.973 210.697L270.267 211.854L271.31 212.363C271.366 212.39 271.39 212.458 271.362 212.515C271.354 212.532 271.341 212.547 271.325 212.558L270.344 213.242L270.179 214.447C270.171 214.509 270.114 214.553 270.051 214.544C270.03 214.541 270.011 214.533 269.994 214.519L269.144 213.814C269.117 213.792 269.082 213.783 269.048 213.79L267.966 214.013C267.905 214.026 267.845 213.987 267.832 213.925C267.828 213.904 267.829 213.883 267.837 213.863L268.257 212.722L267.712 211.657C267.683 211.601 267.705 211.533 267.761 211.504C267.778 211.496 267.798 211.491 267.817 211.492L268.977 211.532L269.779 210.649C269.821 210.602 269.893 210.599 269.94 210.641C269.956 210.656 269.968 210.676 269.973 210.697Z" fill="#003049"/>
<path fill-rule="evenodd" clip-rule="evenodd" d="M244.653 164.156L244.946 165.312L245.99 165.821C246.046 165.849 246.07 165.917 246.042 165.973C246.034 165.991 246.021 166.006 246.005 166.017L245.023 166.701L244.859 167.905C244.851 167.968 244.793 168.011 244.731 168.003C244.71 168 244.69 167.991 244.674 167.978L243.823 167.272C243.797 167.25 243.762 167.242 243.728 167.249L242.646 167.472C242.585 167.485 242.524 167.445 242.512 167.384C242.507 167.363 242.509 167.341 242.516 167.321L242.937 166.181L242.391 165.116C242.363 165.06 242.385 164.991 242.441 164.963C242.458 164.954 242.477 164.95 242.497 164.95L243.657 164.991L244.459 164.107C244.501 164.061 244.573 164.057 244.619 164.099C244.636 164.114 244.648 164.134 244.653 164.156Z" fill="#003049"/>
<path fill-rule="evenodd" clip-rule="evenodd" d="M319.456 175.487L319.888 175.448C320.376 175.408 320.818 175.386 321.221 175.381C321.572 174.64 322.098 173.965 322.887 173.229C323.174 172.961 323.624 172.977 323.891 173.264C324.159 173.551 324.143 174.001 323.856 174.268C323.401 174.692 323.058 175.079 322.797 175.475C323.83 175.635 324.468 175.998 324.943 176.544L325.033 176.651C325.285 176.952 325.246 177.4 324.945 177.652C324.663 177.888 324.252 177.869 323.994 177.618L323.944 177.564L323.868 177.473C323.561 177.124 323.111 176.892 322.21 176.817C322.122 177.162 322.062 177.539 322.019 177.965L321.932 179.033C321.899 179.424 321.556 179.715 321.165 179.682C320.774 179.65 320.483 179.306 320.516 178.915L320.587 178.023C320.625 177.586 320.678 177.186 320.754 176.812C320.408 176.83 320.022 176.859 319.593 176.901C319.203 176.939 318.855 176.653 318.818 176.262C318.78 175.872 319.066 175.524 319.456 175.487Z" fill="#003049"/>
<path fill-rule="evenodd" clip-rule="evenodd" d="M262.087 224.529C261.959 224.854 261.678 225.304 261.351 225.729L261.632 226.021L261.959 226.369L262.031 226.439C262.063 226.467 262.088 226.484 262.106 226.488C262.212 226.504 262.285 226.601 262.271 226.707C262.256 226.811 262.159 226.886 262.053 226.871C261.958 226.869 261.61 226.733 261.197 226.397C261.122 226.336 261.047 226.266 260.971 226.189C260.732 226.455 260.491 226.684 260.283 226.826C259.976 227.038 259.711 227.055 259.584 226.969C259.459 226.886 259.34 226.605 259.542 226.039C259.574 225.936 259.683 225.882 259.785 225.914C259.886 225.946 259.942 226.054 259.91 226.157C259.879 226.262 259.875 226.358 259.874 226.435L259.992 226.354C260.034 226.325 260.076 226.291 260.115 226.252C260.257 226.112 260.416 225.942 260.575 225.758C260.323 225.464 260.066 225.12 259.857 224.722C259.756 224.528 259.675 224.322 259.598 224.106C259.545 223.985 259.6 223.843 259.721 223.789C259.842 223.736 259.984 223.791 260.037 223.912C260.269 224.398 260.565 224.816 260.858 225.175L260.955 225.292C261.221 224.943 261.45 224.591 261.554 224.322C261.612 224.176 261.778 224.103 261.924 224.159C262.072 224.217 262.145 224.383 262.087 224.529Z" fill="#E7EAEE"/>
<path fill-rule="evenodd" clip-rule="evenodd" d="M255.151 79.7374C255.584 79.662 255.996 79.9518 256.071 80.3848C256.147 80.8177 255.857 81.2298 255.424 81.3052C253.365 81.6639 250.887 82.8947 248.746 84.877C245.966 87.4512 243.915 91.0843 242.903 95.8267C242.087 99.6476 242.837 104.678 244.969 108.875C247.394 113.65 251.293 116.897 256.296 117.811C261.433 118.749 265.778 118.166 270.631 116.441L271.078 116.278C271.22 116.225 271.474 116.127 271.792 116.004C272.96 115.553 275.002 114.766 275.588 114.588C277.158 114.114 278.228 114.153 279.004 114.981C279.305 115.301 279.289 115.805 278.968 116.105C278.668 116.387 278.207 116.391 277.902 116.126L277.844 116.07C277.615 115.826 277.141 115.797 276.189 116.07L276.049 116.112C275.532 116.268 273.641 116.997 272.462 117.452L272.462 117.452C272.005 117.628 271.655 117.763 271.533 117.807C266.291 119.721 261.587 120.395 256.011 119.376C250.484 118.367 246.188 114.789 243.55 109.596C241.257 105.083 240.452 99.6821 241.346 95.4945C242.427 90.433 244.642 86.5076 247.664 83.7094C250.03 81.5189 252.789 80.1488 255.151 79.7374ZM260.532 83.5815C260.963 83.497 261.382 83.7782 261.466 84.2094C261.55 84.6407 261.269 85.0587 260.838 85.1432C254.389 86.4062 249.203 91.3321 247.698 97.8476C247.189 100.053 247.343 101.846 247.843 102.53L247.909 102.615L247.914 102.627L247.924 102.62C248.103 102.459 248.312 102.046 248.474 101.407L248.508 101.267C250.055 94.5655 255.164 89.3784 261.689 87.6365C262.114 87.5232 262.55 87.7755 262.663 88.2001C262.777 88.6246 262.524 89.0607 262.1 89.1741C256.221 90.7435 251.602 95.3721 250.119 101.37L250.058 101.625C249.513 103.988 247.946 105.116 246.677 103.62C245.749 102.526 245.521 100.204 246.148 97.4896C247.794 90.3569 253.472 84.9641 260.532 83.5815ZM270.102 92.3152C270.071 91.8769 269.69 91.5469 269.252 91.5781C261.507 92.1307 254.716 97.1607 252.013 104.585C250.988 107.402 250.927 109.907 251.767 111.185C252.893 112.899 254.664 111.926 255.547 109.5L255.64 109.251C258.029 102.968 263.629 98.5798 270.185 97.6647C270.62 97.604 270.923 97.2019 270.863 96.7667C270.802 96.3314 270.4 96.0279 269.965 96.0886C262.745 97.0963 256.59 101.981 254.052 108.956L253.996 109.105C253.713 109.831 253.404 110.268 253.17 110.397L253.16 110.404C253.158 110.405 253.157 110.406 253.155 110.407C253.154 110.409 253.153 110.41 253.152 110.41C253.15 110.41 253.149 110.407 253.147 110.402C253.142 110.39 253.131 110.364 253.097 110.311L253.054 110.242C252.592 109.423 252.663 107.453 253.509 105.129C255.994 98.3002 262.241 93.6737 269.365 93.1655C269.803 93.1342 270.133 92.7535 270.102 92.3152ZM273.568 100.051C274.006 100.019 274.387 100.349 274.418 100.788C274.449 101.226 274.119 101.607 273.681 101.638C268.686 101.994 264.306 105.238 262.564 110.026C262.047 111.445 261.951 112.659 262.136 113.273L262.159 113.342L262.194 113.291C262.283 113.156 262.383 112.963 262.481 112.712L262.523 112.601C264.363 107.543 268.826 104.002 274.061 103.271C274.496 103.21 274.898 103.514 274.959 103.949C275.02 104.384 274.716 104.786 274.281 104.847C269.702 105.486 265.788 108.542 264.102 112.921L264.018 113.145C263.336 115.02 261.859 115.83 260.916 114.394C260.269 113.41 260.315 111.553 261.068 109.482C263.028 104.098 267.952 100.451 273.568 100.051ZM277.761 106.462C277.73 106.023 277.349 105.693 276.911 105.725C273.15 105.993 269.852 108.435 268.54 112.041C268.023 113.462 267.991 114.755 268.47 115.484C269.255 116.678 270.474 116.009 270.982 114.613L271.051 114.43C272.119 111.7 274.569 109.797 277.433 109.397C277.868 109.336 278.172 108.934 278.111 108.499C278.051 108.064 277.648 107.76 277.213 107.821L277.012 107.851C273.929 108.348 271.268 110.305 269.889 113.121L269.841 113.221L269.871 113.107C269.915 112.941 269.97 112.766 270.036 112.585C271.131 109.575 273.884 107.536 277.024 107.312C277.463 107.281 277.793 106.9 277.761 106.462Z" fill="#003049"/>
<path fill-rule="evenodd" clip-rule="evenodd" d="M273.568 100.051C274.006 100.019 274.387 100.349 274.418 100.788C274.449 101.226 274.119 101.607 273.681 101.638C268.686 101.994 264.306 105.238 262.564 110.026C262.047 111.445 261.951 112.659 262.136 113.273L262.159 113.342L262.194 113.291C262.283 113.156 262.383 112.963 262.481 112.712L262.523 112.601C264.363 107.543 268.826 104.001 274.061 103.271C274.496 103.21 274.898 103.514 274.959 103.949C275.02 104.384 274.716 104.786 274.281 104.847C269.702 105.486 265.788 108.542 264.102 112.921L264.018 113.145C263.336 115.02 261.859 115.83 260.916 114.394C260.269 113.41 260.314 111.553 261.068 109.482C263.028 104.098 267.952 100.451 273.568 100.051Z" fill="#003049"/>
<path d="M224.012 203.649C240.694 195.846 254.641 191.725 263.325 190.968C265.984 190.736 267.19 192.202 266.517 194.587C266.017 196.358 264.494 198.787 262.16 201.665C258.091 206.681 252.726 210.973 247.384 214.966C255.931 207.077 258.111 203.777 260.747 200.527L261.161 200.01C263.115 197.539 264.379 195.474 264.768 194.097L264.823 193.887C265.065 192.893 264.785 192.658 263.483 192.771C254.996 193.511 241.102 197.64 224.481 205.433C207.834 213.238 207.358 211.439 224.012 203.649Z" fill="white"/>
<path d="M147.718 178.407L147.84 178.698C148.685 180.702 149.563 182.686 150.56 184.85L150.948 185.69C150.821 185.775 150.654 185.866 150.47 185.946C150.206 186.061 149.938 186.142 149.737 186.169L149.673 186.176L149.576 186.06C148.823 185.132 147.948 183.557 147.317 181.99C146.98 181.155 146.741 180.39 146.633 179.802C146.589 179.562 146.568 179.361 146.57 179.208L146.575 179.107C146.576 179.083 146.576 179.07 146.57 179.068L146.594 179.052C146.728 178.959 147.072 178.758 147.583 178.481L147.718 178.407Z" fill="white"/>
<path fill-rule="evenodd" clip-rule="evenodd" d="M168.806 171.148C169.329 170.509 170.006 170.605 170.863 171.125L171.083 171.264L171.7 171.672C171.872 171.783 171.947 171.821 172.048 171.861C172.281 171.954 172.395 172.218 172.302 172.452C172.209 172.685 171.944 172.799 171.711 172.706L171.628 172.672C171.47 172.604 171.351 172.534 171.032 172.322L170.59 172.027C170.517 171.98 170.454 171.94 170.392 171.902C169.879 171.591 169.646 171.558 169.511 171.724C169.425 171.828 169.446 172.05 169.615 172.506L169.801 172.984C170.17 173.963 170.172 174.4 169.515 174.774C168.95 175.095 168.66 174.945 167.847 174.149L167.65 173.954C167.13 173.435 166.857 173.254 166.682 173.291C166.623 173.303 166.555 173.345 166.472 173.433C166.375 173.537 166.347 173.869 166.407 174.459L166.499 175.228C166.606 176.169 166.562 176.413 166.174 176.673C165.639 177.031 164.928 176.626 163.609 175.442C163.422 175.274 163.406 174.986 163.574 174.8C163.742 174.613 164.029 174.597 164.216 174.765C164.78 175.271 165.206 175.601 165.503 175.77L165.57 175.807L165.626 175.834L165.627 175.777L165.623 175.641C165.617 175.53 165.604 175.395 165.576 175.166L165.518 174.693C165.407 173.735 165.442 173.203 165.809 172.811C166.013 172.594 166.242 172.455 166.494 172.401C167.078 172.278 167.493 172.527 168.182 173.201L168.53 173.543C168.905 173.904 169.044 173.996 169.065 173.983C169.151 173.935 169.138 173.784 168.907 173.193L168.806 172.937C168.485 172.111 168.424 171.616 168.806 171.148Z" fill="#003049"/>
<path fill-rule="evenodd" clip-rule="evenodd" d="M218.445 97.1404L218.013 97.1789C217.623 97.2167 217.337 97.5639 217.375 97.9545C217.397 98.1906 217.533 98.3884 217.724 98.4997L217.649 98.553C217.328 98.7795 217.252 99.2229 217.478 99.5433C217.705 99.8637 218.148 99.9398 218.469 99.7134L219.199 99.1963C219.177 99.3636 219.159 99.5362 219.144 99.7149L219.072 100.608C219.04 100.999 219.331 101.342 219.722 101.374C220.113 101.407 220.456 101.116 220.488 100.725L220.576 99.657C220.599 99.4283 220.627 99.2141 220.662 99.0113C220.911 99.4846 220.961 99.8491 220.908 100.194L220.887 100.311L220.878 100.383C220.852 100.743 221.102 101.07 221.464 101.134C221.85 101.202 222.219 100.944 222.287 100.558L222.311 100.42C222.386 99.941 222.352 99.4583 222.158 98.9225C222.259 98.9955 222.347 99.0767 222.425 99.1654L222.501 99.2566L222.551 99.3099C222.809 99.561 223.22 99.5807 223.502 99.3442C223.803 99.092 223.842 98.6439 223.59 98.3433L223.5 98.2364C223.468 98.1997 223.435 98.1639 223.402 98.1289C223.773 98.1505 224.102 97.8803 224.148 97.5063C224.196 97.1169 223.919 96.7624 223.529 96.7145C222.859 96.6321 222.274 96.6136 221.735 96.662C221.928 96.4345 222.152 96.2035 222.413 95.9603C222.7 95.6928 222.716 95.2432 222.448 94.9562C222.181 94.6692 221.731 94.6535 221.444 94.921C220.963 95.3698 220.579 95.7963 220.274 96.2289C220.155 96.1037 220.031 95.9754 219.901 95.8438L219.594 95.5377C219.314 95.2628 218.865 95.2669 218.59 95.5469C218.315 95.8269 218.319 96.2767 218.599 96.5516C218.793 96.7425 218.973 96.9231 219.138 97.0942C218.918 97.1053 218.687 97.1207 218.445 97.1404Z" fill="#003049"/>
<path fill-rule="evenodd" clip-rule="evenodd" d="M191.065 102.063C190.895 101.888 190.619 101.893 190.449 102.074C190.278 102.255 190.279 102.543 190.449 102.718C190.611 102.884 190.756 103.037 190.885 103.18C190.612 103.296 190.337 103.446 190.044 103.631L189.598 103.917C189.403 104.042 189.36 104.291 189.503 104.474C189.646 104.657 189.92 104.704 190.116 104.58L190.65 104.239C190.929 104.068 191.18 103.939 191.433 103.848C191.817 104.382 191.898 104.724 191.849 105.042L191.836 105.117L191.83 105.163C191.812 105.394 191.963 105.603 192.185 105.642C192.422 105.683 192.65 105.516 192.693 105.268L192.709 105.18C192.782 104.719 192.704 104.256 192.374 103.683C192.597 103.679 192.841 103.696 193.118 103.731C193.359 103.762 193.575 103.609 193.601 103.39C193.627 103.171 193.452 102.968 193.211 102.938C192.683 102.87 192.24 102.862 191.835 102.917C191.668 102.712 191.475 102.493 191.252 102.258L191.065 102.063Z" fill="#E7EAEE"/>
<path fill-rule="evenodd" clip-rule="evenodd" d="M99.5096 220.503L99.9992 221.591L101.115 221.911C101.176 221.928 101.21 221.991 101.193 222.052C101.188 222.07 101.178 222.087 101.164 222.101L100.316 222.945L100.364 224.16C100.366 224.223 100.317 224.275 100.255 224.278C100.233 224.279 100.212 224.274 100.194 224.263L99.2339 223.716C99.2039 223.699 99.1677 223.697 99.1357 223.709L98.109 224.117C98.0506 224.14 97.9846 224.112 97.9614 224.054C97.9535 224.034 97.9514 224.012 97.9552 223.991L98.1713 222.795L97.4491 221.841C97.4112 221.791 97.421 221.72 97.4711 221.682C97.4865 221.67 97.5047 221.663 97.5239 221.66L98.6736 221.498L99.3098 220.489C99.3433 220.436 99.4135 220.42 99.4666 220.453C99.4855 220.465 99.5005 220.482 99.5096 220.503Z" fill="#003049"/>
<path fill-rule="evenodd" clip-rule="evenodd" d="M106.038 160.119L106.527 161.207L107.643 161.527C107.704 161.544 107.739 161.607 107.721 161.668C107.716 161.686 107.706 161.703 107.692 161.717L106.844 162.561L106.892 163.776C106.894 163.839 106.845 163.891 106.783 163.894C106.761 163.895 106.74 163.89 106.722 163.879L105.762 163.332C105.732 163.315 105.696 163.313 105.664 163.326L104.637 163.733C104.579 163.757 104.513 163.728 104.489 163.67C104.482 163.65 104.479 163.628 104.483 163.607L104.699 162.411L103.977 161.457C103.939 161.407 103.949 161.336 103.999 161.298C104.015 161.286 104.033 161.279 104.052 161.276L105.202 161.114L105.838 160.105C105.871 160.052 105.942 160.036 105.995 160.069C106.014 160.081 106.029 160.099 106.038 160.119Z" fill="#003049"/>
<path d="M120.825 256.257C121.189 255.992 121.7 256.073 121.964 256.438C122.229 256.803 110.685 266.206 106.206 270.515L105.686 271.02C103.128 273.522 101.242 275.69 100.179 277.403C99.0524 279.219 98.9802 280.205 99.7074 280.608C102.467 282.137 106.434 282.882 112.116 281.941L112.7 281.841C114.862 281.462 131.131 277.914 130.874 278.008L130.774 278.038C130.261 278.174 123.636 280.465 121.35 281.047L121.074 281.117C117.578 281.996 114.843 282.599 112.382 283.007C106.37 284.003 102.074 283.785 98.9163 282.035C97.0942 281.025 97.2393 279.045 98.7921 276.543C100.013 274.574 102.162 272.142 105.075 269.339C109.613 264.972 115.996 259.763 120.825 256.257Z" fill="white"/>
<path fill-rule="evenodd" clip-rule="evenodd" d="M205.827 143.144C206.026 143.011 206.293 143.068 206.424 143.27L209.37 147.834C209.5 148.037 209.444 148.308 209.245 148.44C209.046 148.573 208.779 148.516 208.648 148.314L205.703 143.75C205.572 143.548 205.628 143.276 205.827 143.144Z" fill="#003049"/>
<path fill-rule="evenodd" clip-rule="evenodd" d="M205.971 139.771C206.199 139.637 206.5 139.705 206.644 139.922L208.671 142.993C208.815 143.21 208.747 143.496 208.519 143.63C208.29 143.764 207.989 143.697 207.845 143.479L205.818 140.409C205.674 140.191 205.743 139.906 205.971 139.771Z" fill="#003049"/>
</svg>
