<svg width="408" height="408" viewBox="0 0 408 408" fill="none" xmlns="http://www.w3.org/2000/svg">
<path d="M350.597 190.67C363.127 166.497 376.105 130.685 339.764 102.115C303.421 73.5431 267.53 95.0473 250.646 110.596C240.905 119.566 232.037 129.973 224.271 139.087C219.744 144.4 215.591 149.273 211.858 153.166C186.703 179.398 161.418 186.378 126.154 196.113C112.408 199.907 97.1463 204.12 79.7848 210.056C32.5394 226.208 25.7417 241.409 31.2127 255.536C32.965 254.801 34.8014 254.076 36.719 253.36C68.6248 241.46 123.002 232.484 186.101 232.484C266.671 232.484 350.465 261.598 381.817 284.919C377.037 275.309 364.636 265.006 353.284 255.575C344.041 247.897 335.495 240.797 332.323 235.119C325.974 223.754 330.206 218.614 337.373 209.909C341.317 205.119 346.149 199.25 350.597 190.67Z" fill="#669BBC"/>
<path d="M351.063 322.169L350.635 322.181L348.756 322.22C286.088 323.431 159.316 315.428 78.8943 305.044C78.8931 305.044 78.8918 305.043 78.8905 305.043L78.8803 305.043C78.885 305.043 78.8897 305.044 78.8943 305.044C111.173 318.068 156.984 326.856 204 326.991C242.897 327.102 269.615 327.728 288.73 328.176C328.866 329.117 335.484 329.272 350.946 322.223L351.063 322.169Z" fill="#669BBC"/>
<path fill-rule="evenodd" clip-rule="evenodd" d="M189.836 243.397L191.374 243.496L189.098 279.994L188.002 281.374L186.315 280.217L189.836 243.397Z" fill="white"/>
<circle cx="305.759" cy="154.253" r="42.5706" fill="white"/>
<path fill-rule="evenodd" clip-rule="evenodd" d="M194.318 195.737C194.318 195.737 194.224 193.294 197.135 193.15C200.043 193.006 223.802 195.737 223.802 195.737C223.802 195.737 228.915 196.473 228.07 202.218C227.224 207.963 224.138 221.202 224.138 221.202C224.138 221.202 224.5 223.467 220.788 222.866C217.076 222.265 206.054 219.399 194.318 221.218C194.318 221.218 192.38 221.445 192.436 229.687L191.374 229.491C191.374 229.491 192.925 198.049 194.318 195.737Z" fill="white"/>
<path fill-rule="evenodd" clip-rule="evenodd" d="M211.756 176.298C211.756 176.298 211.986 176.052 211.756 176.298C210.824 177.297 210.032 178.187 209.521 178.828C207.083 181.894 203.816 184.801 202.497 187.022C202.497 187.022 196.657 189.683 194.318 186.917C194.318 186.917 199.683 179.882 203.938 176.739C203.938 176.739 208.071 174.704 211.756 176.298ZM216.29 171.606L211.972 170.352C211.972 170.352 216.351 167.624 218.778 166.591L220.788 167.135C220.788 167.135 218.71 169.166 216.29 171.606C216.29 171.606 216.229 171.672 216.29 171.606Z" fill="white"/>
<path fill-rule="evenodd" clip-rule="evenodd" d="M144.601 288.634C144.601 288.634 137.006 286.95 135.198 278.265C135.198 278.265 136.582 275.76 142.01 269.958C142.01 269.958 148.872 265.553 147.741 258.57C147.741 258.57 140.256 256.629 142.76 245.256L144.356 242.341C144.356 242.341 142.588 229.714 144.086 222.238C144.086 222.238 142.701 212.702 148.469 212.017C148.469 212.017 150.895 211.662 151.163 210.712C151.163 210.712 147.611 200.872 158.011 196.102C168.41 191.334 176.5 199.548 176.174 208.303C176.174 208.303 175.273 214.296 171.604 216.977C171.604 216.977 179.485 221.907 183.873 228.388C183.873 228.388 188.778 233.476 190.935 232.618C190.935 232.618 197.511 232.474 196.615 234.772C195.721 237.069 195.091 240.36 185.462 240.86C185.462 240.86 176.154 239.667 173.727 239.599L172.02 239.002C172.02 239.002 174.121 243.458 171.836 247.705C169.551 251.951 167.89 253.421 168.135 254.245L173.196 277.91C173.196 277.91 172.831 281.906 177.304 281.205C181.777 280.503 180.591 283.234 179.699 283.889C178.808 284.546 171.437 290.85 165.251 282.811C159.065 274.769 158.155 273.117 158.155 273.117L145.785 281.777C145.785 281.777 144.824 282.711 145.524 284.886C145.524 284.886 146.861 288.105 144.601 288.634Z" fill="white"/>
<path fill-rule="evenodd" clip-rule="evenodd" d="M257.764 157.701C255.558 108.169 306.543 110.579 306.652 110.595C367.525 119.6 353.036 196.824 305.862 199.267C305.829 199.269 259.667 200.443 257.764 157.701ZM259.512 157.642C258.184 127.808 277.846 118.01 292.125 114.822C292.173 114.873 292.236 114.927 292.31 114.985C293.291 115.767 294.264 116.486 295.583 116.74C296.357 116.888 297.106 117.159 297.855 117.43C298.434 117.639 299.012 117.849 299.603 118.002C300.386 118.206 301.2 118.296 302.011 118.387C302.245 118.413 302.479 118.439 302.712 118.468C302.927 118.495 303.147 118.496 303.365 118.497C303.641 118.499 303.916 118.501 304.182 118.553C304.534 118.622 304.881 118.721 305.227 118.82C305.656 118.942 306.084 119.065 306.521 119.13C306.832 119.176 307.154 119.16 307.475 119.144C307.859 119.125 308.241 119.106 308.599 119.194C309.54 119.425 310.453 119.78 311.363 120.133L311.59 120.221L311.749 120.282L311.953 120.361L311.954 120.361C312.917 120.733 313.887 121.106 314.803 121.577C315.684 122.029 316.505 121.94 316.974 121.15C317.687 119.948 318.437 118.828 320.026 118.682C320.334 118.653 320.633 118.522 320.932 118.391C321.068 118.332 321.204 118.272 321.341 118.222L321.179 118.159C320.785 118.004 320.391 117.849 319.999 117.69C319.992 117.687 319.993 117.667 319.995 117.646V117.646V117.646C319.997 117.621 319.999 117.594 319.988 117.587C319.04 116.894 317.469 117.461 316.938 118.48C316.611 119.108 315.981 119.731 315.337 120.004C314.679 120.282 314.124 119.937 313.538 119.571C313.296 119.42 313.049 119.265 312.786 119.15C311.663 118.814 310.65 118.482 309.641 118.142C309.324 118.035 309.009 117.92 308.695 117.806C308.023 117.562 307.353 117.319 306.663 117.148C306.318 117.062 305.952 117.068 305.584 117.075C305.297 117.079 305.009 117.084 304.729 117.046C304.178 116.969 303.629 116.867 303.08 116.765C302.471 116.652 301.862 116.539 301.249 116.461C300.843 116.409 300.426 116.397 300.012 116.386C299.337 116.367 298.666 116.349 298.046 116.157C297.819 116.086 297.599 116.005 297.38 115.924C296.806 115.713 296.238 115.503 295.567 115.494C294.973 115.485 294.279 115.076 293.82 114.645C293.761 114.589 293.704 114.542 293.649 114.502C300.879 113.079 306.384 113.323 306.418 113.329C361.457 121.849 350.128 194.767 305.862 197.06C305.831 197.061 261.298 197.749 259.512 157.642ZM135.344 281.082L135.391 281.217C135.677 282.055 136.165 282.823 136.667 283.614C136.863 283.923 137.061 284.235 137.25 284.556C137.372 284.705 137.483 284.851 137.589 284.992L137.589 284.993C137.782 285.247 137.961 285.485 138.172 285.691C139.514 286.998 140.979 288.144 142.722 288.874C142.839 288.923 142.989 288.894 143.139 288.865C143.289 288.836 143.439 288.807 143.555 288.858C145.119 289.549 146.671 288.662 146.609 286.938C146.587 286.345 146.41 285.759 146.232 285.171L146.231 285.171C146.107 284.76 145.982 284.349 145.91 283.932C145.835 283.5 145.911 282.946 146.134 282.577C146.718 281.609 147.645 281.019 148.623 280.445C149.084 280.175 149.477 279.79 149.87 279.404C150.177 279.103 150.486 278.802 150.828 278.552C151.371 278.157 151.949 277.81 152.526 277.463C152.949 277.208 153.372 276.954 153.781 276.681C154.063 276.493 154.327 276.283 154.591 276.073L154.592 276.073L154.592 276.073C155.214 275.579 155.836 275.085 156.68 274.874C157.748 274.608 158.864 274.946 159.5 275.941C159.773 276.367 160.096 276.76 160.42 277.153C160.666 277.451 160.912 277.75 161.136 278.064C161.679 278.822 162.191 279.608 162.668 280.409C162.86 280.73 163.027 281.071 163.194 281.411C163.483 282 163.772 282.588 164.186 283.07C164.751 283.727 165.401 284.31 166.051 284.894C166.493 285.291 166.935 285.688 167.352 286.109C168.524 287.293 170.036 287.604 171.566 287.735C172.351 287.8 173.146 287.645 173.922 287.495C174.409 287.4 174.888 287.307 175.353 287.271C175.968 287.223 176.458 286.98 176.939 286.742C177.387 286.52 177.827 286.302 178.353 286.249C178.846 286.199 179.301 285.782 179.757 285.364C179.96 285.178 180.163 284.991 180.37 284.837C181.675 283.867 181.718 282.066 180.413 281.15C180.279 281.057 180.082 281.05 179.887 281.043C179.684 281.035 179.482 281.028 179.356 280.925C178.352 280.103 177.276 280.321 176.177 280.56C175.205 280.769 174.023 279.693 174.036 278.705C174.042 278.303 173.935 277.896 173.829 277.495C173.801 277.392 173.774 277.288 173.749 277.186C173.687 276.932 173.609 276.681 173.532 276.43L173.532 276.43C173.392 275.979 173.253 275.53 173.208 275.072C173.168 274.669 173.07 274.282 172.972 273.893C172.844 273.384 172.715 272.875 172.718 272.332C172.719 272.006 172.593 271.684 172.466 271.358L172.466 271.358C172.373 271.119 172.279 270.878 172.234 270.632C172.17 270.278 172.144 269.918 172.118 269.557V269.557C172.091 269.182 172.065 268.807 171.995 268.44C171.9 267.944 171.776 267.454 171.652 266.965L171.652 266.964C171.511 266.409 171.37 265.855 171.273 265.293C171.201 264.876 171.201 264.448 171.2 264.019C171.2 263.741 171.2 263.462 171.18 263.185C171.169 263.023 171.168 262.847 171.167 262.67V262.669C171.166 262.169 171.164 261.653 170.913 261.369C170.604 261.021 170.617 260.659 170.63 260.289C170.641 259.982 170.653 259.669 170.478 259.356C170.145 258.757 170.126 257.978 170.107 257.206V257.205C170.099 256.916 170.092 256.628 170.069 256.351C170.052 256.158 170.075 255.942 170.098 255.73C170.137 255.368 170.174 255.017 170.014 254.811C169.424 254.06 169.764 253.314 170.015 252.762L170.015 252.761C170.03 252.73 170.044 252.699 170.057 252.669C170.468 251.756 170.956 250.878 171.445 250C171.968 249.059 172.491 248.118 172.918 247.136C173.316 246.221 173.443 245.177 173.567 244.152L173.567 244.152C173.592 243.946 173.617 243.742 173.644 243.539C173.692 243.173 173.679 242.798 173.665 242.423V242.423C173.65 242.005 173.635 241.588 173.706 241.185C173.756 240.901 174.148 240.656 174.48 240.448C174.53 240.417 174.579 240.386 174.624 240.357C174.658 240.335 174.734 240.402 174.825 240.482C174.931 240.574 175.058 240.685 175.164 240.699C175.466 240.738 175.795 240.735 176.123 240.731C176.76 240.725 177.389 240.719 177.789 241.022C178.505 241.566 179.257 241.538 179.974 241.51H179.974C180.271 241.499 180.562 241.488 180.841 241.517C182.411 241.684 184.01 241.586 185.608 241.487C186.236 241.448 186.864 241.41 187.49 241.387C187.904 241.372 188.32 241.356 188.727 241.29C190.753 240.963 192.744 240.49 194.347 239.121C194.842 238.698 195.257 238.182 195.672 237.666C195.846 237.45 196.02 237.233 196.199 237.024C196.677 236.468 196.857 235.834 197.06 235.11C197.437 233.769 196.599 232.087 195.149 232.195C194.552 232.239 194.149 232.052 193.67 231.823C193.384 231.685 192.998 231.683 192.668 231.72C192.44 231.745 192.209 231.789 191.98 231.833C191.048 232.01 190.127 232.186 189.38 231.141C189.224 230.922 188.915 230.804 188.619 230.69C188.532 230.657 188.446 230.624 188.366 230.589C188.199 230.517 188.017 230.464 187.836 230.411C187.513 230.316 187.193 230.223 186.964 230.022C186.025 229.195 185.15 228.289 184.304 227.365C183.872 226.893 183.464 226.401 183.055 225.908L183.055 225.908L183.054 225.908L183.054 225.908L183.054 225.908L183.054 225.907L183.054 225.907L183.054 225.907L183.054 225.907L183.053 225.907L183.053 225.907L183.053 225.907L183.053 225.906L183.053 225.906L183.053 225.906L183.053 225.906L183.052 225.906L183.052 225.906L183.052 225.906L183.052 225.906L183.052 225.905C182.628 225.395 182.204 224.884 181.755 224.397C180.87 223.437 179.943 222.511 178.983 221.627C178.195 220.9 177.354 220.224 176.492 219.586C175.866 219.122 175.191 218.72 174.519 218.321L174.327 218.206C173.436 217.675 173.362 216.74 173.343 215.902C173.339 215.706 173.688 215.501 174.037 215.297C174.198 215.202 174.359 215.108 174.486 215.014C174.516 214.992 174.548 214.966 174.565 214.935C174.713 214.665 174.862 214.396 175.012 214.127C175.452 213.334 175.892 212.541 176.308 211.735C176.416 211.526 176.459 211.282 176.501 211.04C176.517 210.95 176.533 210.86 176.551 210.773C176.618 210.465 176.695 210.157 176.772 209.848C176.975 209.04 177.178 208.232 177.186 207.422C177.19 207.023 177.109 206.484 177.031 206.016C176.882 205.128 176.726 204.236 176.482 203.371C176.395 203.061 176.244 202.77 176.093 202.477L176.093 202.477C175.978 202.255 175.863 202.032 175.776 201.8C175.668 201.515 175.591 201.209 175.514 200.904C175.37 200.335 175.227 199.77 174.891 199.358C174.586 198.984 174.331 198.565 174.075 198.146C173.48 197.171 172.882 196.19 171.646 195.75C171.148 195.572 170.675 195.299 170.206 195.027C169.578 194.664 168.955 194.304 168.282 194.178C166.545 193.856 164.727 193.885 162.947 193.915C161.544 193.938 160.086 193.999 158.763 194.404C157.81 194.695 156.846 195.166 155.933 195.778C155.767 195.89 155.597 196 155.427 196.111C154.556 196.68 153.665 197.262 153.095 198.027C152.875 198.322 152.621 198.604 152.365 198.889C151.593 199.749 150.8 200.632 150.853 201.954C149.984 202.449 149.96 203.299 149.937 204.087C149.93 204.333 149.923 204.574 149.89 204.795L149.886 204.821C149.751 205.742 149.606 206.728 149.817 207.815C150.076 209.147 150.368 210.342 151.063 211.486C151.475 212.163 151.814 212.882 150.674 213.258C150.514 213.311 150.318 213.449 150.265 213.593C149.993 214.332 149.626 215.001 148.845 215.265C148.127 215.506 148.18 216.009 148.233 216.503C148.247 216.629 148.26 216.755 148.26 216.876C148.261 216.94 148.861 217.147 149.007 217.042C149.453 216.723 149.883 216.382 150.313 216.042L150.313 216.041L150.314 216.041L150.314 216.041C150.904 215.573 151.494 215.107 152.121 214.696C152.499 214.449 153.167 214.414 153.617 214.555C154.104 214.708 154.562 214.951 155.021 215.195L155.022 215.195L155.022 215.195L155.022 215.195L155.022 215.196L155.022 215.196L155.022 215.196L155.022 215.196L155.023 215.196L155.023 215.196L155.023 215.196L155.023 215.196L155.023 215.196L155.023 215.196L155.023 215.196L155.023 215.196L155.024 215.196L155.024 215.196L155.024 215.197L155.024 215.197C155.303 215.345 155.581 215.493 155.868 215.621C156.606 215.952 157.352 216.267 158.098 216.581L158.098 216.581L158.1 216.582C158.49 216.746 158.88 216.911 159.269 217.078C159.777 217.295 159.87 217.581 159.397 217.949C159.152 218.139 158.906 218.329 158.661 218.518C158.024 219.01 157.387 219.501 156.761 220.006C155.025 221.405 154.152 223.346 153.913 225.45C153.748 226.903 153.909 228.502 154.374 229.885C154.741 230.978 155.491 231.96 156.222 232.917L156.383 233.127C156.46 233.229 156.536 233.33 156.612 233.43C157.561 234.699 158.912 235.451 160.257 236.199C160.641 236.413 161.025 236.626 161.399 236.851C162.263 237.372 163.266 237.693 164.24 237.995C164.719 238.144 165.215 238.235 165.712 238.326C166.108 238.399 166.505 238.472 166.894 238.575C167.249 238.668 167.595 238.799 167.94 238.93L167.941 238.93L167.941 238.93L167.941 238.93L167.941 238.93L167.941 238.93L167.941 238.93L167.941 238.93L167.941 238.93L167.942 238.93L167.942 238.93L167.942 238.93L167.942 238.93L167.942 238.93L167.942 238.93L167.942 238.93C168.264 239.052 168.585 239.174 168.914 239.265C169.509 239.431 170.111 239.566 170.714 239.702L170.715 239.702L170.716 239.702C171.016 239.77 171.315 239.837 171.614 239.908C171.621 239.91 171.622 239.927 171.623 239.946C171.625 239.969 171.627 239.996 171.639 240.005C172.039 240.323 172.604 242.716 172.449 243.179C172.167 244.019 171.928 244.874 171.689 245.727L171.689 245.729L171.64 245.902C171.589 246.087 171.556 246.281 171.523 246.475L171.523 246.475C171.464 246.824 171.406 247.171 171.238 247.455L171.078 247.726L171.077 247.726C170.34 248.974 169.596 250.233 168.68 251.343C167.77 252.447 166.706 253.487 165.35 254.067C165.084 254.18 164.857 254.355 164.627 254.531C164.155 254.892 163.675 255.26 162.845 255.115C162.399 255.037 161.854 255.522 161.31 256.006C161.07 256.219 160.831 256.432 160.6 256.596C160.544 256.635 160.502 256.695 160.46 256.755C160.452 256.766 160.444 256.777 160.436 256.789C160.425 256.804 160.414 256.818 160.402 256.833C160.435 256.842 160.467 256.854 160.5 256.867C160.567 256.892 160.635 256.918 160.702 256.918C160.936 256.921 161.171 256.915 161.406 256.908H161.406C161.887 256.895 162.368 256.882 162.837 256.95C163.292 257.015 164.107 257.395 164.086 257.539C163.978 258.292 163.934 259.048 163.89 259.806C163.819 261.021 163.748 262.241 163.41 263.458C163.197 264.224 162.851 264.912 162.507 265.596L162.507 265.596L162.507 265.596L162.507 265.596L162.507 265.596L162.507 265.596L162.507 265.596L162.506 265.597L162.506 265.598C162.245 266.115 161.986 266.631 161.786 267.177C161.26 268.615 159.975 269.878 158.78 270.948C157.757 271.864 156.623 272.655 155.489 273.447C154.923 273.842 154.357 274.238 153.805 274.648C153.149 275.138 152.506 275.645 151.863 276.152L151.862 276.152C151.488 276.447 151.115 276.741 150.738 277.032L150.625 277.12C150.049 277.564 149.472 278.008 148.882 278.435C148.642 278.608 148.406 278.79 148.171 278.971L148.17 278.972L148.17 278.972L148.17 278.972L148.17 278.972C147.552 279.449 146.932 279.926 146.241 280.247C145.131 280.76 144.447 281.602 144.456 282.674C144.462 283.458 144.675 284.238 144.888 285.02C144.995 285.411 145.101 285.803 145.182 286.195C145.231 286.43 145.234 286.674 145.238 286.918L145.238 286.975C145.239 287.019 145.24 287.062 145.241 287.105C145.242 287.155 145.244 287.204 145.246 287.253C145.021 287.246 144.789 287.256 144.557 287.267H144.557C144.033 287.291 143.51 287.314 143.064 287.138C142.53 286.928 142.047 286.594 141.562 286.259L141.562 286.259C141.223 286.025 140.882 285.79 140.522 285.596C139.227 284.898 138.516 283.714 137.834 282.514C137.346 281.655 136.939 280.747 136.535 279.844L136.48 279.72L136.462 279.681L136.435 279.622C136.275 279.27 136.071 278.819 136.195 278.577C136.602 277.784 137.138 277.044 137.705 276.35C138.832 274.974 139.993 273.626 141.155 272.279L141.155 272.279L141.557 271.812C141.724 271.619 141.886 271.42 142.049 271.222C142.519 270.646 142.992 270.069 143.562 269.617C145.123 268.381 146.375 266.925 147.472 265.27C148.325 263.98 148.66 262.683 148.341 261.189C148.321 261.094 148.384 260.982 148.447 260.87C148.476 260.817 148.506 260.765 148.527 260.714C148.379 260.676 148.232 260.639 148.085 260.601L147.722 260.509C147.447 260.439 147.172 260.369 146.898 260.299C146.871 260.41 146.835 260.522 146.799 260.634L146.799 260.634C146.72 260.877 146.641 261.12 146.666 261.353C146.856 263.172 146.276 264.532 144.898 265.853C143.132 267.547 141.511 269.395 139.89 271.242C139.351 271.857 138.812 272.471 138.268 273.079C137.979 273.403 137.674 273.708 137.37 274.011C136.328 275.053 135.299 276.083 134.942 277.805C134.67 279.119 135.001 280.082 135.344 281.082ZM186.131 239.506C185.673 239.541 185.214 239.575 184.752 239.602C177.789 240.005 169.899 237.944 169.343 237.686C168.736 237.404 168.071 237.245 167.407 237.086C167.143 237.022 166.879 236.959 166.619 236.888C166.394 236.827 166.168 236.771 165.942 236.715C165.587 236.627 165.233 236.539 164.885 236.432C163.948 236.143 163.016 235.836 162.091 235.511C161.759 235.395 161.437 235.231 161.137 235.047C160.917 234.911 160.691 234.781 160.465 234.651L160.464 234.651C159.836 234.288 159.206 233.925 158.685 233.445C158.167 232.969 157.792 232.324 157.425 231.693L157.346 231.558L157.279 231.443L157.223 231.349C156.819 230.67 156.451 229.955 156.156 229.228C154.917 226.172 156.47 222.87 157.121 221.81C157.946 220.468 159.482 219.73 160.735 219.504C161.809 219.31 163.228 219.265 164.529 219.715C165.425 220.024 166.205 220.491 166.98 220.957C167.441 221.233 167.901 221.509 168.382 221.75C170 222.56 171.449 223.611 172.884 224.652L172.885 224.652L173.054 224.775C173.882 225.376 174.594 226.134 175.308 226.894L175.308 226.894L175.308 226.894C175.746 227.361 176.185 227.829 176.652 228.261C177.376 228.931 178.158 229.54 178.939 230.148L178.94 230.149C179.124 230.292 179.308 230.436 179.492 230.58C179.685 230.732 179.876 230.889 180.067 231.047L180.067 231.047C180.645 231.524 181.225 232.003 181.877 232.336C182.704 232.758 183.593 233.06 184.481 233.361C184.766 233.458 185.051 233.555 185.333 233.656C186.017 233.899 186.709 234.13 187.413 234.303C187.491 234.323 187.57 234.342 187.649 234.362L187.651 234.363C188.202 234.502 188.771 234.647 189.315 234.602C190.9 234.473 190.973 234.417 192.294 233.413L192.516 233.244C192.676 233.123 192.942 233.035 193.128 233.074C194.221 233.302 195.342 233.577 196.05 234.488C196.204 234.685 195.836 235.486 195.513 235.819L195.332 236.006C194.369 237.003 193.426 237.978 192.027 238.553C190.813 239.052 189.664 239.336 188.388 239.372C187.634 239.393 186.884 239.45 186.131 239.506L186.131 239.506ZM151.63 209.478C151.623 209.364 151.617 209.25 151.604 209.141C151.545 208.651 151.493 208.159 151.441 207.668L151.441 207.667L151.441 207.666L151.409 207.362C151.398 207.261 151.387 207.16 151.376 207.059C151.5 206.035 151.609 205.233 151.752 204.437C151.778 204.295 151.799 204.15 151.821 204.004C151.891 203.535 151.961 203.061 152.169 202.662C152.406 202.206 152.703 201.782 152.999 201.358C153.284 200.952 153.569 200.545 153.801 200.11C154.591 198.63 155.963 197.899 157.315 197.177C157.678 196.983 158.04 196.79 158.388 196.584C159.136 196.141 160.067 195.995 160.987 195.851C161.283 195.805 161.577 195.759 161.863 195.704C162.618 195.557 163.4 195.467 164.167 195.482C165.395 195.506 166.579 195.788 167.782 196.09C169.418 196.5 170.733 197.342 171.936 198.413C172.182 198.632 172.325 198.967 172.468 199.303C172.538 199.466 172.608 199.63 172.69 199.781C172.86 200.093 173.032 200.403 173.205 200.713L173.206 200.716L173.207 200.718L173.208 200.719L173.208 200.72L173.209 200.721L173.209 200.721L173.21 200.722L173.21 200.723L173.211 200.724L173.211 200.725L173.212 200.726L173.212 200.726L173.212 200.727L173.213 200.728L173.213 200.728L173.213 200.729L173.213 200.729L173.214 200.729L173.214 200.73L173.214 200.73L173.214 200.731C173.502 201.247 173.789 201.764 174.064 202.287C174.451 203.024 173.806 203.852 172.955 203.897C172.359 203.929 167.954 204.302 166.363 205.696C165.006 206.885 164.676 207.342 164.145 208.078L164.145 208.078C164.053 208.206 163.955 208.341 163.845 208.49C163.455 209.019 163.123 211.444 163.335 212.09C163.521 212.656 163.776 213.199 164.031 213.743L164.031 213.743L164.031 213.743L164.031 213.743L164.031 213.743L164.031 213.744L164.032 213.744L164.032 213.744L164.032 213.744L164.032 213.744L164.032 213.745L164.032 213.745L164.032 213.745L164.032 213.745L164.032 213.745L164.032 213.745L164.032 213.746L164.033 213.746L164.033 213.746L164.033 213.746L164.033 213.746C164.236 214.179 164.439 214.612 164.607 215.057C164.728 215.377 164.757 215.731 164.786 216.085C164.799 216.245 164.812 216.406 164.834 216.563C164.678 216.559 164.521 216.561 164.364 216.562C164.008 216.567 163.652 216.571 163.311 216.501C162.932 216.424 162.566 216.281 162.2 216.137L162.199 216.137C162.036 216.073 161.873 216.009 161.709 215.951C161.006 215.703 160.302 215.455 159.599 215.207L159.575 215.198L158.519 214.825C158.29 214.745 158.058 214.67 157.826 214.595C157.315 214.43 156.804 214.265 156.324 214.036C154.511 213.175 152.815 212.134 151.797 210.313C151.666 210.078 151.648 209.777 151.63 209.478ZM170.333 268.542C170.445 269.006 170.557 269.469 170.66 269.934C170.677 270.011 170.626 270.102 170.575 270.192C170.564 270.212 170.553 270.232 170.543 270.252C170.531 270.274 170.52 270.296 170.511 270.317C170.661 271.168 170.804 271.796 170.963 272.42C171.076 272.859 171.192 273.297 171.308 273.735L171.309 273.74L171.31 273.745L171.31 273.745L171.31 273.745L171.31 273.745L171.31 273.745L171.31 273.746L171.311 273.746L171.311 273.746L171.311 273.746L171.311 273.746L171.311 273.746L171.311 273.747L171.311 273.747L171.311 273.747L171.311 273.747L171.311 273.747L171.311 273.748L171.311 273.748L171.311 273.748L171.311 273.748L171.311 273.748C171.535 274.592 171.758 275.436 171.957 276.285C172.067 276.758 172.12 277.269 172.073 277.748C171.949 279.041 173.44 281.843 174.629 282.037C175.439 282.169 176.271 282.157 177.104 282.145H177.104H177.105H177.105H177.105H177.105H177.106H177.106H177.106H177.107H177.107H177.107H177.107H177.108H177.108H177.108H177.108H177.109H177.109H177.109H177.11H177.11C177.624 282.137 178.139 282.129 178.65 282.156C179.053 282.176 179.49 282.366 179.813 282.609C179.913 282.685 179.785 283.277 179.596 283.482C179.157 283.962 178.651 284.401 178.111 284.763C176.199 286.051 174.015 286.03 171.839 285.956C169.916 285.891 168.162 285.45 166.994 283.698C166.446 282.876 165.867 282.074 165.287 281.272C164.929 280.777 164.571 280.281 164.22 279.781C163.927 279.362 163.642 278.938 163.356 278.514L163.356 278.513L163.356 278.513L163.355 278.512L163.355 278.511C163.005 277.991 162.655 277.471 162.29 276.96C162.016 276.576 161.724 276.201 161.432 275.826L161.432 275.826C160.804 275.019 160.176 274.213 159.722 273.318C159.486 272.852 159.961 271.812 160.398 271.26C160.863 270.673 161.389 270.133 161.914 269.594L161.915 269.594C162.515 268.978 163.115 268.362 163.622 267.677C163.867 267.346 163.951 266.893 164.036 266.442C164.125 265.969 164.213 265.498 164.484 265.178C165.176 264.363 165.186 263.456 165.195 262.564V262.564C165.199 262.179 165.203 261.797 165.262 261.427C165.348 260.889 165.427 260.349 165.507 259.808L165.507 259.807C165.674 258.674 165.841 257.538 166.064 256.421C166.147 256.01 166.585 255.663 167.008 255.33C167.149 255.218 167.288 255.108 167.411 254.998C167.466 254.948 167.898 255.146 167.954 255.302C168.143 255.824 168.288 256.373 168.365 256.925C168.457 257.581 168.534 258.239 168.612 258.897L168.612 258.897L168.612 258.898L168.612 258.898L168.612 258.899L168.612 258.899L168.612 258.9L168.612 258.9L168.612 258.901L168.612 258.901L168.612 258.902L168.612 258.902L168.612 258.903L168.612 258.903L168.612 258.903L168.612 258.904L168.612 258.904L168.612 258.905L168.612 258.905L168.612 258.906C168.714 259.77 168.815 260.634 168.95 261.493C169.02 261.938 169.143 262.376 169.267 262.814L169.267 262.814C169.375 263.198 169.484 263.583 169.556 263.973C169.628 264.363 169.663 264.76 169.697 265.157V265.157C169.734 265.571 169.77 265.985 169.848 266.391C169.988 267.112 170.161 267.827 170.333 268.542ZM169.067 216.539C168.645 216.664 167.953 216.322 167.561 215.986C167.212 215.687 166.951 215.286 166.691 214.885L166.691 214.885C166.578 214.712 166.466 214.54 166.347 214.375C166.24 214.216 166.135 214.064 166.033 213.918C165.703 213.444 165.41 213.025 165.246 212.56C165.147 212.277 165.147 211.963 165.147 211.645V211.645C165.147 211.392 165.146 211.137 165.095 210.896C164.859 209.778 165.463 209.079 166.086 208.359C166.177 208.253 166.269 208.147 166.359 208.039C167.08 207.169 167.968 206.523 168.948 206.033C169.51 205.751 170.191 205.634 170.828 205.592C171.238 205.566 171.654 205.584 172.069 205.602C172.668 205.629 173.265 205.655 173.839 205.545C174.479 205.423 174.681 205.726 174.893 206.068C175.09 206.386 175.212 206.799 175.223 207.174C175.251 208.166 175.218 209.162 175.165 210.153C175.161 210.231 175.076 210.303 174.989 210.375C174.903 210.446 174.816 210.519 174.803 210.601C174.494 212.499 173.331 213.929 172.017 215.148C171.251 215.858 170.106 216.233 169.067 216.539ZM182.615 230.746C182.594 230.769 182.572 230.792 182.555 230.809C182.39 230.666 182.229 230.526 182.073 230.39L182.073 230.39C181.428 229.83 180.846 229.324 180.236 228.853C180.082 228.734 179.894 228.656 179.707 228.579C179.503 228.495 179.3 228.411 179.142 228.274C178.606 227.811 178.087 227.327 177.569 226.844L177.568 226.844C177.129 226.435 176.69 226.026 176.24 225.628C175.319 224.816 174.374 224.03 173.42 223.257C173.22 223.094 173.022 222.929 172.823 222.764C172.147 222.201 171.468 221.636 170.722 221.188C170.015 220.763 169.261 220.416 168.508 220.069C168.052 219.859 167.596 219.649 167.15 219.422C166.656 219.17 166.191 218.859 165.729 218.549C165.659 218.502 165.59 218.456 165.52 218.409C165.509 218.402 165.661 218.007 165.762 217.995C166.125 217.951 166.493 217.886 166.862 217.821C167.813 217.653 168.768 217.484 169.646 217.671C170.888 217.936 172.142 218.383 173.318 219.192C175.258 220.527 176.972 222.055 178.599 223.711C180.381 225.524 182.139 227.361 183.896 229.197L183.896 229.198L183.897 229.198L183.898 229.199L183.899 229.201L183.9 229.202L183.901 229.203L183.902 229.204L183.904 229.206L183.905 229.207L183.906 229.208L183.907 229.209L183.908 229.211L183.91 229.212L183.911 229.213L183.912 229.214L183.913 229.215L183.914 229.217L183.916 229.218L183.917 229.219L183.918 229.22L184.565 229.896C185.346 230.713 186.105 231.551 186.864 232.39C186.932 232.466 186.98 232.662 186.934 232.723L186.934 232.723C186.78 232.925 186.514 233.275 186.408 233.238C186.056 233.114 185.737 232.882 185.428 232.657L185.372 232.617C184.906 232.279 184.444 231.937 183.982 231.595L183.98 231.593L183.979 231.592C183.556 231.279 183.134 230.967 182.709 230.657C182.706 230.655 182.696 230.663 182.681 230.677C182.664 230.694 182.639 230.72 182.615 230.746ZM385.491 285.634C385.289 285.642 385.077 285.672 384.864 285.702C384.396 285.769 383.927 285.835 383.577 285.664C383.554 285.652 383.49 285.62 383.385 285.567L383.378 285.563C379.867 283.792 332.543 259.917 284.266 245.227C242.418 232.493 198.465 228.888 196.584 228.734L196.53 228.729C196.329 228.712 241.196 227.6 284.926 240.714C335.2 255.79 385.281 285.381 385.491 285.634ZM228.649 202.141C228.702 201.648 228.756 201.149 228.817 200.643C228.8 200.573 228.783 200.503 228.767 200.435L228.722 200.25L228.722 200.25C228.58 199.657 228.452 199.121 228.251 198.613C228.223 198.543 228.196 198.473 228.169 198.402C227.861 197.607 227.553 196.81 226.52 196.562C226.292 196.507 226.098 196.332 225.901 196.155C225.739 196.008 225.574 195.86 225.387 195.776C224.841 195.53 224.247 195.359 223.656 195.255C223.357 195.203 223.051 195.195 222.744 195.187C222.442 195.18 222.14 195.172 221.846 195.122C221.318 195.032 220.792 194.918 220.267 194.805C219.46 194.63 218.653 194.456 217.836 194.366C217.521 194.332 217.207 194.302 216.892 194.272C216.016 194.189 215.141 194.107 214.267 193.921C213.457 193.75 212.615 193.726 211.775 193.702H211.775H211.774H211.774H211.774H211.774H211.774H211.773H211.773H211.773H211.773H211.773H211.773H211.772H211.772H211.772H211.772C211.504 193.694 211.237 193.687 210.971 193.674C210.848 193.669 210.722 193.709 210.597 193.749C210.458 193.794 210.32 193.838 210.19 193.819C209.263 193.679 208.34 193.51 207.417 193.342C207.182 193.299 206.946 193.256 206.711 193.213C206.301 193.139 205.892 193.146 205.48 193.152C205.018 193.159 204.551 193.166 204.068 193.062C203.239 192.882 202.375 192.875 201.504 192.869C200.918 192.864 200.329 192.86 199.746 192.803C198.541 192.684 197.322 192.713 196.103 192.741C195.605 192.752 195.106 192.764 194.609 192.765C193.873 192.768 192.96 193.615 192.907 194.335C192.892 194.539 192.904 194.763 192.915 194.986V194.986V194.986V194.986V194.987V194.987V194.987V194.987V194.987V194.987V194.988V194.988V194.988V194.988V194.988V194.988V194.988V194.989V194.989C192.939 195.46 192.962 195.929 192.742 196.207C192.186 196.911 192.262 197.668 192.338 198.429C192.4 199.052 192.463 199.678 192.177 200.279C191.893 200.874 191.929 201.589 191.965 202.303C191.982 202.652 192 203.001 191.98 203.335C191.947 203.894 191.897 204.453 191.847 205.012L191.847 205.013L191.847 205.013L191.847 205.014L191.847 205.015L191.847 205.015L191.847 205.016L191.847 205.017L191.847 205.017L191.847 205.018L191.847 205.019L191.846 205.02L191.846 205.02L191.846 205.021L191.846 205.022L191.846 205.022L191.846 205.023L191.846 205.024L191.846 205.024C191.747 206.127 191.648 207.232 191.68 208.34C191.684 208.49 191.724 208.641 191.763 208.792L191.763 208.792C191.812 208.982 191.861 209.17 191.839 209.352C191.743 210.128 191.626 210.901 191.509 211.675C191.411 212.321 191.313 212.966 191.228 213.614C191.166 214.08 191.169 214.546 191.172 215.014C191.176 215.614 191.179 216.219 191.048 216.833C190.895 217.544 190.892 218.281 190.888 219.025C190.886 219.586 190.884 220.15 190.817 220.711C190.731 221.432 190.745 222.159 190.759 222.889V222.889V222.889V222.889V222.889V222.889V222.89V222.89V222.89V222.89V222.89V222.89V222.891V222.891V222.891V222.891V222.891V222.891V222.891C190.779 223.877 190.798 224.867 190.572 225.853C190.432 226.462 190.395 227.094 190.358 227.727C190.334 228.133 190.311 228.54 190.26 228.941C190.241 229.089 190.146 229.255 190.059 229.409C189.954 229.593 189.859 229.759 189.914 229.858C190.089 230.17 190.502 230.41 190.865 230.545C191.855 230.91 193.188 230.429 193.244 229.726C193.269 229.411 193.305 229.095 193.342 228.778V228.778C193.436 227.95 193.531 227.121 193.43 226.317C193.336 225.569 193.506 224.875 193.675 224.185C193.819 223.6 193.961 223.018 193.941 222.408C193.935 222.221 194.162 221.865 194.293 221.859C195.982 221.787 197.673 221.745 199.364 221.736C199.967 221.732 200.57 221.749 201.173 221.767C201.835 221.786 202.497 221.805 203.159 221.796C203.854 221.787 204.549 221.758 205.244 221.728H205.244H205.244H205.245H205.245H205.245H205.245H205.245H205.245H205.246H205.246H205.246H205.246H205.246H205.247H205.247H205.247H205.247H205.247C206.368 221.681 207.488 221.633 208.605 221.672C209.308 221.697 210.005 221.839 210.703 221.981C211.19 222.08 211.677 222.179 212.167 222.239C212.471 222.276 212.776 222.283 213.081 222.29C213.577 222.301 214.076 222.313 214.575 222.453C214.868 222.535 215.187 222.525 215.506 222.515C215.802 222.505 216.098 222.496 216.377 222.56C216.833 222.666 217.276 222.826 217.719 222.987L217.719 222.987L217.719 222.987C218.1 223.125 218.48 223.263 218.87 223.366C219.314 223.484 219.774 223.546 220.233 223.607C220.465 223.638 220.697 223.669 220.926 223.707C221.131 223.741 221.344 223.802 221.558 223.862C222.019 223.992 222.479 224.122 222.837 223.983C223.543 223.711 224.235 223.1 224.646 222.453C225.064 221.795 225.234 220.956 225.395 220.163L225.419 220.045C225.468 219.804 225.442 219.534 225.416 219.269C225.382 218.922 225.349 218.583 225.488 218.329C225.907 217.558 226.017 216.736 226.127 215.916C226.181 215.513 226.235 215.111 226.326 214.716C226.369 214.527 226.347 214.305 226.325 214.09C226.296 213.806 226.268 213.533 226.395 213.364C226.965 212.608 227.047 211.745 227.129 210.881C227.18 210.337 227.232 209.793 227.405 209.275C227.645 208.56 227.782 207.79 227.919 207.02V207.02L227.92 207.019L227.92 207.019L227.92 207.018L227.92 207.018L227.92 207.017L227.92 207.017L227.92 207.016L227.92 207.016C227.98 206.683 228.039 206.35 228.107 206.021C228.367 204.759 228.506 203.471 228.649 202.141ZM224.518 215.571C224.365 216.355 224.213 217.136 223.864 217.865C223.847 218.03 223.835 218.181 223.824 218.322L223.824 218.322C223.796 218.699 223.774 218.993 223.649 219.233C223.456 219.608 223.431 220.042 223.405 220.475C223.364 221.182 223.323 221.886 222.55 222.323C222.517 222.341 222.482 222.361 222.447 222.381C222.201 222.524 221.917 222.688 221.698 222.64C221.476 222.591 221.267 222.474 221.059 222.357C220.841 222.235 220.623 222.113 220.39 222.07C219.979 221.993 219.559 221.96 219.14 221.928C218.658 221.89 218.177 221.853 217.711 221.749C217.313 221.66 216.932 221.5 216.55 221.34C216.161 221.178 215.773 221.015 215.368 220.928C214.852 220.816 214.321 220.777 213.79 220.738C213.376 220.708 212.962 220.678 212.555 220.613C209.065 220.059 205.56 220.143 202.056 220.226C199.956 220.276 197.856 220.326 195.759 220.239C195.033 220.208 194.423 220.169 194.37 219.241C194.351 218.908 194.291 218.559 194.232 218.211C194.109 217.494 193.987 216.781 194.223 216.215C194.721 215.022 194.662 213.844 194.603 212.671C194.578 212.178 194.554 211.687 194.57 211.195C194.728 206.567 194.769 201.934 194.806 197.303C194.806 197.235 194.806 197.167 194.807 197.1C194.808 196.343 194.81 195.64 195.368 195.009C195.689 194.646 195.973 194.51 196.469 194.546C197.053 194.588 197.639 194.596 198.225 194.605C198.89 194.614 199.554 194.623 200.214 194.682C200.876 194.74 201.533 194.844 202.191 194.947C202.884 195.056 203.576 195.164 204.272 195.221C204.72 195.257 205.185 195.225 205.647 195.192C206.363 195.142 207.072 195.092 207.702 195.301C208.977 195.726 210.263 195.756 211.547 195.787H211.547C212.212 195.803 212.877 195.819 213.539 195.89C214.053 195.945 214.594 195.904 215.129 195.863C215.935 195.802 216.73 195.742 217.406 196.01C218.519 196.451 219.63 196.46 220.725 196.468C221.159 196.471 221.591 196.474 222.02 196.504C223.825 196.632 225.394 197.147 226.395 198.469C226.977 199.237 227.537 200.509 226.805 201.703C226.741 201.807 226.757 201.959 226.774 202.114C226.784 202.201 226.794 202.288 226.789 202.369C226.768 202.752 226.772 203.146 226.776 203.54C226.786 204.443 226.796 205.348 226.492 206.13C226.201 206.879 226.062 207.649 225.923 208.417L225.923 208.417L225.923 208.417L225.923 208.418L225.923 208.418L225.923 208.418L225.923 208.418L225.923 208.418L225.923 208.418L225.923 208.419L225.923 208.419L225.923 208.419L225.922 208.419L225.922 208.419L225.922 208.419L225.922 208.42L225.922 208.42L225.922 208.42L225.922 208.42C225.806 209.065 225.689 209.708 225.484 210.337C225.34 210.775 225.343 211.269 225.346 211.759C225.35 212.313 225.353 212.863 225.144 213.323C224.816 214.046 224.667 214.81 224.519 215.569V215.569L224.519 215.57L224.519 215.57L224.519 215.57L224.518 215.57L224.518 215.57L224.518 215.57L224.518 215.57L224.518 215.571L224.518 215.571ZM192.206 220.426C192.175 220.396 192.145 220.366 192.123 220.341C192.54 220.383 193.011 220.468 193.11 220.707C193.219 220.969 193.203 221.282 193.187 221.595C193.18 221.727 193.173 221.86 193.176 221.989C193.145 221.989 193.109 221.994 193.073 221.999C192.995 222.008 192.917 222.018 192.883 221.984C192.834 221.936 192.8 221.863 192.767 221.793C192.724 221.702 192.684 221.616 192.617 221.592C191.84 221.314 191.82 221.264 192.327 220.569C192.335 220.557 192.27 220.492 192.206 220.426ZM276.092 304.648C276.687 304.921 277.231 305.199 277.762 305.47L277.763 305.471L277.773 305.476C278.039 305.612 278.302 305.746 278.566 305.877C278.767 305.977 278.978 306.062 279.189 306.146C279.536 306.285 279.882 306.424 280.18 306.631C280.55 306.886 280.86 307.23 281.169 307.572C281.266 307.68 281.363 307.787 281.461 307.892C281.506 307.941 281.475 308.166 281.439 308.178C281.351 308.204 281.258 308.239 281.165 308.275L281.165 308.275C280.907 308.374 280.642 308.475 280.446 308.403C280.122 308.282 279.789 308.184 279.456 308.086L279.456 308.086C278.466 307.796 277.476 307.505 276.738 306.597C276.139 305.859 275.311 305.247 274.471 304.787C274.093 304.582 273.402 304.884 273.247 305.512C272.853 307.095 268.55 313.373 262.108 313.373C255.665 313.373 245.529 312.71 242.835 309.475C239.049 304.93 240.508 296.25 240.648 295.414L240.656 295.368C240.701 295.085 240.492 294.727 240.314 294.461C240.259 294.38 239.875 294.427 239.713 294.529C239.216 294.843 238.733 295.177 238.249 295.511L238.248 295.512L238.247 295.513L238.246 295.514L237.993 295.688L237.899 295.753L237.804 295.818L237.659 295.918C237.436 296.069 237.215 296.224 236.993 296.379C236.392 296.8 235.79 297.222 235.15 297.572C234.954 297.68 234.631 297.575 234.329 297.477C234.239 297.447 234.151 297.419 234.069 297.397C233.898 297.349 233.736 297.266 233.575 297.182L233.575 297.182L233.574 297.182L233.574 297.182C233.501 297.144 233.428 297.107 233.354 297.073C233.431 297.004 233.506 296.934 233.582 296.863C233.635 296.812 233.689 296.761 233.743 296.709C234.027 296.437 234.312 296.165 234.635 295.949C235.073 295.659 235.532 295.399 235.991 295.139C236.324 294.95 236.658 294.761 236.984 294.56C237.829 294.038 238.661 293.493 239.482 292.937C239.582 292.869 239.684 292.803 239.786 292.736L239.786 292.735C240.207 292.46 240.632 292.18 240.96 291.818C242.353 290.278 243.92 288.973 245.546 287.674C246.301 287.072 247.129 286.659 247.953 286.248L247.953 286.248C248.531 285.959 249.107 285.672 249.654 285.321C250.039 285.076 250.525 284.994 251.014 284.912C251.283 284.867 251.552 284.822 251.806 284.75C252.297 284.609 252.784 284.453 253.27 284.298L253.274 284.296C253.633 284.181 253.993 284.066 254.355 283.957C254.458 283.927 254.572 283.931 254.685 283.934C254.722 283.936 254.759 283.937 254.796 283.937C255.244 283.937 255.694 283.925 256.143 283.913C257.2 283.884 258.256 283.856 259.291 283.984C259.941 284.065 260.561 284.369 261.182 284.673C261.461 284.809 261.74 284.946 262.022 285.062C262.007 285.087 261.994 285.118 261.981 285.148C261.954 285.209 261.928 285.269 261.889 285.281C260.394 285.695 258.936 285.94 257.405 285.236C256.932 285.018 256.3 285.098 255.709 285.172L255.708 285.172L255.612 285.184C255.527 285.194 255.443 285.205 255.361 285.213C254.809 285.272 254.266 285.407 253.724 285.542L253.56 285.583L253.512 285.595L253.463 285.607L253.36 285.632C253.247 285.659 253.133 285.684 253.02 285.71L253.019 285.71C252.6 285.803 252.178 285.897 251.799 286.075C250.431 286.719 249.076 287.401 247.743 288.122C247.301 288.36 246.879 288.633 246.457 288.905L246.457 288.905C246.074 289.152 245.691 289.399 245.294 289.621C245.075 289.743 244.839 289.838 244.603 289.934C243.991 290.18 243.382 290.425 243.085 291.138C243.062 291.193 242.992 291.229 242.922 291.265C242.892 291.281 242.861 291.297 242.835 291.314C242.991 291.318 243.15 291.333 243.309 291.349C243.665 291.383 244.021 291.417 244.344 291.325C244.887 291.172 245.405 290.925 245.922 290.677C246.006 290.637 246.09 290.597 246.174 290.557C246.22 290.535 246.266 290.513 246.313 290.492C246.359 290.47 246.406 290.448 246.453 290.427C246.709 290.311 246.962 290.185 247.214 290.06L247.216 290.059C247.708 289.815 248.199 289.571 248.713 289.396C249.018 289.292 249.349 289.272 249.682 289.252C249.919 289.237 250.157 289.223 250.388 289.178C250.818 289.095 251.242 288.981 251.667 288.867C251.881 288.809 252.095 288.752 252.31 288.698C252.414 288.673 252.527 288.667 252.635 288.667C253.094 288.666 253.559 288.689 254.024 288.712C255.137 288.768 256.249 288.823 257.277 288.552C257.692 288.443 258.064 288.478 258.429 288.513C258.727 288.542 259.021 288.57 259.33 288.518C259.923 288.42 260.595 288.695 261.236 288.958C261.312 288.988 261.387 289.019 261.461 289.049C261.534 289.079 261.608 289.107 261.68 289.135C262.382 289.4 263.121 289.686 263.699 290.143C264.378 290.683 264.999 291.294 265.62 291.905C265.883 292.163 266.145 292.421 266.412 292.674C266.362 292.726 266.305 292.795 266.248 292.864C266.126 293.013 266.004 293.161 265.95 293.14C265.692 293.036 249.663 291.035 243.403 294.461C241.131 295.704 243.221 304.729 243.396 305.484L243.403 305.512C244.344 309.596 259.016 311.95 264.599 311.016C271.319 309.893 271.722 302.868 271.853 300.59C271.876 300.19 271.891 299.936 271.93 299.887C272.29 299.425 272.864 299.177 273.375 299.605C273.618 299.808 273.78 300.202 273.821 300.526C273.858 300.833 273.954 301.125 274.048 301.409L274.048 301.41C274.122 301.636 274.195 301.856 274.235 302.075C274.359 302.764 274.804 303.197 275.252 303.634C275.566 303.94 275.882 304.248 276.092 304.648ZM113.023 262.589C112.813 262.542 112.602 262.495 112.462 262.573C111.973 262.846 91.1583 272.159 76.6253 264.192C76.4473 264.094 76.1921 263.962 75.8863 263.804L75.8848 263.803C74.0656 262.863 70.4608 260.999 70.6768 259.944C71.265 257.068 79.4897 253.118 80.5594 252.604L80.6341 252.568C80.6571 252.557 80.6703 252.55 80.6732 252.549C80.6269 252.476 80.5848 252.389 80.5427 252.302C80.4496 252.11 80.3564 251.917 80.2185 251.877C79.8209 251.759 79.3572 251.744 78.9468 251.822C78.4675 251.913 73.2517 253.075 72.338 253.655C71.3774 254.264 68.7485 257.467 68.7966 258.501C68.8175 258.942 68.6703 259.391 68.5223 259.841C68.4447 260.078 68.367 260.315 68.3131 260.552C68.2815 260.69 68.2753 260.841 68.2692 260.991C68.2595 261.229 68.2499 261.463 68.1395 261.637C68.019 261.827 67.8769 262.132 67.7048 262.501C67.3665 263.227 66.9122 264.202 66.2773 265.044C65.8012 265.676 65.154 266.207 64.662 266.611C64.3681 266.852 64.1295 267.048 64.016 267.193C63.9478 267.279 63.8578 267.366 63.7658 267.455C63.5117 267.701 63.2422 267.962 63.3726 268.273C63.549 268.694 64.1699 268.488 64.5038 268.377L64.511 268.374C64.9973 268.215 65.4597 267.904 65.8568 267.568C66.4131 267.098 66.9374 266.578 67.4065 266.022C67.8871 265.45 68.3565 264.847 68.7001 264.192C69.0794 263.465 69.9182 263.164 70.6768 263.685C92.0174 278.36 112.154 264.372 113.095 263.537C113.224 263.423 113.247 263.189 113.27 262.955C113.28 262.847 113.291 262.739 113.312 262.643C113.22 262.634 113.121 262.611 113.023 262.589ZM209.401 180.101C208.98 180.522 208.561 180.936 208.145 181.347C207.099 182.38 206.074 183.392 205.106 184.456C204.765 184.83 204.552 185.321 204.34 185.812C204.248 186.024 204.157 186.235 204.055 186.437C203.507 187.525 202.697 187.934 201.274 188.551C200.451 188.908 199.589 189.249 198.828 189.1C198.293 188.995 197.757 189.004 197.228 189.011C196.642 189.02 196.065 189.029 195.511 188.884C194.837 188.707 194.099 188.128 193.759 187.522C193.465 186.997 193.794 186.315 194.381 185.751C195.028 185.129 195.585 184.414 196.143 183.699L196.143 183.699L196.143 183.699L196.144 183.699L196.144 183.699L196.144 183.699L196.144 183.698L196.144 183.698L196.144 183.698L196.144 183.698L196.144 183.698L196.144 183.698L196.144 183.698L196.144 183.697L196.145 183.697L196.145 183.697C196.467 183.285 196.789 182.872 197.129 182.476C197.493 182.052 197.855 181.625 198.216 181.197C199.41 179.785 200.605 178.371 201.912 177.071C202.992 175.997 204.335 175.304 205.919 174.859C207.359 174.454 208.46 174.553 209.749 175.105C210.229 175.31 210.783 175.339 211.339 175.369C211.61 175.383 211.881 175.397 212.145 175.432C212.984 175.543 213.482 176.334 212.941 176.719C212.463 177.06 211.571 177.395 211.172 177.173C208.979 175.957 206.792 176.245 204.645 177.061C204.072 177.279 203.598 177.777 203.133 178.265C202.984 178.422 202.836 178.577 202.686 178.722C201.537 179.833 200.391 180.951 199.301 182.119C198.879 182.571 198.517 183.08 198.156 183.589C198.022 183.778 197.889 183.966 197.752 184.151L197.637 184.308L197.487 184.51L197.479 184.52C197.02 185.141 196.559 185.763 196.131 186.405C195.813 186.882 195.854 186.973 196.352 187.132C197.595 187.528 198.808 187.45 200.044 187C201.552 186.451 202.42 185.301 203.321 184.106C203.431 183.96 203.542 183.813 203.654 183.667C204.389 182.71 205.281 181.873 206.173 181.037L206.173 181.037C206.562 180.672 206.951 180.307 207.326 179.932C207.392 179.867 207.46 179.803 207.528 179.739C207.648 179.625 207.769 179.511 207.879 179.388C208.426 178.774 208.977 178.183 209.908 178.232C209.95 178.235 209.992 178.182 210.038 178.125C210.072 178.081 210.108 178.036 210.148 178.01C210.207 177.972 210.278 177.953 210.349 177.933C210.38 177.925 210.411 177.916 210.441 177.906C210.437 177.937 210.434 177.97 210.432 178.002C210.427 178.073 210.422 178.143 210.393 178.202C210.087 178.819 209.77 179.431 209.401 180.101ZM217.674 171.356C219.223 169.892 220.782 168.417 221.838 166.425C221.583 166.34 221.327 166.32 221.072 166.301L221.072 166.301C220.952 166.292 220.832 166.283 220.714 166.267C220.516 166.241 220.316 166.191 220.117 166.141C219.77 166.053 219.424 165.967 219.093 166.009C218.48 166.088 217.847 166.339 217.315 166.666C216.535 167.145 215.705 167.526 214.873 167.908C213.646 168.472 212.415 169.037 211.336 169.921C211.04 170.164 210.894 170.435 210.755 170.694C210.643 170.902 210.535 171.103 210.357 171.273C210.416 171.285 210.474 171.296 210.533 171.307L210.624 171.323C210.821 171.359 211.018 171.395 211.21 171.446C211.669 171.568 212.127 171.695 212.585 171.822C212.975 171.931 213.364 172.039 213.755 172.144C213.8 172.156 213.846 172.169 213.892 172.182C213.951 172.198 214.01 172.215 214.07 172.232C214.406 172.329 214.743 172.426 215.086 172.463C215.178 172.473 215.278 172.486 215.38 172.501L215.381 172.501L215.383 172.501L215.383 172.501C215.833 172.563 216.346 172.634 216.555 172.429C216.922 172.067 217.298 171.712 217.674 171.356ZM217.703 168.082C217.715 168.088 217.728 168.093 217.74 168.097C217.756 168.104 217.772 168.109 217.786 168.113C218.039 167.926 218.407 167.877 218.516 168.022C218.662 168.215 218.734 168.718 218.615 168.814C217.847 169.439 217.047 170.036 216.196 170.539C215.87 170.732 215.382 170.702 214.974 170.675C214.847 170.666 214.603 170.274 214.652 170.157C214.672 170.11 214.692 170.06 214.714 170.008C214.88 169.6 215.096 169.072 215.347 169.039C216.126 168.938 216.705 168.548 217.3 168.148C217.358 168.108 217.416 168.069 217.475 168.03C217.515 168.003 217.596 168.038 217.678 168.072L217.703 168.082ZM246.575 242.51H246.575C245.842 242.51 245.109 242.51 244.377 242.501C243.927 242.496 243.414 242.404 243.051 242.168C242.835 242.028 242.752 241.503 242.813 241.192C242.853 240.994 243.27 240.732 243.513 240.737C243.981 240.746 244.772 240.708 245.723 240.663L245.724 240.663C247.989 240.556 251.167 240.406 253.095 240.737C257.522 241.495 259.816 244.322 259.683 244.31C259.479 244.292 259.27 244.282 259.062 244.273H259.061C258.531 244.25 257.999 244.227 257.522 244.054C257.156 243.921 256.799 243.761 256.44 243.6L256.44 243.6C255.598 243.222 254.748 242.841 253.749 242.796C251.337 242.51 248.952 242.51 246.575 242.51ZM228.514 163.03C229.371 162.688 229.405 162.182 228.592 161.697C228.36 161.761 228.154 161.834 227.96 161.902C227.736 161.981 227.528 162.055 227.315 162.102C226.852 162.205 226.386 162.298 225.92 162.39C225.213 162.53 224.507 162.671 223.809 162.848C223.561 162.911 223.2 163.323 223.23 163.523C223.283 163.873 223.518 164.203 223.739 164.513C223.762 164.546 223.785 164.579 223.808 164.611C223.849 164.669 224.146 164.581 224.305 164.514C224.506 164.429 224.703 164.334 224.9 164.24L224.9 164.239C225.219 164.086 225.537 163.933 225.869 163.822C226.239 163.698 226.617 163.597 226.996 163.497C227.51 163.361 228.023 163.225 228.514 163.03ZM231.068 160.347C231.081 159.629 231.085 159.628 232.121 159.451L232.228 159.433C232.447 159.396 232.657 159.305 232.867 159.213C233.04 159.138 233.213 159.063 233.393 159.017C233.484 158.994 233.77 159.271 233.748 159.345C233.741 159.367 233.735 159.39 233.728 159.413L233.706 159.494C233.611 159.833 233.491 160.264 233.308 160.303C233.105 160.345 232.902 160.448 232.699 160.551C232.175 160.816 231.642 161.086 231.068 160.347ZM237.067 157.613C237.151 157.604 237.235 157.594 237.315 157.589C237.94 157.476 237.957 157.086 237.973 156.709C237.98 156.542 237.988 156.378 238.047 156.241C237.955 156.258 237.862 156.271 237.768 156.283C237.558 156.312 237.347 156.341 237.154 156.415C237.113 156.43 237.069 156.446 237.024 156.463C236.717 156.575 236.34 156.713 236.281 156.918C236.046 157.728 236.563 157.67 237.067 157.613ZM244.294 154.888C244.249 154.907 244.206 154.927 244.164 154.946C243.978 155.031 243.817 155.104 243.677 155.075C243.479 155.033 243.292 154.943 243.104 154.852C243.05 154.826 242.996 154.8 242.941 154.775C242.916 154.763 242.89 154.752 242.865 154.741C242.896 154.731 242.928 154.722 242.96 154.712L243.009 154.698L243.055 154.683C243.101 154.669 243.146 154.655 243.192 154.641C243.442 154.563 243.692 154.485 243.947 154.434C244.323 154.358 244.411 154.465 244.294 154.888ZM281.563 124.612L281.564 124.614L281.564 124.615L281.564 124.615L281.564 124.615C281.613 124.815 281.664 125.02 281.72 125.228C281.78 125.432 281.848 125.6 281.91 125.755L281.91 125.755C281.962 125.883 282.01 126.002 282.046 126.124C282.492 127.599 282.674 129.103 282.641 130.649C282.633 130.986 282.714 131.323 282.795 131.662L282.795 131.662C282.857 131.92 282.919 132.178 282.942 132.438C282.972 132.76 282.965 133.092 282.958 133.423C282.945 134.012 282.933 134.598 283.125 135.11C283.425 135.918 283.354 136.696 283.285 137.453L283.285 137.454L283.285 137.456L283.285 137.457L283.285 137.458C283.272 137.601 283.259 137.742 283.249 137.883C283.156 139.11 282.683 140.173 281.387 140.859C281.015 141.056 280.644 141.11 280.278 141.163C279.952 141.21 279.631 141.257 279.316 141.403C278.886 141.603 278.421 141.671 277.948 141.741C277.347 141.83 276.734 141.92 276.169 142.283C275.836 142.497 275.393 142.535 274.949 142.574C274.52 142.611 274.09 142.648 273.755 142.843C272.997 143.282 272.465 143.24 271.849 142.785C271.566 142.577 271.289 142.361 271.011 142.145C270.755 141.947 270.499 141.748 270.239 141.554C269.935 141.328 269.622 141.111 269.298 140.915C268.954 140.706 268.536 140.594 268.143 140.488C267.772 140.388 267.423 140.294 267.18 140.132C266.506 139.683 265.964 139.854 265.434 140.02C265.185 140.098 264.939 140.175 264.683 140.186C264.477 140.196 264.284 140.508 264.091 140.82C264.004 140.961 263.916 141.103 263.828 141.216C263.964 141.285 264.107 141.38 264.25 141.475C264.566 141.684 264.882 141.893 265.129 141.831C265.203 141.812 265.275 141.792 265.346 141.773L265.346 141.773C265.902 141.623 266.384 141.493 266.957 141.87C267.215 142.04 267.511 142.152 267.807 142.264C268.071 142.365 268.336 142.465 268.575 142.607C268.657 142.656 268.74 142.704 268.823 142.753C269.479 143.139 270.151 143.533 270.664 144.067C271.464 144.896 272.326 145.2 273.474 144.856C274.276 144.616 275.086 144.403 275.897 144.19C276.522 144.025 277.148 143.861 277.769 143.684C278.103 143.589 278.438 143.502 278.773 143.415C280.202 143.045 281.624 142.677 282.857 141.687C284.743 140.17 284.804 138.113 284.574 136.099C284.533 135.741 284.486 135.384 284.438 135.025L284.437 135.023L284.437 135.02C284.331 134.226 284.224 133.428 284.187 132.621C284.158 131.978 284.175 131.333 284.192 130.687C284.235 129.087 284.277 127.487 283.618 125.931C283.425 125.476 283.317 124.985 283.208 124.494C283.103 124.021 282.999 123.548 282.819 123.106C282.492 122.299 281.981 121.552 281.47 120.839L281.408 120.753L281.408 120.752C281.068 120.277 280.636 119.674 280.189 119.619C279.802 119.572 279.38 119.805 278.958 120.039C278.775 120.14 278.591 120.242 278.411 120.32C278.468 120.358 278.526 120.396 278.584 120.434L278.693 120.506C278.918 120.653 279.143 120.8 279.363 120.953C279.482 121.038 279.597 121.139 279.692 121.251C279.821 121.404 279.96 121.552 280.098 121.701C280.435 122.064 280.773 122.427 280.988 122.851C281.259 123.382 281.405 123.975 281.563 124.612ZM262.988 146.239L262.979 146.22C262.903 146.188 262.826 146.181 262.773 146.176C262.736 146.173 262.71 146.171 262.706 146.161C262.625 145.935 262.556 145.705 262.486 145.474L262.468 145.413L262.434 145.303C262.403 145.406 262.361 145.511 262.32 145.615L262.32 145.615C262.228 145.847 262.136 146.078 262.153 146.301C262.267 147.834 262.407 149.317 263.159 150.772C263.497 151.428 263.627 152.185 263.758 152.946C263.869 153.588 263.98 154.234 264.217 154.823L264.309 155.052L264.309 155.052C264.74 156.125 265.168 157.19 265.379 158.325C265.457 158.75 265.365 159.249 265.217 159.666C265.043 160.152 264.692 160.542 264.341 160.934C263.81 161.524 263.277 162.117 263.346 163.049C263.352 163.133 263.273 163.223 263.195 163.313C263.157 163.356 263.12 163.399 263.091 163.441C263.146 163.421 263.202 163.403 263.259 163.386C263.39 163.345 263.521 163.304 263.625 163.228C263.688 163.182 263.726 163.104 263.764 163.025C263.801 162.95 263.837 162.875 263.895 162.829C264.062 162.696 264.231 162.568 264.398 162.441C265.394 161.681 266.352 160.951 266.799 159.523C267.191 158.275 267.056 157.303 266.621 156.27C266.375 155.687 266.075 155.118 265.776 154.551C265.241 153.535 264.708 152.523 264.489 151.444C264.201 150.013 263.866 148.615 263.429 147.231C263.327 146.909 263.173 146.605 262.988 146.239L262.988 146.239ZM294.143 193.147L294.143 193.147L293.884 193.087C293.744 193.054 293.604 193.022 293.464 192.991C293.322 192.959 293.179 192.927 293.036 192.894C292.452 192.761 291.868 192.628 291.276 192.539C290.956 192.492 290.63 192.482 290.304 192.472C290.063 192.465 289.822 192.458 289.583 192.436C289.223 192.402 288.843 192.364 288.519 192.224C288.229 192.1 287.963 191.924 287.697 191.748C287.582 191.672 287.467 191.596 287.35 191.524C287.501 191.518 287.652 191.514 287.803 191.51C288.155 191.501 288.508 191.491 288.856 191.451C289.028 191.431 289.198 191.38 289.367 191.33C289.592 191.264 289.815 191.197 290.038 191.203L290.276 191.209C291.791 191.246 293.309 191.283 294.815 191.434C295.792 191.532 296.761 191.74 297.726 191.948L297.727 191.948C297.956 191.997 298.184 192.047 298.413 192.094C299.26 192.271 300.101 192.483 300.941 192.695L301.224 192.766C301.973 192.954 302.717 193.155 303.461 193.357L303.773 193.441C303.88 193.47 303.983 193.511 304.087 193.552C304.135 193.572 304.183 193.591 304.232 193.609C304.194 193.662 304.155 193.729 304.117 193.796C304.033 193.944 303.948 194.092 303.865 194.092C303.464 194.089 303.064 194.162 302.663 194.234C301.826 194.386 300.986 194.538 300.137 194.01C299.985 193.916 299.811 193.935 299.611 193.957C299.357 193.984 299.063 194.017 298.725 193.826C298.126 193.488 297.34 193.481 296.516 193.474C296.164 193.471 295.806 193.468 295.452 193.439C294.981 193.343 294.555 193.244 294.145 193.148L294.143 193.147ZM117.809 231.589C130.525 229.991 141.127 228.659 141.101 228.314C141.099 228.293 141.116 228.236 141.142 228.153L141.142 228.153C141.306 227.615 141.803 225.987 139.61 225.959C130.198 225.84 102.871 229.045 77.1907 234.55C40.7547 242.021 19.7631 252.433 20.0123 253.142C20.1255 253.464 29.1856 250.806 40.3049 247.545L40.3055 247.545C53.6485 243.631 69.9565 238.848 77.3288 237.3L78.1501 237.13C85.1811 235.689 102.94 233.457 117.809 231.589ZM86.785 254.129C89.0964 254.129 92.4326 254.38 96.7016 255.827L97.7731 256.194C98.5892 256.476 100.106 256.892 102.304 257.435C102.814 257.561 103.126 258.077 102.999 258.587C102.873 259.098 96.3631 257.723 96.3631 257.723C91.962 256.223 90.2056 255.813 88.1487 255.903C86.1463 255.991 81.9154 257.545 78.7023 258.726L78.7019 258.726L78.7016 258.726C76.433 259.559 74.6719 260.206 74.561 260.019C74.2931 259.567 74.6102 258.992 74.895 258.715C77.7788 255.903 79.3767 255.11 86.785 254.129ZM243.861 237.763C244.017 237.627 244.135 237.445 244.194 237.23C244.351 236.65 239.862 235.778 236.838 236.908C236.225 237.138 235.681 237.494 235.086 238.014C234.986 238.101 234.766 238.405 234.492 238.781L234.492 238.781L234.492 238.782C234.043 239.4 233.452 240.212 233.023 240.582C232.331 241.176 231.158 241.81 230.353 242.215C230.027 242.379 228.789 242.653 227.393 242.962C225.156 243.457 222.516 244.042 222.576 244.407C222.673 245 223.765 244.91 224.358 244.813C225.389 244.644 226.279 244.515 227.053 244.402H227.054C229.035 244.114 230.259 243.936 231.154 243.486C232.126 242.996 232.967 242.418 233.786 241.713C233.916 241.602 234.099 241.433 234.306 241.24L234.963 240.616C234.86 241.451 235.14 242.255 235.848 242.826L236.116 243.04C244.546 249.705 253.663 250.714 263.285 246.058L263.435 245.984L263.505 246.367C263.755 247.637 264.112 248.694 264.585 249.543C265.285 250.8 266.479 252.033 268.16 253.267L269.447 251.513L269.233 251.353C267.901 250.348 266.988 249.385 266.486 248.484C265.955 247.53 265.58 246.099 265.387 244.201L265.222 242.574L263.785 243.355L263.499 243.509C254.084 248.517 245.394 247.728 237.213 241.132C237.165 241.093 237.116 240.437 237.213 240.153C237.384 239.654 237.775 238.658 238.777 238.313C239.431 238.088 243.861 237.763 243.861 237.763ZM311.934 180.509L311.481 179.691C311.14 179.081 310.699 178.298 310.481 177.939L310.41 177.825C309.521 176.449 309.359 174.706 309.587 171.882L309.682 170.839L309.769 169.93C310.025 167.134 309.96 166.067 309.449 165.517L309.371 165.437C308.861 164.945 308.265 164.952 306.115 165.429L305.59 165.548C303.106 166.117 301.462 166.256 299.564 165.804L297.921 165.396C297.502 165.293 297.087 165.192 296.789 165.12C296.561 165.064 296.402 165.025 296.363 165.015L295.918 164.902C292.002 163.876 290.354 162.774 289.737 160.104C289.59 159.467 289.65 158.808 289.882 157.987L289.934 157.808C290.084 157.313 290.813 155.346 290.813 155.347C290.978 154.881 291.116 154.456 291.238 154.028L291.396 153.473C291.529 152.998 291.665 152.494 291.808 151.954L293.295 146.135C293.562 145.109 293.79 144.258 293.882 143.971L294.304 142.73L294.482 142.227C294.598 141.906 294.709 141.61 294.825 141.322C295.754 138.994 296.74 137.557 298.13 137.16C299.411 136.794 300.354 136.844 301.386 137.256C301.601 137.341 302.159 137.608 302.583 137.81L302.584 137.81C302.811 137.919 303 138.009 303.076 138.042C304.11 138.499 305.169 138.79 306.606 138.934L306.879 138.96C307.571 139.018 308.141 138.943 309.831 138.573L311.043 138.305C312.332 138.025 313.176 137.887 314.1 137.829C314.939 137.777 315.72 137.813 316.462 137.954C317.686 138.185 319.562 138.947 322.137 140.244C322.54 140.446 322.702 140.937 322.499 141.339C322.296 141.742 321.806 141.904 321.403 141.701L320.923 141.462C318.724 140.376 317.123 139.74 316.159 139.557C315.559 139.444 314.913 139.414 314.202 139.458C313.327 139.512 312.503 139.653 311.156 139.951L310.142 140.176C308.341 140.569 307.693 140.657 306.828 140.593L306.741 140.586C304.979 140.436 303.676 140.092 302.416 139.535L301.007 138.871C300.909 138.826 300.831 138.791 300.782 138.772C300.084 138.493 299.511 138.463 298.578 138.729C297.857 138.935 297.086 140.06 296.34 141.927C296.205 142.265 296.074 142.619 295.932 143.019L295.439 144.462C295.218 145.102 293.615 151.481 293.562 151.7L293.299 152.697C293.129 153.336 292.966 153.927 292.807 154.478C292.701 154.848 292.585 155.213 292.454 155.598L292.352 155.89C292.22 156.264 292.102 156.596 291.998 156.891C291.263 158.967 291.173 159.22 291.23 159.433C291.238 159.462 291.249 159.491 291.261 159.523C291.279 159.571 291.3 159.628 291.32 159.708L291.327 159.737C291.775 161.677 293.017 162.478 296.552 163.38L299.76 164.171C301.373 164.588 302.776 164.501 304.969 164.015L306.359 163.7C307.284 163.495 307.519 163.469 308.052 163.447C309.12 163.405 309.976 163.687 310.644 164.406C311.621 165.457 311.711 166.654 311.397 170.052L311.235 171.764L311.196 172.243C311.03 174.5 311.161 175.9 311.721 176.844L311.897 177.127C312.064 177.405 312.317 177.848 312.566 178.289L313.36 179.716L313.466 179.9C314.527 181.727 315.402 182.751 316.333 183.105L316.433 183.141C317.622 183.531 319.094 182.757 320.992 180.291L321.238 179.971C321.526 179.615 321.819 179.391 323.168 178.555L325.253 177.274L325.504 177.116C326.806 176.291 327.573 175.676 327.743 175.329C329.736 171.26 331.007 164.907 330.624 157.686C330.576 156.781 330.094 155.394 329.17 153.566L329.059 153.35L329.009 153.321C326.826 152.081 325.238 150.903 324.239 149.766L324.122 149.63C323.098 148.412 322.069 146.424 321.008 143.648C320.847 143.227 321.058 142.756 321.479 142.595C321.9 142.434 322.372 142.645 322.533 143.066C323.534 145.686 324.489 147.53 325.372 148.58C326.185 149.548 327.59 150.617 329.58 151.768L330.069 152.046L330.281 152.164L330.394 152.38C331.563 154.611 332.186 156.334 332.253 157.599C332.651 165.096 331.325 171.726 329.208 176.047C328.849 176.78 327.967 177.487 326.378 178.495L325.982 178.743L324.295 179.779C322.894 180.645 322.613 180.854 322.422 181.107C320.09 184.198 317.951 185.356 315.924 184.691C314.405 184.193 313.28 182.871 311.934 180.509ZM336.61 131.563C336.2 131.375 335.716 131.553 335.527 131.962C335.119 132.846 334.482 133.401 333.57 133.67C332.915 133.864 332.183 133.975 331.287 134.033C330.974 134.054 330.705 134.066 330.304 134.078L328.926 134.113C326.718 134.185 325.756 134.371 324.792 135.066C323.513 135.987 322.976 138.932 323.425 140.628L323.449 140.72C323.465 140.784 323.481 140.853 323.498 140.927L323.553 141.173C323.564 141.225 323.668 141.718 323.727 141.99L323.803 142.333C323.872 142.629 323.94 142.893 324.016 143.151C324.319 144.18 324.719 145.013 325.308 145.699C325.389 145.794 325.617 146.206 325.867 146.676L326.724 148.313C327.417 149.534 328.137 150.422 329.048 151.015C329.432 151.266 329.783 151.369 330.442 151.488L330.735 151.541C331.269 151.641 331.522 151.704 331.84 151.829L332.088 151.929C332.336 152.024 332.629 152.094 333.053 152.168L333.355 152.218C333.355 152.218 334.074 152.327 334.48 152.392L334.919 152.467C335.338 152.543 335.71 152.624 336.064 152.72C336.409 152.814 336.729 152.919 337.026 153.039L337.214 153.112C337.516 153.226 337.767 153.296 338.21 153.401L338.62 153.495C338.808 153.54 338.942 153.574 339.062 153.612L339.201 153.658C339.727 153.847 340.173 154.177 340.731 154.869C341.47 155.784 341.47 156.213 340.902 156.607C340.531 156.863 340.438 157.371 340.695 157.742C340.951 158.113 341.459 158.205 341.83 157.949C343.28 156.946 343.28 155.427 342.001 153.843C341.261 152.927 340.571 152.416 339.752 152.122C339.589 152.064 339.438 152.018 339.251 151.97L339.006 151.91L338.497 151.791C338.179 151.715 337.992 151.661 337.782 151.582L337.418 151.44C337.123 151.33 336.814 151.232 336.49 151.145C336.009 151.015 335.51 150.91 334.935 150.813L333.37 150.566C332.999 150.502 332.772 150.448 332.641 150.393C332.135 150.179 331.825 150.089 331.19 149.966L330.623 149.862C330.246 149.79 330.072 149.735 329.939 149.648C329.289 149.224 325.804 143.447 325.582 142.69C325.499 142.408 325.424 142.11 325.345 141.751L325.117 140.686C325.097 140.596 325.078 140.512 325.059 140.434L325.003 140.21C324.708 139.098 325.119 136.841 325.746 136.39C326.377 135.935 327.197 135.794 329.212 135.737L330.362 135.709C330.777 135.697 331.059 135.684 331.393 135.662L331.69 135.64C332.569 135.57 333.324 135.444 334.032 135.236C335.397 134.833 336.405 133.955 337.009 132.646C337.197 132.237 337.019 131.752 336.61 131.563Z" fill="#003049"/>
<path fill-rule="evenodd" clip-rule="evenodd" d="M145.973 216.401C146.273 215.813 146.529 215.3 146.886 214.871C147.248 214.437 147.704 214.081 148.134 213.709C148.177 213.672 148.414 213.764 148.412 213.789C148.406 213.918 148.391 214.087 148.307 214.167C147.668 214.775 147.615 215.583 147.419 216.378C147.205 217.25 147.422 217.932 147.819 218.659C148.084 219.143 148.277 219.675 148.443 220.204C148.791 221.319 149.136 222.438 149.415 223.572C149.603 224.337 149.776 225.129 149.784 225.91C149.82 229.849 149.799 233.789 149.801 237.728C149.802 239.74 149.774 241.754 149.832 243.765C149.852 244.421 150.207 245.068 150.218 245.723C150.227 246.252 149.962 246.79 149.787 247.313C149.762 247.388 149.493 247.475 149.454 247.437C149.177 247.164 148.714 246.864 148.709 246.566C148.673 244.252 148.762 241.936 148.739 239.622C148.729 238.577 148.488 237.536 148.462 236.491C148.401 234.056 148.675 231.578 148.3 229.198C148.007 227.338 148.078 225.568 148.107 223.739C148.113 223.329 146.968 222.817 146.285 222.5C145.397 222.088 144.833 222.639 144.412 223.377C144.374 223.444 144.215 223.477 144.215 223.526C144.194 227.827 144.166 232.128 144.183 236.428C144.188 237.673 144.331 238.917 144.393 240.162C144.416 240.628 144.366 240.871 145.083 240.762C146.293 240.577 147.883 242.366 147.533 243.388C147.263 244.174 146.774 244.885 146.503 245.671C145.891 247.446 144.554 249.162 145.144 251.09C145.592 252.554 146.561 253.922 147.551 255.126C147.945 255.606 149.025 255.504 149.778 255.716C150.033 255.788 150.33 255.966 150.445 256.182C150.52 256.324 150.358 256.693 150.193 256.819C150.095 256.896 149.789 256.698 149.575 256.628C149.223 256.513 148.877 256.344 148.517 256.301C146.821 256.105 146.727 256.002 145.956 254.113C145.68 253.436 145.162 252.859 144.868 252.187C144.591 251.553 144.434 250.86 144.28 250.18C144.132 249.525 143.935 248.845 143.979 248.191C144.029 247.42 144.254 246.643 144.518 245.909C144.753 245.255 145.157 244.662 145.451 244.026C145.485 243.952 145.31 243.74 145.189 243.653C145.123 243.606 144.942 243.656 144.851 243.719C143.973 244.317 143.555 245.284 143 246.13C142.817 246.409 142.873 246.845 142.822 247.209C142.746 247.753 142.6 248.3 142.612 248.842C142.635 249.846 142.523 250.938 142.877 251.83C143.614 253.686 144.327 255.644 145.83 257.024C146.383 257.533 147.302 257.776 148.223 257.9C149.438 258.062 150.589 257.711 151.779 257.846C152.324 257.909 152.915 257.434 153.485 257.436C154.179 257.438 154.722 257.058 155.337 256.959C156.039 256.844 156.618 256.542 157.23 256.252C158.229 255.779 159.312 255.441 160.223 254.84C161.034 254.305 161.652 253.482 162.368 252.8C163.473 251.748 164.406 250.584 165.148 249.229C165.475 248.633 165.993 248.179 165.78 247.424C165.746 247.306 165.662 247.118 165.592 247.114C165.434 247.103 165.219 247.136 165.116 247.24C162.774 249.604 160.49 252.027 158.081 254.32C157.432 254.937 156.416 255.178 155.557 255.567C155.078 255.784 154.565 255.923 154.084 256.135C153.037 256.594 152.206 255.955 151.313 255.621C151.355 255.529 151.379 255.374 151.441 255.356C152.895 254.969 154.37 254.647 155.805 254.199C156.468 253.992 157.089 253.591 157.671 253.193C158.234 252.807 158.701 252.283 159.25 251.873C161.301 250.338 162.981 248.532 163.784 246.023C164.002 245.344 165.463 244.913 166.303 245.164C166.809 245.315 167.388 245.302 167.833 245.547C168.118 245.704 168.424 246.234 168.368 246.531C168.069 248.113 167.077 249.286 165.97 250.412C165.235 251.16 164.78 252.195 164.016 252.902C162.72 254.1 161.368 255.284 159.874 256.207C158.365 257.141 156.689 257.837 155.022 258.469C153.828 258.922 152.543 259.257 151.275 259.363C149.11 259.545 146.98 259.372 145.06 258.086C143.858 257.281 143.047 256.164 142.421 254.957C142.07 254.282 142.407 253.264 142.1 252.543C141.49 251.113 141.377 249.646 141.506 248.172C141.593 247.167 142.216 246.191 142.22 245.2C142.224 244.087 143.042 243.541 143.399 242.701C143.471 242.531 143.279 242.267 143.278 242.047C143.268 239.533 143.273 237.019 143.271 234.506C143.27 233.24 143.349 231.966 143.226 230.712C143.155 229.984 142.703 229.3 142.524 228.571C142.433 228.2 142.588 227.774 142.592 227.373C142.605 226.235 142.493 225.084 142.623 223.961C142.785 222.547 143.179 221.161 143.393 219.751C143.512 218.963 143.469 218.151 143.497 217.349C143.551 215.773 143.874 214.216 144.972 213.083C145.829 212.198 146.854 211.362 148.277 211.358C148.626 211.357 149.103 210.726 149.297 210.824C149.738 211.049 150.167 211.499 150.34 211.956C150.417 212.159 149.923 212.687 149.585 212.916C148.985 213.323 148.283 213.309 147.55 213.278C146.345 213.226 145.246 214.802 144.782 216.186C144.401 217.321 144.984 218.332 144.724 219.414C144.647 219.735 145.282 220.236 145.614 220.635C145.649 220.677 145.957 220.581 145.958 220.547C145.965 219.865 146.012 219.172 145.914 218.502C145.821 217.868 145.394 217.231 146.187 216.751C146.115 216.672 146.045 216.593 145.973 216.401Z" fill="#FFB703"/>
<path fill-rule="evenodd" clip-rule="evenodd" d="M190.547 267.953C190.335 269.104 190.11 270.139 189.924 271.179C189.894 271.353 190.083 271.553 190.089 271.744C190.146 273.381 189.847 275 189.795 276.636C189.769 277.422 189.839 278.282 189.623 279.054C189.356 280.011 189.742 281.267 188.517 281.83C188.045 282.046 187.351 282.456 187.075 282.28C186.541 281.94 185.654 281.753 185.794 280.704C185.917 279.781 185.659 278.795 185.855 277.901C186.191 276.373 185.835 274.831 186.098 273.345C186.258 272.445 186.085 271.546 186.294 270.695C186.631 269.322 186.58 267.924 186.762 266.549C186.934 265.241 187.038 263.928 187.21 262.627C187.386 261.281 187.489 259.93 187.671 258.595C187.834 257.4 187.807 256.135 188.151 255.029C188.456 254.049 187.741 252.92 188.696 252.074C188.828 251.957 188.485 251.406 188.537 251.085C188.972 248.415 188.632 245.729 188.768 243.056C188.778 242.868 189.076 242.597 189.29 242.533C189.963 242.334 190.656 242.183 191.351 242.089C191.513 242.067 191.876 242.345 191.874 242.481C191.832 244.776 191.7 247.069 191.689 249.364C191.681 251.02 191.863 252.677 191.88 254.334C191.888 255.14 191.693 255.948 191.625 256.758C191.554 257.6 191.817 258.402 191.321 259.3C190.947 259.975 191.275 261.02 191.213 261.893C191.096 263.528 190.997 265.171 190.712 266.778C190.652 267.118 190.524 267.469 190.547 267.953ZM187.395 279.772C187.765 280.33 187.745 280.315 188.086 279.889C188.488 279.387 188.183 278.802 188.314 278.293C188.667 276.924 188.579 275.522 188.746 274.142C188.879 273.034 189.07 271.929 189.13 270.819C189.207 269.385 189.059 267.931 189.233 266.513C189.382 265.295 189.335 264.072 189.767 262.834C190.204 261.578 190.017 260.104 190.094 258.724C190.113 258.386 189.97 257.969 190.12 257.724C190.632 256.889 190.173 256.018 190.3 255.176C190.316 255.063 190.03 254.908 189.884 254.77C189.8 254.93 189.665 255.081 189.641 255.25C189.479 256.351 189.297 257.449 189.207 258.557C189.088 260.027 189.046 261.506 188.972 262.981C188.966 263.093 189.018 263.242 188.964 263.314C188.354 264.131 188.827 265.106 188.55 266.022C188.201 267.179 188.357 268.489 188.296 269.734C188.294 269.772 188.302 269.811 188.295 269.847C188.11 270.718 187.879 271.585 187.754 272.465C187.653 273.172 188.067 273.818 187.495 274.639C187.06 275.265 187.441 276.431 187.38 277.35C187.344 277.906 187.122 278.448 187.059 279.007C187.04 279.171 187.276 279.367 187.395 279.772ZM190.322 248.931C190.346 248.307 190.372 247.682 190.392 247.058C190.395 246.97 190.374 246.804 190.362 246.804C190.22 246.802 189.96 246.804 189.952 246.845C189.838 247.469 189.734 248.098 189.694 248.729C189.689 248.823 190.029 248.938 190.322 248.931Z" fill="#003049"/>
<path fill-rule="evenodd" clip-rule="evenodd" d="M146.367 252.026C146.317 251.595 146.323 251.22 146.33 250.844C146.637 250.933 146.98 250.961 147.246 251.119C148.641 251.955 150.01 252.835 151.405 253.671C151.649 253.817 151.97 253.851 152.261 253.892C152.485 253.924 152.72 253.887 152.949 253.88C152.729 254.069 152.467 254.453 152.297 254.415C151.233 254.18 149.967 255.045 149.083 253.849C149.065 253.826 148.967 253.833 148.93 253.858C148.532 254.137 148.087 254.683 147.642 254.154C147.134 253.549 146.821 252.78 146.367 252.026Z" fill="#003049"/>
</svg>
