<svg width="185" height="86" viewBox="0 0 185 86" fill="none" xmlns="http://www.w3.org/2000/svg">
<path d="M19.482 79.6765C17.7467 79.6765 16.0904 79.3998 14.5129 78.8465C12.9354 78.3195 11.5683 77.4501 10.4114 76.2381C9.2546 75.026 8.41327 73.4188 7.88744 71.4164L7.84801 70.9816C7.84801 70.481 8.0189 70.0726 8.36069 69.7564C8.70248 69.4403 9.09685 69.2822 9.54381 69.2822C10.3326 69.2822 10.8847 69.7169 11.2002 70.5864C11.5683 72.0355 12.2124 73.0631 13.1326 73.6691C14.0528 74.3015 15.0913 74.6176 16.2481 74.6176C18.404 74.6176 20.2839 74.038 21.8877 72.8787C27.1197 69.1373 30.485 60.2975 31.9836 46.3594C30.7742 48.9415 29.3544 51.3392 27.7244 53.5524C26.0943 55.7393 24.2276 57.5309 22.1243 58.9274C20.021 60.2975 17.6284 60.9825 14.9467 60.9825C11.4762 60.9825 8.63675 60.1262 6.42827 58.4136C4.21978 56.6746 2.58971 54.356 1.53805 51.4577C0.512684 48.5331 0 45.2791 0 41.6958C0 38.1388 0.486392 34.4237 1.45918 30.5506C2.43196 26.6774 3.82541 22.936 5.63952 19.3263C7.45363 15.6903 9.63583 12.4231 12.1861 9.52482C14.7627 6.62653 17.6547 4.32108 20.8623 2.60846C24.0961 0.869485 27.5929 0 31.3526 0C33.6399 0 35.4409 0.474265 36.7555 1.42279C38.0964 2.37132 39.056 3.63603 39.6344 5.21691C40.2128 6.77145 40.502 8.45772 40.502 10.2757C40.502 12.5417 40.1602 14.8339 39.4767 17.1526C38.8194 19.4449 37.9912 21.4341 36.9921 23.1204C36.5977 23.6737 36.1113 23.9504 35.5329 23.9504C35.086 23.9504 34.6916 23.7791 34.3498 23.4366C34.008 23.0941 33.8371 22.6988 33.8371 22.2509C33.8371 21.9347 33.916 21.6449 34.0738 21.3814C34.7573 20.2485 35.4409 18.6017 36.1245 16.4412C36.8081 14.2543 37.1499 12.1464 37.1499 10.1176C37.1499 6.56066 35.7959 4.78217 33.0878 4.78217C30.6953 4.78217 28.3817 5.678 26.1469 7.46967C23.9384 9.26134 21.8877 11.6195 19.9947 14.5441C18.1017 17.4688 16.4453 20.6964 15.0256 24.227C13.6321 27.7577 12.5279 31.3278 11.7129 34.9375C10.9241 38.5472 10.5297 41.867 10.5297 44.8971C10.5297 47.1103 10.7664 49.0732 11.2396 50.7858C11.7129 52.4985 12.449 53.8422 13.4481 54.8171C14.4735 55.792 15.7749 56.2794 17.3524 56.2794C20.113 56.095 22.5187 54.7117 24.5694 52.1296C26.6464 49.5475 28.3817 46.5702 29.7751 43.1976C31.1686 39.8251 32.2334 36.8741 32.9695 34.3447C33.285 33.4225 33.916 32.7506 34.8625 32.329C35.8353 31.8811 36.8869 31.6572 38.0175 31.6572C39.0166 31.6572 39.9893 31.8153 40.9358 32.1314C41.8823 32.4213 42.6579 32.856 43.2626 33.4357C43.8936 34.0153 44.2091 34.7004 44.2091 35.4908V35.6489C43.841 42.1305 42.9997 48.2828 41.6851 54.1057C40.0288 61.4568 37.5705 67.3456 34.3104 71.7721C30.4455 77.0417 25.5027 79.6765 19.482 79.6765Z" fill="#003049"/>
<path d="M61.8376 61.1011C58.7615 61.1011 56.198 60.337 54.1473 58.8088C52.1229 57.2543 50.6111 55.2387 49.612 52.7619C48.5867 50.2589 48.074 47.6109 48.074 44.818C48.074 41.8407 48.6392 38.9161 49.7698 36.0441C50.9003 33.1722 52.5961 30.7482 54.8572 28.7721C57.1445 26.796 59.9709 25.5708 63.3362 25.0965C63.8094 24.4905 64.4141 24.0294 65.1503 23.7132C65.8865 23.3971 66.662 23.239 67.4771 23.239C71.2368 23.239 73.9842 25.1624 75.7195 29.0092C77.1129 32.0656 77.8096 35.6489 77.8096 39.7592L77.7308 41.7353C80.2285 40.7604 82.8313 38.5472 85.5393 35.0956C85.9337 34.6477 86.3544 34.4237 86.8013 34.4237C87.2746 34.4237 87.6952 34.595 88.0633 34.9375C88.4314 35.28 88.6154 35.6884 88.6154 36.1627C88.6154 36.5052 88.484 36.8477 88.2211 37.1903C84.5403 41.8012 80.8857 44.5545 77.2575 45.4504C76.7054 48.2433 75.7589 50.8254 74.418 53.1967C73.0772 55.5417 71.3551 57.4519 69.2518 58.9274C67.1484 60.3765 64.677 61.1011 61.8376 61.1011ZM62.508 57.6627C63.6911 57.6627 64.7691 57.0567 65.7418 55.8447C66.7146 54.6327 67.5691 53.0518 68.3053 51.102C69.0414 49.1259 69.6198 46.9917 70.0405 44.6994C68.0424 43.5928 66.4517 41.7485 65.2686 39.1664C64.0855 36.5579 63.4019 33.5147 63.2179 30.0368C61.693 31.5123 60.4967 33.9626 59.6291 37.3879C58.7615 40.7868 58.3276 44.1725 58.3276 47.545C58.3276 49.3631 58.4723 51.0493 58.7615 52.6039C59.0507 54.132 59.4976 55.3572 60.1023 56.2794C60.7333 57.2016 61.5352 57.6627 62.508 57.6627ZM70.5926 40.8263C70.6189 40.4311 70.6321 39.8251 70.6321 39.0083C70.6321 37.7436 70.5532 36.2154 70.3954 34.4237C70.264 32.6057 70.0011 31.0116 69.6067 29.6415C69.2386 28.2714 68.6865 27.5864 67.9503 27.5864C67.3456 27.5864 67.0433 28.3505 67.0433 29.8787C67.0433 31.644 67.3588 33.6464 67.9898 35.886C68.6471 38.1256 69.5147 39.7724 70.5926 40.8263Z" fill="#003049"/>
<path d="M95.2803 86C93.0455 86 91.1789 85.3413 89.6802 84.0239C88.1816 82.7065 87.4323 80.9939 87.4323 78.886C87.4323 76.5674 88.4051 74.1566 90.3507 71.6535C92.007 69.572 93.9395 67.5827 96.1479 65.6857C98.3564 63.7886 100.578 61.9969 102.813 60.3107L104.982 58.6112C105.613 54.4219 106.099 50.3116 106.441 46.2803C105.573 48.8361 104.561 51.2074 103.404 53.3943C102.274 55.5548 100.972 57.3202 99.5001 58.6903C98.0541 60.034 96.4109 60.7059 94.5705 60.7059C90.7582 60.7059 88.0239 59.1645 86.3675 56.0818C84.9478 53.4997 84.2379 49.9691 84.2379 45.4899C84.2379 40.5101 85.0135 34.7267 86.5647 28.1397C86.775 27.2702 87.2877 26.6379 88.1028 26.2426C88.9178 25.8474 89.838 25.6498 90.8634 25.6498C91.915 25.6498 92.9667 25.8343 94.0183 26.2031C95.07 26.5456 95.9508 27.0463 96.6606 27.705C97.3705 28.3373 97.7254 29.0751 97.7254 29.9182C97.594 30.814 97.2653 32.2763 96.7395 34.3051C96.1348 36.5974 95.517 39.2322 94.886 42.2096C94.2812 45.1869 93.9789 47.993 93.9789 50.6278C93.9789 53.8159 94.7151 55.4099 96.1874 55.4099C97.4757 55.2255 98.8165 53.6183 100.21 50.5882C101.63 47.5582 102.931 44.133 104.114 40.3125C105.324 36.4657 106.257 33.2512 106.914 30.6691C107.282 29.0092 107.874 27.7577 108.689 26.9145C109.504 26.0714 110.911 25.6498 112.909 25.6498C114.355 25.6498 115.683 25.966 116.892 26.5983C118.101 27.2044 118.706 28.1134 118.706 29.3254C118.68 34.0153 118.206 40.2335 117.286 47.9798C121.099 44.212 123.754 40.1017 125.253 35.6489C125.516 34.8585 126.028 34.4632 126.791 34.4632C127.238 34.4632 127.645 34.6082 128.013 34.898C128.381 35.1878 128.565 35.583 128.565 36.0836C128.565 36.2681 128.539 36.4525 128.486 36.6369C126.699 42.1437 122.689 47.7163 116.458 53.3548C114.933 62.4976 112.633 69.9277 109.557 75.6452C105.85 82.5484 101.091 86 95.2803 86ZM93.9789 81.7711C95.6353 81.7711 97.0944 80.9544 98.3564 79.3208C99.6447 77.6872 100.762 75.5003 101.709 72.7601C102.655 70.0463 103.457 67.0031 104.114 63.6305C101.354 65.8438 99.2898 67.5432 97.9226 68.7289C96.1085 70.2834 94.5047 71.9038 93.1113 73.5901C91.6652 75.4081 90.9422 77.068 90.9422 78.5699C90.9422 80.5196 91.9545 81.5867 93.9789 81.7711Z" fill="#003049"/>
<path d="M134.678 60.7059C130.918 60.7059 128.21 58.8352 126.554 55.0938C125.187 51.9847 124.503 47.8085 124.503 42.5653C124.503 36.9004 125.121 31.1039 126.357 25.1756C125.778 25.2282 125.358 25.2546 125.095 25.2546C124.832 25.2546 124.556 25.2678 124.267 25.2941C123.951 25.3205 123.517 25.36 122.965 25.4127H122.808C122.334 25.4127 121.979 25.2546 121.743 24.9384C121.48 24.6222 121.348 24.2665 121.348 23.8713C121.348 23.5288 121.467 23.2126 121.703 22.9228C121.914 22.633 122.242 22.4617 122.689 22.409C124.556 22.1719 126.002 22.0138 127.027 21.9347L128.25 16.3226L128.644 14.6232C128.855 13.7537 129.367 13.1213 130.182 12.7261C130.997 12.3309 131.918 12.1333 132.943 12.1333C133.995 12.1333 135.046 12.3177 136.098 12.6866C137.15 13.0291 138.03 13.5297 138.74 14.1884C139.45 14.8208 139.805 15.5585 139.805 16.4017C139.805 16.8496 139.713 17.4424 139.529 18.1801L138.819 21.6976C139.713 21.724 141.027 21.7898 142.763 21.8952C143.315 21.9479 143.722 22.1587 143.985 22.5276C144.275 22.8701 144.419 23.2785 144.419 23.7528C144.419 24.2534 144.248 24.7276 143.906 25.1756C143.591 25.6235 143.131 25.8474 142.526 25.8474C141.895 25.8211 141.369 25.7816 140.949 25.7289C140.554 25.6762 140.147 25.6235 139.726 25.5708C139.332 25.5181 138.793 25.4522 138.109 25.3732C137.951 26.2953 137.636 28.2451 137.163 31.2224C136.689 34.1734 136.229 37.4933 135.782 41.182C135.362 44.8444 135.151 48.0325 135.151 50.7463C135.151 54.3033 135.625 56.0818 136.571 56.0818C137.649 56.0818 138.727 55.2518 139.805 53.5919C140.909 51.9056 141.921 49.89 142.842 47.545C143.788 45.2001 144.59 42.9473 145.247 40.7868C145.931 38.5999 146.391 36.9268 146.628 35.7675C146.733 35.3195 146.93 34.9902 147.219 34.7794C147.535 34.5686 147.863 34.4632 148.205 34.4632C148.652 34.4632 149.06 34.6082 149.428 34.898C149.796 35.1878 149.98 35.5962 149.98 36.1232C149.901 36.8873 149.454 38.7843 148.639 41.8143C147.298 46.7941 145.642 50.9439 143.67 54.2638C141.093 58.5585 138.096 60.7059 134.678 60.7059Z" fill="#003049"/>
<path d="M158.222 61.1011C155.146 61.1011 152.583 60.337 150.532 58.8088C148.507 57.2543 146.996 55.2387 145.997 52.7619C144.971 50.2589 144.459 47.6109 144.459 44.818C144.459 41.8407 145.024 38.9161 146.154 36.0441C147.285 33.1722 148.981 30.7482 151.242 28.7721C153.529 26.796 156.355 25.5708 159.721 25.0965C160.194 24.4905 160.799 24.0294 161.535 23.7132C162.271 23.3971 163.047 23.239 163.862 23.239C167.621 23.239 170.369 25.1624 172.104 29.0092C173.497 32.0656 174.194 35.6489 174.194 39.7592L174.115 41.7353C176.613 40.7604 179.216 38.5472 181.924 35.0956C182.318 34.6477 182.739 34.4237 183.186 34.4237C183.659 34.4237 184.08 34.595 184.448 34.9375C184.816 35.28 185 35.6884 185 36.1627C185 36.5052 184.869 36.8477 184.606 37.1903C180.925 41.8012 177.27 44.5545 173.642 45.4504C173.09 48.2433 172.143 50.8254 170.803 53.1967C169.462 55.5417 167.74 57.4519 165.636 58.9274C163.533 60.3765 161.062 61.1011 158.222 61.1011ZM158.893 57.6627C160.076 57.6627 161.154 57.0567 162.126 55.8447C163.099 54.6327 163.954 53.0518 164.69 51.102C165.426 49.1259 166.004 46.9917 166.425 44.6994C164.427 43.5928 162.836 41.7485 161.653 39.1664C160.47 36.5579 159.786 33.5147 159.602 30.0368C158.078 31.5123 156.881 33.9626 156.014 37.3879C155.146 40.7868 154.712 44.1725 154.712 47.545C154.712 49.3631 154.857 51.0493 155.146 52.6039C155.435 54.132 155.882 55.3572 156.487 56.2794C157.118 57.2016 157.92 57.6627 158.893 57.6627ZM166.977 40.8263C167.003 40.4311 167.017 39.8251 167.017 39.0083C167.017 37.7436 166.938 36.2154 166.78 34.4237C166.649 32.6057 166.386 31.0116 165.991 29.6415C165.623 28.2714 165.071 27.5864 164.335 27.5864C163.73 27.5864 163.428 28.3505 163.428 29.8787C163.428 31.644 163.743 33.6464 164.374 35.886C165.032 38.1256 165.899 39.7724 166.977 40.8263Z" fill="#003049"/>
</svg>
