<svg width="36" height="44" viewBox="0 0 36 44" fill="none" xmlns="http://www.w3.org/2000/svg">
<path d="M18 0.125C13.4432 0.130169 9.07447 1.94265 5.85231 5.16481C2.63015 8.38697 0.817669 12.7557 0.8125 17.3125C0.8125 32.0195 16.4375 43.127 17.1035 43.5918C17.3662 43.7758 17.6792 43.8746 18 43.8746C18.3208 43.8746 18.6338 43.7758 18.8965 43.5918C19.5625 43.127 35.1875 32.0195 35.1875 17.3125C35.1823 12.7557 33.3699 8.38697 30.1477 5.16481C26.9255 1.94265 22.5568 0.130169 18 0.125ZM18 11.0625C19.2361 11.0625 20.4445 11.4291 21.4723 12.1158C22.5001 12.8026 23.3012 13.7787 23.7742 14.9207C24.2473 16.0628 24.3711 17.3194 24.1299 18.5318C23.8888 19.7442 23.2935 20.8578 22.4194 21.7319C21.5453 22.606 20.4317 23.2013 19.2193 23.4424C18.0069 23.6836 16.7503 23.5598 15.6082 23.0867C14.4662 22.6137 13.4901 21.8126 12.8033 20.7848C12.1166 19.757 11.75 18.5486 11.75 17.3125C11.75 15.6549 12.4085 14.0652 13.5806 12.8931C14.7527 11.721 16.3424 11.0625 18 11.0625Z" fill="#E95151"/>
</svg>
