<svg width="408" height="408" viewBox="0 0 408 408" fill="none" xmlns="http://www.w3.org/2000/svg">
<path d="M262.147 273.699C280.392 275.924 296.046 287.176 308.928 288.717C323.245 290.43 344.898 281.023 366.978 292.094C372.661 294.944 377.328 298.369 375.589 302.625C372.559 310.042 366.183 312.949 352.214 314.964L350.724 315.17C339.926 316.606 328.32 316.954 298.899 317.148L288.846 317.225C252.982 317.537 232.242 319.216 205.384 321.362L202.647 321.584C153.189 325.653 113.711 325.001 84.2125 320.49L83.3217 320.352C59.489 316.619 45.1602 310.444 38.1657 303.438C34.0481 299.314 31.6763 295.468 31.5538 291.358C31.4314 287.247 37.5044 282.729 40.962 281.023C50.5937 276.27 53.7365 274.547 72.2532 272.114C80.2259 271.066 92.1704 271.15 105.977 270.684C155.507 269.011 232.022 270.026 262.147 273.699Z" fill="white"/>
<path fill-rule="evenodd" clip-rule="evenodd" d="M276.619 282.663C248.542 346.213 146.934 344.166 76.2339 300.791C62.7317 292.507 16.3184 253.463 62 230.663C107.682 207.864 93.0498 172.844 129.916 131.075C172.551 82.7711 251.948 57.9965 307.787 122.987C449.71 288.171 286.074 261.263 276.619 282.663Z" fill="#669BBC"/>
<path fill-rule="evenodd" clip-rule="evenodd" d="M88.9212 114.146C86.3898 110.079 83.8533 108.518 81.3581 109.868C79.2458 111.011 78.8944 114.063 80.0183 118.947L79.3448 119.31C78.4192 119.809 78.0735 120.964 78.5726 121.889C78.6158 121.969 78.6646 122.046 78.7188 122.119L79.0797 122.602C84.3492 129.592 88.5246 132.455 91.7824 130.881C94.5205 129.558 94.9831 123.921 93.5743 113.722C93.4756 113.008 92.839 112.5 92.13 112.552L92.041 112.561C91.8802 112.583 91.7246 112.634 91.5816 112.711L88.9212 114.146ZM81.4497 117.852L87.3244 114.673L87.3106 114.652C85.2904 111.519 83.5789 110.522 82.1347 111.303L82.0684 111.341C81.0019 111.992 80.7064 114.037 81.3856 117.532L81.4497 117.852ZM92.01 114.334L80.1194 120.746C79.9871 120.818 79.9378 120.983 80.0091 121.115C80.0152 121.126 80.0222 121.137 80.0299 121.148L80.3802 121.616C85.1966 128.005 88.8191 130.5 91.0723 129.412C92.7841 128.584 93.2334 123.56 92.0424 114.572L92.01 114.334ZM89.5805 124.615C89.8602 124.322 90.032 123.925 90.032 123.488C90.032 122.587 89.3013 121.856 88.4 121.856C87.4987 121.856 86.768 122.587 86.768 123.488C86.768 124.389 87.4987 125.12 88.4 125.12C88.471 125.12 88.5409 125.116 88.6095 125.107L89.5372 126.81L89.5708 126.864C89.7278 127.086 90.0302 127.161 90.2752 127.027C90.539 126.884 90.6364 126.553 90.4927 126.289L89.5805 124.615Z" fill="#FFB703"/>
<path fill-rule="evenodd" clip-rule="evenodd" d="M262.147 273.699C280.392 275.924 296.046 287.176 308.928 288.717C323.245 290.43 344.898 281.023 366.978 292.094C372.661 294.944 377.328 298.369 375.589 302.625C372.559 310.042 366.183 312.949 352.214 314.964L350.724 315.17C339.926 316.606 328.32 316.954 298.899 317.148L288.846 317.225C252.982 317.537 232.242 319.216 205.384 321.362L202.647 321.584C153.189 325.653 113.711 325.001 84.2125 320.49L83.3217 320.352C59.489 316.619 45.1602 310.444 38.1657 303.438C34.0481 299.314 31.6763 295.468 31.5538 291.358C31.4314 287.247 37.5044 282.729 40.962 281.023C50.5937 276.27 53.7365 274.547 72.2532 272.114C80.2259 271.066 92.1704 271.15 105.977 270.684C155.507 269.011 232.022 270.026 262.147 273.699ZM71.8444 275.557L70.6309 275.718C53.3752 278.058 42.3446 282.315 37.1192 286.559L36.7931 286.832C32.7807 290.29 32.4056 294.177 38.1731 299.923C44.4792 306.206 60.5631 313.294 83.7545 316.907C112.788 321.431 151.823 322.745 200.843 318.811L205.982 318.397C234.283 316.172 255.996 314.987 296.183 314.705L307.276 314.622C331.201 314.406 341.37 313.978 351.187 312.613L352.12 312.479C395.469 304 364.19 288.786 346.245 288.717C330.876 288.658 312.417 292.981 307.276 291.362C291.074 286.262 282.754 278.454 262.147 275.956L256.155 275.237L251.04 274.996C167.203 271.101 107.455 270.902 71.8444 275.557Z" fill="#00160A"/>
<path d="M126.141 78.5416C125.843 78.532 125.545 78.5324 125.247 78.5426C117.911 78.7949 112.153 84.8876 112.286 92.2041L112.291 92.4262L112.381 95.1677C112.639 103.402 112.781 111.605 112.807 119.774L112.851 144.911C112.861 153.958 112.855 162.123 112.829 170.119L112.792 178.599C112.65 205.596 112.265 224.544 111.551 232.791L111.414 234.334C110.552 244.413 110.374 258.891 110.885 277.732C110.89 277.95 110.901 278.168 110.918 278.385C111.482 286.024 118.071 291.778 125.694 291.339L125.925 291.324L128.458 291.14C152.136 289.45 175.815 288.605 199.494 288.605C222.671 288.605 246.025 289.415 269.557 291.033C270.238 291.08 270.921 291.084 271.602 291.046C280.524 290.541 287.369 282.97 287.01 274.072L286.997 273.801L286.818 270.592C285.239 241.681 284.421 212.771 284.365 183.86L284.362 180.648C284.362 159.576 285.348 130.677 287.321 93.9376C287.343 93.526 287.348 93.1137 287.335 92.7017C287.087 84.7267 280.485 78.4455 272.537 78.5636L272.296 78.5692L260.265 78.9339C232.931 79.7401 213.029 80.1614 200.544 80.1976L198.404 80.2L196.202 80.1943C183.458 80.1396 163.727 79.7025 137.001 78.8832L126.141 78.5416Z" fill="white"/>
<path fill-rule="evenodd" clip-rule="evenodd" d="M271.363 77.792C270.4 78.32 269.13 78.6915 267.553 78.9058C271.611 79.2662 274.801 79.1821 277.124 78.6538L276.621 78.5916C274.986 78.385 273.233 78.1185 271.363 77.792Z" fill="#E7EAEE"/>
<path fill-rule="evenodd" clip-rule="evenodd" d="M118.757 272.336L118.87 272.341C119.571 272.389 120.066 272.937 120.001 273.541C119.928 274.233 119.188 274.905 118.381 274.96C117.739 275.004 117.293 274.511 117.365 273.744C117.439 272.941 118.069 272.339 118.757 272.336Z" fill="#E7EAEE"/>
<path fill-rule="evenodd" clip-rule="evenodd" d="M131.599 282.844L131.712 282.848C132.413 282.896 132.908 283.444 132.843 284.048C132.77 284.74 132.03 285.412 131.223 285.467C130.581 285.511 130.135 285.018 130.206 284.251C130.281 283.448 130.911 282.846 131.599 282.844Z" fill="#E7EAEE"/>
<path fill-rule="evenodd" clip-rule="evenodd" d="M199.636 282.153C171.776 288.302 224.086 287.215 244.492 285.868C255.598 285.135 264.465 290.683 269.557 291.033C270.238 291.08 270.921 291.084 271.602 291.046C280.524 290.541 287.369 282.97 287.01 274.071L286.997 273.801L286.818 270.592C285.239 241.681 284.421 212.771 284.365 183.86L284.362 180.648C284.362 159.576 285.348 130.677 287.321 93.9376C287.343 93.526 287.348 93.1137 287.335 92.7017C287.087 84.7266 271.805 266.225 199.636 282.153Z" fill="#E7EAEE"/>
<path d="M282.265 274.721L282.363 274.724C282.871 274.765 283.286 275.294 283.226 275.939C283.16 276.654 282.544 277.296 281.929 277.345C281.497 277.379 281.131 276.915 281.196 276.116C281.262 275.299 281.774 274.733 282.265 274.721Z" fill="white"/>
<path fill-rule="evenodd" clip-rule="evenodd" d="M282.09 279.382C280.276 279.525 279.002 277.904 279.16 275.952C279.313 274.055 280.757 272.549 282.493 272.686C284.199 272.821 285.423 274.378 285.261 276.128C285.105 277.81 283.72 279.253 282.09 279.382ZM282.363 274.725L282.265 274.721C281.774 274.733 281.262 275.299 281.196 276.116C281.131 276.915 281.497 277.379 281.929 277.345C282.544 277.297 283.16 276.654 283.226 275.939C283.286 275.294 282.871 274.765 282.363 274.725Z" fill="white"/>
<path d="M265.009 90.3159C271.457 90.3159 276.684 95.5427 276.684 101.99C276.684 102.232 276.676 102.473 276.661 102.714L276.49 105.574C276.176 111.002 275.863 117.447 275.551 124.908L275.503 126.103C274.741 146.175 274.717 193.66 275.431 268.559C275.493 275.006 270.316 280.282 263.869 280.344C263.711 280.345 263.554 280.344 263.397 280.339L135.316 276.387C129.386 276.204 124.536 271.602 124.042 265.689L123.934 264.354C122.247 243.093 122.147 215.944 123.633 182.909L123.85 178.171C124.609 160.787 124.669 135.468 124.029 102.215C123.906 95.8357 128.924 90.5532 135.276 90.3236L135.589 90.3165L265.009 90.3159Z" fill="white"/>
<path fill-rule="evenodd" clip-rule="evenodd" d="M178.896 227.991C184.554 228.23 190.365 227.226 195.404 224.764C201.716 221.68 206.465 216.506 209.093 209.088C212.555 199.317 211.284 188.751 206.306 179.452C201.876 171.175 194.911 164.876 188.491 163.318C188.491 163.318 206.306 188.379 203.754 202.079C199.852 223.027 178.896 227.991 178.896 227.991Z" fill="#E7EAEE"/>
<path fill-rule="evenodd" clip-rule="evenodd" d="M183.011 198.56C185.764 199.702 186.605 201.825 185.533 204.928L185.471 205.101C178.498 224.249 170.275 224.423 177.311 205.101C178.164 202.76 177.953 200.965 176.677 199.714C178.931 199.257 181.042 198.872 183.011 198.56Z" fill="#E7EAEE"/>
<path fill-rule="evenodd" clip-rule="evenodd" d="M139.335 176.178C141.139 170.817 143.774 166.788 148.698 163.601L149.323 163.205C150.386 162.538 151.695 161.783 152.76 162.298C154.114 162.954 156.073 165.342 154.881 166.28C154.073 166.916 150.744 167.592 148.236 169.79C145.274 172.385 143.142 176.566 143.142 177.589C143.142 180.929 138.269 179.344 139.335 176.178Z" fill="#E7EAEE"/>
<path fill-rule="evenodd" clip-rule="evenodd" d="M133.755 99.7708C127.561 116.778 127.603 120.152 127.232 117.221C126.03 107.741 125.123 101.511 126.551 97.7266C128.359 92.9356 132.892 91.9932 134.06 92.5493C136.528 93.7249 133.755 99.7708 133.755 99.7708Z" fill="#E7EAEE"/>
<path fill-rule="evenodd" clip-rule="evenodd" d="M235.659 187.172L233.598 187.109C231.154 187.047 229.392 187.062 227.913 187.177C226.726 187.27 225.84 187.432 225.338 187.591L225.239 187.624L225.229 187.671C225.174 187.948 225.134 188.319 225.117 188.768L225.111 188.939C225.078 190.286 225.241 192.084 225.564 194.093C225.83 195.74 226.192 197.451 226.569 198.893L226.664 199.248C226.811 199.786 226.952 200.254 227.076 200.618L227.121 200.748L227.174 200.768C227.934 201.038 229.443 201.07 232.354 200.856L234.33 200.701C235.662 200.603 236.632 200.561 237.59 200.573L246.88 200.768C248.179 200.792 249.353 200.811 250.504 200.826L252.591 200.85C257.802 201.153 263.53 200.925 264.242 199.628C266.416 195.672 267.44 187.523 266.416 187.469C264.572 187.371 262.34 187.255 261.28 187.269L258.832 187.314L256.613 187.331C255.599 187.337 254.542 187.34 253.407 187.341L240.675 187.312C239.848 187.306 239.037 187.286 237.576 187.238L235.659 187.172Z" fill="#E7EAEE"/>
<path fill-rule="evenodd" clip-rule="evenodd" d="M138.036 75.9948L126.235 75.6244C125.872 75.6128 125.51 75.6132 125.147 75.6256C116.126 75.9358 109.064 83.5005 109.374 92.5219L109.464 95.2589C109.57 98.6388 109.731 102.013 109.891 105.382C110.164 111.103 110.436 116.807 110.436 122.496L110.474 143.128C110.51 171.901 110.423 219.287 109.145 233.012L109.049 234.089C108.218 243.814 107.472 257.496 107.898 275.136L107.967 277.811C107.974 278.075 107.987 278.338 108.007 278.6C108.696 287.924 116.813 294.924 126.136 294.234L128.666 294.051L129.085 294.021C129.169 294.162 129.255 294.303 129.34 294.443C129.749 295.119 130.132 295.751 130.221 296.061C130.446 296.843 130.469 297.73 130.34 299.734L130.208 301.613L130.173 302.224C129.981 305.969 130.414 308.198 132.241 309.876C134.592 312.034 137.081 311.805 142.183 311.336L142.412 311.315L143.725 311.188C145.243 311.041 146.949 311.16 148.112 311.24H148.113L148.113 311.24C148.448 311.264 148.738 311.284 148.965 311.294L149.394 311.315C152.321 311.432 152.786 310.468 153.042 308.087C153.183 306.774 152.999 305.741 152.228 303.077L151.651 301.113L151.46 300.43C150.559 297.102 150.641 295.44 151.815 294.637C152.099 294.442 153.289 294.088 154.66 293.68C156.072 293.26 157.676 292.783 158.686 292.363C172.289 291.803 185.891 291.524 199.494 291.524C213.786 291.524 228.147 291.832 242.576 292.45C242.481 292.606 242.463 292.831 242.565 293.145C242.679 293.5 243.113 293.745 243.668 294.059C245.139 294.891 247.457 296.202 246.918 301.293L246.92 301.502C247.001 305.515 249.434 307.869 253.347 308.668C255.964 309.202 258.94 309.041 262.181 308.479C263.786 308.201 264.82 307.197 265.313 305.668C265.586 304.823 265.683 304.064 265.747 302.554C265.747 302.554 265.033 294.706 269.003 293.921C269.121 293.929 269.239 293.937 269.357 293.945C269.817 293.976 270.277 293.992 270.737 293.99C270.799 294.005 270.862 294.021 270.925 294.038C271.115 294.089 271.297 294.06 271.46 293.974C271.563 293.97 271.665 293.965 271.767 293.959C282.389 293.359 290.512 284.261 289.911 273.639L289.733 270.433C288.098 240.504 287.28 210.576 287.28 180.648C287.28 160.267 288.207 132.51 290.061 97.3751L290.236 94.094C290.262 93.6001 290.268 93.1053 290.252 92.611C289.952 82.9442 281.872 75.3514 272.205 75.6519L266.078 75.84C235.717 76.7605 213.871 77.2402 200.54 77.2789L198.406 77.2813C185.96 77.2717 165.836 76.8428 138.036 75.9948ZM265.018 293.655C258.272 293.22 251.541 292.851 244.825 292.549C248.041 294.11 249.187 297.024 249.251 301.056L249.253 301.293C249.253 303.901 251.282 305.604 254.011 306.161C254.297 306.219 254.59 306.283 254.889 306.348C256.775 306.757 258.93 307.224 261.32 306.832L261.682 306.771C263.336 306.161 263.336 300.222 263.336 300.222C263.354 299.739 263.371 299.424 263.399 299.041L263.435 298.61C263.641 296.448 264.093 294.833 265.018 293.655ZM133.027 295.257C132.868 294.704 132.642 294.215 132.349 293.795C138.076 293.407 143.803 293.07 149.529 292.781C148.635 293.778 148.551 295.125 148.518 296.734C148.489 298.12 148.769 299.594 149.359 301.671L149.394 301.795L149.933 303.63C150.593 305.897 150.792 306.845 150.736 307.64L150.724 307.774C150.645 308.512 149.698 309.344 148.098 309.25L147.812 309.236C147.126 309.132 140.368 309.25 140.368 309.25C137.248 309.566 135.746 309.132 134.215 307.726C133.188 306.782 132.912 305.107 133.115 301.899L133.241 300.098C133.399 297.745 133.386 296.643 133.09 295.489L133.027 295.257ZM125.247 78.5425C125.545 78.5323 125.843 78.5319 126.141 78.5415L137.001 78.8831C163.727 79.7024 183.458 80.1395 196.202 80.1942L198.404 80.1999L200.544 80.1975C213.029 80.1613 232.931 79.74 260.265 78.9338L272.296 78.5691L272.537 78.5635C280.485 78.4454 287.087 84.7266 287.335 92.7016C287.348 93.1136 287.343 93.526 287.321 93.9375C285.348 130.677 284.362 159.576 284.362 180.648L284.365 183.86C284.421 212.771 285.239 241.681 286.818 270.592L286.997 273.801L287.01 274.071C287.369 282.97 280.524 290.541 271.602 291.046C270.921 291.084 270.238 291.08 269.557 291.033C246.025 289.414 222.671 288.605 199.494 288.605C175.815 288.605 152.136 289.45 128.458 291.14L125.925 291.324L125.694 291.339C118.071 291.778 111.482 286.024 110.918 278.385C110.901 278.168 110.89 277.95 110.885 277.732C110.374 258.891 110.552 244.413 111.414 234.333L111.551 232.791C112.265 224.544 112.65 205.596 112.792 178.599L112.829 170.119C112.855 162.123 112.861 153.958 112.851 144.911L112.807 119.774C112.781 111.604 112.639 103.402 112.381 95.1676L112.291 92.4261L112.286 92.204C112.153 84.8875 117.911 78.7948 125.247 78.5425ZM276.684 101.99C276.684 95.5429 271.457 90.316 265.009 90.316L135.589 90.3166L135.276 90.3238C128.924 90.5533 123.906 95.8358 124.029 102.215C124.669 135.468 124.609 160.787 123.85 178.171L123.633 182.909C122.146 215.944 122.247 243.093 123.934 264.354L124.042 265.689C124.536 271.602 129.386 276.204 135.316 276.387L263.397 280.339C263.554 280.344 263.711 280.345 263.869 280.344C270.316 280.282 275.493 275.006 275.431 268.559C274.717 193.66 274.741 146.175 275.503 126.103L275.551 124.908C275.863 117.447 276.176 111.002 276.49 105.574L276.661 102.714C276.676 102.473 276.684 102.232 276.684 101.99ZM135.701 93.2346H265.009C269.845 93.2346 273.765 97.1548 273.765 101.99C273.765 102.171 273.759 102.352 273.748 102.533C273.442 107.456 273.138 113.333 272.834 120.166L272.635 124.786C271.864 143.226 271.789 187.383 272.409 257.328L272.513 268.587C272.559 273.422 268.676 277.379 263.841 277.426C263.723 277.427 263.605 277.425 263.487 277.422L135.406 273.47L135.214 273.462C130.854 273.233 127.316 269.817 126.951 265.447C125.154 243.91 125.033 216.087 126.596 181.995L126.742 178.84C127.479 162.436 127.584 138.912 127.058 108.249L126.947 102.159C126.854 97.3241 130.698 93.3293 135.533 93.2363C135.589 93.2352 135.645 93.2346 135.701 93.2346ZM131.228 84.2836C131.412 86.2678 129.975 87.8602 128.037 87.7268C126.265 87.6049 124.707 86.1902 124.525 84.4865L124.515 84.3619C124.402 82.6667 125.701 81.2257 127.443 81.0409L127.575 81.0294C129.433 80.9015 131.05 82.3701 131.228 84.2836ZM127.801 83.0648L127.688 83.0691C126.987 83.1177 126.492 83.6653 126.557 84.2698C126.631 84.9618 127.37 85.6331 128.177 85.6886C128.819 85.7328 129.265 85.2391 129.194 84.4726C129.119 83.6689 128.489 83.0677 127.801 83.0648ZM117.472 99.7592C115.452 99.9384 114.091 97.9953 114.259 95.6649C114.424 93.3809 115.992 91.5452 117.935 91.7175L118.06 91.7312C119.844 91.9633 121.076 93.7181 120.975 95.685L120.966 95.8226C120.799 97.8332 119.292 99.5977 117.472 99.7592ZM117.785 93.7548L117.685 93.75C117.066 93.7575 116.385 94.5947 116.297 95.8118C116.209 97.0276 116.732 97.7738 117.291 97.7242C118.05 97.6568 118.841 96.7321 118.93 95.6541C119.014 94.6336 118.44 93.8134 117.785 93.7548ZM268.703 84.2836C268.519 86.2678 269.956 87.8602 271.894 87.7268C273.665 87.6049 275.224 86.1902 275.406 84.4865L275.416 84.3619C275.529 82.6667 274.23 81.2257 272.488 81.0409L272.356 81.0294C270.498 80.9015 268.881 82.3701 268.703 84.2836ZM272.13 83.0648L272.243 83.0691C272.944 83.1177 273.439 83.6653 273.374 84.2698C273.3 84.9618 272.561 85.6331 271.753 85.6886C271.112 85.7328 270.666 85.2391 270.737 84.4726C270.812 83.6689 271.442 83.0677 272.13 83.0648ZM279.581 96.4197C278.497 94.8086 279.157 92.7673 280.968 91.9348C282.714 91.132 284.795 91.7987 285.613 93.4717L285.669 93.5913C286.38 95.1927 285.781 97.0379 284.257 97.788L284.143 97.8409C282.577 98.5354 280.573 97.8931 279.581 96.4197ZM283.79 94.3932L283.737 94.2932C283.39 93.6987 282.555 93.4538 281.821 93.791C281.122 94.1126 280.917 94.7455 281.276 95.2792C281.728 95.9505 282.679 96.2553 283.315 95.9732C283.871 95.7268 284.098 95.0248 283.79 94.3932ZM116.029 271.277C114.613 272.678 114.69 274.822 116.26 275.965C117.696 277.011 119.799 276.929 121.033 275.741L121.122 275.652C122.298 274.426 122.229 272.487 121.013 271.226L120.92 271.132C119.579 269.84 117.395 269.925 116.029 271.277ZM119.438 272.546L119.522 272.622C120.027 273.11 120.054 273.847 119.616 274.269C119.115 274.751 118.117 274.79 117.463 274.314C116.943 273.935 116.919 273.271 117.466 272.729C118.04 272.161 118.909 272.106 119.438 272.546ZM129.102 286.472C127.532 285.329 127.454 283.185 128.871 281.784C130.237 280.432 132.42 280.347 133.762 281.639L133.855 281.733C135.071 282.994 135.139 284.933 133.964 286.159L133.875 286.248C132.641 287.436 130.538 287.518 129.102 286.472ZM132.363 283.129L132.28 283.053C131.751 282.613 130.882 282.668 130.308 283.236C129.761 283.778 129.785 284.442 130.305 284.821C130.959 285.297 131.957 285.258 132.458 284.776C132.896 284.354 132.869 283.617 132.363 283.129ZM272.824 282.462C271.197 284.102 271.153 286.516 272.886 287.756C274.473 288.893 276.849 288.668 278.27 287.27C279.743 285.82 279.785 283.486 278.336 282.067C276.869 280.631 274.409 280.863 272.824 282.462ZM276.842 283.469L276.925 283.545C277.526 284.134 277.508 285.153 276.837 285.814C276.114 286.525 274.843 286.645 274.076 286.095C273.454 285.65 273.471 284.711 274.274 283.901C275.089 283.079 276.223 282.946 276.842 283.469ZM282.09 279.382C280.276 279.525 279.002 277.904 279.16 275.951C279.313 274.055 280.757 272.549 282.493 272.686C284.199 272.821 285.423 274.378 285.261 276.128C285.105 277.809 283.72 279.253 282.09 279.382ZM282.363 274.725L282.265 274.721C281.774 274.733 281.262 275.299 281.196 276.116C281.131 276.915 281.497 277.379 281.929 277.345C282.544 277.296 283.16 276.654 283.226 275.939C283.286 275.294 282.871 274.765 282.363 274.725Z" fill="#00160A"/>
<path fill-rule="evenodd" clip-rule="evenodd" d="M128.871 281.784C127.454 283.185 127.532 285.329 129.102 286.472C130.538 287.518 132.641 287.436 133.875 286.247L133.964 286.159C135.139 284.933 135.071 282.994 133.855 281.733L133.762 281.639C132.42 280.347 130.237 280.432 128.871 281.784ZM132.28 283.053L132.363 283.129C132.869 283.617 132.896 284.354 132.458 284.776C131.957 285.258 130.959 285.297 130.305 284.821C129.785 284.442 129.761 283.778 130.308 283.236C130.882 282.668 131.751 282.613 132.28 283.053Z" fill="#00160A"/>
<path d="M276.842 283.469L276.925 283.545C277.526 284.134 277.508 285.153 276.837 285.814C276.114 286.525 274.843 286.645 274.076 286.095C273.454 285.65 273.471 284.711 274.274 283.901C275.089 283.079 276.223 282.946 276.842 283.469Z" fill="white"/>
<path fill-rule="evenodd" clip-rule="evenodd" d="M148.012 158.191C147.339 158.425 146.731 158.743 145.98 159.205L145.403 159.567L145.117 159.749C140.764 162.559 137.858 166.053 135.791 170.785L135.68 171.041L135.597 171.016C135.049 170.855 134.551 170.776 134.019 170.82C132.886 170.915 131.829 171.594 131.451 172.86C130.862 174.837 131.105 177.099 131.871 179.414L132.014 179.838C132.761 181.984 133.588 183.441 134.962 183.866C136.788 184.431 143.1 181.929 145.301 179.659C146.87 178.04 146.242 176.059 144.748 174.916L144.61 174.814L144.466 174.715L144.302 174.608L144.412 174.413C144.488 174.278 144.568 174.141 144.652 174.003C145.544 172.523 146.66 171.124 147.79 170.134C148.226 169.752 148.729 169.403 149.303 169.077C150.191 168.572 153.733 167.182 154.329 166.713C156.244 165.207 156.022 163.025 154.811 161.135C154.058 159.959 152.874 158.857 151.729 158.302C150.527 157.72 149.269 157.755 148.012 158.191ZM150.584 160.666C151.938 161.322 153.897 163.71 152.705 164.648C151.897 165.284 148.568 165.96 146.06 168.158C143.098 170.752 140.966 174.934 140.966 175.957L141.304 176.084C143.151 176.795 143.854 177.377 143.415 177.831C141.456 179.851 136.132 181.478 135.738 181.356C135.35 181.236 133.053 176.681 133.969 173.61C134.091 173.2 135.154 173.512 137.159 174.546C138.963 169.185 141.598 165.155 146.522 161.969L147.147 161.573C148.21 160.906 149.519 160.151 150.584 160.666Z" fill="#00160A"/>
<path fill-rule="evenodd" clip-rule="evenodd" d="M151.998 218.638C141.185 206.821 140.559 186.663 152.24 173.682C159.497 165.617 176.555 160.422 188.491 163.318C194.911 164.876 201.876 171.175 206.306 179.452C211.284 188.751 212.555 199.317 209.093 209.088C206.465 216.506 201.716 221.68 195.404 224.764C190.365 227.226 184.554 228.229 178.896 227.991C168.685 227.562 155.987 222.998 151.998 218.638ZM203.733 180.829C199.665 173.228 193.325 167.494 187.803 166.155L187.474 166.078C176.586 163.608 160.881 168.443 154.41 175.634C143.757 187.473 144.33 205.935 154.151 216.668C157.54 220.371 169.514 224.675 179.019 225.075C184.222 225.294 189.556 224.373 194.123 222.142C199.76 219.387 203.974 214.797 206.342 208.113C209.513 199.164 208.343 189.441 203.733 180.829ZM198.111 208.793C204.57 197.455 195.814 172.972 183.585 170.929C172.09 169.009 167.733 171.797 162.776 176.096L161.817 176.937C152.115 185.515 152.115 203.943 161.593 212.493C163.975 214.641 174.455 220.153 182.497 218.467C187.83 217.349 195.251 213.814 198.111 208.793ZM171.121 174.128C171.73 173.909 172.372 173.729 173.056 173.589C172.964 173.802 172.885 174.027 172.82 174.266C172.458 175.598 172.495 176.739 172.886 179.514L173.153 181.354C173.176 181.516 173.196 181.665 173.217 181.817L173.275 182.285C173.691 185.799 173.314 187.632 171.743 188.643C170.305 189.568 168.891 189.917 165.661 190.293L164.451 190.43C162.961 190.602 162.179 190.72 161.237 190.933L160.811 191.019C159.507 191.293 158.425 191.634 157.584 192.062C158.138 187.043 160.194 182.268 163.75 179.123C167.105 176.158 168.797 174.961 171.121 174.128ZM183.105 173.808C182.632 173.729 182.173 173.658 181.725 173.596C181.819 173.833 181.898 174.086 181.964 174.352C182.237 175.465 182.284 176.454 182.218 178.705L182.186 179.677C182.152 180.612 182.136 181.168 182.131 181.702L182.131 182.343C182.158 185.192 182.604 187.085 183.7 188.368L183.822 188.504L183.87 188.525C183.938 188.552 184.024 188.583 184.126 188.617L184.234 188.652C184.485 188.732 184.8 188.821 185.203 188.927L185.876 189.099L188.753 189.804C189.318 189.944 189.82 190.072 190.302 190.199L191.093 190.412C193.471 191.067 195.294 191.706 196.62 192.418C194.64 183.552 189.188 174.824 183.105 173.808ZM196.939 198.938C197.103 198.834 197.258 198.727 197.405 198.62C197.476 201.926 196.922 204.984 195.575 207.349C193.641 210.743 188.27 213.976 183.025 215.345C183.158 215.01 183.265 214.646 183.348 214.257C183.603 213.06 183.644 211.689 183.544 209.747L183.48 208.702L183.385 207.328C183.205 204.582 183.249 203.434 183.488 203.159C184.565 201.921 186.057 201.447 189.853 200.902L190.733 200.777C193.907 200.313 195.395 199.922 196.939 198.938ZM174.631 213.923C174.671 214.415 174.835 214.918 175.099 215.392C173.754 215.108 172.353 214.699 170.926 214.177C167.734 213.009 164.639 211.309 163.548 210.325C160.086 207.203 158.094 202.49 157.57 197.527C158.467 197.94 159.653 198.29 161.126 198.638L161.352 198.691C161.946 198.829 162.554 198.957 163.272 199.099L165.321 199.497C169.91 200.44 172.279 201.533 173.361 202.992L173.47 203.145C174.187 204.19 174.386 205.374 174.443 208.447L174.476 210.636C174.501 211.947 174.542 212.816 174.631 213.923ZM178.082 173.713L178.214 173.725C179.453 173.873 179.715 175.022 179.569 179.355L179.519 180.857C179.507 181.31 179.502 181.675 179.502 182.075C179.504 184.792 179.829 186.902 180.703 188.593C180.54 188.506 180.354 188.457 180.156 188.457L179.958 188.46L179.908 188.461L179.886 188.452C179.551 188.328 179.184 188.367 178.888 188.541L178.858 188.56L178.755 188.576C176.209 189.001 173.679 190.521 172.322 192.535C170.867 194.696 170.939 197.055 172.599 199.075C171.02 198.241 168.924 197.573 166.157 196.988L165.265 196.809C164.739 196.707 164.084 196.581 164.084 196.581L163.557 196.478C163.047 196.376 162.595 196.28 162.162 196.182L161.946 196.132C160.629 195.827 159.588 195.513 158.861 195.185L158.746 195.132C158.522 195.025 158.344 194.923 158.218 194.831L158.201 194.818L158.233 194.785C158.323 194.696 158.459 194.595 158.645 194.487C159.283 194.119 160.334 193.782 161.775 193.504L162.14 193.425C162.781 193.293 163.41 193.199 164.391 193.082L165.984 192.9C169.606 192.478 171.283 192.062 173.164 190.852C175.908 189.086 176.431 186.326 175.853 181.721L175.789 181.235C175.756 180.997 175.721 180.749 175.674 180.432L175.493 179.188C175.168 176.874 175.122 175.881 175.335 175.032L175.355 174.955C175.615 173.997 176.279 173.601 178.082 173.713ZM175.369 201.294C175.404 201.338 175.438 201.383 175.471 201.428C176.712 203.101 176.997 204.579 177.069 208.354L177.098 210.348C177.12 211.595 177.152 212.417 177.223 213.369L177.249 213.711C177.304 214.386 178.455 215.459 179.727 215.216C180.718 215.027 181.101 213.404 180.915 209.79L180.889 209.338L180.744 207.217C180.515 203.746 180.588 202.593 181.38 201.587C179.481 202.302 177.272 202.267 175.369 201.294ZM184.445 199.394C185.622 198.949 187.122 198.647 189.204 198.342L190.333 198.181C192.971 197.795 194.246 197.48 195.327 196.846L195.527 196.723C196.75 195.944 196.867 195.789 196.323 195.35L196.147 195.214C195.186 194.49 193.329 193.767 190.656 193.017L190.091 192.862C189.481 192.697 188.855 192.535 188.117 192.352L185.045 191.599C184.464 191.453 184 191.331 183.622 191.219C185.997 193.729 186.389 196.555 184.758 198.969L184.665 199.102C184.594 199.202 184.521 199.299 184.445 199.394ZM179.223 190.866L179.389 190.842L179.507 190.913C183.325 193.234 184.175 195.764 182.763 197.748C181.358 199.723 178.274 200.405 176.06 199.002C173.495 197.376 173.068 195.608 174.259 193.84C175.265 192.346 177.276 191.165 179.223 190.866Z" fill="#00160A"/>
<path d="M218.725 186.356C218.742 185.668 218.808 185.183 218.885 184.879C219.161 184.768 219.675 184.615 220.536 184.493C221.7 184.329 223.158 184.263 224.815 184.26C226.462 184.256 228.218 184.314 229.971 184.374C230.076 184.378 230.181 184.382 230.286 184.385C231.912 184.442 233.539 184.498 234.982 184.5C236.652 184.502 238.352 184.508 240.065 184.513C244.262 184.528 248.543 184.542 252.68 184.5C252.871 184.498 253.142 184.492 253.476 184.485C254.801 184.457 257.128 184.409 259.515 184.486C261.006 184.534 262.437 184.629 263.586 184.795C264.161 184.879 264.612 184.972 264.938 185.067C265.043 185.098 265.12 185.124 265.174 185.144C265.205 185.199 265.25 185.288 265.303 185.419C265.453 185.792 265.6 186.344 265.706 187.073C265.917 188.528 265.923 190.379 265.707 192.226C265.489 194.089 265.066 195.76 264.534 196.912C264.174 197.69 263.907 197.948 263.823 198.02C256.629 198.78 244.543 198.516 234.814 198.303C233.723 198.279 232.661 198.256 231.64 198.235C230.349 198.208 229.016 198.294 227.781 198.39C227.472 198.414 227.172 198.439 226.878 198.462C225.953 198.537 225.095 198.607 224.261 198.642C223.166 198.688 222.284 198.665 221.591 198.549C221.221 198.487 220.96 198.408 220.777 198.33C220.641 197.957 220.472 197.415 220.286 196.732C219.901 195.319 219.488 193.455 219.181 191.553C218.872 189.631 218.69 187.78 218.725 186.356ZM220.924 198.695C220.922 198.691 220.919 198.686 220.916 198.679C220.95 198.736 220.951 198.75 220.924 198.695ZM218.949 184.679C218.955 184.665 218.958 184.659 218.958 184.659C218.958 184.66 218.955 184.667 218.949 184.679Z" stroke="#421EB7" stroke-width="5.36509"/>
<path fill-rule="evenodd" clip-rule="evenodd" d="M234.953 182.1C236.636 182.102 238.344 182.108 240.062 182.114C243.595 182.126 247.172 182.138 250.676 182.116L252.62 182.1C252.787 182.098 253.034 182.093 253.346 182.087C256.27 182.025 264.898 181.843 266.796 183.283C269.9 185.639 268.664 200.471 264.226 200.954C256.861 201.754 244.483 201.482 234.74 201.268H234.74H234.74H234.74L234.738 201.268C233.639 201.244 232.573 201.22 231.552 201.199C230.134 201.17 228.607 201.294 227.099 201.416C223.718 201.69 220.434 201.956 218.687 200.471C217.785 199.705 214.314 185.128 217.018 183.126C219.084 181.596 225.008 181.802 230.331 181.987L230.331 181.987C231.653 182.032 232.937 182.077 234.116 182.094L234.118 182.092L234.119 182.094C234.404 182.098 234.682 182.1 234.953 182.1ZM231.394 184.943C231.681 184.952 231.943 184.961 232.185 184.968C232.381 186.177 232.404 188.301 232.263 191.43L232.159 193.691C232.067 195.805 232.033 197.243 232.093 198.292L231.407 198.278C230.45 198.266 229.479 198.308 228.148 198.406L226.171 198.56C223.261 198.775 221.751 198.743 220.992 198.473L220.938 198.453L220.893 198.323C220.769 197.959 220.628 197.491 220.482 196.953L220.387 196.598C220.009 195.156 219.647 193.445 219.382 191.798C219.058 189.789 218.896 187.991 218.929 186.644L218.934 186.473C218.951 186.024 218.991 185.653 219.047 185.375L219.057 185.329L219.156 185.296C219.657 185.137 220.544 184.975 221.731 184.882C223.209 184.767 224.971 184.752 227.416 184.814L229.477 184.877L231.394 184.943ZM240.697 198.473L235.055 198.354C235.024 198.023 235.002 197.617 234.995 197.146L234.993 197.045C234.984 196.306 234.999 195.6 235.05 194.359L235.215 190.711C235.314 188.205 235.317 186.386 235.151 185.018L247.225 185.046C247.871 185.046 248.492 185.045 249.095 185.042C248.91 188.674 249.204 195.025 249.581 198.572C248.563 198.571 247.506 198.565 246.408 198.555L244.321 198.531C243.171 198.516 241.997 198.497 240.697 198.473ZM252.546 198.563C257.031 198.525 260.632 198.38 263.424 198.103L263.685 198.075L263.72 198.039C263.868 197.87 264.043 197.599 264.22 197.236L264.287 197.095C264.812 195.962 265.226 194.31 265.44 192.482C265.652 190.672 265.65 188.838 265.44 187.39C265.342 186.722 265.206 186.173 265.051 185.79L265.008 185.686L264.975 185.618L264.858 185.582C264.546 185.49 264.117 185.401 263.593 185.322C262.558 185.168 261.227 185.066 259.669 185.011C258.22 184.96 256.747 184.952 255.098 184.974L252.65 185.019L251.954 185.024C251.932 185.419 251.915 185.888 251.908 186.414L251.907 186.585C251.895 188.008 251.946 189.8 252.047 191.784L252.068 192.184C252.151 193.741 252.262 195.349 252.381 196.764L252.452 197.588C252.484 197.94 252.516 198.267 252.546 198.563ZM239.693 189.948L239.96 190.33C240.263 190.758 240.55 191.137 240.824 191.471C240.457 192.271 240.264 193.17 240.204 194.326C240.182 194.746 240.505 195.105 240.925 195.127C241.346 195.149 241.704 194.826 241.726 194.405C241.761 193.739 241.842 193.19 241.988 192.702C242.831 193.44 243.57 193.715 244.347 193.729L244.497 193.729C244.918 193.729 245.259 193.388 245.259 192.967C245.259 192.572 244.959 192.247 244.575 192.208L244.497 192.204L244.369 192.204C243.871 192.193 243.37 191.983 242.687 191.294C242.909 190.983 243.177 190.675 243.498 190.346L244.316 189.537C244.615 189.241 244.617 188.758 244.32 188.459C244.024 188.16 243.541 188.158 243.242 188.454L242.557 189.128C242.225 189.461 241.933 189.781 241.678 190.101L241.401 189.725C241.257 189.527 241.107 189.314 240.95 189.085C240.712 188.738 240.237 188.65 239.89 188.888C239.543 189.127 239.455 189.601 239.693 189.948ZM260.51 189.222L260.517 188.757C260.521 188.336 260.182 187.992 259.761 187.989C259.34 187.985 258.996 188.324 258.993 188.745C258.989 189.208 258.977 189.622 258.957 189.994C258.567 189.871 258.146 189.769 257.684 189.679L256.739 189.503C256.326 189.424 255.927 189.696 255.848 190.11C255.77 190.523 256.042 190.922 256.455 191.001L257.585 191.214C258.035 191.308 258.43 191.414 258.788 191.547C258.607 192.5 258.309 192.954 257.903 193.242L257.797 193.313L257.734 193.36C257.437 193.608 257.37 194.045 257.591 194.372C257.826 194.721 258.3 194.813 258.649 194.577L258.773 194.494C259.409 194.047 259.868 193.407 260.155 192.323C260.548 192.646 260.923 193.056 261.324 193.589C261.577 193.925 262.055 193.992 262.392 193.739C262.728 193.486 262.795 193.008 262.542 192.672C261.845 191.747 261.183 191.11 260.432 190.652C260.472 190.222 260.498 189.747 260.51 189.222Z" fill="#00160A"/>
<path fill-rule="evenodd" clip-rule="evenodd" d="M227.25 189.157L227.131 189.607C226.992 190.113 226.851 190.568 226.709 190.975C227.327 191.601 227.816 192.38 228.268 193.445C228.432 193.833 228.251 194.28 227.864 194.445C227.476 194.609 227.029 194.428 226.864 194.041C226.604 193.427 226.339 192.938 226.036 192.53C225.496 193.512 224.895 194.023 224.17 194.301L224.03 194.353C223.634 194.497 223.196 194.293 223.053 193.897C222.918 193.526 223.088 193.119 223.436 192.951L223.508 192.92L223.628 192.876C224.092 192.696 224.491 192.327 224.897 191.446C224.582 191.23 224.225 191.032 223.811 190.832L222.766 190.352C222.384 190.175 222.217 189.723 222.393 189.34C222.569 188.958 223.022 188.791 223.404 188.967L224.278 189.366C224.704 189.565 225.088 189.766 225.437 189.98C225.546 189.624 225.658 189.225 225.774 188.776C225.879 188.369 226.295 188.123 226.703 188.229C227.11 188.334 227.355 188.75 227.25 189.157Z" fill="#669BBC"/>
</svg>
