<svg width="408" height="408" viewBox="0 0 408 408" fill="none" xmlns="http://www.w3.org/2000/svg">
<path fill-rule="evenodd" clip-rule="evenodd" d="M79.6803 295.271C30.8519 261.397 89.3311 216.51 75.0459 162.836C60.7607 109.162 26.1571 29.1332 162.672 57.6496C300.989 86.5426 388.715 123.747 367.983 238.988C347.251 354.229 128.509 329.145 79.6803 295.271Z" fill="#669BBC"/>
<path fill-rule="evenodd" clip-rule="evenodd" d="M291.614 341.671C288.553 338.619 287.102 334.351 285.749 330.245C282.204 335.378 274.29 335.543 268.855 332.48C263.42 329.417 259.753 324.068 255.85 319.201C248.863 310.486 218.934 288.964 218.442 282.472C218.181 279.028 228.195 272.759 228.195 272.759L210.2 262.171C210.2 262.171 200.867 269.331 195.501 270.182C180.572 272.549 170.014 271.14 170.001 273.827C169.955 283.548 228.771 332.867 210.015 332.48C181.867 331.9 130.457 277.113 113.803 272.759C106.829 270.936 58.9951 273.827 58.9951 262.248C58.9951 246.698 101.721 235.998 101.721 235.998C101.721 235.998 90.5851 198.448 104.063 167.741C107.149 160.709 110.971 152.538 111.344 145.628C111.446 143.733 165.329 92.6942 172.251 90.1444C188.391 84.1994 205.559 81.0575 222.759 80.9013C225.051 80.8805 290.426 90.1444 319.824 138.669C325.137 147.438 349.271 212.563 324.768 253.415C320.902 259.86 321.376 267.859 324.049 274.955C326.721 282.05 330.007 289.942 326.978 296.893C325.325 285.757 322.42 274.806 318.337 264.314C312.643 268.454 315.526 277.361 318.92 283.529C323.198 291.301 327.476 299.073 331.754 306.845C333.533 310.077 335.372 313.639 334.732 317.273C334.001 321.428 330.298 324.303 326.868 326.76C319.039 332.371 311.209 337.982 303.38 343.592C299.866 346.111 294.676 344.724 291.614 341.671Z" fill="white"/>
<path fill-rule="evenodd" clip-rule="evenodd" d="M185.848 169.696C186.448 168.073 188.606 167.403 190.199 168.079C191.792 168.756 192.78 170.447 193.03 172.159C193.279 173.872 192.9 175.612 192.413 177.272C191.969 178.786 191.432 180.273 190.808 181.722C190.75 181.857 190.672 182.008 190.529 182.04C190.377 182.074 190.236 181.956 190.127 181.845C187.42 179.103 185.789 175.327 185.647 171.477C185.625 170.876 185.64 170.26 185.848 169.696ZM190.527 170.092C190.082 169.712 189.509 169.462 188.924 169.48C187.56 169.521 186.607 171.01 186.638 172.375C186.668 173.74 187.395 174.98 188.101 176.149C188.606 176.986 189.112 177.823 189.617 178.66C189.79 178.945 190.129 179.271 190.397 179.073C190.505 178.993 190.547 178.854 190.582 178.724C190.789 177.964 190.996 177.203 191.203 176.443C191.499 175.355 191.797 174.25 191.778 173.124C191.76 171.997 191.382 170.826 190.527 170.092L190.527 170.092Z" fill="#FFB703"/>
<path fill-rule="evenodd" clip-rule="evenodd" d="M189.634 174.462C189.301 174.556 188.938 174.538 188.616 174.413C187.992 174.169 187.561 173.5 187.597 172.831C187.633 172.162 188.134 171.543 188.781 171.369C189.761 171.104 190.865 172.007 190.8 173.021C190.758 173.678 190.268 174.284 189.634 174.462Z" fill="#FFB703"/>
<path fill-rule="evenodd" clip-rule="evenodd" d="M207.502 333.575C208.622 333.723 208.209 335.461 207.482 336.325C200.544 344.585 191.486 351.048 181.418 354.922C179.161 355.79 176.825 356.537 174.412 356.703C169.937 357.011 165.479 355.264 161.94 352.507C158.401 349.75 155.704 346.045 153.506 342.134C147.496 331.44 144.977 318.82 146.419 306.637C146.555 305.491 147.337 303.97 148.393 304.436C148.087 308.509 148.04 312.601 148.251 316.68C148.459 320.686 148.922 324.704 150.072 328.547C151.137 332.106 152.776 335.463 154.485 338.761C156.241 342.151 158.102 345.531 160.639 348.385C163.176 351.238 166.468 353.557 170.214 354.297C174.909 355.225 179.728 353.607 184.058 351.566C193.036 347.333 201.09 341.152 207.502 333.575Z" fill="#003049"/>
<path fill-rule="evenodd" clip-rule="evenodd" d="M239.986 287.154C248.14 279.132 256.294 271.11 264.447 263.088C264.904 262.638 265.58 262.159 266.12 262.504C266.84 262.963 266.264 264.068 265.657 264.669C256.881 273.348 248.104 282.028 239.328 290.708C238.696 290.387 238.512 289.522 238.735 288.849C238.958 288.175 239.48 287.652 239.986 287.154H239.986Z" fill="#003049"/>
<path fill-rule="evenodd" clip-rule="evenodd" d="M177.564 241.016C177.067 241.102 176.569 241.188 176.072 241.274C175.107 239.826 174.12 238.324 173.817 236.61C173.514 234.897 174.081 232.903 175.602 232.057C177.323 231.101 177.842 228.749 177.294 226.858C176.745 224.967 175.387 223.435 174.057 221.983C172.706 220.509 170.539 218.944 168.935 220.138C167.89 220.917 166.325 220.477 165.389 219.569C164.453 218.662 163.958 217.408 163.353 216.254C162.208 214.069 160.538 212.099 158.354 210.954C156.17 209.809 153.436 209.582 151.238 210.699C149.057 211.808 147.681 214.014 145.822 215.604C143.963 217.195 140.893 218.039 139.218 216.256C138.793 215.803 138.507 215.13 138.749 214.557C138.991 213.984 139.931 213.787 140.231 214.332C140.995 215.721 143.108 215.701 144.429 214.825C145.75 213.949 146.577 212.516 147.661 211.359C149.781 209.097 153.003 207.919 156.083 208.28C159.163 208.642 162.024 210.535 163.562 213.228C164.303 214.525 164.76 216.001 165.727 217.139C166.695 218.278 168.453 218.975 169.694 218.143C171.096 217.204 172.924 218.372 174.155 219.527C175.82 221.09 177.442 222.78 178.38 224.863C179.317 226.945 179.466 229.508 178.241 231.435C177.221 233.04 175.269 234.34 175.438 236.233C175.596 237.999 177.628 239.245 177.564 241.016Z" fill="#003049"/>
<path fill-rule="evenodd" clip-rule="evenodd" d="M199.088 161.502C202.073 162.899 204.729 165.134 206.263 168.052C207.798 170.969 208.11 174.591 206.734 177.587C203.888 183.783 194.838 186.195 193.84 192.94C193.586 194.658 193.932 196.444 193.507 198.128C193.214 199.292 192.571 200.331 192.057 201.416C190.954 203.742 190.433 206.342 190.554 208.914C189.404 209.537 188.051 208.211 187.905 206.911C187.758 205.611 188.278 204.321 188.25 203.013C188.198 200.555 186.296 198.598 184.674 196.75C182.241 193.978 180.127 190.715 179.732 187.048C179.604 185.867 179.658 184.662 179.392 183.503C179.107 182.258 178.466 181.128 177.901 179.982C176.375 176.892 175.342 173.324 176.282 170.008C177.221 166.692 180.723 163.948 184.046 164.861C184.991 165.12 185.914 165.65 186.883 165.505C188.584 165.252 189.27 163.223 190.455 161.977C192.58 159.744 196.296 160.195 199.088 161.502M184.633 193.729C186.518 196.209 188.403 198.689 190.287 201.168C192.449 198.892 191.555 195.21 192.212 192.14C193.108 187.958 196.848 185.12 200.089 182.33C203.33 179.539 206.548 175.722 205.82 171.508C205.235 168.122 202.28 165.716 199.447 163.771C197.849 162.675 196.006 161.572 194.101 161.925C192.174 162.281 190.855 163.989 189.467 165.371C188.079 166.754 185.986 167.955 184.25 167.049C181.805 165.774 178.693 167.949 178.004 170.618C177.314 173.287 178.306 176.079 179.394 178.612C180.483 181.144 181.711 183.769 181.505 186.518C181.303 189.193 183.01 191.594 184.633 193.729Z" fill="#003049"/>
<path fill-rule="evenodd" clip-rule="evenodd" d="M34.2886 136.771C34.1663 136.44 34.7475 136.347 35.0592 136.513C35.0458 136.858 34.5157 137.032 34.3003 136.763L34.2886 136.771Z" fill="#003049"/>
<path fill-rule="evenodd" clip-rule="evenodd" d="M260.355 272.573C260.995 272.663 261.335 273.45 261.189 274.08C261.044 274.709 260.57 275.203 260.116 275.662C256.442 279.375 252.769 283.088 249.096 286.8C248.824 287.075 248.506 287.369 248.12 287.357C247.602 287.34 247.263 286.741 247.326 286.226C247.389 285.711 247.728 285.278 248.056 284.877C251.434 280.744 255.099 276.846 259.017 273.222C259.394 272.873 259.847 272.503 260.355 272.573V272.573Z" fill="#003049"/>
<path fill-rule="evenodd" clip-rule="evenodd" d="M152.344 218.877C154.368 219.06 155.925 220.962 156.272 222.964C156.619 224.967 155.995 227.014 155.148 228.861C154.682 229.879 154.146 230.865 153.545 231.81C153.113 232.49 152.562 233.204 151.768 233.336C150.441 233.556 149.509 232.096 148.997 230.852C148.276 229.101 147.615 227.326 147.015 225.531C146.72 224.649 146.436 223.722 146.587 222.805C146.818 221.402 148.009 220.353 149.258 219.675C150.205 219.16 151.27 218.78 152.344 218.877M150.443 229.187C150.598 229.429 150.764 229.677 151.007 229.831C151.206 229.957 151.451 230.01 151.685 229.977C152.287 229.894 152.674 229.314 152.981 228.79C153.786 227.418 154.611 225.978 154.702 224.391C154.792 222.803 153.89 221.036 152.334 220.709C150.513 220.326 148.816 222.151 148.662 224.005C148.508 225.859 149.438 227.621 150.443 229.187Z" fill="#FFB703"/>
<path fill-rule="evenodd" clip-rule="evenodd" d="M152.257 222.64C152.757 222.801 153.187 223.166 153.429 223.632C153.644 224.047 153.709 224.538 153.608 224.994C153.377 226.048 152.186 226.784 151.14 226.519C150.094 226.254 149.397 225.039 149.696 224.002C149.994 222.966 151.23 222.308 152.257 222.64ZM152.025 224.827C152.406 224.627 152.066 223.897 151.668 224.06C151.359 224.101 151.154 224.489 151.295 224.767C151.437 225.045 151.871 225.109 152.086 224.883L152.025 224.827Z" fill="#FFB703"/>
<path fill-rule="evenodd" clip-rule="evenodd" d="M259.372 242.589C258.244 241.371 257.23 240.047 256.347 238.64C256.065 238.19 256.65 237.605 257.176 237.675C257.702 237.745 258.089 238.186 258.425 238.598C259.594 240.031 260.763 241.465 261.932 242.899C261.798 243.411 261.152 243.642 260.64 243.506C260.129 243.371 259.732 242.977 259.372 242.589L259.372 242.589Z" fill="#003049"/>
<path fill-rule="evenodd" clip-rule="evenodd" d="M297.892 309.027C297.905 309.194 297.843 309.357 297.779 309.513C297.137 311.076 296.181 312.509 294.986 313.703C293.083 315.603 290.505 317.01 289.486 319.498C289.244 320.088 288.344 320.173 287.877 319.741C287.409 319.309 287.344 318.568 287.552 317.966C287.759 317.363 288.187 316.867 288.606 316.387C289.969 314.824 291.333 313.26 292.697 311.696C293.742 310.498 294.833 309.264 296.281 308.607C296.876 308.337 297.841 308.375 297.892 309.027V309.027Z" fill="#003049"/>
<path fill-rule="evenodd" clip-rule="evenodd" d="M260.762 236.078C262.108 237.659 263.454 239.241 264.801 240.823C265.027 241.088 265.266 241.39 265.25 241.739C265.226 242.281 264.561 242.604 264.034 242.478C263.506 242.351 263.108 241.93 262.754 241.519C261.613 240.196 260.592 238.771 259.705 237.266C259.36 236.679 259.225 235.653 259.901 235.565C260.247 235.52 260.536 235.812 260.762 236.078L260.762 236.078Z" fill="#003049"/>
<path fill-rule="evenodd" clip-rule="evenodd" d="M245.259 244.894C245.055 244.606 244.843 244.232 245.016 243.924C245.302 243.416 246.077 243.81 246.464 244.246C247.831 245.788 248.996 247.511 249.916 249.355C249.039 249.8 248.107 248.896 247.537 248.095C246.778 247.028 246.018 245.961 245.259 244.894Z" fill="#003049"/>
<path fill-rule="evenodd" clip-rule="evenodd" d="M246.473 249.435C247.02 250.005 247.574 250.941 247.004 251.488C246.423 252.044 245.495 251.417 244.983 250.798C243.742 249.3 242.664 247.669 241.771 245.941C242.344 245.45 243.192 246.021 243.715 246.565C244.634 247.522 245.553 248.478 246.473 249.435Z" fill="#003049"/>
<path fill-rule="evenodd" clip-rule="evenodd" d="M247.965 243.828C247.717 243.464 247.484 242.963 247.753 242.614C248.136 242.115 248.916 242.573 249.345 243.033C250.59 244.368 251.836 245.703 253.081 247.038C253.026 247.52 252.46 247.809 251.98 247.738C251.5 247.666 251.099 247.342 250.739 247.016C249.692 246.068 248.759 244.996 247.965 243.828L247.965 243.828Z" fill="#003049"/>
<path fill-rule="evenodd" clip-rule="evenodd" d="M255.816 240.868C256.591 241.857 257.367 242.847 258.143 243.836C258.45 244.229 258.775 244.732 258.574 245.189C258.381 245.629 257.77 245.744 257.328 245.555C256.886 245.366 256.577 244.966 256.289 244.582C255.479 243.501 254.677 242.415 253.883 241.323C253.707 241.082 253.524 240.812 253.55 240.515C253.595 240.02 254.228 239.763 254.701 239.914C255.174 240.065 255.509 240.477 255.816 240.868H255.816Z" fill="#003049"/>
<path fill-rule="evenodd" clip-rule="evenodd" d="M255.231 245.431C255.392 245.606 255.564 245.81 255.547 246.048C255.523 246.364 255.153 246.56 254.839 246.513C254.526 246.466 254.266 246.251 254.031 246.039C252.483 244.647 251.178 242.986 250.193 241.152C250.387 240.648 251.149 240.99 251.515 241.388C252.753 242.735 253.992 244.083 255.231 245.431Z" fill="#003049"/>
<path fill-rule="evenodd" clip-rule="evenodd" d="M270.264 236.508C270.384 236.646 270.511 236.805 270.504 236.989C270.493 237.267 270.163 237.441 269.889 237.394C269.615 237.347 269.394 237.151 269.19 236.963C267.732 235.616 266.338 234.201 265.014 232.724C265.482 232.095 266.471 232.599 267.04 233.14C268.167 234.21 269.243 235.335 270.264 236.508V236.508Z" fill="#003049"/>
<path fill-rule="evenodd" clip-rule="evenodd" d="M265.646 237.853C264.831 236.737 264.016 235.621 263.201 234.505C263.052 234.3 262.895 234.051 262.975 233.811C263.133 233.338 263.851 233.548 264.237 233.863C265.463 234.863 266.503 236.09 267.29 237.462C267.442 237.728 267.589 238.044 267.481 238.331C267.344 238.696 266.843 238.804 266.483 238.651C266.124 238.498 265.876 238.168 265.646 237.853L265.646 237.853Z" fill="#003049"/>
<path fill-rule="evenodd" clip-rule="evenodd" d="M272.15 233.751C271.345 232.886 270.54 232.02 269.735 231.154C269.448 230.846 269.795 230.299 270.213 230.254C270.632 230.209 271.016 230.473 271.347 230.733C271.958 231.21 272.547 231.715 273.112 232.245C273.424 232.539 273.742 232.86 273.859 233.272C273.977 233.684 273.815 234.208 273.41 234.347C272.944 234.508 272.485 234.113 272.15 233.751L272.15 233.751Z" fill="#003049"/>
<path fill-rule="evenodd" clip-rule="evenodd" d="M270.587 235.465C269.473 234.323 268.406 233.134 267.389 231.904C267.212 231.69 267.025 231.426 267.101 231.158C267.186 230.856 267.581 230.738 267.878 230.839C268.175 230.94 268.393 231.19 268.595 231.43C269.526 232.532 270.458 233.634 271.389 234.736C271.641 235.034 271.889 235.503 271.603 235.768C271.315 236.036 270.862 235.747 270.587 235.465V235.465Z" fill="#003049"/>
<path fill-rule="evenodd" clip-rule="evenodd" d="M323.592 306.103C324.85 305.715 328.034 304.851 329.292 304.463C329.855 304.289 330.693 304.266 330.799 304.847C330.886 305.324 330.337 305.649 329.877 305.804C328.606 306.231 325.366 307.003 324.036 307.164C323.563 307.221 322.875 307.044 322.97 306.577C323.026 306.308 323.33 306.184 323.592 306.103Z" fill="#003049"/>
<path fill-rule="evenodd" clip-rule="evenodd" d="M183.068 253.507C185.059 253.536 187.413 254 188.208 255.826C188.954 257.541 187.781 259.603 186.136 260.493C184.491 261.383 182.531 261.405 180.661 261.403C155.142 261.37 129.623 260.754 104.133 259.555C102.544 259.481 102.394 257.189 102.757 255.641C102.973 254.716 103.217 253.742 103.883 253.067C104.842 252.095 106.363 252.028 107.729 252.024C126.054 251.965 144.412 251.907 162.66 253.593C165.55 253.86 168.444 254.171 171.346 254.143C175.261 254.105 179.154 253.45 183.068 253.507M185.926 258.139C186.354 257.305 185.724 256.244 184.868 255.86C184.013 255.477 183.029 255.577 182.096 255.669C170.133 256.845 158.089 255.487 146.089 254.786C137.367 254.276 128.629 254.114 119.894 253.952C116.253 253.884 112.611 253.816 108.97 253.749C107.808 253.727 106.535 253.742 105.643 254.486C104.75 255.23 104.72 256.984 105.828 257.335C106.028 257.398 106.241 257.409 106.451 257.419C132.088 258.665 157.759 259.225 183.427 259.096C184.368 259.091 185.497 258.977 185.926 258.139V258.139Z" fill="#003049"/>
<path fill-rule="evenodd" clip-rule="evenodd" d="M166.777 274.134C169.052 279.116 173.955 282.803 179.372 283.609C181.921 283.987 183.66 286.305 185.112 288.435C186.621 290.647 187.727 294.398 185.233 295.375C194.912 306.048 204.59 316.72 214.268 327.393C215.392 328.633 216.485 330.702 215.181 331.752C214.697 332.141 214.033 332.203 213.412 332.224C205.438 332.491 197.915 328.758 191.014 324.754C181.077 318.988 171.586 312.453 162.654 305.227C156.129 299.948 146.754 298.437 138.901 301.4C134.827 302.937 129.719 299.804 129.244 295.475C128.768 291.147 133.074 286.979 137.384 287.595C130.903 277.979 119.313 272.036 107.722 272.387C93.7319 272.809 79.6861 271.341 66.0858 268.036C64.8913 267.745 63.6086 267.383 62.8593 266.408C61.3654 264.465 62.9327 261.702 64.5747 259.882C76.6736 246.474 95.2901 239.24 113.268 240.962C114.034 241.035 114.451 240.105 114.63 239.356C119.2 220.311 123.77 201.265 128.34 182.219C128.892 179.922 132.387 179.605 134.119 181.21C135.851 182.816 136.232 185.376 136.431 187.729C137.92 205.272 135.321 224.159 144.042 239.454C144.448 240.166 144.907 240.896 145.62 241.3C146.323 241.698 147.17 241.723 147.978 241.737C164.125 242.023 180.272 242.309 196.419 242.595C198.431 242.631 200.901 242.392 201.714 240.551C203.796 235.834 205.879 231.118 207.962 226.401C208.624 224.9 209.538 223.198 211.16 222.951C213.482 222.596 214.952 225.514 214.877 227.862C214.802 230.211 214.012 232.705 215.046 234.815C218.84 230.783 222.698 226.699 227.441 223.844C232.184 220.99 238.011 219.474 243.33 221.007C238.627 228.484 233.925 235.961 229.222 243.438C233.15 246.037 233.46 252.61 229.793 255.567C228.228 256.829 229.47 259.321 230.767 260.858C234.829 265.673 238.892 270.488 242.954 275.303C239.487 276.911 235.448 275.256 232.039 273.529C225.946 270.441 219.998 267.067 214.222 263.422C211.418 261.653 208.329 264.969 205.785 267.094C201.746 270.467 196.17 271.139 190.935 271.672C182.882 272.493 174.829 273.314 166.777 274.134ZM180.823 263.667C185.77 263.938 190.812 264.281 195.612 263.055C200.527 261.799 205.001 258.876 208.124 254.878C208.882 253.907 210.211 253.632 211.425 253.423C215.616 252.702 220.031 251.997 224.035 253.431C225.841 254.078 228.045 253.337 229.094 251.731C230.144 250.124 229.936 247.809 228.618 246.414C227.191 246.375 226.931 248.4 226.174 249.61C225.18 251.2 223.011 251.459 221.138 251.553C214.267 251.899 207.396 252.244 200.525 252.59C198.857 252.674 196.559 252.188 196.609 250.519C196.631 249.784 197.168 249.177 197.694 248.664C199.539 246.863 201.644 245.33 203.925 244.127C176.026 244.339 148.123 244.025 120.236 243.186C106.523 242.774 91.8995 242.462 80.2146 249.651C79.1238 250.322 78.2708 252.301 79.5366 252.497C83.264 253.072 86.9914 253.647 90.7188 254.222C91.1628 254.29 91.6377 254.374 91.9591 254.688C92.9222 255.628 91.5728 257.141 90.3318 257.664C85.2116 259.819 79.1102 259.491 74.2514 256.797C73.1502 256.187 71.8439 255.444 70.722 256.016C69.3666 256.706 69.5529 258.885 70.7025 259.881C71.8522 260.877 73.4895 261.017 75.0077 261.111C88.6456 261.952 102.284 262.794 115.921 263.635C119.755 263.872 123.6 264.108 127.433 263.869C145.206 262.762 163.043 262.694 180.823 263.667ZM200.731 316.537C195.958 309.97 190.521 303.885 184.529 298.406C182.568 296.613 180.84 294.582 179.118 292.557C171.587 283.704 164.057 274.851 156.526 265.998C155.775 265.115 154.475 264.998 153.315 264.962C143.425 264.648 133.502 265.383 123.765 267.15C123.045 267.281 122.269 267.45 121.793 268.006C120.691 269.296 122.069 271.18 123.36 272.28C136.288 283.288 149.691 293.737 163.519 303.589C166.064 305.403 168.647 307.209 171.521 308.436C176.943 310.752 182.365 313.067 187.787 315.383C191.935 317.154 196.88 318.886 200.731 316.537ZM135.984 218.794C135.785 216.208 135.784 213.577 135.073 211.082C133.792 206.588 130.378 203.06 126.98 199.853C126.716 199.604 126.368 199.336 126.028 199.461C125.718 199.574 125.606 199.946 125.535 200.268C123.002 211.802 120.469 223.336 117.936 234.871C117.458 237.048 116.978 239.255 117.081 241.482C125.961 241.594 134.841 241.705 143.721 241.817C139.296 234.938 136.612 226.949 135.984 218.794ZM240.319 222.625C234.803 222.153 229.122 224.181 225.151 228.037C217.877 235.102 210.109 241.658 201.924 247.642C200.803 248.462 199.602 249.37 199.222 250.705C206.08 250.395 212.938 250.086 219.796 249.777C221.605 249.695 223.734 249.424 224.599 247.833C229.331 239.128 234.584 230.705 240.319 222.625ZM64.2882 263.463C64.1013 263.862 63.9358 264.307 64.0396 264.736C64.223 265.495 65.1086 265.81 65.8668 265.994C81.2006 269.714 97.1089 270.194 112.881 270.655C114.45 270.701 116.079 270.737 117.52 270.113C118.961 269.49 120.158 268.008 119.924 266.455C109.672 265.035 99.3238 264.307 88.9737 264.278C82.7733 264.261 76.3964 264.467 70.5837 262.309C69.1814 261.788 67.5945 260.744 67.7731 259.259C66.2797 260.334 65.0676 261.796 64.2882 263.463ZM210.506 260.694C209.956 259.5 208.406 259.058 207.121 259.334C205.836 259.61 204.744 260.423 203.667 261.176C201.179 262.913 198.489 264.445 195.537 265.145C192.963 265.755 190.285 265.712 187.64 265.665C177.986 265.494 168.331 265.323 158.676 265.151C160.826 268.359 163.773 271.964 167.612 271.542C175.121 270.717 182.729 270.914 190.203 269.811C197.677 268.708 205.25 266.121 210.506 260.694ZM232.844 268.953C233.195 268.905 233.605 268.788 233.716 268.451C233.808 268.168 233.639 267.872 233.474 267.624C230.693 263.44 227.268 259.73 223.859 256.04C223.339 255.477 222.796 254.898 222.09 254.601C221.359 254.293 220.535 254.322 219.744 254.382C216.51 254.624 213.307 255.284 210.241 256.339C209.99 256.425 209.699 256.563 209.671 256.826C209.649 257.031 209.802 257.209 209.946 257.356C213.168 260.631 217.199 262.972 221.177 265.271C224.776 267.352 228.724 269.508 232.844 268.953ZM141.159 289.993C140.859 289.761 140.539 289.52 140.162 289.471C139.856 289.431 139.55 289.524 139.256 289.615C138.574 289.827 137.893 290.038 137.212 290.25C136.544 290.457 135.71 291.071 136.095 291.655C137.297 293.474 137.784 295.752 137.433 297.904C137.319 298.602 138.324 298.852 139.029 298.802C142.677 298.545 146.325 298.287 149.973 298.03C150.353 298.003 150.867 297.81 150.778 297.439C147.572 294.957 144.365 292.475 141.159 289.993ZM203.664 240.66C203.407 241.33 204.09 242.058 204.804 242.132C205.518 242.206 206.197 241.846 206.824 241.497C209.084 240.239 211.522 238.777 212.376 236.336C212.654 235.54 212.74 234.692 212.824 233.853C212.968 232.414 213.112 230.975 213.256 229.536C213.287 229.216 213.314 228.87 213.145 228.597C212.975 228.324 212.526 228.213 212.339 228.474C211.581 229.527 210.467 230.32 209.224 230.693C208.686 230.854 208.108 230.946 207.655 231.278C207.115 231.672 206.85 232.332 206.611 232.956C205.629 235.524 204.646 238.092 203.664 240.66ZM181.187 286.781C180.202 284.944 177.489 284.327 175.807 285.557C177.975 287.252 179.199 289.867 181.04 291.913C181.673 292.618 182.497 293.299 183.442 293.237C184.387 293.175 185.169 291.911 184.499 291.241C183.185 289.927 182.065 288.419 181.187 286.781ZM132.965 291.791C131.501 293.22 131.999 295.641 132.603 297.596C132.807 298.255 133.456 299.075 133.995 298.644C134.179 298.498 134.244 298.253 134.299 298.025C134.569 296.902 134.841 295.752 134.72 294.603C134.599 293.454 134.008 292.287 132.965 291.791Z" fill="#003049"/>
<path fill-rule="evenodd" clip-rule="evenodd" d="M294.878 344.391C291.817 341.339 290.366 337.071 289.013 332.965C285.468 338.098 280.87 341.742 275.435 338.679C270 335.616 263.016 326.788 259.114 321.921C252.127 313.206 243.827 305.546 234.58 299.279C239.518 304.697 242.472 311.886 242.768 319.21C246.514 319.171 250.259 319.132 254.005 319.093C241.412 323.385 227.919 325.02 214.665 323.862C221.867 317.806 227.499 309.897 230.868 301.111C230.116 298.734 226.544 299.284 224.458 300.65C222.372 302.015 219.673 303.749 217.663 302.273C215.189 300.456 215.36 294.764 212.422 295.654C204.796 297.964 195.755 293.374 193.121 285.853C191.322 286.978 189.523 288.102 187.724 289.226C186.858 286.44 190.868 284.287 193.571 285.386C196.274 286.485 197.858 289.219 199.732 291.455C201.607 293.691 204.614 295.665 207.289 294.5C212.273 292.329 218.83 296.25 219.275 301.669C223.14 298.567 228.442 297.337 233.279 298.421C230.193 293.952 226.75 289.73 222.993 285.808C225.85 282.002 229.382 278.704 233.375 276.116C231.415 279.82 228.698 283.123 225.441 285.76C242.146 302.138 258.852 318.516 275.557 334.894C276.608 335.925 277.814 337.024 279.287 337.044C280.9 337.066 282.201 335.795 283.301 334.615C291.142 326.201 298.982 317.788 306.823 309.374C308.865 307.182 311.014 304.765 311.321 301.784C311.706 298.041 309.093 294.722 306.598 291.905C296.558 280.571 285.877 269.807 274.621 259.68C269.685 255.238 263.176 250.619 256.966 252.971C249.472 255.809 247.689 267.087 239.992 269.314C242.293 266.151 244.595 262.988 246.896 259.824C242.333 256.523 236.626 249.156 236.329 243.532C239.992 240.196 244.508 237.669 248.253 235.731C244.508 226.912 244.952 225.078 249.962 223.874C254.971 222.67 259.31 221.476 263.914 219.937C276.677 215.668 282.769 195.429 272.056 187.022C266.162 182.398 221.991 137.002 203.025 120.264C204.461 126.67 196.022 132.71 190.422 129.284C191.496 132.977 188.913 137.446 185.098 137.933C181.284 138.42 177.562 134.19 178.898 130.584C180.047 127.479 183.724 126.195 185.86 123.666C187.995 121.136 186.132 115.577 183.23 117.169C181.698 123.338 172.676 125.967 168.07 121.586C166.448 120.044 164.324 119.665 162.152 120.029C159.491 120.476 154.889 121.508 152.921 123.416C149.837 126.405 149.141 130.772 145.47 132.8C144.885 133.124 144.272 133.401 143.624 133.622C138.911 135.228 132.313 130.564 134.759 126.228C121.35 138.592 112.145 155.436 108.98 173.399C115.979 175.395 117.308 184.586 117.288 191.864C109.393 193.867 116.82 208.938 109.992 213.379C102.207 218.441 104.372 230.214 107.454 238.973C99.5634 221.992 98.614 201.905 104.868 184.255C104.25 195.453 103.632 206.651 103.014 217.848C108.308 217.074 110.447 210.621 110.885 205.288C111.322 199.955 111.656 193.68 116.139 190.76C114.465 186.493 113.779 181.842 114.148 177.274C112.199 176.645 110.25 176.016 108.302 175.387C107.131 183.631 97.9737 187.687 90.4223 191.197C82.2702 194.987 74.6006 199.813 67.657 205.524C60.2091 211.648 53.1167 220.069 53.9415 229.676C54.7346 238.914 62.6949 245.977 71.0519 249.992C62.1027 249.973 54.4218 242.012 52.9792 233.179C51.5366 224.347 55.3849 215.262 61.4015 208.637C67.4181 202.012 75.3962 197.508 83.4864 193.682C94.0807 188.672 106.931 182.174 107.327 170.462C107.656 160.698 118.365 151.129 113.235 142.815C106.029 131.137 102.01 117.514 101.722 103.795C101.581 97.0266 102.816 89.365 108.364 85.4861C111.126 83.5549 114.563 82.8806 117.911 82.496C130.329 81.0701 143.122 83.0598 154.519 88.1899C161.246 91.2176 168.593 95.4143 175.515 92.8645C191.655 86.9195 208.823 83.7776 226.023 83.6214C228.315 83.6006 230.218 81.917 231.815 80.2711C238.097 73.7947 243.339 66.3006 250.175 60.4124C257.011 54.5241 266.105 50.285 274.942 52.1073C284.193 54.0151 291.099 62.2531 294.12 71.2021C297.142 80.1511 296.971 89.8191 296.767 99.2624C296.402 116.174 317.614 125.384 323.088 141.389C326.316 150.825 336.964 155.198 346.541 157.982C356.118 160.766 366.846 163.851 371.782 172.517C376.379 180.589 374.106 191.163 368.679 198.702C363.251 206.241 355.215 211.407 347.376 216.39C334.684 224.459 338.247 245.096 328.032 256.135C322.882 261.7 324.64 270.579 327.312 277.675C329.985 284.77 333.271 292.662 330.242 299.613C328.589 288.477 325.684 277.526 321.6 267.034C315.906 271.174 318.789 280.082 322.184 286.249C326.462 294.021 330.74 301.793 335.018 309.565C336.797 312.798 338.636 316.359 337.996 319.993C337.264 324.148 333.562 327.023 330.132 329.48C322.303 335.091 314.473 340.702 306.644 346.312C303.13 348.831 297.94 347.444 294.878 344.391ZM311.588 272.757C310.902 271.984 309.645 272.362 308.706 272.795C307.766 273.229 306.825 273.664 305.885 274.098C305.679 274.193 305.451 274.291 305.232 274.231C304.82 274.119 304.75 273.508 305.009 273.167C305.269 272.827 305.708 272.691 306.115 272.559C306.981 272.277 307.827 271.932 308.642 271.526C309.109 271.294 309.61 270.987 309.736 270.482C309.863 269.977 309.283 269.363 308.854 269.659C307.592 270.528 306.172 271.169 304.684 271.538C304.238 271.649 303.542 271.51 303.647 271.062C303.687 270.891 303.847 270.778 303.996 270.684C305.323 269.85 306.772 269.208 308.282 268.786C308.826 268.634 308.691 267.719 308.173 267.495C307.654 267.27 307.062 267.497 306.544 267.723C305.293 268.269 304.041 268.814 302.79 269.36C302.52 269.478 302.219 269.631 302.147 269.915C302.083 270.17 302.231 270.426 302.372 270.647C303.282 272.072 304.192 273.496 305.102 274.921C305.24 275.138 305.398 275.37 305.643 275.45C305.909 275.536 306.193 275.416 306.447 275.298C308.179 274.489 309.894 273.642 311.588 272.757ZM226.063 117.793C223.117 117.843 220.904 114.493 221.453 111.598C222.001 108.702 224.604 106.535 227.423 105.677C231.254 104.511 235.828 105.193 238.881 102.602C240.253 101.439 241.09 99.767 242.339 98.4726C245.062 95.6513 249.798 95.0544 253.136 97.1119C253.886 95.1455 251.668 93.2442 249.593 92.8941C247.518 92.5439 245.28 92.9621 243.369 92.082C240.011 90.5359 236.057 92.5221 233.369 95.0605C230.681 97.5989 228.478 100.796 225.165 102.438C221.853 104.079 216.841 103.164 215.93 99.5811C215.646 98.4646 215.611 96.9853 214.523 96.6089C212.805 96.0152 211.912 94.0103 212.014 92.1962C212.116 90.382 212.986 88.712 213.837 87.1067C210.471 86.937 207.092 87.0415 203.744 87.4186C202.941 87.5091 201.919 87.8482 201.921 88.6565C201.925 90.327 200.374 91.5253 198.98 92.4464C196.031 94.396 193.081 96.3457 190.132 98.2953C190.224 100.243 193.095 100.708 194.777 99.7222C196.459 98.736 197.643 96.9731 199.456 96.2563C200.425 95.8735 201.488 95.8265 202.528 95.7842C204.305 95.7119 206.082 95.6396 207.859 95.5673C210.136 95.4747 213.208 96.0528 213.329 98.3286C213.428 100.195 211.355 101.285 210.029 102.602C207.009 105.599 207.02 111.399 203.057 112.946C201.648 113.495 201.27 115.446 201.887 116.826C202.505 118.206 203.793 119.144 205.012 120.038C226.287 135.648 263.349 175.893 264.16 176.001C264.971 176.108 265.922 175.526 265.877 174.709C265.759 172.598 265.646 170.447 266.162 168.396C266.679 166.345 267.932 164.371 269.866 163.514C271.648 162.723 274.24 162.544 274.626 160.634C275.489 156.359 279.768 153.054 284.122 153.298C286.262 153.418 288.622 154.235 290.402 153.043C288.966 151.681 286.845 151.4 285.065 150.535C283.285 149.671 281.719 147.482 282.783 145.813C284.353 143.349 282.065 140.126 282.536 137.242C282.735 136.017 283.427 134.934 284.158 133.932C286.636 130.535 289.766 127.616 293.327 125.381C294.155 124.861 294.362 123.767 294.493 122.799C294.808 120.459 295.122 118.12 295.437 115.781C295.657 114.149 295.806 112.277 294.686 111.07C291.041 107.141 284.974 107.013 279.619 107.187C274.263 107.362 268.212 107.293 264.501 103.427C263.35 102.227 261.247 102.635 259.998 103.733C258.749 104.831 258.059 106.413 257.129 107.792C254.225 112.1 248.602 114.383 243.516 113.32C240.792 112.75 238.046 111.314 235.372 112.083C231.807 113.108 229.772 117.729 226.063 117.793ZM328.417 223.826C328.58 224.421 328.82 225.1 329.403 225.3C329.87 225.46 330.375 225.241 330.82 225.026C332.3 224.314 333.779 223.601 335.259 222.889C336.018 222.523 336.871 222.038 337.007 221.206C339.746 204.334 338.952 186.897 334.692 170.343C333.685 166.428 332.483 162.555 330.881 158.844C328.836 154.103 326.156 149.665 323.404 145.295C319.444 139.006 315.317 132.822 311.03 126.751C310.235 127.991 309.998 129.494 309.593 130.911C309.189 132.328 308.51 133.797 307.208 134.488C305.907 135.179 303.907 134.592 303.676 133.137C303.177 129.99 299.801 127.611 296.67 128.2C295.997 128.327 295.774 129.164 295.69 129.844C294.928 136.025 294.166 142.205 293.404 148.386C293.349 148.835 293.326 149.37 293.679 149.653C293.973 149.889 294.393 149.836 294.77 149.83C296.901 149.798 298.759 152.024 298.347 154.115C297.936 156.206 295.372 157.561 293.412 156.724C292.567 156.363 291.904 157.509 291.692 158.404C290.412 163.807 289.132 169.21 287.852 174.613C287.475 176.207 288.851 177.711 290.331 178.411C291.811 179.112 293.503 179.365 294.861 180.28C298.264 182.571 298.117 187.783 300.868 190.825C303.11 193.304 307.257 193.755 309.979 191.816C312.414 190.081 313.472 186.912 313.473 183.922C313.474 181.883 314.74 179.898 316.589 179.038C318.437 178.178 320.771 178.487 322.332 179.8C323.852 181.078 324.54 183.064 325.163 184.95C325.437 185.781 325.712 186.689 325.417 187.514C324.935 188.862 323.278 189.262 321.923 189.725C319.434 190.575 317.252 192.297 315.848 194.521C315.162 195.606 314.697 197.128 315.546 198.091C317.62 200.445 319.694 202.798 321.768 205.151C322.853 206.382 323.97 207.671 324.405 209.253C325.742 214.111 327.079 218.968 328.417 223.826ZM117.141 146.465C120.391 140.398 123.674 134.284 128.089 129.005C131.956 124.382 136.613 120.495 141.264 116.661C147.392 111.611 153.556 106.606 159.758 101.646C162.339 99.5816 164.96 97.5041 167.97 96.137C158.948 92.1613 149.868 88.1658 140.289 85.8304C130.711 83.4951 120.508 82.8863 111.056 85.6925C110.146 85.9628 109.231 86.2704 108.445 86.8037C107.118 87.7042 106.28 89.163 105.651 90.6386C103.179 96.4379 103.317 103.009 104.122 109.261C105.81 122.388 110.276 135.15 117.141 146.465ZM320.849 326.493C320.764 327.375 319.813 328.203 319.015 327.82C318.638 327.639 318.409 327.256 318.201 326.893C315.019 321.337 311.837 315.782 308.655 310.226C306.601 310.999 305.614 313.474 305.845 315.656C306.076 317.838 307.239 319.794 308.375 321.671C310.112 324.543 311.849 327.414 313.586 330.285C312.672 331.225 311.202 329.975 310.526 328.852C308.115 324.851 305.705 320.849 303.294 316.848C298.691 321.583 294.087 326.318 289.484 331.053C292.482 335.739 295.48 340.426 298.478 345.112C299.184 346.216 300.697 346.569 301.978 346.291C303.26 346.014 304.367 345.236 305.436 344.476C313.47 338.762 321.505 333.048 329.539 327.333C330.15 326.899 330.804 326.403 330.984 325.675C331.171 324.914 330.781 324.142 330.404 323.455C312.229 290.392 292.831 258.001 272.264 226.37C271.659 225.439 270.893 224.411 269.785 224.337C269.046 224.288 268.361 224.69 267.731 225.078C259.574 230.098 251.416 235.118 243.259 240.138C241.749 241.067 240.239 241.996 238.728 242.926C238.335 243.168 237.912 243.448 237.78 243.89C237.625 244.413 237.933 244.95 238.231 245.407C241.202 249.972 244.339 254.429 247.633 258.767C251.526 254.577 256.157 250.065 261.874 250.207C266.81 250.329 270.883 253.92 274.478 257.304C276.581 259.283 278.684 261.263 280.787 263.243C277.463 257.016 273.533 251.113 269.071 245.644C268.878 244.723 270.5 244.975 271.125 245.678C277.352 252.682 280.78 261.888 287.338 268.585C294.039 275.428 300.74 282.271 307.441 289.114C310.287 292.021 313.308 295.305 313.532 299.367C313.737 303.076 311.538 306.451 309.327 309.436C313.225 314.038 316.79 318.921 319.986 324.035C320.455 324.786 320.934 325.612 320.849 326.493ZM249.88 87.8701C252.701 88.4293 255.527 88.9894 258.295 89.7711C265.426 91.7846 272.056 95.2301 278.628 98.6523C284.363 101.639 290.131 104.646 295.279 108.559C295.838 94.5688 295.284 80.6775 290.629 67.4725C289.286 63.6646 286.044 59.5584 282.89 57.0375C279.187 54.0777 274.046 53.5568 269.353 54.2282C261.156 55.4009 253.689 59.7914 247.539 65.3377C241.389 70.8839 236.403 77.5756 231.459 84.2195C237.599 85.4364 243.739 86.6532 249.88 87.8701ZM332.233 155.777C340.155 175.985 342.741 198.257 339.663 219.743C349.715 213.983 358.699 206.366 366.027 197.392C369.679 192.92 373.063 187.657 372.825 181.888C372.629 177.148 369.932 172.772 366.372 169.636C362.811 166.501 358.437 164.451 354.042 162.663C346.973 159.789 339.672 157.483 332.233 155.777ZM316.699 190.329C318.561 188.963 320.553 187.776 322.639 186.787C322.633 185.456 322.619 184.081 322.085 182.862C321.551 181.643 320.352 180.611 319.024 180.702C317.628 180.798 316.575 182.073 316.131 183.401C315.688 184.728 315.681 186.159 315.374 187.525C314.526 191.3 311.18 194.383 307.348 194.918C303.515 195.453 299.452 193.406 297.602 190.007C296.111 187.268 295.888 183.723 293.512 181.702C292.196 180.583 290.445 180.153 288.763 179.757C288.373 179.666 287.957 179.575 287.578 179.705C286.968 179.913 286.681 180.595 286.466 181.203C285.026 185.274 283.586 189.346 282.146 193.417C281.613 194.923 281.175 196.849 282.366 197.914C293.358 207.752 297.833 223.399 309.012 233.024C309.344 233.309 309.751 233.607 310.176 233.506C315.509 232.24 320.68 230.29 325.52 227.719C325.906 227.514 326.307 227.288 326.528 226.912C326.753 226.531 326.751 226.062 326.728 225.62C326.569 222.577 325.665 219.577 324.116 216.953C323.384 215.713 322.485 214.487 322.346 213.053C322.226 211.829 322.681 210.573 322.391 209.378C322.153 208.402 321.454 207.615 320.778 206.871C318.869 204.77 316.96 202.669 315.051 200.568C314.107 199.529 313.126 198.42 312.837 197.046C312.273 194.369 314.494 191.948 316.699 190.329ZM197.056 128.471C199.307 127.117 200.672 124.414 200.426 121.798C200.066 117.98 196.778 115.197 193.743 112.854C188.77 109.013 177.397 99.6824 172.397 97.6768C167.397 95.6711 145.274 115.405 137.587 122.971C137.199 123.353 136.794 123.77 136.686 124.303C136.577 124.837 134.228 130.583 138.958 131.979C143.688 133.376 144.195 132.299 146.127 130.583C148.059 128.866 149.184 126.43 150.092 124.01C150.868 121.943 153.212 120.954 155.375 120.513C157.539 120.073 159.869 119.909 161.659 118.615C163.522 117.269 166.124 117.347 168.248 118.228C170.372 119.108 172.126 120.674 173.836 122.212C175.264 123.496 177.572 122.06 178.453 120.353C179.333 118.645 179.703 116.539 181.242 115.39C183.444 113.748 186.822 115.218 188.178 117.607C190.106 121.004 188.743 125.854 185.328 127.75C183.349 128.848 180.453 129.584 180.374 131.846C180.335 132.971 181.12 133.96 181.995 134.668C183.564 135.938 186.12 136.54 187.457 135.028C189.362 132.873 187.235 128.318 189.874 127.173C192.204 126.162 194.878 129.781 197.056 128.471ZM257.234 104.361C258.024 103.136 258.815 101.794 260.132 101.17C261.815 100.372 263.836 101.006 265.432 101.965C267.029 102.924 268.455 104.208 270.206 104.843C271.988 105.488 273.941 105.401 275.834 105.306C278.983 105.147 282.132 104.988 285.281 104.829C266.247 93.8005 244.837 86.0662 222.84 85.8489C220.986 85.8305 219.089 85.8728 217.349 86.5143C215.61 87.1557 214.029 88.5059 213.583 90.3058C212.904 93.0467 215.398 95.9765 218.22 96.0639C216.746 97.1432 216.973 99.6501 218.378 100.819C219.782 101.988 221.884 101.978 223.57 101.275C225.256 100.571 226.623 99.2875 227.949 98.0307C230.417 95.6917 232.886 93.3527 235.354 91.0136C236.906 89.5435 239.321 89.4812 241.418 89.896C243.515 90.3109 245.567 91.1139 247.704 91.062C252.19 90.9531 256.164 95.5592 255.399 99.9813C253.385 98.0823 250.456 97.2021 247.729 97.6768C245.002 98.1514 242.543 99.9695 241.289 102.437C240.273 104.438 238.004 105.495 235.799 105.907C233.593 106.318 231.314 106.232 229.116 106.686C226.919 107.14 224.678 108.297 223.779 110.353C222.88 112.409 224.055 115.342 226.289 115.549C228.892 115.79 230.411 112.734 232.6 111.306C234.684 109.947 237.403 110.125 239.834 110.654C242.265 111.182 244.695 112.015 247.173 111.801C251.48 111.428 254.892 107.994 257.234 104.361ZM326.938 229.685C321.95 231.608 316.963 233.531 311.976 235.454C311.282 235.721 310.437 236.405 310.854 237.021C315.611 244.042 319.273 251.803 321.667 259.939C321.9 260.731 323.102 260.139 323.572 259.46C327.934 253.153 331.411 246.236 333.872 238.974C334.317 237.659 334.732 236.239 334.35 234.905C333.75 232.809 331.496 231.751 329.835 230.338C329.377 229.947 328.913 229.496 328.317 229.409C327.847 229.341 327.38 229.514 326.938 229.685ZM269.403 167.322C267.112 169.755 269.037 173.876 267.86 177.003C267.599 177.697 267.177 178.428 267.418 179.129C267.537 179.478 267.806 179.751 268.067 180.013C268.881 180.829 269.696 181.645 270.511 182.461C271.15 183.102 272.188 183.766 272.854 183.153C275.594 180.633 278.913 178.747 282.48 177.683C283.507 177.376 284.618 177.099 285.335 176.302C285.968 175.6 286.172 174.622 286.352 173.694C287.359 168.498 288.359 163.3 289.353 158.102C289.43 157.696 289.505 157.261 289.34 156.882C289.164 156.481 288.759 156.235 288.363 156.047C284.351 154.135 278.955 156.094 277.102 160.134C276.474 161.505 276.183 163.093 275.127 164.17C273.589 165.74 270.91 165.722 269.403 167.322ZM189.399 100.856C188.624 100.152 187.821 99.2684 187.898 98.2237C187.979 97.1101 189.011 96.3422 189.945 95.731C193.256 93.5655 196.567 91.3999 199.878 89.2344C199.798 88.5913 198.896 88.5233 198.258 88.6393C189.685 90.1983 181.286 92.7114 173.265 96.1171C182.21 101.631 190.791 107.735 198.934 114.376C199.923 112.132 202.466 111.028 203.972 109.093C205.874 106.65 206.017 103.02 208.356 100.991C209.504 99.9955 211.209 99.3052 211.439 97.8031C209.431 97.8171 207.422 97.8311 205.414 97.8452C202.971 97.8623 200.37 97.9256 198.34 99.285C196.568 100.472 195.207 102.629 193.075 102.69C191.671 102.73 190.44 101.8 189.399 100.856ZM289.528 234.468C291.087 237.263 292.646 240.058 294.205 242.853C291.349 233.767 287.944 224.854 284.013 216.179C283.874 215.87 283.714 215.541 283.415 215.383C283.046 215.188 282.597 215.316 282.201 215.449C271.128 219.151 260.056 222.853 248.983 226.555C248.646 226.668 248.282 226.802 248.101 227.107C247.884 227.474 248.014 227.94 248.159 228.341C248.808 230.131 249.657 231.849 250.686 233.452C257.63 229.411 264.575 225.371 271.519 221.33C272.588 220.708 273.713 220.069 274.949 220.022C275.972 219.984 276.966 220.359 277.88 220.819C283.305 223.556 286.568 229.162 289.528 234.468ZM239.254 310.081C237.859 307.099 235.464 304.659 232.714 302.849C229.337 309.122 225.462 315.126 221.138 320.787C220.807 321.22 220.685 322.106 221.229 322.068C226.502 321.697 231.775 321.327 237.048 320.956C238.106 320.882 239.378 320.659 239.767 319.672C240.974 316.609 240.65 313.062 239.254 310.081ZM318.867 266.1C319.294 265.446 319.729 264.774 319.902 264.013C320.13 263.005 319.878 261.957 319.606 260.96C317.515 253.296 314.224 245.981 310.118 239.18C309.639 238.388 309.125 237.577 308.346 237.078C307.568 236.579 306.449 236.487 305.77 237.115C304.862 237.953 305.207 239.434 305.62 240.598C308.894 249.822 312.168 259.046 315.442 268.269C315.637 268.819 316.081 269.495 316.625 269.284C316.837 269.202 316.974 269.001 317.098 268.81C317.688 267.907 318.278 267.004 318.867 266.1ZM286.009 148.787C286.957 149.586 288.215 149.889 289.423 150.167C290.391 150.391 290.964 149.127 291.132 148.147C292.252 141.603 292.972 134.997 293.69 128.397C293.141 128.163 292.557 128.612 292.129 129.028C290.589 130.522 289.048 132.016 287.508 133.511C286.436 134.551 285.315 135.675 284.975 137.129C284.328 139.898 286.688 143.053 285.196 145.474C284.545 146.529 285.062 147.988 286.009 148.787ZM282.655 201.14C282.285 200.724 281.886 200.296 281.356 200.124C280.827 199.953 280.137 200.147 279.953 200.672C278.313 205.363 276.673 210.054 275.033 214.744C274.878 215.19 274.982 215.941 275.435 215.807C278.201 214.991 280.752 213.547 283.53 212.771C286.307 211.996 289.555 212.005 291.774 213.847C289.186 209.31 286.124 205.044 282.655 201.14ZM306.343 132.547C307.175 130.29 308.007 128.034 308.839 125.777C309 125.34 308.681 124.885 308.381 124.528C305.411 120.99 302.417 117.428 298.821 114.529C298.668 114.405 298.494 114.276 298.298 114.287C297.924 114.307 297.775 114.771 297.722 115.142C297.275 118.288 296.827 121.435 296.379 124.581C296.249 125.498 297.093 126.295 297.979 126.566C298.864 126.837 299.818 126.762 300.728 126.931C302.407 127.243 303.894 128.445 304.552 130.021C304.969 131.021 305.278 132.351 306.343 132.547ZM279.792 193.324C281.365 189.302 282.807 185.23 284.116 181.115C284.204 180.838 284.292 180.537 284.198 180.262C283.949 179.527 282.861 179.717 282.167 180.065C279.44 181.431 276.818 183.005 274.331 184.77C274.023 184.99 273.685 185.266 273.674 185.645C273.665 185.931 273.849 186.183 274.025 186.409C275.873 188.775 277.796 191.082 279.792 193.324ZM302.859 259.607C302.564 259.286 302.08 259.236 301.644 259.243C300.659 259.259 299.676 259.46 298.763 259.833C298.314 260.016 297.867 260.243 297.383 260.268C296.898 260.293 296.355 260.041 296.236 259.57C297.516 258.655 299.069 258.125 300.643 258.068C301.342 258.042 301.363 256.854 300.748 256.518C300.134 256.181 299.377 256.428 298.723 256.679C297.643 257.094 296.563 257.509 295.482 257.924C295.168 258.045 294.844 257.665 294.89 257.331C294.935 256.997 295.206 256.744 295.474 256.539C296.446 255.797 297.605 255.303 298.814 255.116C299.39 255.027 299.483 254.133 299.062 253.73C298.641 253.327 297.994 253.301 297.412 253.331C295.719 253.42 294.041 253.787 292.466 254.412C293.809 256.822 295.181 259.216 296.58 261.594C296.942 262.209 297.336 262.853 297.963 263.193C299.09 261.77 300.804 260.826 302.61 260.635C303.044 260.589 303.154 259.929 302.859 259.607ZM325.991 303.084C324.956 303.348 323.931 303.649 322.917 303.987C322.64 304.08 322.319 304.224 322.272 304.513C322.244 304.685 322.327 304.853 322.407 305.007C323.003 306.151 323.598 307.295 324.193 308.439C324.435 308.903 324.921 309.448 325.372 309.183C326.856 308.31 328.515 307.733 330.221 307.498C330.69 307.433 330.997 306.929 331.008 306.456C331.019 305.982 330.809 305.534 330.604 305.107C330.253 304.375 329.867 303.603 329.176 303.176C328.246 302.601 327.05 302.814 325.991 303.084ZM329.986 315.656C329.581 315.73 329.113 315.852 328.954 316.232C328.825 316.541 328.962 316.892 329.097 317.199C329.613 318.37 330.13 319.542 330.646 320.714C330.807 321.079 331.021 321.49 331.411 321.577C331.689 321.639 331.97 321.513 332.227 321.39C333.023 321.009 333.819 320.628 334.615 320.246C335.063 320.032 335.537 319.793 335.783 319.361C336.028 318.93 335.898 318.254 335.419 318.122C335.164 318.052 334.894 318.152 334.656 318.268C333.943 318.615 333.3 319.118 332.54 319.339C331.779 319.56 330.81 319.391 330.449 318.685C332.324 318.02 334.116 317.122 335.771 316.018C335.623 314.984 334.173 314.892 333.144 315.08C332.091 315.272 331.038 315.464 329.986 315.656ZM314.67 288.756C314.974 288.425 315.417 288.262 315.841 288.112C317.009 287.696 318.176 287.281 319.344 286.866C319.951 286.65 319.802 285.642 319.229 285.346C318.657 285.051 317.965 285.236 317.349 285.425C316.014 285.837 314.678 286.248 313.343 286.659C313.169 286.713 312.985 286.772 312.863 286.907C312.584 287.217 312.772 287.704 312.97 288.071C313.499 289.048 314.028 290.026 314.558 291.004C314.619 291.118 314.689 291.239 314.806 291.294C314.948 291.361 315.115 291.31 315.263 291.259C316.888 290.697 318.513 290.135 320.139 289.574C320.526 289.44 320.992 289.194 320.959 288.785C320.915 288.227 320.097 288.223 319.563 288.392C317.892 288.923 316.22 289.454 314.548 289.984C314.253 289.644 314.365 289.088 314.67 288.756ZM335.446 224.981C334.007 225.794 332.568 226.607 331.129 227.421C330.956 227.518 330.774 227.625 330.679 227.799C330.428 228.261 330.925 228.763 331.361 229.056C332.257 229.656 333.152 230.255 334.047 230.855C334.223 230.973 334.413 231.096 334.625 231.098C335.107 231.102 335.355 230.535 335.479 230.069C335.876 228.573 336.273 227.078 336.67 225.582C336.72 225.394 336.768 225.188 336.688 225.011C336.493 224.585 335.854 224.75 335.446 224.981ZM316.5 292.106C316.152 292.196 315.757 292.326 315.626 292.66C315.529 292.909 315.618 293.19 315.731 293.432C316.022 294.054 316.483 294.596 317.051 294.984C318.561 294.407 320.071 293.831 321.581 293.255C322.229 293.007 322.997 292.59 322.97 291.896C322.95 291.399 322.481 291.014 321.994 290.918C321.506 290.823 321.005 290.947 320.524 291.071C319.182 291.416 317.841 291.761 316.5 292.106ZM294.625 237.794C295.152 238.825 296.459 239.124 297.603 239.309C299.427 239.604 301.25 239.9 303.074 240.195C303.106 239.161 302.038 238.472 301.09 238.057C299.351 237.295 297.536 236.707 295.681 236.304C295.481 236.26 295.273 236.219 295.074 236.267C294.479 236.41 294.346 237.25 294.625 237.794ZM287.864 237.013C288.006 236.959 288.151 236.904 288.274 236.814C288.818 236.414 288.653 235.474 288.097 235.09C287.542 234.705 286.79 234.757 286.146 234.959C285.502 235.162 284.901 235.497 284.242 235.646C283.352 235.847 282.187 235.838 281.846 236.684C281.555 237.407 282.223 238.225 282.984 238.393C283.745 238.56 284.525 238.279 285.253 238.003C286.123 237.673 286.994 237.343 287.864 237.013ZM291.365 243.532C292.1 243.053 291.76 241.79 290.978 241.391C290.197 240.992 289.257 241.179 288.402 241.374C287.5 241.581 286.536 241.822 285.922 242.514C285.307 243.206 285.308 244.503 286.146 244.895C287.286 245.427 288.355 243.924 289.599 243.738C290.193 243.649 290.861 243.861 291.365 243.532ZM317.164 283.988C317.411 283.906 317.672 283.813 317.83 283.608C318.007 283.378 318.013 283.052 317.913 282.78C317.679 282.144 316.947 281.806 316.27 281.819C315.592 281.831 314.954 282.119 314.339 282.401C313.555 282.761 312.771 283.121 311.988 283.48C311.557 283.678 311.07 283.947 310.999 284.416C310.926 284.892 311.364 285.325 311.835 285.426C312.306 285.526 312.792 285.385 313.253 285.243C314.561 284.84 315.865 284.422 317.164 283.988ZM320.696 300.583C322.384 299.873 324.071 299.164 325.759 298.454C325.919 298.387 326.084 298.316 326.2 298.188C326.543 297.808 326.23 297.146 325.752 296.964C325.274 296.781 324.741 296.922 324.25 297.065C323.109 297.395 321.968 297.725 320.828 298.056C320.197 298.238 319.491 298.484 319.225 299.085C318.862 299.906 319.868 300.931 320.696 300.583ZM332.089 310.422C332.763 310.162 332.517 309.026 331.848 308.754C331.178 308.481 330.427 308.761 329.749 309.011C328.42 309.5 327.05 309.879 325.658 310.142C325.173 310.795 325.764 311.796 326.547 312.017C327.33 312.239 328.155 311.942 328.914 311.649C329.972 311.24 331.031 310.831 332.089 310.422ZM296.158 234.785C297.518 235.142 298.878 235.498 300.238 235.854C300.755 235.99 301.553 235.914 301.516 235.38C299.167 233.756 296.464 232.647 293.652 232.153C293.503 232.126 293.346 232.103 293.204 232.154C292.716 232.331 292.902 233.087 293.269 233.454C294.029 234.212 295.119 234.513 296.158 234.785ZM301.296 229.531C301.777 230.688 302.258 231.844 302.739 233.001C303.029 233.697 303.355 234.438 303.994 234.838C304.633 235.239 305.673 235.069 305.882 234.345C306.041 233.792 305.668 233.24 305.313 232.788C303.959 231.061 302.564 229.366 301.131 227.705C300.814 228.255 301.053 228.945 301.296 229.531ZM298.967 231.705C299.222 231.793 299.533 231.872 299.739 231.697C299.981 231.494 299.894 231.099 299.73 230.829C299.134 229.848 297.927 229.459 296.823 229.145C295.339 228.724 293.854 228.302 292.369 227.88C291.908 227.749 291.56 228.422 291.776 228.851C291.993 229.279 292.489 229.471 292.943 229.628C294.951 230.32 296.959 231.012 298.967 231.705ZM318.819 295.469C318.402 295.595 317.948 295.748 317.72 296.12C317.314 296.781 317.907 297.643 318.605 297.982C320.179 296.701 322.185 295.96 324.215 295.911C324.905 295.895 324.966 294.737 324.38 294.37C323.794 294.004 323.035 294.193 322.374 294.393C321.189 294.752 320.004 295.11 318.819 295.469ZM312.224 277.393C311.267 277.646 310.31 277.899 309.352 278.152C308.475 278.385 307.374 278.959 307.585 279.842C307.764 280.594 308.815 280.765 309.52 280.448C310.225 280.132 310.762 279.518 311.464 279.194C312.611 278.664 314.227 278.857 314.87 277.77C314.322 276.992 313.145 277.15 312.224 277.393ZM276.347 226.77C276.163 226.85 275.973 226.94 275.852 227.1C275.539 227.511 275.88 228.151 276.365 228.331C276.849 228.512 277.386 228.382 277.889 228.262C279.578 227.858 281.297 227.578 283.027 227.425C283.195 226.476 281.955 225.944 280.991 225.906C279.405 225.843 277.804 226.141 276.347 226.77ZM304.34 263.572C304.837 263.047 304.556 261.875 303.847 262.014C301.966 262.381 300.152 263.093 298.524 264.102C298.143 264.877 299.196 265.682 300.049 265.547C300.902 265.412 301.588 264.787 302.387 264.459C303.056 264.185 303.844 264.098 304.34 263.572ZM305.371 246.576C305.148 246.294 304.792 246.161 304.453 246.04C302.809 245.452 301.165 244.864 299.522 244.276C299.072 244.115 298.568 243.955 298.13 244.147C297.692 244.339 297.518 245.064 297.946 245.276C300.053 246.317 302.291 247.089 304.592 247.568C304.831 247.618 305.098 247.66 305.305 247.529C305.608 247.336 305.594 246.857 305.371 246.576ZM297.631 227.235C297.865 227.373 298.174 227.111 298.18 226.838C298.186 226.566 298.003 226.329 297.818 226.128C296.052 224.201 293.461 223.301 290.982 222.473C290.353 222.262 289.433 222.191 289.25 222.828C292.116 224.154 294.914 225.625 297.631 227.235ZM334.195 312.712C334.047 312.195 333.501 311.874 332.967 311.82C332.432 311.766 331.902 311.925 331.388 312.082C330.491 312.356 329.594 312.63 328.697 312.904C328.078 313.094 327.324 313.467 327.376 314.112C327.419 314.638 328.031 314.952 328.556 314.902C329.081 314.852 329.544 314.555 330.019 314.327C331.057 313.831 332.241 313.645 333.38 313.8C333.913 313.872 334.343 313.228 334.195 312.712ZM277.948 230.7C277.941 231.185 278.32 231.648 278.798 231.736C279.106 231.793 279.421 231.708 279.724 231.623C281.469 231.137 283.215 230.65 284.961 230.164C284.988 229.673 284.565 229.249 284.094 229.107C283.624 228.965 283.119 229.038 282.633 229.111C281.365 229.304 280.097 229.497 278.829 229.69C278.349 229.763 277.956 230.214 277.948 230.7ZM306.783 265.618C306.853 265.162 306.404 264.76 305.947 264.702C305.489 264.645 305.04 264.832 304.616 265.015C303.269 265.596 301.922 266.178 300.575 266.76C300.174 267.268 300.667 268.075 301.299 268.218C301.93 268.361 302.571 268.072 303.154 267.791C304.075 267.347 304.995 266.904 305.915 266.46C306.294 266.277 306.72 266.034 306.783 265.618ZM287.516 218.969C287.671 219.246 287.98 219.393 288.269 219.523C290.67 220.598 293.07 221.674 295.471 222.749C295.897 222.94 296.518 223.07 296.729 222.653C296.954 222.205 296.398 221.778 295.937 221.582C293.354 220.485 290.772 219.388 288.189 218.29C288.059 218.235 287.921 218.179 287.782 218.202C287.469 218.255 287.361 218.693 287.516 218.969ZM299.948 249.938C299.867 249.904 299.781 249.869 299.695 249.886C299.606 249.903 299.532 249.981 299.519 250.071C299.729 251.508 301.341 252.216 302.722 252.664C304.527 253.25 306.332 253.836 308.137 254.422C308.57 253.942 307.862 253.277 307.266 253.026C304.827 251.997 302.387 250.967 299.948 249.938ZM286.601 233.101C286.802 232.722 286.499 232.248 286.117 232.051C285.45 231.708 284.645 231.899 283.921 232.098C283.097 232.324 282.273 232.551 281.448 232.777C280.854 232.94 280.138 233.248 280.116 233.863C280.1 234.324 280.534 234.701 280.988 234.785C281.441 234.869 281.903 234.736 282.345 234.604C283.52 234.253 284.696 233.902 285.872 233.551C286.153 233.467 286.463 233.361 286.601 233.101ZM327.467 299.944C326.977 299.661 326.36 299.826 325.821 299.999C324.105 300.548 322.39 301.096 320.674 301.645C320.295 302.252 320.985 303.06 321.7 303.103C322.415 303.146 323.064 302.728 323.695 302.39C324.844 301.775 326.109 301.379 327.404 301.23C327.966 301.165 327.957 300.228 327.467 299.944ZM294.701 247.86C294.151 247.712 293.57 247.815 293.01 247.918C292.318 248.046 291.626 248.174 290.933 248.301C290.149 248.446 289.153 248.852 289.236 249.646C289.285 250.115 289.748 250.453 290.214 250.521C290.68 250.589 291.148 250.45 291.599 250.313C292.98 249.892 294.362 249.472 295.743 249.051C295.757 248.482 295.251 248.007 294.701 247.86ZM289.989 238.553C289.605 238.161 288.972 238.133 288.444 238.285C287.917 238.438 287.444 238.738 286.929 238.927C286.321 239.15 285.664 239.216 285.058 239.445C284.453 239.674 283.868 240.131 283.763 240.77C283.99 241.302 284.754 241.243 285.312 241.092C286.792 240.694 288.271 240.295 289.751 239.897C290.281 239.754 290.373 238.946 289.989 238.553ZM287.93 245.793C287.314 245.972 287.42 246.991 287.982 247.301C288.544 247.61 289.238 247.439 289.855 247.261C291.148 246.888 292.442 246.514 293.735 246.14C293.83 245.494 293.239 244.909 292.601 244.769C291.963 244.628 291.304 244.812 290.677 244.994C289.761 245.261 288.846 245.527 287.93 245.793ZM295.269 154.793C296.091 154.201 295.965 152.979 295.989 151.966C294.917 151.835 293.743 151.726 292.839 152.317C291.935 152.908 291.693 154.503 292.661 154.983C292.993 155.148 293.381 155.143 293.752 155.135C294.279 155.124 294.841 155.101 295.269 154.793ZM297.342 240.946C296.824 240.893 296.069 241.122 296.217 241.621C296.287 241.861 296.551 241.979 296.786 242.064C299.04 242.878 301.393 243.418 303.777 243.666C304.072 243.598 304.159 243.181 304.005 242.92C303.85 242.659 303.553 242.525 303.272 242.412C301.376 241.65 299.374 241.155 297.342 240.946ZM286.851 215.924C288.801 216.925 290.788 217.855 292.807 218.708C293.199 218.874 293.644 219.038 294.038 218.877C294.432 218.715 294.583 218.055 294.193 217.884C291.897 216.88 289.602 215.875 287.306 214.87C286.942 214.711 286.422 214.597 286.225 214.943C286.009 215.322 286.463 215.724 286.851 215.924ZM306.149 249.528C305.816 249.227 305.37 249.092 304.94 248.965C303.128 248.433 301.317 247.901 299.506 247.369C299.256 247.295 298.977 247.224 298.742 247.339C298.508 247.454 298.423 247.848 298.658 247.963C301.136 249.178 303.751 250.111 306.439 250.739C306.661 250.349 306.481 249.83 306.149 249.528ZM307.569 277.478C308.861 277.022 310.152 276.565 311.444 276.108C312.012 275.907 312.621 275.674 312.947 275.167C312.864 274.712 312.372 274.426 311.91 274.417C311.447 274.408 311.01 274.608 310.591 274.804C309.459 275.332 308.327 275.861 307.195 276.39C306.786 276.581 306.316 276.862 306.308 277.313C306.521 277.727 307.131 277.634 307.569 277.478ZM297.308 251.65C297.609 251.314 297.338 250.731 296.919 250.563C296.499 250.396 296.027 250.511 295.591 250.628C294.108 251.024 292.626 251.421 291.144 251.818C290.875 252.129 291.117 252.656 291.495 252.819C291.873 252.982 292.306 252.895 292.708 252.806C294.046 252.509 295.383 252.212 296.72 251.915C296.934 251.868 297.162 251.812 297.308 251.65ZM315.419 279.428C315.113 279.361 314.801 279.481 314.512 279.6C312.931 280.245 311.351 280.891 309.771 281.537C309.314 281.724 309.498 282.501 309.963 282.67C310.427 282.84 310.935 282.62 311.38 282.405C312.738 281.748 314.095 281.091 315.453 280.433C315.607 280.359 315.772 280.274 315.848 280.12C315.986 279.84 315.725 279.495 315.419 279.428ZM303.817 254.334C303.209 254.109 302.332 253.991 302.089 254.593C304.23 255.696 306.502 256.546 308.841 257.12C309.319 256.831 308.722 256.15 308.199 255.956C306.738 255.416 305.278 254.875 303.817 254.334ZM274.359 224.741C273.95 225.206 274.352 226.087 274.971 226.081C276.386 225.158 278.037 224.601 279.722 224.48C279.188 223.812 278.263 223.559 277.41 223.625C276.558 223.692 275.753 224.032 274.967 224.367C274.746 224.462 274.517 224.561 274.359 224.741ZM308.965 259.442C309.428 259.554 310.157 259.424 310.042 258.961C308.107 258.088 306.069 257.446 303.983 257.053C303.753 257.364 303.891 257.834 304.179 258.092C304.467 258.35 304.859 258.449 305.235 258.54C306.478 258.841 307.721 259.141 308.965 259.442ZM307.501 261.865C308.585 262.2 309.706 262.412 310.837 262.493C311.064 262.194 310.934 261.737 310.657 261.483C310.38 261.23 310 261.129 309.636 261.036C308.483 260.743 307.329 260.449 306.175 260.156C305.756 260.877 306.705 261.619 307.501 261.865ZM332.167 323.367C331.908 324.001 332.244 324.889 332.924 324.977C333.769 324.165 334.496 323.229 335.071 322.208C334.744 321.854 334.165 321.939 333.712 322.106C333.07 322.343 332.425 322.733 332.167 323.367ZM314.101 270.682C313.551 270.169 312.871 269.796 312.143 269.608C312.026 270.64 312.618 271.715 313.553 272.167C313.776 272.276 314.042 272.35 314.271 272.253C314.849 272.007 314.561 271.11 314.101 270.682ZM311.394 264.198C311.015 263.925 310.526 263.873 310.061 263.829C309.489 263.776 308.916 263.723 308.343 263.669C308.066 264.337 308.852 264.987 309.567 265.092C310.283 265.197 311.066 265.054 311.691 265.417C311.975 265.046 311.772 264.471 311.394 264.198ZM315.83 276.781C316.055 276.972 316.331 277.143 316.625 277.111C316.728 275.706 315.779 274.399 314.597 273.631C314.458 274.797 314.937 276.019 315.83 276.781ZM312.163 267.31C311.5 266.945 310.72 266.795 309.969 266.889C310.241 267.621 310.89 268.201 311.648 268.391C312.053 268.492 312.56 268.447 312.781 268.092C313.002 267.737 312.565 267.15 312.223 267.39M275.037 221.79C274.409 221.902 273.819 222.221 273.383 222.687C274.164 222.906 275.053 222.684 275.639 222.123C275.495 221.929 275.271 221.796 275.031 221.763" fill="#003049"/>
<path fill-rule="evenodd" clip-rule="evenodd" d="M261.555 284.292C267.966 278.134 276.963 279.003 283.257 285.759C288.73 291.638 287.429 299.404 281.214 305.917C278.869 308.349 274.162 309.963 270.756 309.568C267.872 309.281 263.382 307.156 260.715 305.197C259.481 304.29 258.351 302.42 257.287 299.58L257.129 299.155C255.238 293.91 256.515 288.366 260.801 284.886L261.002 284.726L261.047 284.664C261.084 284.618 261.127 284.575 261.176 284.534L261.254 284.474L261.341 284.418L261.524 284.326L261.555 284.292ZM272.699 305.443L270.76 307.517L270.974 307.535C272.961 307.679 274.906 307.368 276.674 306.616L276.772 306.573L276.635 306.565C275.414 306.478 274.123 306.105 272.781 305.482L272.699 305.443ZM267.042 301.548L266.861 301.382L266.67 301.568C265.918 302.3 265.154 303.051 264.373 303.824L263.488 304.703C263.738 304.886 263.999 305.064 264.27 305.238C265.496 306.037 266.821 306.643 268.191 307.036L268.485 307.117L269.902 305.625L270.963 304.502L270.894 304.461C269.561 303.643 268.251 302.638 267.042 301.548ZM276.29 301.6L273.98 304.073L274.096 304.124C275.894 304.877 277.493 305.02 278.869 304.465L279.014 304.403L278.875 304.245C278.18 303.468 277.432 302.697 276.614 301.909L276.29 301.6ZM262.367 296.382L261.957 296.785C261.366 297.36 260.77 297.931 260.169 298.498L259.222 299.382L259.302 299.572C259.942 301.048 260.835 302.332 261.997 303.456L262.039 303.496L262.171 303.362C263.012 302.508 263.882 301.642 264.788 300.757L265.492 300.07L265.301 299.877C264.247 298.806 263.345 297.756 262.587 296.696L262.367 296.382ZM280.065 297.561L277.543 300.26L277.569 300.284C278.536 301.207 279.421 302.113 280.242 303.028L280.491 303.309L280.499 303.3C281.36 302.131 281.212 300.226 280.178 297.817L280.065 297.561ZM271.241 297.195L271.054 297.371C270.191 298.18 269.317 299.011 268.426 299.868L268.174 300.11L268.409 300.317C269.642 301.394 270.823 302.3 272.004 303.029L272.227 303.164L273.81 301.483L274.899 300.322L274.539 300.003C273.886 299.426 273.18 298.821 272.292 298.075L271.241 297.195ZM284.715 292.587L281.226 296.32L281.339 296.539C281.531 296.917 281.72 297.302 281.905 297.692L282.18 298.283L282.435 298.851C282.696 299.401 282.876 299.949 282.972 300.488L282.987 300.58L283.091 300.393C284.503 297.804 285.081 295.139 284.727 292.664L284.715 292.587ZM277.04 292.546L276.861 292.309L276.224 292.843L274.451 294.309L274.134 294.576C273.807 294.851 273.515 295.103 273.244 295.343L272.93 295.625L272.605 295.925L273.337 296.535C274.152 297.219 274.863 297.827 275.527 298.414L276.158 298.977L278.186 296.804L279.151 295.766L279.144 295.752C278.537 294.683 277.816 293.59 277.04 292.546ZM266.237 292.765L266.086 292.616L266.038 292.667C265.444 293.288 264.846 293.904 264.243 294.516L263.641 295.121L263.767 295.313C264.5 296.412 265.407 297.484 266.465 298.524L266.732 298.783L266.781 298.829L266.863 298.75C267.474 298.166 268.101 297.573 268.749 296.964L269.793 295.987L269.649 295.866C268.474 294.866 267.34 293.834 266.237 292.765ZM259.788 288.805L259.73 288.901C258.295 291.315 257.852 294.315 258.518 297.173L258.578 297.417L258.608 297.534L258.909 297.253C259.539 296.66 260.163 296.062 260.783 295.458L261.414 294.838L261.354 294.729C260.321 292.806 259.78 290.854 259.788 288.849L259.788 288.805ZM271.192 286.998L270.443 287.858C269.593 288.825 268.732 289.782 267.858 290.728L267.343 291.281L267.472 291.406C268.489 292.39 269.543 293.348 270.644 294.289L271.156 294.722L271.644 294.272C271.958 293.987 272.294 293.694 272.675 293.371L273.298 292.849L274.763 291.641C275.028 291.423 275.264 291.226 275.483 291.041L275.698 290.858L275.594 290.737C275.091 290.154 274.618 289.653 274.225 289.285L274.109 289.178C273.311 288.458 272.438 287.799 271.465 287.172L271.192 286.998ZM281.77 286.893L281.692 287.031C280.883 288.402 279.768 289.686 278.252 291.085L278.125 291.2L278.17 291.263C278.833 292.194 279.461 293.167 280.056 294.183L280.272 294.558L281.968 292.725L284.115 290.396L284.065 290.274C283.572 289.101 282.838 288.001 281.864 286.988L281.77 286.893ZM261.689 287.936L261.681 288.015C261.506 289.865 261.869 291.684 262.717 293.473L262.739 293.517L262.965 293.291C263.465 292.784 263.963 292.274 264.457 291.759L264.834 291.364L264.681 291.208C263.811 290.312 262.958 289.387 262.116 288.427L261.689 287.936ZM262.532 285.891L262.403 285.953L262.436 285.993C263.584 287.363 264.754 288.66 265.965 289.905L266.089 290.031L266.594 289.489C267.481 288.528 268.355 287.557 269.217 286.574L269.637 286.091L269.592 286.067C269.378 285.951 269.16 285.835 268.936 285.719L268.595 285.544C266.597 284.563 265.121 284.672 262.733 285.795L262.532 285.891ZM275.028 282.392L274.292 283.305C273.795 283.916 273.294 284.523 272.788 285.126L272.433 285.546L272.523 285.603C273.862 286.467 275.002 287.404 275.94 288.442L276.153 288.684C276.36 288.925 276.565 289.169 276.767 289.417L276.999 289.706L277.031 289.677C278.524 288.285 279.579 287.017 280.302 285.655L280.323 285.613L280.132 285.462C278.196 283.94 276.778 283.036 275.277 282.48L275.028 282.392ZM272.068 281.868C270.171 281.855 268.444 282.193 266.851 282.89L266.76 282.93L266.918 282.951C267.268 283.002 267.61 283.091 267.947 283.218L268.115 283.285C269.018 283.683 269.848 284.081 270.627 284.495L270.887 284.636L271.398 284.034C271.917 283.415 272.432 282.792 272.942 282.166L273.124 281.939L272.902 281.914C272.718 281.895 272.532 281.882 272.347 281.875L272.068 281.868Z" fill="#FFB703"/>
<path fill-rule="evenodd" clip-rule="evenodd" d="M304.305 152.023C304.905 150.399 307.063 149.729 308.656 150.405C310.249 151.082 311.237 152.773 311.487 154.486C311.736 156.198 311.358 157.938 310.87 159.599C310.426 161.113 309.889 162.6 309.265 164.049C309.207 164.183 309.129 164.334 308.986 164.366C308.834 164.401 308.693 164.282 308.584 164.171C305.877 161.429 304.246 157.653 304.104 153.803C304.082 153.202 304.097 152.586 304.305 152.023ZM308.984 152.419C308.54 152.038 307.966 151.789 307.381 151.806C306.017 151.848 305.064 153.336 305.095 154.702C305.125 156.067 305.852 157.306 306.558 158.475C307.064 159.312 307.569 160.149 308.074 160.986C308.247 161.272 308.586 161.597 308.854 161.399C308.962 161.32 309.004 161.18 309.039 161.05C309.246 160.29 309.453 159.529 309.66 158.769C309.956 157.682 310.254 156.577 310.235 155.45C310.217 154.323 309.839 153.152 308.984 152.419L308.984 152.419Z" fill="#FFB703"/>
<path fill-rule="evenodd" clip-rule="evenodd" d="M308.091 156.788C307.758 156.882 307.395 156.864 307.073 156.739C306.449 156.496 306.018 155.827 306.054 155.157C306.09 154.488 306.591 153.87 307.238 153.695C308.218 153.43 309.322 154.334 309.257 155.347C309.215 156.005 308.725 156.61 308.091 156.788Z" fill="#FFB703"/>
</svg>
