<svg width="32" height="32" viewBox="0 0 32 32" fill="none" xmlns="http://www.w3.org/2000/svg">
<mask id="mask0_933_82" style="mask-type:luminance" maskUnits="userSpaceOnUse" x="0" y="0" width="32" height="32">
<path d="M0 1.90735e-06H32V32H0V1.90735e-06Z" fill="white"/>
</mask>
<g mask="url(#mask0_933_82)">
<path d="M4.37812 12.7042C4.01193 12.3385 4.01193 11.7448 4.37812 11.3785C4.7438 11.0123 5.33755 11.0123 5.70374 11.3785L7.36749 13.0423V8.25346C7.36749 7.73534 7.78749 7.31596 8.30499 7.31596C8.82249 7.31596 9.24249 7.73534 9.24249 8.25346V9.91721L10.9062 8.25346C11.2726 7.88721 11.8663 7.88721 12.2319 8.25346C12.5982 8.61971 12.5982 9.21346 12.2319 9.57915L9.24249 12.5692V20.6317C12.7822 20.2252 15.595 17.4842 16.4132 14.0917C16.9069 12.0467 16.6331 9.92721 15.5994 7.79284C14.8119 6.16659 13.6069 4.54965 11.9157 2.85028C10.8431 1.77215 9.86062 0.905275 8.91249 0.19965C8.56724 -0.0611627 8.1003 -0.0719127 7.73999 0.19965C6.79187 0.905275 5.80999 1.77215 4.73687 2.85028C3.04568 4.54965 1.84062 6.16659 1.05312 7.79284C0.0193655 9.92721 -0.254384 12.0467 0.239366 14.0917C1.05874 17.4885 3.86412 20.202 7.36749 20.628V15.6942L4.37812 12.7042Z" fill="#62C048"/>
<path d="M28.25 25.9505H18.6256V24.0755H28.25V25.9505ZM28.25 30.125H18.6256V27.8256H28.25V30.125ZM31.0625 24.0755C31.58 24.0755 32 23.6555 32 23.138V19.388C32 18.8705 31.58 18.4505 31.0625 18.4505H15.8131C15.2956 18.4505 14.8756 18.8705 14.8756 19.388V23.138C14.8756 23.6555 15.2956 24.0755 15.8131 24.0755H16.7506V25.9505H15.8131C15.2954 25.9505 14.8756 26.3703 14.8756 26.888C14.8756 27.4058 15.2954 27.8255 15.8131 27.8255H16.7506V30.125H9.2425V20.6318C8.62481 20.703 7.99544 20.7051 7.3675 20.628V30.125H0.9375C0.41975 30.125 0 30.5447 0 31.0625C0 31.5803 0.41975 32 0.9375 32H31.0625C31.5802 32 32 31.5803 32 31.0625C32 30.5447 31.5802 30.125 31.0625 30.125H30.125V27.8255H31.0625C31.5802 27.8255 32 27.4058 32 26.888C32 26.3703 31.5802 25.9505 31.0625 25.9505H30.125V24.0755H31.0625Z" fill="#62C048"/>
</g>
</svg>
