<svg width="32" height="32" viewBox="0 0 32 32" fill="none" xmlns="http://www.w3.org/2000/svg">
<g clip-path="url(#clip0_933_77)">
<path d="M31.2196 8.16109L16.5523 1.49432C16.2017 1.33514 15.7994 1.33514 15.4488 1.49432L0.781737 8.16109C0.210446 8.42086 -0.102543 9.0439 0.0305143 9.65743C0.163327 10.271 0.705809 10.7085 1.3335 10.7085H14.6673V20.0422H8.00026V22.709H14.6673V30.709H17.3338V22.709H24.0008V20.0422H17.3338V10.7085H30.6676C31.2799 10.7085 31.8248 10.2756 31.9654 9.68014C32.1097 9.06807 31.7916 8.42134 31.2196 8.16109Z" fill="#62C048"/>
<path d="M8.0005 24.042H2.667C1.93067 24.042 1.3335 24.6392 1.3335 25.3755V29.3755C1.3335 30.1118 1.93067 30.709 2.667 30.709H8.0005C8.73683 30.709 9.33376 30.1118 9.33376 29.3755V25.3755C9.33376 24.6392 8.73683 24.042 8.0005 24.042Z" fill="#62C048"/>
<path d="M29.3343 24.042H24.001C23.2645 24.042 22.6675 24.6392 22.6675 25.3755V29.3755C22.6675 30.1118 23.2645 30.709 24.001 30.709H29.3343C30.0709 30.709 30.6678 30.1118 30.6678 29.3755V25.3755C30.6678 24.6392 30.0709 24.042 29.3343 24.042Z" fill="#62C048"/>
</g>
<defs>
<clipPath id="clip0_933_77">
<rect width="32" height="32" fill="white"/>
</clipPath>
</defs>
</svg>
