<svg width="32" height="32" viewBox="0 0 32 32" fill="none" xmlns="http://www.w3.org/2000/svg">
<path d="M16 27.072C22.4 27.072 26.72 24.64 28.608 22.464C28.8 22.24 28.896 21.952 28.896 21.632V20.896C28.896 20.448 28.352 20.192 28.032 20.512C25.856 22.528 21.728 24.576 16 24.576C10.272 24.576 6.14399 22.528 3.99999 20.544C3.67999 20.224 3.13599 20.48 3.13599 20.928V21.664C3.13599 21.952 3.23199 22.272 3.42399 22.496C5.27999 24.64 9.59999 27.072 16 27.072Z" fill="#62C048"/>
<path d="M6.91199 14.048C7.07199 14.048 7.19999 13.984 7.29599 13.888C7.74399 13.376 9.56799 12.352 10.4 12.224C10.464 12.288 10.496 12.384 10.528 12.512C10.56 12.704 10.592 13.088 10.304 13.568C10.24 13.696 9.98399 13.952 9.75999 14.208C8.89599 15.136 7.42399 16.736 7.07199 18.368C6.84799 19.392 7.16799 20.832 7.42399 21.792C8.67199 22.4 10.176 22.944 11.904 23.264C12.48 22.656 13.728 21.664 15.968 21.664H16C18.368 21.664 20.16 22.528 21.12 23.136C22.688 22.816 24.032 22.304 25.216 21.6C24.992 20.864 24.64 19.424 24.64 18.464C24.64 18.304 24.64 18.144 24.672 17.952C24.704 17.28 24.768 16.384 24.544 15.488C24.384 14.848 23.968 13.728 22.688 13.408C21.472 13.088 20.416 14.048 20.064 14.56L19.296 15.936C17.952 16.192 16.032 16.32 15.2 15.968C15.68 14.304 16.128 11.04 15.136 9.28001C13.76 6.81601 11.52 6.30401 10.304 6.56001C9.69599 6.40001 8.79999 5.72801 8.51199 5.47201C8.38399 5.37601 8.22399 5.34401 8.09599 5.37601C7.93599 5.40801 7.83999 5.53601 7.77599 5.66401C7.48799 6.43201 7.80799 7.42401 8.15999 8.06401C7.16799 8.67201 4.99199 10.144 4.99199 10.944C4.95999 11.84 5.72799 13.984 6.91199 14.048Z" fill="#62C048"/>
</svg>
