<svg width="39" height="40" viewBox="0 0 39 40" fill="none" xmlns="http://www.w3.org/2000/svg">
<path d="M31.598 4.32267C31.5096 19.7966 19.3012 32.3181 4.21411 32.4087C8.87116 38.4482 16.4958 41.208 23.8171 39.5048C31.1387 37.8013 36.8558 31.9376 38.5167 24.4282C40.1773 16.9193 37.4865 9.09913 31.598 4.32267Z" fill="#83D8F4"/>
<path d="M31.598 4.32267C23.8404 -1.98152 12.7074 -1.32224 5.70887 5.85575C-1.28967 13.0337 -1.93247 24.4522 4.21411 32.4087C19.3012 32.3181 31.5096 19.7966 31.598 4.32267Z" fill="#91DCF5"/>
<path d="M28.9131 8.27684C27.4271 8.96646 26.607 8.15293 25.5512 8.96646C24.2468 9.97327 23.7225 12.5802 24.8788 14.4834C25.6973 15.8242 27.1648 16.1606 28.8218 16.5317C30.4988 13.0031 31.4377 9.15435 31.5786 5.23149C31.0897 6.55112 30.1396 7.63672 28.9131 8.27684Z" fill="#00BB77"/>
<path d="M31.8104 4.49372C31.7496 4.74526 31.6712 4.99174 31.5756 5.23149C31.4351 9.15435 30.4958 13.0031 28.8192 16.5317L28.9131 16.5522C31.2194 17.0694 32.1137 15.9731 34.2921 16.5522C35.2638 16.8381 36.1756 17.3058 36.9816 17.9315C37.9156 18.7218 38.606 19.7733 38.9685 20.9583C38.9832 20.6404 38.9987 20.3225 38.9987 20.0003C39.0039 13.9844 36.3627 8.28728 31.8104 4.49372Z" fill="#00A468"/>
<path d="M18.8274 28.2757C20.1587 29.7859 20.5084 32.3376 19.4998 33.7926C18.6797 34.9789 17.5569 34.5718 16.8103 35.8615C16.2456 36.938 16.2456 38.2333 16.8103 39.3095C16.9141 39.5042 17.0378 39.6863 17.1797 39.8537C17.9495 39.949 18.7243 39.9975 19.4998 39.9991C26.6103 40.0012 33.1574 36.0318 36.5843 29.6418C35.3614 28.8027 33.4509 27.6925 31.6026 27.5861C29.7082 27.3962 27.808 27.8834 26.2236 28.9653C24.2402 30.455 23.8502 32.5652 22.8617 32.4134C22.1624 32.31 21.7792 31.1513 21.5169 30.3445C20.9165 28.5074 21.2421 27.2642 21.2366 26.2338C20.4155 26.9076 19.5576 27.5325 18.6669 28.1053C18.7362 28.175 18.7933 28.2366 18.8274 28.2757Z" fill="#00A468"/>
<path d="M20.8446 24.8276C20.1522 23.8346 18.8612 23.6484 17.4827 23.4484C14.5916 23.0345 13.4553 24.3104 12.1037 23.4484C11.0022 22.6961 10.4671 21.3246 10.7589 20.0003C11.3239 18.2695 13.7915 18.8558 16.8103 16.5522C17.7854 15.8145 20.1049 14.0423 20.1722 11.7249C20.2395 9.45606 18.0812 8.80786 17.4827 6.208C17.2227 5.08804 17.7079 2.51243 18.9377 0.0223354C11.6995 0.232116 5.17146 4.53985 1.98457 11.2084V11.2148C1.55318 13.6648 1.56467 16.1754 2.01806 18.6211C2.42844 21.4004 2.80469 23.9242 4.70756 26.2068C5.54146 27.2136 6.82547 28.7447 8.74181 28.9653C10.8666 29.2067 13.6704 27.8137 14.1208 27.5861C14.7233 27.1803 15.4186 26.9426 16.1379 26.8965C17.0992 26.9594 18.0021 27.3908 18.6669 28.1053C19.5576 27.5325 20.4155 26.9076 21.2366 26.2338C21.2592 25.7337 21.1216 25.2398 20.8446 24.8276Z" fill="#00BB77"/>
<path d="M14.1208 5.51838C14.1208 8.56643 8.74181 15.8626 8.74181 15.8626C8.74181 15.8626 5.38683 11.3111 3.97478 7.89769C3.6271 7.15083 3.41961 6.3437 3.36281 5.51838C3.36281 2.47168 5.77128 0.00145845 8.74181 0.00145845C11.7127 0.00145845 14.1208 2.47168 14.1208 5.51838Z" fill="#FF5023"/>
<path d="M10.7589 4.82876C10.7589 5.97128 9.85576 6.89761 8.74181 6.89761C7.62786 6.89761 6.72468 5.97128 6.72468 4.82876C6.72468 3.68625 7.62786 2.75992 8.74181 2.75992C9.85576 2.75992 10.7589 3.68625 10.7589 4.82876Z" fill="#F1F2F2"/>
<path d="M34.292 24.138C34.1443 25.4314 33.7343 26.6786 33.0885 27.7999C31.8547 30.127 30.4594 32.3602 28.9131 34.4822C28.9131 34.4822 27.1514 32.0894 25.6385 29.4687C25.081 28.5181 24.5823 27.5322 24.146 26.5173C23.7983 25.7704 23.5909 24.9633 23.5341 24.138C23.5341 21.0913 25.9425 18.6211 28.9131 18.6211C31.8839 18.6211 34.292 21.0913 34.292 24.138Z" fill="#FFCD00"/>
<path d="M30.9302 23.4484C30.9302 24.5909 30.027 25.5172 28.9131 25.5172C27.7991 25.5172 26.8959 24.5909 26.8959 23.4484C26.8959 22.3059 27.7991 21.3795 28.9131 21.3795C30.027 21.3795 30.9302 22.3059 30.9302 23.4484Z" fill="#F1F2F2"/>
</svg>
