<svg width="41" height="40" viewBox="0 0 41 40" fill="none" xmlns="http://www.w3.org/2000/svg">
<path d="M31.4375 5.07846C30.9062 4.90659 30.3437 4.79721 29.7656 4.73471C22.3906 3.98471 20.5 11.016 20.5 11.016C20.5 11.016 18.6093 3.98471 11.25 4.73471C4.4062 5.42221 0.812451 14.0472 5.29683 21.2972C6.57808 23.3753 8.57808 25.6097 10.7187 27.6878C15.0156 31.8597 19.8593 35.3285 20.5 35.3285C21.4687 35.3285 31.8281 27.5628 35.7031 21.3128C39.8125 14.6722 37.1562 6.87534 31.4375 5.07846Z" fill="#FF5AEC"/>
<path opacity="0.15" d="M35.7031 21.2974C39.8125 14.6724 37.1562 6.87549 31.4375 5.07861C31.4375 5.07861 37.1406 10.5786 33.8594 16.2349C30.5781 21.8911 19.6094 28.9224 18.0625 29.1724C16.7812 29.3755 13.5312 29.0786 10.7188 27.7036C15.0156 31.8755 19.8594 35.3442 20.5 35.3442C21.4688 35.3286 31.8281 27.563 35.7031 21.2974Z" fill="black"/>
<path opacity="0.3" d="M9.91101 11.5033C11.2969 9.86165 11.747 7.96232 10.9163 7.261C10.0856 6.55969 8.2887 7.32197 6.90276 8.9636C5.51683 10.6052 5.06673 12.5046 5.89744 13.2059C6.72814 13.9072 8.52508 13.1449 9.91101 11.5033Z" fill="white"/>
</svg>
