<svg width="24" height="24" viewBox="0 0 24 24" fill="none" xmlns="http://www.w3.org/2000/svg">
<path d="M19.5487 14.7523V11.0206C19.5487 10.6301 19.2307 10.3136 18.8384 10.3136H0.710293C0.31804 10.3136 0 10.6301 0 11.0206V14.7523C0 18.0496 1.83342 20.9489 4.58597 22.5869H0.710717C0.318464 22.5869 0.0004238 22.9034 0.0004238 23.2939C0.0004238 23.6844 0.31837 24.001 0.710717 24.001H18.8385C19.2307 24.001 19.5488 23.6844 19.5488 23.2939C19.5488 22.9034 19.2308 22.5869 18.8385 22.5869H14.9628C17.7152 20.9489 19.5487 18.0496 19.5487 14.7523Z" fill="#DF305F"/>
<path d="M20.9692 11.5861V13.0314C21.8962 13.2852 22.5795 14.1312 22.5795 15.1335C22.5795 16.2492 21.733 17.1713 20.6459 17.2982C20.5192 17.7889 20.3569 18.2662 20.1616 18.7278H20.3893C22.3802 18.7278 24 17.1154 24 15.1335C24 13.3481 22.6853 11.8632 20.9692 11.5861Z" fill="#DF305F"/>
<path d="M14.7275 4.62645C15.6543 3.88119 15.8642 3.0845 15.8769 2.54736C15.9081 1.24062 14.8715 0.284375 14.7532 0.179703C14.4601 -0.0797974 14.0112 -0.0536412 13.7504 0.238156C13.4897 0.529953 13.516 0.976812 13.8091 1.23636C13.8158 1.24227 14.4725 1.85389 14.4568 2.51384C14.4484 2.86545 14.245 3.19667 13.8349 3.52644C12.908 4.2717 12.6982 5.06839 12.6855 5.60553C12.6542 6.91227 13.6909 7.86852 13.8091 7.97324C13.9448 8.09333 14.1141 8.15249 14.2828 8.15249C14.4785 8.15249 14.6733 8.0728 14.8133 7.916C15.074 7.62421 15.0491 7.17856 14.756 6.91906C14.5696 6.75031 14.0894 6.19049 14.1057 5.63375C14.116 5.28411 14.3194 4.95458 14.7275 4.62645Z" fill="#DF305F"/>
<path d="M10.2209 4.62645C11.1477 3.88119 11.3575 3.0845 11.3703 2.54736C11.4015 1.24062 10.3649 0.284375 10.2466 0.179703C9.95353 -0.0797974 9.50453 -0.0536412 9.2438 0.238156C8.98311 0.529953 9.00939 0.976812 9.30252 1.23636C9.30916 1.24227 9.96586 1.85389 9.95014 2.51384C9.94175 2.86545 9.73833 3.19667 9.32823 3.52644C8.40142 4.2717 8.19159 5.06839 8.17883 5.60553C8.14766 6.91227 9.18423 7.86852 9.30252 7.97324C9.43818 8.09333 9.60752 8.15249 9.77614 8.15249C9.97184 8.15249 10.1667 8.0728 10.3067 7.916C10.5674 7.62421 10.5425 7.17856 10.2494 6.91906C10.063 6.75031 9.58275 6.19049 9.59909 5.63375C9.6094 5.28411 9.81278 4.95458 10.2209 4.62645Z" fill="#DF305F"/>
<path d="M5.71418 4.6265C6.64099 3.88124 6.85082 3.08455 6.86358 2.54741C6.89475 1.24067 5.85818 0.284421 5.73984 0.17975C5.44676 -0.0797506 4.99781 -0.0535943 4.73708 0.238203C4.47639 0.529953 4.50267 0.976859 4.7958 1.23641C4.80244 1.24231 5.45915 1.85394 5.44342 2.51389C5.43504 2.8655 5.23161 3.19672 4.82151 3.52649C3.8947 4.27175 3.68487 5.06844 3.67211 5.60558C3.64098 6.91227 4.67756 7.86852 4.79585 7.97324C4.93118 8.09305 5.09971 8.15197 5.26763 8.15197C5.46338 8.15197 5.65829 8.07186 5.79866 7.91478C6.05934 7.62299 6.03307 7.17613 5.73994 6.91658C5.7333 6.91068 5.07659 6.29905 5.09232 5.6391C5.10066 5.28749 5.30408 4.95622 5.71418 4.6265Z" fill="#DF305F"/>
</svg>
