<svg width="24" height="24" viewBox="0 0 24 24" fill="none" xmlns="http://www.w3.org/2000/svg">
<path d="M12.4286 6.25043H0.428571C0.191878 6.25043 0 6.43432 0 6.66116V7.07188C0 7.29872 0.191878 7.48261 0.428571 7.48261H12.4286C12.6653 7.48261 12.8571 7.29872 12.8571 7.07188V6.66116C12.8571 6.43432 12.6653 6.25043 12.4286 6.25043Z" fill="#DF305F"/>
<path d="M11.4249 4.83465C11.3895 4.76626 11.3349 4.70872 11.2672 4.66858C11.1995 4.62843 11.1213 4.60728 11.0417 4.60752H1.81543C1.7358 4.60728 1.65769 4.62843 1.58996 4.66858C1.52224 4.70872 1.46762 4.76626 1.43229 4.83465L1.122 5.42898H11.7351L11.4249 4.83465Z" fill="#DF305F"/>
<path d="M2.90571 23.501H8.88257C8.51586 23.1937 8.22192 22.8149 8.02043 22.3898C7.81894 21.9648 7.71456 21.5034 7.71428 21.0366V20.6259C7.71493 20.4464 7.75672 20.2693 7.8367 20.1071C7.91669 19.9448 8.03291 19.8014 8.17714 19.687C7.87894 19.3846 7.71325 18.984 7.71429 18.5679C7.71533 18.1518 7.88301 17.752 8.18271 17.451C8.05177 17.3502 7.94326 17.2253 7.86361 17.0836C7.78396 16.942 7.73478 16.7864 7.719 16.6262C7.70417 16.4581 7.72596 16.2889 7.78299 16.1294C7.84002 15.9698 7.93104 15.8233 8.05029 15.6992C7.83512 15.4744 7.7153 15.1807 7.71428 14.8757C7.71641 13.6999 8.1231 12.5577 8.87134 11.6259C9.61959 10.6942 10.6676 10.0249 11.853 9.7219L11.9661 8.30407H0.891428L2.05157 22.7424C2.06896 22.9483 2.16636 23.1406 2.32452 23.281C2.48268 23.4215 2.69008 23.5 2.90571 23.501Z" fill="#DF305F"/>
<path d="M24 20.6259C24 20.517 23.9548 20.4125 23.8745 20.3355C23.7941 20.2584 23.6851 20.2152 23.5714 20.2152H9C8.88634 20.2152 8.77733 20.2584 8.69695 20.3355C8.61658 20.4125 8.57143 20.517 8.57143 20.6259V21.0366C8.57211 21.69 8.84325 22.3164 9.32533 22.7785C9.80742 23.2405 10.4611 23.5003 11.1429 23.501H21.4286C22.1103 23.5003 22.764 23.2405 23.2461 22.7785C23.7282 22.3164 23.9993 21.69 24 21.0366V20.6259Z" fill="#DF305F"/>
<path d="M6.85714 3.78607V1.56814C6.8571 1.47894 6.82676 1.39217 6.7707 1.32096C6.71464 1.24975 6.63592 1.19796 6.54643 1.17343L4.11429 0.506409C4.07349 0.495802 4.03 0.50085 3.99303 0.520483C3.95606 0.540115 3.92853 0.572785 3.91629 0.611555L3.76886 1.10648C3.75734 1.14564 3.76247 1.18757 3.7831 1.22312C3.80374 1.25868 3.83821 1.28496 3.879 1.29624L5.69143 1.7924C5.78052 1.8173 5.85877 1.86924 5.91441 1.94042C5.97006 2.0116 6.00009 2.09817 6 2.1871V3.78607H6.85714Z" fill="#DF305F"/>
<path d="M23.1429 17.7508H21.822C21.6645 17.751 21.5116 17.8023 21.3883 17.8962L20.2517 18.7661C20.069 18.9068 19.8417 18.9835 19.6074 18.9835C19.373 18.9835 19.1457 18.9068 18.963 18.7661L17.826 17.8958C17.7026 17.802 17.5498 17.7509 17.3923 17.7508H9.42857C9.20124 17.7508 8.98322 17.8373 8.82248 17.9914C8.66173 18.1454 8.57143 18.3544 8.57143 18.5722C8.57143 18.7901 8.66173 18.9991 8.82248 19.1531C8.98322 19.3072 9.20124 19.3937 9.42857 19.3937H23.1429C23.3702 19.3937 23.5882 19.3072 23.7489 19.1531C23.9097 18.9991 24 18.7901 24 18.5722C24 18.3544 23.9097 18.1454 23.7489 17.9914C23.5882 17.8373 23.3702 17.7508 23.1429 17.7508Z" fill="#DF305F"/>
<path d="M19.2857 10.3577H13.2857C12.0359 10.3591 10.8376 10.8356 9.95384 11.6826C9.07006 12.5295 8.5729 13.6779 8.57143 14.8757C8.57143 14.9846 8.61658 15.0891 8.69695 15.1661C8.77733 15.2432 8.88634 15.2864 9 15.2864H23.5714C23.6851 15.2864 23.7941 15.2432 23.8745 15.1661C23.9548 15.0891 24 14.9846 24 14.8757C23.9985 13.6779 23.5014 12.5295 22.6176 11.6826C21.7338 10.8356 20.5356 10.3591 19.2857 10.3577ZM13.2857 13.6435H12.8571C12.7435 13.6435 12.6345 13.6002 12.5541 13.5232C12.4737 13.4462 12.4286 13.3417 12.4286 13.2328C12.4286 13.1239 12.4737 13.0194 12.5541 12.9424C12.6345 12.8653 12.7435 12.8221 12.8571 12.8221H13.2857C13.3994 12.8221 13.5084 12.8653 13.5888 12.9424C13.6691 13.0194 13.7143 13.1239 13.7143 13.2328C13.7143 13.3417 13.6691 13.4462 13.5888 13.5232C13.5084 13.6002 13.3994 13.6435 13.2857 13.6435ZM14.5714 12.0006H14.1429C14.0292 12.0006 13.9202 11.9573 13.8398 11.8803C13.7594 11.8033 13.7143 11.6988 13.7143 11.5899C13.7143 11.481 13.7594 11.3765 13.8398 11.2995C13.9202 11.2224 14.0292 11.1792 14.1429 11.1792H14.5714C14.6851 11.1792 14.7941 11.2224 14.8745 11.2995C14.9548 11.3765 15 11.481 15 11.5899C15 11.6988 14.9548 11.8033 14.8745 11.8803C14.7941 11.9573 14.6851 12.0006 14.5714 12.0006ZM17.1429 13.2328H16.7143C16.6006 13.2328 16.4916 13.1895 16.4112 13.1125C16.3309 13.0355 16.2857 12.931 16.2857 12.8221C16.2857 12.7131 16.3309 12.6087 16.4112 12.5316C16.4916 12.4546 16.6006 12.4113 16.7143 12.4113H17.1429C17.2565 12.4113 17.3655 12.4546 17.4459 12.5316C17.5263 12.6087 17.5714 12.7131 17.5714 12.8221C17.5714 12.931 17.5263 13.0355 17.4459 13.1125C17.3655 13.1895 17.2565 13.2328 17.1429 13.2328Z" fill="#DF305F"/>
<path d="M9 16.1079C8.94472 16.1075 8.88991 16.1177 8.83883 16.138C8.78774 16.1582 8.74141 16.1881 8.70257 16.2258C8.65629 16.2679 8.62065 16.3197 8.59837 16.377C8.57609 16.4344 8.56775 16.4959 8.574 16.5568C8.59218 16.6635 8.65035 16.7603 8.73761 16.8288C8.82487 16.8974 8.93522 16.9332 9.048 16.9293H17.3923C17.7442 16.9298 18.0856 17.0445 18.3609 17.2546L19.4974 18.1241C19.5286 18.148 19.5674 18.1611 19.6074 18.1611C19.6473 18.1611 19.6861 18.148 19.7173 18.1241L20.8534 17.255C21.1286 17.0448 21.47 16.93 21.822 16.9293H23.5714C23.6267 16.9298 23.6814 16.9196 23.7325 16.8994C23.7835 16.8791 23.8297 16.8492 23.8684 16.8115C23.9144 16.7696 23.9498 16.7182 23.9721 16.6613C23.9944 16.6044 24.0029 16.5434 23.997 16.4829C23.9793 16.3758 23.9214 16.2786 23.8342 16.2096C23.747 16.1405 23.6365 16.1043 23.5234 16.1079H9Z" fill="#DF305F"/>
</svg>
