<svg width="24" height="26" viewBox="0 0 24 26" fill="none" xmlns="http://www.w3.org/2000/svg">
<path d="M12.6397 25.2714L7.94917 23.6926C7.76871 23.6318 7.64711 23.4611 7.64711 23.2688V16.117C7.6469 15.8779 7.83296 15.6811 8.06925 15.6706C10.0032 15.5422 11.8054 14.6348 13.0724 13.1518C14.0332 12.0887 14.5114 10.6681 14.3917 9.23316L13.5757 4.07243H11.1795C10.9356 4.07243 10.7379 3.87254 10.7379 3.626C10.7379 3.37946 10.9356 3.17957 11.1795 3.17957H13.4344L13.0106 0.501003H1.40056L0.976689 3.17957H9.4133C9.65714 3.17957 9.85485 3.37946 9.85485 3.626C9.85485 3.87254 9.65714 4.07243 9.4133 4.07243H0.835688L0.0161952 9.25453C-0.0965632 10.6834 0.383145 12.0955 1.34084 13.1523C2.60791 14.6352 4.41011 15.5427 6.34403 15.6711C6.58033 15.6815 6.76639 15.8784 6.76617 16.1175V23.2688C6.76617 23.4611 6.64458 23.6318 6.46412 23.6926L1.7688 25.273C1.65583 25.3109 1.56247 25.3931 1.50965 25.501H12.9015C12.8476 25.3926 12.7534 25.31 12.6397 25.2714Z" fill="#DF305F"/>
<path d="M21.3793 13.8938H20.4078L19.319 24.0318C19.2826 24.4078 19.4052 24.7818 19.6562 25.0617C19.9074 25.3414 20.2638 25.501 20.6374 25.501H21.1497C21.5239 25.501 21.8808 25.3408 22.1319 25.0602C22.3831 24.7794 22.5051 24.4043 22.4676 24.0278L21.3793 13.8938Z" fill="#DF305F"/>
<path d="M23.9755 6.86608L23.2177 0.871565C23.183 0.656416 22.998 0.499033 22.7824 0.500995H22.2001L22.6597 7.16668C22.6681 7.28504 22.6293 7.4021 22.5521 7.49169C22.4752 7.58128 22.3659 7.636 22.2486 7.64384H22.2182C21.9858 7.6445 21.7926 7.4627 21.7766 7.22815L21.3144 0.500995H20.425L20.0104 7.2251C19.996 7.46074 19.8024 7.64428 19.5689 7.64384H19.5406C19.4236 7.63643 19.3143 7.58237 19.2366 7.49344C19.1592 7.4045 19.1198 7.2881 19.1273 7.16973L19.5406 0.500995H19.0044C18.7858 0.500995 18.6002 0.662738 18.5679 0.881374L17.8124 6.85671C17.7139 7.50107 17.8991 8.15676 18.3193 8.65158C18.7393 9.14618 19.3522 9.43043 19.9971 9.42955C20.2437 9.42846 20.4457 9.62683 20.452 9.87598V11.2153H21.3351V9.87598C21.3351 9.62945 21.5328 9.42955 21.7766 9.42955H21.7898C22.4329 9.43021 23.0443 9.14749 23.4643 8.65485C23.8843 8.16242 24.071 7.50913 23.9755 6.86608Z" fill="#DF305F"/>
<path d="M20.452 12.1081H21.3351V13.001H20.452V12.1081Z" fill="#DF305F"/>
</svg>
