<svg width="32" height="32" viewBox="0 0 32 32" fill="none" xmlns="http://www.w3.org/2000/svg">
<path d="M2.04004 17.3499C2.40002 17.2898 2.81 17.0598 3.08002 16.73H5.38562C5.61945 17.3335 6.20184 17.7632 6.888 17.7632C6.92041 17.7632 6.95068 17.7556 6.98267 17.7537C7.24231 19.095 7.80597 20.3699 8.60571 21.4446C8.58344 21.4646 8.55835 21.4795 8.53699 21.5007C8.1626 21.8752 8.01605 22.3872 8.08624 22.8738L6.34003 24.6199C5.92004 24.5698 5.47003 24.7 5.17004 24.9099C4.52002 25.3599 4.48004 26.3699 4.67004 27.2998C5.63 27.5 6.64001 27.48 7.09003 26.8298C7.30005 26.5298 7.43005 26.0798 7.38 25.6499L8.95001 24.0798L8.95306 24.0769C9.55878 24.3831 10.3144 24.2903 10.8204 23.7842C10.861 23.7437 10.8916 23.6975 10.927 23.6538C12.0069 24.3694 13.2158 24.8425 14.4773 25.0559C14.4686 25.1238 14.4566 25.1909 14.4566 25.261C14.4566 25.8596 14.7861 26.3762 15.27 26.655V28.9199C14.9301 29.1799 14.71 29.5999 14.64 29.95C14.5 30.73 15.19 31.4697 15.98 32C16.8 31.4697 17.5 30.7397 17.36 29.95C17.29 29.5999 17.07 29.1799 16.73 28.9199V26.7324C17.2925 26.48 17.6859 25.9177 17.6859 25.261C17.6859 25.1824 17.6736 25.1067 17.6627 25.031C18.9666 24.7913 20.1953 24.2771 21.2677 23.5166C21.316 23.5825 21.3645 23.6484 21.4241 23.708C21.8684 24.1523 22.5057 24.2769 23.0649 24.095L24.62 25.6499C24.57 26.0798 24.7 26.5298 24.91 26.8298C25.36 27.48 26.37 27.5098 27.3 27.3198C27.51 26.3699 27.4901 25.3599 26.83 24.9099C26.53 24.7 26.08 24.5698 25.66 24.6199L24.0969 23.0569C24.2747 22.4998 24.1496 21.8667 23.7075 21.4246C23.6497 21.3667 23.5854 21.3201 23.5215 21.2727C24.3162 20.136 24.8398 18.8442 25.0592 17.4897C25.1558 17.5078 25.2546 17.5198 25.3565 17.5198C25.9454 17.5198 26.4556 17.2012 26.7376 16.73H28.9301C29.19 17.0598 29.6 17.2898 29.96 17.3499C30.7401 17.5 31.48 16.8098 32 16.0098C31.47 15.1899 30.7401 14.5 29.96 14.6399C29.6 14.7 29.19 14.9299 28.9301 15.2598H26.8351C26.5859 14.6897 26.0185 14.2905 25.3565 14.2905C25.2433 14.2905 25.1331 14.3025 25.0266 14.3247C24.7889 13.0449 24.2786 11.825 23.5068 10.7168C23.5762 10.6667 23.6451 10.6152 23.7075 10.553C24.147 10.1133 24.2729 9.48511 24.0997 8.93018L25.66 7.36987C26.08 7.42993 26.53 7.28979 26.83 7.08984C27.4901 6.63989 27.52 5.62988 27.33 4.69995C26.37 4.48975 25.36 4.50977 24.91 5.16992C24.7 5.46973 24.57 5.91992 24.62 6.33984L23.0745 7.8855C22.513 7.69897 21.871 7.82251 21.4241 8.26929C21.361 8.33252 21.309 8.4021 21.2585 8.47217C20.1639 7.70337 18.92 7.19165 17.5984 6.95874C17.6042 6.90332 17.6152 6.84937 17.6152 6.79272C17.6152 6.16479 17.2532 5.62671 16.73 5.35962V3.06982C17.07 2.80981 17.29 2.3999 17.36 2.03979C17.5 1.25977 16.81 0.520019 16.02 0C15.2 0.529785 14.5 1.25 14.64 2.03979C14.71 2.3999 14.9301 2.80981 15.27 3.06982V5.36011C14.7474 5.62744 14.3859 6.16528 14.3859 6.79272C14.3859 6.84839 14.3967 6.90088 14.4022 6.95508C13.0985 7.18677 11.8598 7.67993 10.7765 8.43677L10.6924 8.49561C10.6765 8.47827 10.6651 8.45825 10.6483 8.44165C10.2217 8.01489 9.61743 7.88428 9.07483 8.03491L7.38 6.33984C7.43005 5.91992 7.30005 5.46973 7.09003 5.16992C6.64001 4.50977 5.63 4.47998 4.70001 4.66992C4.49005 5.61987 4.52002 6.62988 5.17004 7.08984C5.47003 7.28979 5.92004 7.42993 6.34003 7.36987L7.99542 9.02539C7.78455 9.5979 7.90497 10.2651 8.36481 10.7251C8.38708 10.7473 8.41321 10.7629 8.4364 10.7834C7.66913 11.9011 7.1546 13.1746 6.92615 14.5378C6.91315 14.5374 6.90106 14.5339 6.888 14.5339C6.32495 14.5339 5.83044 14.823 5.54144 15.2598H3.08002C2.81 14.9299 2.40002 14.7 2.04004 14.6399C1.26001 14.4897 0.520019 15.1799 0 15.98C0.530029 16.7998 1.26001 17.5 2.04004 17.3499ZM10.4222 11.4521L13.2401 14.27C13.0501 14.5698 12.91 14.9099 12.83 15.2598H8.83514C8.86144 15.158 8.92495 13.3273 10.4222 11.4521ZM16 14.73C16.7136 14.73 17.26 15.3231 17.26 16C17.26 16.6617 16.7203 17.2598 16 17.2598C15.3188 17.2598 14.7401 16.7032 14.7401 16C14.7401 15.3296 15.2783 14.73 16 14.73ZM21.578 11.4519C22.4718 12.5843 22.9966 13.7854 23.1631 15.2598H19.17C19.09 14.9099 18.95 14.5698 18.76 14.27L21.578 11.4519ZM21.5803 20.5403L18.7599 17.72C18.96 17.4202 19.1 17.0898 19.17 16.73H23.1624C23.1351 16.83 23.039 18.8296 21.5803 20.5403ZM10.4194 20.5405C9.62612 19.605 8.99715 18.2242 8.83832 16.73H12.83C12.9 17.0898 13.04 17.4199 13.2401 17.7197L10.4194 20.5405ZM11.4529 21.5769L14.27 18.7598C14.57 18.95 14.91 19.0999 15.27 19.1699V23.1602C13.9072 23.0225 12.5803 22.4891 11.4529 21.5769ZM16.73 23.1602V19.1699C17.09 19.0999 17.4301 18.95 17.73 18.7598L20.5472 21.5771C19.4432 22.4518 18.2089 23.0111 16.73 23.1602ZM20.5398 10.4202L17.73 13.23C17.4301 13.0398 17.09 12.8999 16.73 12.8198V8.83984C19.1132 9.08113 20.4397 10.362 20.5398 10.4202ZM15.27 8.8396V12.8198C14.91 12.8999 14.57 13.0398 14.27 13.23L11.4591 10.4192C11.6358 10.3177 12.9104 9.08134 15.27 8.8396Z" fill="#228CFD"/>
</svg>
