<svg width="32" height="32" viewBox="0 0 32 32" fill="none" xmlns="http://www.w3.org/2000/svg">
<path d="M16.9396 3.77088L18.8197 3.77784L18.8267 1.89566L16.9455 1.8887L16.9516 0.00602296L15.0694 0L15.0634 1.88174L13.1802 1.87477L13.1733 3.75695L15.0574 3.76391L15.0499 6.1374L6.58911 12.7179V31.9999H11.2946V25.7482C11.2946 23.0931 13.4547 20.933 16.1098 20.933C18.7649 20.933 20.925 23.0931 20.925 25.7482V31.9999H25.4109V12.7179L16.9321 6.12335L16.9396 3.77088ZM18.8233 14.1193C18.8233 15.6761 17.5567 16.9426 16 16.9426C14.4432 16.9426 13.1767 15.6761 13.1767 14.1193C13.1767 12.5626 14.4432 11.2961 16 11.2961C17.5567 11.2961 18.8233 12.5626 18.8233 14.1193Z" fill="#228CFD"/>
<path d="M16.1098 22.8152C14.4925 22.8152 13.1768 24.131 13.1768 25.7482V32H19.0429V25.7482C19.0429 24.131 17.7271 22.8152 16.1098 22.8152Z" fill="#228CFD"/>
<path d="M0.00146484 32H4.7069V18.2551L0.00146484 22.1461V32Z" fill="#228CFD"/>
<path d="M27.293 18.2551V32H31.9984V22.1461L27.293 18.2551Z" fill="#228CFD"/>
<path d="M15.9999 15.0604C16.5197 15.0604 16.941 14.6391 16.941 14.1193C16.941 13.5996 16.5197 13.1782 15.9999 13.1782C15.4802 13.1782 15.0588 13.5996 15.0588 14.1193C15.0588 14.6391 15.4802 15.0604 15.9999 15.0604Z" fill="#228CFD"/>
</svg>
