<svg width="32" height="32" viewBox="0 0 32 32" fill="none" xmlns="http://www.w3.org/2000/svg">
<path d="M20.2037 7.5347L17.2364 4.56734L20.2037 1.59998L23.1711 4.56734L20.2037 7.5347ZM25.1493 6.16638C25.1493 6.16638 23.6655 8.63998 19.709 8.63998C15.7525 8.63998 14.269 5.67262 14.269 5.67262C14.269 5.67262 15.2581 12.1017 20.6981 12.1017C26.1381 12.1017 28.1167 9.13438 28.1167 9.13438L25.1493 6.16638ZM7.8399 15.0685C10.8073 12.5958 13.7746 14.0793 13.7746 15.0685C13.7746 16.0576 12.2911 16.5523 11.302 16.5523H8.3343V20.5088H11.3017C13.7743 20.5088 14.269 21.9923 14.269 23.4761C14.269 24.96 13.2799 26.4435 10.3125 26.4435C4.37782 26.4435 2.3999 19.0249 2.3999 19.0249C2.3999 25.9488 5.86134 30.4 10.8069 30.4C15.7525 30.4 17.7308 25.9488 17.7308 24.4653C17.7308 22.9817 16.7417 21.0032 16.7417 21.0032C21.6873 21.0032 23.1711 16.0576 24.6546 16.0576C26.1381 16.0576 27.1276 17.5414 27.1276 19.52C27.1276 21.4985 25.6437 24.4653 23.1711 24.4653C20.6985 24.4653 18.7199 21.9923 18.7199 21.9923C18.7199 22.9814 19.2146 28.4217 23.1711 28.4217C27.1276 28.4217 29.5999 22.9814 29.5999 20.0141C29.5999 17.0467 27.622 13.0902 23.6655 13.0902C19.709 13.0902 16.2473 19.52 15.2581 19.52C14.269 19.52 13.7743 18.5309 13.7743 18.5309C13.7743 18.5309 16.2473 15.5632 16.2473 14.08C16.2473 12.5968 14.7634 9.62846 11.3017 9.62846C7.8399 9.62846 4.87222 12.1011 4.87222 12.1011L7.8399 15.0685Z" fill="#228CFD"/>
</svg>
