<svg width="32" height="32" viewBox="0 0 32 32" fill="none" xmlns="http://www.w3.org/2000/svg">
<g clip-path="url(#clip0_290_519)">
<path d="M30.0385 15.9922L21.8182 10.5122V7.26489C21.8182 7.10268 21.7644 6.94634 21.6655 6.81836L16.5745 0.272904C16.2989 -0.0805512 15.7018 -0.0805512 15.4261 0.272904L10.3352 6.81836C10.2356 6.94634 10.1817 7.10275 10.1817 7.26489V10.5122L1.96146 15.9922H0V17.4467H1.45452V31.2649C1.45452 31.6671 1.78036 31.9922 2.18182 31.9922H10.9091H13.0909V24.7194C13.0909 23.1151 14.3956 21.8103 16 21.8103C17.6044 21.8103 18.9092 23.1151 18.9092 24.7194V31.9922H21.091H29.8182C30.2197 31.9922 30.5455 31.6671 30.5455 31.2649V17.4467H32.0001V15.9922H30.0385ZM8.72728 21.8103H7.27276V27.6285H5.81816V21.8103H4.36364V20.3558H5.81816V18.174H7.27269V20.3558H8.72728V21.8103ZM17.4546 18.174C17.4546 18.9776 16.8036 19.6285 16 19.6285C15.1964 19.6285 14.5455 18.9776 14.5455 18.174V15.2649C14.5455 14.4612 15.1964 13.8103 16 13.8103C16.8036 13.8103 17.4546 14.4613 17.4546 15.2649V18.174ZM18.1819 11.6285H13.8182V7.99218C13.8182 6.78925 14.7971 5.81036 16 5.81036C17.203 5.81036 18.1819 6.78925 18.1819 7.99218V11.6285ZM27.6364 21.8103H26.1818V27.6285H24.7273V21.8103H23.2728V20.3558H24.7273V18.174H26.1818V20.3558H27.6364V21.8103Z" fill="#228CFD"/>
</g>
<defs>
<clipPath id="clip0_290_519">
<rect width="32" height="32" fill="white"/>
</clipPath>
</defs>
</svg>
