<svg width="32" height="32" viewBox="0 0 32 32" fill="none" xmlns="http://www.w3.org/2000/svg">
<path d="M15.6738 1.11266C15.6161 1.11077 15.5561 1.11641 15.4941 1.13209C13.7466 1.58163 12.502 3.17985 12.5 5.00026C12.5 6.85778 13.7796 8.41961 15.501 8.86548V9.84889C14.3944 11.5736 11.9131 12.726 9.5918 14.1799C8.4073 14.9219 7.26558 15.7567 6.41015 16.8489C5.55476 17.9411 5 19.3041 5 21.0013C5 23.2563 5.64783 24.8899 6.36719 25.9983H25.6309C26.3508 24.8899 27.002 23.2563 27.002 21.0013C27.002 19.3041 26.4433 17.9411 25.5879 16.8489C24.7325 15.7567 23.5947 14.9219 22.4102 14.1799C20.0916 12.7276 17.6096 11.5762 16.501 9.85477V8.99732C18.3091 8.99543 19.8867 7.77696 20.3545 6.03932C20.6066 5.55032 19.9992 5.07211 19.583 5.43187C19.1367 5.79761 18.577 6.00063 18 6.00125C16.6134 6.00125 15.501 4.88497 15.501 3.49833C15.4853 2.90425 15.7394 2.3397 16.0654 1.91826C16.349 1.55169 16.0777 1.12768 15.6738 1.11266ZM6.49805 26.9983C5.6757 26.9983 5.00001 27.679 5.00001 28.5013V30.4974C4.9995 30.63 5.05169 30.7574 5.14508 30.8515C5.23848 30.9457 5.36545 30.9989 5.49805 30.9994H26.5C26.566 30.9996 26.6314 30.9868 26.6924 30.9617C26.7534 30.9365 26.8088 30.8996 26.8555 30.8529C26.9022 30.8062 26.9391 30.7508 26.9643 30.6898C26.9894 30.6288 27.0022 30.5634 27.002 30.4974V28.5013C27.002 27.679 26.3223 26.9983 25.5 26.9983H6.49805Z" fill="#228CFD"/>
</svg>
