<svg width="42" height="42" viewBox="0 0 42 42" fill="none" xmlns="http://www.w3.org/2000/svg">
<rect x="1" y="1" width="40" height="40" rx="20" fill="#DF305F"/>
<rect x="1" y="1" width="40" height="40" rx="20" stroke="white" stroke-width="2"/>
<path d="M28.875 16.125H12C11.7016 16.125 11.4155 16.2435 11.2045 16.4545C10.9935 16.6655 10.875 16.9516 10.875 17.25V21.75C10.8785 24.1146 11.7733 26.3909 13.3809 28.125H12C11.7016 28.125 11.4155 28.2435 11.2045 28.4545C10.9935 28.6655 10.875 28.9516 10.875 29.25C10.875 29.5484 10.9935 29.8345 11.2045 30.0455C11.4155 30.2565 11.7016 30.375 12 30.375H28.5C28.7984 30.375 29.0845 30.2565 29.2955 30.0455C29.5065 29.8345 29.625 29.5484 29.625 29.25C29.625 28.9516 29.5065 28.6655 29.2955 28.4545C29.0845 28.2435 28.7984 28.125 28.5 28.125H27.1191C27.9274 27.252 28.5636 26.2342 28.9941 25.125C30.0673 25.094 31.0862 24.6458 31.8342 23.8755C32.5822 23.1053 33.0004 22.0737 33 21V20.25C32.9988 19.1564 32.5638 18.1079 31.7904 17.3346C31.0171 16.5612 29.9686 16.1262 28.875 16.125ZM27.375 21.75C27.3726 23.0728 27.0033 24.3691 26.3082 25.4946C25.613 26.62 24.6193 27.5306 23.4375 28.125H17.0625C15.8807 27.5306 14.887 26.62 14.1918 25.4946C13.4967 24.3691 13.1274 23.0728 13.125 21.75V18.375H27.375V21.75ZM30.75 21C30.7497 21.3744 30.6372 21.7401 30.4272 22.0501C30.2172 22.36 29.9192 22.6 29.5716 22.7391C29.6073 22.4106 29.6251 22.0804 29.625 21.75V18.5325C29.9592 18.6784 30.2437 18.9185 30.4435 19.2236C30.6433 19.5286 30.7498 19.8853 30.75 20.25V21ZM15.375 13.5V11.25C15.375 10.9516 15.4935 10.6655 15.7045 10.4545C15.9155 10.2435 16.2016 10.125 16.5 10.125C16.7984 10.125 17.0845 10.2435 17.2955 10.4545C17.5065 10.6655 17.625 10.9516 17.625 11.25V13.5C17.625 13.7984 17.5065 14.0845 17.2955 14.2955C17.0845 14.5065 16.7984 14.625 16.5 14.625C16.2016 14.625 15.9155 14.5065 15.7045 14.2955C15.4935 14.0845 15.375 13.7984 15.375 13.5ZM19.125 13.5V11.25C19.125 10.9516 19.2435 10.6655 19.4545 10.4545C19.6655 10.2435 19.9516 10.125 20.25 10.125C20.5484 10.125 20.8345 10.2435 21.0455 10.4545C21.2565 10.6655 21.375 10.9516 21.375 11.25V13.5C21.375 13.7984 21.2565 14.0845 21.0455 14.2955C20.8345 14.5065 20.5484 14.625 20.25 14.625C19.9516 14.625 19.6655 14.5065 19.4545 14.2955C19.2435 14.0845 19.125 13.7984 19.125 13.5ZM22.875 13.5V11.25C22.875 10.9516 22.9935 10.6655 23.2045 10.4545C23.4155 10.2435 23.7016 10.125 24 10.125C24.2984 10.125 24.5845 10.2435 24.7955 10.4545C25.0065 10.6655 25.125 10.9516 25.125 11.25V13.5C25.125 13.7984 25.0065 14.0845 24.7955 14.2955C24.5845 14.5065 24.2984 14.625 24 14.625C23.7016 14.625 23.4155 14.5065 23.2045 14.2955C22.9935 14.0845 22.875 13.7984 22.875 13.5Z" fill="white"/>
</svg>
