<svg width="50" height="50" viewBox="0 0 50 50" fill="none" xmlns="http://www.w3.org/2000/svg">
<rect x="1" y="1" width="48" height="48" rx="24" fill="#62C048"/>
<rect x="1" y="1" width="48" height="48" rx="24" stroke="white" stroke-width="2"/>
<path d="M34.75 31H31.75V28.75H34C34.114 28.75 34.2264 28.724 34.3288 28.674C34.4313 28.624 34.5209 28.5514 34.5911 28.4615C34.6612 28.3717 34.7099 28.2671 34.7336 28.1556C34.7572 28.0441 34.7551 27.9287 34.7275 27.8181L31.7275 15.8181C31.6869 15.656 31.5932 15.512 31.4614 15.4092C31.3296 15.3063 31.1672 15.2505 31 15.2505C30.8328 15.2505 30.6704 15.3063 30.5386 15.4092C30.4068 15.512 30.3131 15.656 30.2725 15.8181L27.2725 27.8181C27.2449 27.9287 27.2428 28.0441 27.2664 28.1556C27.2901 28.2671 27.3388 28.3717 27.4089 28.4615C27.4791 28.5514 27.5687 28.624 27.6712 28.674C27.7736 28.724 27.886 28.75 28 28.75H30.25V31H24.25V29.5H25C25.1989 29.5 25.3897 29.421 25.5303 29.2803C25.671 29.1397 25.75 28.9489 25.75 28.75C25.75 28.5511 25.671 28.3603 25.5303 28.2197C25.3897 28.079 25.1989 28 25 28H24.25V26.5H25C25.1989 26.5 25.3897 26.421 25.5303 26.2803C25.671 26.1397 25.75 25.9489 25.75 25.75C25.75 25.5511 25.671 25.3603 25.5303 25.2197C25.3897 25.079 25.1989 25 25 25H16.75C16.5511 25 16.3603 25.079 16.2197 25.2197C16.079 25.3603 16 25.5511 16 25.75C16 25.9489 16.079 26.1397 16.2197 26.2803C16.3603 26.421 16.5511 26.5 16.75 26.5H17.5V28H16.75C16.5511 28 16.3603 28.079 16.2197 28.2197C16.079 28.3603 16 28.5511 16 28.75C16 28.9489 16.079 29.1397 16.2197 29.2803C16.3603 29.421 16.5511 29.5 16.75 29.5H17.5V31H15.25C15.0511 31 14.8603 31.079 14.7197 31.2197C14.579 31.3603 14.5 31.5511 14.5 31.75C14.5 31.9489 14.579 32.1397 14.7197 32.2803C14.8603 32.421 15.0511 32.5 15.25 32.5H34.75C34.9489 32.5 35.1397 32.421 35.2803 32.2803C35.421 32.1397 35.5 31.9489 35.5 31.75C35.5 31.5511 35.421 31.3603 35.2803 31.2197C35.1397 31.079 34.9489 31 34.75 31ZM22.75 31H19V29.5H22.75V31ZM22.75 28H19V26.5H22.75V28ZM23.875 22C24.3942 22 24.9017 21.8461 25.3334 21.5576C25.7651 21.2692 26.1015 20.8592 26.3002 20.3795C26.4989 19.8999 26.5508 19.3721 26.4496 18.8629C26.3483 18.3537 26.0983 17.886 25.7312 17.5188C25.364 17.1517 24.8963 16.9017 24.3871 16.8004C23.8779 16.6992 23.3501 16.7511 22.8705 16.9498C22.3908 17.1485 21.9808 17.485 21.6924 17.9166C21.404 18.3483 21.25 18.8558 21.25 19.375C21.25 20.0712 21.5266 20.7389 22.0188 21.2312C22.5111 21.7234 23.1788 22 23.875 22ZM23.875 18.25C24.0975 18.25 24.315 18.316 24.5 18.4396C24.685 18.5632 24.8292 18.7389 24.9144 18.9445C24.9995 19.1501 25.0218 19.3763 24.9784 19.5945C24.935 19.8127 24.8278 20.0132 24.6705 20.1705C24.5132 20.3278 24.3127 20.435 24.0945 20.4784C23.8762 20.5218 23.65 20.4995 23.4445 20.4144C23.2389 20.3292 23.0632 20.185 22.9396 20C22.816 19.815 22.75 19.5975 22.75 19.375C22.75 19.0766 22.8685 18.7905 23.0795 18.5795C23.2905 18.3685 23.5766 18.25 23.875 18.25Z" fill="white"/>
</svg>
