<svg width="50" height="50" viewBox="0 0 50 50" fill="none" xmlns="http://www.w3.org/2000/svg">
<rect x="1" y="1" width="48" height="48" rx="24" fill="#DF305F"/>
<rect x="1" y="1" width="48" height="48" rx="24" stroke="white" stroke-width="2"/>
<path d="M20.6659 18.1563C21.1675 17.5319 21.2912 17.11 21.2397 16.9244C21.2003 16.7847 21.0138 16.7125 21.0119 16.7125C20.8421 16.6567 20.6978 16.5421 20.6051 16.3894C20.5123 16.2367 20.4771 16.0559 20.5058 15.8795C20.5345 15.7031 20.6252 15.5428 20.7617 15.4274C20.8981 15.312 21.0713 15.2491 21.25 15.25C21.3256 15.2501 21.4008 15.2615 21.4731 15.2838C21.5669 15.3128 22.4022 15.5959 22.6722 16.48C22.9028 17.2366 22.6206 18.1159 21.8341 19.0947C21.3325 19.7191 21.2088 20.1409 21.2603 20.3266C21.2997 20.4663 21.4825 20.5366 21.4844 20.5375C21.6538 20.5932 21.7979 20.7075 21.8907 20.8598C21.9835 21.0121 22.019 21.1926 21.9907 21.3687C21.9625 21.5448 21.8724 21.7051 21.7367 21.8208C21.6009 21.9365 21.4284 22.0001 21.25 22C21.1744 21.9999 21.0992 21.9885 21.0269 21.9663C20.9331 21.9372 20.0978 21.6541 19.8278 20.77C19.5972 20.0134 19.8794 19.1341 20.6659 18.1563ZM23.5778 20.7709C23.8478 21.655 24.6831 21.9381 24.7769 21.9672C24.8492 21.9892 24.9244 22.0002 25 22C25.1784 22.0001 25.3509 21.9365 25.4867 21.8208C25.6224 21.7051 25.7125 21.5448 25.7407 21.3687C25.769 21.1926 25.7335 21.0121 25.6407 20.8598C25.5479 20.7075 25.4038 20.5932 25.2344 20.5375C25.2344 20.5375 25.0469 20.4663 25.0103 20.3266C24.9587 20.1391 25.0825 19.7191 25.5841 19.0947C26.3706 18.1159 26.6528 17.2366 26.4222 16.48C26.1522 15.5959 25.3178 15.3128 25.2231 15.2838C25.1508 15.2615 25.0756 15.2501 25 15.25C24.8218 15.2497 24.6493 15.3129 24.5135 15.4283C24.3776 15.5436 24.2873 15.7035 24.2587 15.8794C24.23 16.0553 24.2649 16.2356 24.3571 16.3881C24.4493 16.5406 24.5928 16.6553 24.7619 16.7116C24.7619 16.7116 24.9494 16.7838 24.9897 16.9234C25.0413 17.1109 24.9175 17.5309 24.4159 18.1553C23.6294 19.1341 23.3472 20.0134 23.5778 20.77V20.7709ZM27.3278 20.7709C27.5978 21.655 28.4331 21.9381 28.5269 21.9672C28.5992 21.9892 28.6744 22.0002 28.75 22C28.9284 22.0001 29.1009 21.9365 29.2367 21.8208C29.3724 21.7051 29.4625 21.5448 29.4907 21.3687C29.519 21.1926 29.4835 21.0121 29.3907 20.8598C29.2979 20.7075 29.1538 20.5932 28.9844 20.5375C28.9844 20.5375 28.7969 20.4663 28.7603 20.3266C28.7087 20.1391 28.8325 19.7191 29.3341 19.0947C30.1206 18.1159 30.4028 17.2366 30.1722 16.48C29.9022 15.5959 29.0678 15.3128 28.9731 15.2838C28.9008 15.2615 28.8256 15.2501 28.75 15.25C28.5718 15.2497 28.3993 15.3129 28.2635 15.4283C28.1276 15.5436 28.0373 15.7035 28.0087 15.8794C27.98 16.0553 28.0149 16.2356 28.1071 16.3881C28.1993 16.5406 28.3428 16.6553 28.5119 16.7116C28.5119 16.7116 28.6994 16.7838 28.7397 16.9234C28.7913 17.1109 28.6675 17.5309 28.1659 18.1553C27.3794 19.1341 27.0972 20.0134 27.3278 20.77V20.7709ZM34 23.5H16C15.8011 23.5 15.6103 23.579 15.4697 23.7197C15.329 23.8603 15.25 24.0511 15.25 24.25C15.2533 26.0336 15.7441 27.7824 16.6695 29.3072C17.5948 30.832 18.9194 32.0748 20.5 32.9013V33.25C20.5 33.6478 20.658 34.0294 20.9393 34.3107C21.2206 34.592 21.6022 34.75 22 34.75H28C28.3978 34.75 28.7794 34.592 29.0607 34.3107C29.342 34.0294 29.5 33.6478 29.5 33.25V32.9013C31.0806 32.0748 32.4052 30.832 33.3305 29.3072C34.2558 27.7824 34.7467 26.0336 34.75 24.25C34.75 24.0511 34.671 23.8603 34.5303 23.7197C34.3897 23.579 34.1989 23.5 34 23.5Z" fill="white"/>
</svg>
